<?xml version="1.0" encoding="UTF-8" standalone="no"?>
<!DOCTYPE svg PUBLIC "-//W3C//DTD SVG 1.1//EN" "http://www.w3.org/Graphics/SVG/1.1/DTD/svg11.dtd">
<svg version="1.1" xmlns="http://www.w3.org/2000/svg" xmlns:xlink="http://www.w3.org/1999/xlink" preserveAspectRatio="xMidYMid meet" viewBox="0 0 640 640" width="640" height="640"><defs><path d="M320 13.6C143.27 13.6 0 156.87 0 333.6C0 510.33 143.27 653.6 320 653.6C496.73 653.6 640 510.33 640 333.6C640 156.87 496.73 13.6 320 13.6Z" id="a26L4Deh6"></path><path d="M-138.27 141.81C-138.27 121.85 -88.74 117.62 -69.16 117.62C-29.46 117.62 -26.83 94.89 6.13 94.89C35.11 94.89 49.86 118.36 76.84 118.36C134.74 118.36 147.64 51.66 203.97 51.66C261.29 51.66 258.36 121.29 311.7 121.29C338.81 121.29 501.73 126.41 501.73 141.82C373.73 141.82 -10.27 141.81 -138.27 141.81Z" id="a4I7EricoJ"></path><path d="M141.67 226.93C141.67 216.6 216.54 200.45 257.49 200.45C338.26 200.45 313.04 213.69 363.85 213.69C421.75 213.69 434.97 154.72 523.07 154.72C619.36 154.72 604.25 212.4 663.34 212.4C688.79 212.4 701.54 206.79 737.71 206.79C758.7 206.79 781.67 216.64 781.67 226.97C653.67 226.96 269.67 226.94 141.67 226.93Z" id="e1Hyzkuhcc"></path><path d="M681.9 242.02C686.15 280.41 672.94 306.1 673.69 321.57C675.38 356.06 686.44 386.9 678.25 405.71C629.96 517.05 465.37 492.42 445.76 530.72C440.72 541.61 426.26 575.96 426.26 575.96C418.61 567.11 399.26 506.49 399.26 482.83C399.26 459.18 427.62 394.12 483.27 347.7C512.69 323.17 566.74 189.24 636.29 189.24C657.27 189.24 680.39 228.41 681.9 242.02Z" id="j2uEob3NNL"></path><path d="M409.39 636.1C415.53 611.6 475.44 401.98 625.24 305.1" id="a3cPnwT3qH"></path><path d="M573.52 345.88C574.69 335.67 580.71 314.46 573.52 283.1" id="b2swP5Tjmg"></path><path d="M537.18 384.51C538.42 367.95 537.18 344.43 532.05 331.07" id="d4dyXbySZ2"></path><path d="M503.59 429.26C528.55 425.25 553.94 426.78 578.41 433.75" id="b5c8zjF0A"></path><path d="M137.62 576.27C163.55 553.84 28.15 345.85 -18.71 390.02C-66.62 435.25 111.68 598.7 137.62 576.27Z" id="a3sLSWWGbh"></path><path d="M1.47 412.68C21.58 429.89 113.72 529.19 137.62 576.27" id="fxs119zj"></path><path d="M151.56 581.45C105.84 591.65 21.4 258.83 73.36 244.86C163.9 220.54 197.27 571.25 151.56 581.45Z" id="a5nL0VJQO"></path><path d="M94.03 303.46C101.4 324.6 142.69 473.5 151.56 581.45" id="cEFMMk1w"></path><path d="M145.39 426.21L142.29 418.88L135.19 402.39C130.62 391.93 128.08 386.12 127.58 384.96C127.58 384.96 120.24 375.36 118.36 373.7C111.49 367.69 104.72 363.1 96.64 363.1C91.67 363.1 73.09 364.52 73.05 370.43C73.05 379.19 99.07 412.38 118.15 428.5C126.47 428.65 145.39 428.65 145.39 428.65C145.39 428.32 145.39 427.51 145.39 426.21Z" id="a8dujHRjE9"></path><path d="M141.46 428.65C114.97 390.18 60.93 179.91 74.78 102C104.3 130.45 136.68 228.56 151.95 311.4C152.76 316.79 153.41 322.26 153.89 327.78C154.3 331.37 156.37 349.28 160.09 381.51L161.64 428.65C150.87 428.65 144.15 428.65 141.46 428.65Z" id="c7lHID2Pq"></path><path d="M159.53 428.65C150.6 414.92 147.74 374.28 147.67 359.12C147.52 330.81 149.82 309.96 162.62 278.82C175.41 247.68 171.96 196 189.01 161.18C206.05 126.35 217.26 116.65 237.42 116.65C257.59 116.65 263.98 178.49 263.93 194.05C263.7 256.76 242.79 265.63 230.06 295.6C220.81 317.33 220.08 335.11 217.28 345.27C202.23 399.95 190.04 420.61 181 428.65" id="a4JjFdOQ1j"></path><path d="M164.41 424.11C164.67 317.06 224.31 156.29 237.05 132.19" id="a7yBYimScs"></path><path d="M167.68 375.53C161.08 361.93 155.08 323.36 155.98 313.35" id="a4k5BGYjm"></path><path d="M150.78 419.49C141.43 388.08 97.08 235.3 80.49 122.73" id="bCUoowXPz"></path><path d="M181 428.65L208.76 428.65L185.52 592.4L123.38 592.4L100.51 428.65L181 428.65" id="g3FT5BOSWF"></path><path d="M82.08 373.77C95.62 375.53 112.66 376.7 124.75 392.21" id="m2pCEROKOk"></path><path d="M421.28 382.37C413.99 382.37 408.08 387.57 408.08 393.98C408.08 400.39 413.99 405.58 421.28 405.58C428.58 405.58 434.49 400.39 434.49 393.98C434.49 387.57 428.58 382.37 421.28 382.37Z" id="d1qrfXPELt"></path><path d="M436.43 390.02C447.58 386.89 454.94 390.22 458.51 400.02C470.69 433.52 477.46 452.13 478.81 455.85C482.38 465.65 478.59 472.12 467.44 475.25C449.39 480.32 439.37 483.14 437.36 483.71C426.21 486.84 418.85 483.5 415.29 473.7C403.1 440.21 396.33 421.6 394.98 417.88C391.42 408.08 395.21 401.61 406.36 398.47C424.4 393.4 434.43 390.59 436.43 390.02Z" id="aLgZ77gy"></path><path d="M235.61 252.04C233.16 252.21 182.44 227.29 174.64 220.31C166.85 213.33 153.26 200.16 150.87 200.16C148.48 200.16 147.29 202.73 147.29 204.73C147.29 218.83 226.38 284.18 243.05 284.18C247.99 284.18 262.42 276.79 264.04 274.5C265.65 272.22 246.46 246.37 246.46 246.37C244.63 247.45 238.06 251.87 235.61 252.04Z" id="cefCkSboR"></path><path d="M262.32 585.01C261.87 586.84 259.71 597.7 257.48 599.2C253.46 601.83 228.01 595.23 227.07 593.94C226.14 592.65 225.96 590.26 227.22 589.84C228.48 589.41 239.21 589.6 240.81 589.03C242.41 588.46 245.51 584.32 245.39 581.75" id="bX2OnWfXe"></path><path d="M423.85 570.19C424.88 571.83 431.44 581.23 430.87 583.61C429.84 587.87 405.77 597.8 404.09 597.34C402.42 596.89 400.49 595.23 401.12 594.19C401.75 593.16 409.94 587.1 410.71 585.68C411.49 584.26 410.71 579.42 408.66 577.57" id="b437jcRMeG"></path><path d="M374.78 446.19C378.72 451.66 424.03 566.23 424.03 570.27C424.03 574.32 412.21 579.51 409.26 578.36C406.31 577.21 313.38 443.58 311.75 435.5C310.12 427.43 360.25 311.05 360.25 311.05C367.89 319.28 376.4 406.36 374.78 446.19Z" id="a2GMKdF43"></path><path d="M241.45 581.28C243.94 586.02 261.92 588.38 266.36 586.09C270.8 583.81 309.73 461.64 312.57 456.63C315.41 451.62 389.62 352.9 359.38 304.96C355.51 298.98 299.74 300.98 299.74 300.98C298.13 304.86 241.45 577.64 241.45 581.28Z" id="g892tPe5D"></path><path d="M334.48 189.75C331.65 180.06 320.79 180.35 316.72 180.35C296.14 180.35 287.21 195.63 284.54 215.61C274.85 222.22 243.6 242.45 243.08 246.24C242.49 250.6 253.19 274.47 264.07 277.95C270.04 279.92 280.4 263.76 286.23 260.77C290.15 284.89 296.96 305.99 299.87 307.28C315.33 314.2 359.45 309.77 360.87 308.31C362.29 306.85 359.45 296.08 358.98 291.94C362.32 286.55 392.99 277.41 393.23 271.4C393.46 265.39 355.94 189.75 334.48 189.75Z" id="a1bU2sYIDV"></path><path d="M274.74 122.14C278.89 117.37 292.62 115.86 293.03 121.28C293.43 126.7 285.5 145.48 279.66 145.04C277.74 144.88 271.32 137.86 274.74 122.14Z" id="mQW9BzOjT"></path><path d="M308.36 188.24C308.84 191.34 328.33 189.24 327.81 185.89C327.59 184.5 326.52 177.58 324.58 165.12L305.21 167.46C306.89 178.54 307.94 185.47 308.36 188.24Z" id="asIwC6O6"></path><path d="M326.5 177.53C326.21 175.67 320.4 169.88 316.82 171.4C321.18 169.44 322.68 164.31 324.52 165.12C324.91 167.6 326.11 175.05 326.5 177.53Z" id="c8OE6omkj"></path><path d="M303.84 129.75C289.76 129.75 278.35 139.78 278.35 152.15C278.35 164.52 289.76 174.55 303.84 174.55C317.92 174.55 329.33 164.52 329.33 152.15C329.33 139.78 317.92 129.75 303.84 129.75Z" id="a9V2vX8qv"></path><path d="M282.99 157.69C283.16 158.76 281.4 159.85 279.07 160.13C276.74 160.41 274.72 159.78 274.55 158.71C274.38 157.65 276.14 156.56 278.47 156.28C280.8 156 282.83 156.63 282.99 157.69Z" id="b7FDGs6Xki"></path><path d="M309.48 154.5C309.65 155.56 307.89 156.65 305.56 156.93C303.23 157.22 301.21 156.58 301.04 155.52C300.87 154.45 302.63 153.36 304.96 153.08C307.29 152.8 309.32 153.43 309.48 154.5Z" id="b2vwr9FbD"></path><path d="M288.43 152.96C287.8 154.05 284.39 158.63 288.93 159.85" id="i3wrkVXXX"></path><path d="M298.17 163.67C299.85 163.07 301.21 161.96 302.02 160.53" id="f1uyIKYnJs"></path><path d="M386.84 108.73C411.13 108.73 430.31 99.16 457.55 99.16C469.97 99.16 501.73 108.42 501.73 139.81C501.73 157.58 490.43 192.91 442.14 192.91C400.77 192.91 393.55 177.53 376.78 177.53C359.11 177.53 326.23 184.85 320.69 165.03C319.48 159.77 318.13 153.31 314.8 148.01C296.35 142.33 290.36 142.84 281.63 138.32C269.01 133.04 268.41 103.85 313.11 103.85C346.84 103.85 371.05 108.73 386.84 108.73Z" id="a3mE7tsdxB"></path><path d="M319.4 146.4C316.3 146.4 313.78 148.61 313.78 151.34C313.78 154.07 316.3 156.28 319.4 156.28C322.5 156.28 325.02 154.07 325.02 151.34C325.02 148.61 322.5 146.4 319.4 146.4Z" id="bhEkzjGPZ"></path><path d="M358.82 292.25C357.66 293.19 353.98 297.79 352.72 296.59C351.46 295.4 306.13 202.95 321 193.79" id="dCglAI21e"></path><path d="M286.26 260.77C285.65 257.75 282.55 225.51 284.54 215.61" id="hhPfRWoC1"></path><path d="M412.46 358.86C415.81 365.15 419.9 368.91 422.14 371.56C427.21 377.72 422.8 388.91 419.67 389.55C416.54 390.19 407.94 388.29 399.82 374.77C397.73 371.31 399.24 362.45 397.04 360.15C394.85 357.86 358.22 298.84 357.64 289.6C357.06 280.36 391.15 271 391.15 271C392.5 273.03 409.1 352.58 412.46 358.86Z" id="c2V8INkJXc"></path><path d="M147.59 186.51C147.59 186.51 147.59 186.51 147.59 186.51C155.55 201.58 159.97 209.94 160.85 211.62C160.85 211.62 160.85 211.62 160.85 211.62C158.95 212.4 157.89 212.83 157.68 212.91C157.68 212.91 157.68 212.91 157.68 212.91C149.72 197.85 145.3 189.48 144.41 187.81C144.41 187.81 144.41 187.81 144.41 187.81C146.32 187.03 147.38 186.6 147.59 186.51Z" id="b38TKrOxjM"></path></defs><g><g><g><use xlink:href="#a26L4Deh6" opacity="1" fill="#faefe9" fill-opacity="1"></use><g><use xlink:href="#a26L4Deh6" opacity="1" fill-opacity="0" stroke="#000000" stroke-width="1" stroke-opacity="0"></use></g></g><g><use xlink:href="#a4I7EricoJ" opacity="1" fill="#ffffff" fill-opacity="1"></use><g><use xlink:href="#a4I7EricoJ" opacity="1" fill-opacity="0" stroke="#000000" stroke-width="1" stroke-opacity="0"></use></g></g><g><use xlink:href="#e1Hyzkuhcc" opacity="1" fill="#ffffff" fill-opacity="1"></use><g><use xlink:href="#e1Hyzkuhcc" opacity="1" fill-opacity="0" stroke="#000000" stroke-width="1" stroke-opacity="0"></use></g></g><g><g><use xlink:href="#j2uEob3NNL" opacity="1" fill="#73e5e2" fill-opacity="1"></use><g><use xlink:href="#j2uEob3NNL" opacity="1" fill-opacity="0" stroke="#000000" stroke-width="1" stroke-opacity="0"></use></g></g><g><use xlink:href="#a3cPnwT3qH" opacity="1" fill="#000000" fill-opacity="0"></use><g><use xlink:href="#a3cPnwT3qH" opacity="1" fill-opacity="0" stroke="#fbdc8e" stroke-width="2" stroke-opacity="1"></use></g></g><g><use xlink:href="#b2swP5Tjmg" opacity="1" fill="#000000" fill-opacity="0"></use><g><use xlink:href="#b2swP5Tjmg" opacity="1" fill-opacity="0" stroke="#fbdc8e" stroke-width="2" stroke-opacity="1"></use></g></g><g><use xlink:href="#d4dyXbySZ2" opacity="1" fill="#000000" fill-opacity="0"></use><g><use xlink:href="#d4dyXbySZ2" opacity="1" fill-opacity="0" stroke="#fbdc8e" stroke-width="2" stroke-opacity="1"></use></g></g><g><use xlink:href="#b5c8zjF0A" opacity="1" fill="#000000" fill-opacity="0"></use><g><use xlink:href="#b5c8zjF0A" opacity="1" fill-opacity="0" stroke="#fbdc8e" stroke-width="2" stroke-opacity="1"></use></g></g></g><g><g><use xlink:href="#a3sLSWWGbh" opacity="1" fill="#73e5e2" fill-opacity="1"></use><g><use xlink:href="#a3sLSWWGbh" opacity="1" fill-opacity="0" stroke="#000000" stroke-width="1" stroke-opacity="0"></use></g></g><g><use xlink:href="#fxs119zj" opacity="1" fill="#000000" fill-opacity="0"></use><g><use xlink:href="#fxs119zj" opacity="1" fill-opacity="0" stroke="#fbdc8e" stroke-width="2" stroke-opacity="1"></use></g></g><g><use xlink:href="#a5nL0VJQO" opacity="1" fill="#50b89d" fill-opacity="1"></use><g><use xlink:href="#a5nL0VJQO" opacity="1" fill-opacity="0" stroke="#000000" stroke-width="1" stroke-opacity="0"></use></g></g><g><use xlink:href="#cEFMMk1w" opacity="1" fill="#000000" fill-opacity="0"></use><g><use xlink:href="#cEFMMk1w" opacity="1" fill-opacity="0" stroke="#fbdc8e" stroke-width="2" stroke-opacity="1"></use></g></g></g><g><g><use xlink:href="#a8dujHRjE9" opacity="1" fill="#1f161e" fill-opacity="1"></use><g><use xlink:href="#a8dujHRjE9" opacity="1" fill-opacity="0" stroke="#000000" stroke-width="1" stroke-opacity="0"></use></g></g><g><use xlink:href="#c7lHID2Pq" opacity="1" fill="#fbdc8e" fill-opacity="1"></use><g><use xlink:href="#c7lHID2Pq" opacity="1" fill-opacity="0" stroke="#000000" stroke-width="1" stroke-opacity="0"></use></g></g><g><use xlink:href="#a4JjFdOQ1j" opacity="1" fill="#73e5e2" fill-opacity="1"></use><g><use xlink:href="#a4JjFdOQ1j" opacity="1" fill-opacity="0" stroke="#000000" stroke-width="1" stroke-opacity="0"></use></g></g><g><use xlink:href="#a7yBYimScs" opacity="1" fill="#000000" fill-opacity="0"></use><g><use xlink:href="#a7yBYimScs" opacity="1" fill-opacity="0" stroke="#ffffff" stroke-width="0.4" stroke-opacity="1"></use></g></g><g><use xlink:href="#a4k5BGYjm" opacity="1" fill="#000000" fill-opacity="0"></use><g><use xlink:href="#a4k5BGYjm" opacity="1" fill-opacity="0" stroke="#ffffff" stroke-width="0.4" stroke-opacity="1"></use></g></g><g><use xlink:href="#bCUoowXPz" opacity="1" fill="#000000" fill-opacity="0"></use><g><use xlink:href="#bCUoowXPz" opacity="1" fill-opacity="0" stroke="#ffffff" stroke-width="0.4" stroke-opacity="1"></use></g></g><g><use xlink:href="#g3FT5BOSWF" opacity="1" fill="#b37361" fill-opacity="1"></use><g><use xlink:href="#g3FT5BOSWF" opacity="1" fill-opacity="0" stroke="#000000" stroke-width="1" stroke-opacity="0"></use></g></g><g><use xlink:href="#m2pCEROKOk" opacity="1" fill="#000000" fill-opacity="0"></use><g><use xlink:href="#m2pCEROKOk" opacity="1" fill-opacity="0" stroke="#ffffff" stroke-width="0.4" stroke-opacity="1"></use></g></g></g><g><g><use xlink:href="#d1qrfXPELt" opacity="1" fill="#000000" fill-opacity="0"></use><g><use xlink:href="#d1qrfXPELt" opacity="1" fill-opacity="0" stroke="#969696" stroke-width="2" stroke-opacity="1"></use></g></g><g><use xlink:href="#aLgZ77gy" opacity="1" fill="#d8d8d8" fill-opacity="1"></use><g><use xlink:href="#aLgZ77gy" opacity="1" fill-opacity="0" stroke="#000000" stroke-width="1" stroke-opacity="0"></use></g></g><g><use xlink:href="#cefCkSboR" opacity="1" fill="#f8cdba" fill-opacity="1"></use><g><use xlink:href="#cefCkSboR" opacity="1" fill-opacity="0" stroke="#000000" stroke-width="1" stroke-opacity="0"></use></g></g><g><use xlink:href="#bX2OnWfXe" opacity="1" fill="#1f161e" fill-opacity="1"></use><g><use xlink:href="#bX2OnWfXe" opacity="1" fill-opacity="0" stroke="#000000" stroke-width="1" stroke-opacity="0"></use></g></g><g><use xlink:href="#b437jcRMeG" opacity="1" fill="#1f161e" fill-opacity="1"></use><g><use xlink:href="#b437jcRMeG" opacity="1" fill-opacity="0" stroke="#000000" stroke-width="1" stroke-opacity="0"></use></g></g><g><use xlink:href="#a2GMKdF43" opacity="1" fill="#1f161e" fill-opacity="1"></use><g><use xlink:href="#a2GMKdF43" opacity="1" fill-opacity="0" stroke="#000000" stroke-width="1" stroke-opacity="0"></use></g></g><g><use xlink:href="#g892tPe5D" opacity="1" fill="#55b79d" fill-opacity="1"></use><g><use xlink:href="#g892tPe5D" opacity="1" fill-opacity="0" stroke="#000000" stroke-width="1" stroke-opacity="0"></use></g></g><g><use xlink:href="#a1bU2sYIDV" opacity="1" fill="#73e5e2" fill-opacity="1"></use><g><use xlink:href="#a1bU2sYIDV" opacity="1" fill-opacity="0" stroke="#000000" stroke-width="1" stroke-opacity="0"></use></g></g><g><use xlink:href="#mQW9BzOjT" opacity="1" fill="#1f161e" fill-opacity="1"></use><g><use xlink:href="#mQW9BzOjT" opacity="1" fill-opacity="0" stroke="#000000" stroke-width="1" stroke-opacity="0"></use></g></g><g><use xlink:href="#asIwC6O6" opacity="1" fill="#f8cdba" fill-opacity="1"></use><g><use xlink:href="#asIwC6O6" opacity="1" fill-opacity="0" stroke="#000000" stroke-width="1" stroke-opacity="0"></use></g></g><g><use xlink:href="#c8OE6omkj" opacity="1" fill="#000000" fill-opacity="1"></use><g><use xlink:href="#c8OE6omkj" opacity="1" fill-opacity="0" stroke="#000000" stroke-width="1" stroke-opacity="0"></use></g></g><g><use xlink:href="#a9V2vX8qv" opacity="1" fill="#f8cdba" fill-opacity="1"></use><g><use xlink:href="#a9V2vX8qv" opacity="1" fill-opacity="0" stroke="#000000" stroke-width="1" stroke-opacity="0"></use></g></g><g><use xlink:href="#b7FDGs6Xki" opacity="1" fill="#fa9e9f" fill-opacity="1"></use><g><use xlink:href="#b7FDGs6Xki" opacity="1" fill-opacity="0" stroke="#000000" stroke-width="1" stroke-opacity="0"></use></g></g><g><use xlink:href="#b2vwr9FbD" opacity="1" fill="#fa9e9f" fill-opacity="1"></use><g><use xlink:href="#b2vwr9FbD" opacity="1" fill-opacity="0" stroke="#000000" stroke-width="1" stroke-opacity="0"></use></g></g><g><use xlink:href="#i3wrkVXXX" opacity="1" fill="#000000" fill-opacity="0"></use><g><use xlink:href="#i3wrkVXXX" opacity="1" fill-opacity="0" stroke="#1f161e" stroke-width="0.69" stroke-opacity="1"></use></g></g><g><use xlink:href="#f1uyIKYnJs" opacity="1" fill="#000000" fill-opacity="0"></use><g><use xlink:href="#f1uyIKYnJs" opacity="1" fill-opacity="0" stroke="#1f161e" stroke-width="0.69" stroke-opacity="1"></use></g></g><g><use xlink:href="#a3mE7tsdxB" opacity="1" fill="#1f161e" fill-opacity="1"></use><g><use xlink:href="#a3mE7tsdxB" opacity="1" fill-opacity="0" stroke="#000000" stroke-width="1" stroke-opacity="0"></use></g></g><g><use xlink:href="#bhEkzjGPZ" opacity="1" fill="#f8cdba" fill-opacity="1"></use><g><use xlink:href="#bhEkzjGPZ" opacity="1" fill-opacity="0" stroke="#000000" stroke-width="1" stroke-opacity="0"></use></g></g><g><use xlink:href="#dCglAI21e" opacity="1" fill="#000000" fill-opacity="0"></use><g><use xlink:href="#dCglAI21e" opacity="1" fill-opacity="0" stroke="#1f161e" stroke-width="0.55" stroke-opacity="1"></use></g></g><g><use xlink:href="#hhPfRWoC1" opacity="1" fill="#000000" fill-opacity="0"></use><g><use xlink:href="#hhPfRWoC1" opacity="1" fill-opacity="0" stroke="#1f161e" stroke-width="0.55" stroke-opacity="1"></use></g></g><g><use xlink:href="#c2V8INkJXc" opacity="1" fill="#f8cdba" fill-opacity="1"></use><g><use xlink:href="#c2V8INkJXc" opacity="1" fill-opacity="0" stroke="#000000" stroke-width="1" stroke-opacity="0"></use></g></g><g><use xlink:href="#b38TKrOxjM" opacity="1" fill="#1f161e" fill-opacity="1"></use><g><use xlink:href="#b38TKrOxjM" opacity="1" fill-opacity="0" stroke="#000000" stroke-width="1" stroke-opacity="0"></use></g></g></g></g></g></svg>