<?xml version="1.0" encoding="UTF-8" standalone="no"?>
<!DOCTYPE svg PUBLIC "-//W3C//DTD SVG 1.1//EN" "http://www.w3.org/Graphics/SVG/1.1/DTD/svg11.dtd">
<svg version="1.1" xmlns="http://www.w3.org/2000/svg" xmlns:xlink="http://www.w3.org/1999/xlink" preserveAspectRatio="xMidYMid meet" viewBox="0 0 640 640" width="640" height="640"><defs><path d="M320 0C143.27 0 0 143.27 0 320C0 496.73 143.27 640 320 640C496.73 640 640 496.73 640 320C640 143.27 496.73 0 320 0Z" id="dDeH9hy5h"></path><path d="M-97.44 136.66C-97.44 116.7 -47.91 112.47 -28.34 112.47C11.36 112.47 13.99 89.75 46.96 89.75C75.94 89.75 90.68 113.21 117.66 113.21C175.57 113.21 188.46 46.51 244.8 46.51C302.11 46.51 299.19 116.14 352.52 116.14C379.64 116.14 542.56 121.26 542.56 136.67C414.56 136.67 30.56 136.66 -97.44 136.66Z" id="dZbqkm2CK"></path><path d="M136.21 248.14C136.21 235.25 201.64 215.09 237.43 215.09C308.02 215.09 285.98 231.61 330.38 231.61C380.98 231.61 392.54 158.03 469.54 158.03C553.69 158.03 540.48 230 592.12 230C614.36 230 625.51 223.01 657.12 223.01C675.46 223.01 695.53 235.29 695.53 248.19C583.67 248.18 248.07 248.15 136.21 248.14Z" id="b3UcCIM42d"></path><path d="M69.79 578.82L125.45 309.41" id="d1zXKYnn3U"></path><path d="M221.45 323.31C215.89 328.66 203.84 347.5 198.16 347.5C182.43 347.5 134.27 317.95 130.97 309.83C130.13 307.6 135.8 301.91 137.38 301.91C138.95 301.91 167.03 318.79 184.26 317.22C193.66 316.37 199.88 297.62 210.02 286.73" id="c2A5hW3g4I"></path><path d="M515.43 344.58C516.6 343.26 522.85 335.16 525.09 334.86C529.13 334.24 544.54 349.46 544.66 350.89C544.77 352.33 543.83 354.33 542.75 354.2C541.67 354.07 534.04 349.76 532.62 349.62C531.2 349.48 527.21 351.67 526.16 353.82" id="b4rMzubFY"></path><path d="M218.18 353.6C213.26 358.12 162.39 455.32 162.39 467.8C162.39 480.28 203.23 573.84 206.64 575.84C210.06 577.85 220.15 576.24 222.72 573.43C225.29 570.62 209.8 470.2 209.8 470.2C214.84 465.01 240.05 439.04 285.42 392.29C249.56 371.65 227.15 358.76 218.18 353.6Z" id="d6DnascH9R"></path><path d="M385.25 384.69C397.06 381.58 513.93 340.75 515.48 341.68C517.03 342.62 528.53 351.5 528.53 353.6C528.53 355.7 408.61 452.01 376.27 452.01C364.45 452.01 251.01 385.46 218.22 353.6C214.91 335.76 263.39 307.2 278.63 316.24C284.14 319.5 363.49 364.44 385.25 384.69Z" id="aNrEZKP81"></path><path d="M277.47 316.24C277.47 319.23 222.57 354 217.02 353.6C211.46 353.2 170.36 270.78 226.66 250.85C238.6 246.62 277.47 313.25 277.47 316.24Z" id="a3RsrPB9N"></path><path d="M185.47 204.15C188.92 199.62 200.36 198.18 200.74 203.31C201.11 208.45 194.48 226.35 189.57 225.89C187.96 225.75 182.62 219.08 185.47 204.15Z" id="d3vJO2pRRn"></path><path d="M213.52 266.96C213.92 269.91 230.15 267.9 229.72 264.73C229.54 263.42 228.63 256.84 227.01 245L210.82 247.23C212.26 257.75 213.16 264.33 213.52 266.96Z" id="bQ0DsMgY3"></path><path d="M228.62 256.79C228.39 255.03 223.55 249.54 220.6 250.97C224.23 249.1 225.49 244.25 227.01 245C227.34 247.36 228.3 254.43 228.62 256.79Z" id="dta1AyRjM"></path><path d="M209.75 211.39C198.03 211.39 188.52 220.92 188.52 232.68C188.52 244.43 198.03 253.96 209.75 253.96C221.48 253.96 230.98 244.43 230.98 232.68C230.98 220.92 221.48 211.39 209.75 211.39Z" id="a1nJB1v9cy"></path><path d="M192.5 237.31C192.64 238.32 191.19 239.36 189.25 239.63C187.31 239.91 185.62 239.31 185.48 238.3C185.34 237.29 186.79 236.25 188.73 235.97C190.67 235.7 192.36 236.3 192.5 237.31Z" id="a7mdooiIU"></path><path d="M214.46 234.91C214.59 235.92 213.13 236.95 211.19 237.22C209.25 237.49 207.57 236.88 207.43 235.87C207.29 234.86 208.75 233.83 210.69 233.56C212.63 233.29 214.32 233.89 214.46 234.91Z" id="b1rCRgKV4"></path><path d="M196.92 233.45C196.39 234.48 193.56 238.89 197.34 239.99" id="c6bESmWAiR"></path><path d="M205.03 243.63C206.09 243.45 207.53 241.94 208.24 240.63" id="a2hxywHVSj"></path><path d="M278.88 191.43C299.11 191.43 315.08 182.33 337.76 182.33C348.1 182.33 374.55 191.14 374.55 220.95C374.55 237.84 365.16 271.4 324.92 271.4C290.47 271.4 284.47 256.79 270.49 256.79C255.77 256.79 228.39 263.75 223.77 244.92C222.76 239.92 221.64 233.78 218.88 228.74C203.51 223.36 198.52 223.83 191.25 219.53C180.75 214.52 180.25 186.81 217.47 186.81C245.57 186.81 265.74 191.43 278.88 191.43Z" id="dcw1KVtrv"></path><path d="M222.72 227.23C220.14 227.23 218.04 229.32 218.04 231.91C218.04 234.5 220.14 236.6 222.72 236.6C225.3 236.6 227.39 234.5 227.39 231.91C227.39 229.32 225.3 227.23 222.72 227.23Z" id="a2TWsac6ux"></path><path d="M221.64 572.87C222.01 574.56 224.69 584.45 223.62 586.45C221.68 590.05 200.3 593.33 199.1 592.55C197.91 591.77 196.84 589.84 197.59 589.02C198.34 588.19 206.35 584.66 207.31 583.63C208.27 582.59 208.92 578.03 207.83 575.91" id="aRk3XhibC"></path><path d="M93.5 601.96L311.78 601.96" id="aBhqESq1r"></path><path d="M123.8 307.31L139.69 297.09" id="cNy2yYvwK"></path><path d="M137.85 303.65C137.85 306.47 133.84 308.76 128.9 308.76C123.96 308.76 119.95 306.47 119.95 303.65C119.95 300.82 123.96 298.54 128.9 298.54C133.84 298.54 137.85 300.82 137.85 303.65Z" id="hjEqiuZJ7"></path><path d="M130.88 309.41C130.88 312.24 126.88 314.52 121.94 314.52C116.99 314.52 112.99 312.24 112.99 309.41C112.99 306.59 116.99 304.3 121.94 304.3C126.88 304.3 130.88 306.59 130.88 309.41Z" id="a23dGrJhX2"></path><path d="M106.79 318.24L118.78 310.53" id="bw2pEUHsb"></path><path d="M227.39 324.71C221.84 330.05 198.38 352.22 192.73 352.22C176.99 352.22 128.84 322.67 125.53 314.55C124.7 312.32 130.37 306.64 131.94 306.64C133.51 306.64 167.85 324.79 185.08 323.19C194.48 322.34 212.63 289.28 222.78 278.38" id="b1t7J9INlS"></path><path d="M68.15 576.72C54.15 576.72 42.8 588.1 42.8 602.13C42.8 616.17 54.15 627.55 68.15 627.55C82.15 627.55 93.5 616.17 93.5 602.13C93.5 588.1 82.15 576.72 68.15 576.72Z" id="diWpSY5zp"></path><path d="M337.13 576.72C323.13 576.72 311.78 588.1 311.78 602.13C311.78 616.17 323.13 627.55 337.13 627.55C351.13 627.55 362.48 616.17 362.48 602.13C362.48 588.1 351.13 576.72 337.13 576.72Z" id="c1OgCfYri"></path><path d="M199.12 309.9C203.37 304.32 208.19 297.25 212.31 291.34" id="c4sUqiLJyh"></path><path d="M227.39 324.71C224.61 327.38 217.36 334.26 210.09 340.47" id="f2w8ZArBm"></path><path d="M220.92 331.56C219.34 333.01 211.15 344.66 213.53 348.21C210.49 342.59 209.65 340.85 209.65 340.85" id="b1MtTaCpYN"></path></defs><g><g><g><use xlink:href="#dDeH9hy5h" opacity="1" fill="#faefe9" fill-opacity="1"></use><g><use xlink:href="#dDeH9hy5h" opacity="1" fill-opacity="0" stroke="#000000" stroke-width="1" stroke-opacity="0"></use></g></g><g><use xlink:href="#dZbqkm2CK" opacity="1" fill="#ffffff" fill-opacity="1"></use><g><use xlink:href="#dZbqkm2CK" opacity="1" fill-opacity="0" stroke="#000000" stroke-width="1" stroke-opacity="0"></use></g></g><g><use xlink:href="#b3UcCIM42d" opacity="1" fill="#ffffff" fill-opacity="1"></use><g><use xlink:href="#b3UcCIM42d" opacity="1" fill-opacity="0" stroke="#000000" stroke-width="1" stroke-opacity="0"></use></g></g><g><use xlink:href="#d1zXKYnn3U" opacity="1" fill="#000000" fill-opacity="0"></use><g><use xlink:href="#d1zXKYnn3U" opacity="1" fill-opacity="0" stroke="#d8d8d8" stroke-width="4" stroke-opacity="1"></use></g></g><g><use xlink:href="#c2A5hW3g4I" opacity="1" fill="#1f161e" fill-opacity="1"></use><g><use xlink:href="#c2A5hW3g4I" opacity="1" fill-opacity="0" stroke="#000000" stroke-width="1" stroke-opacity="0"></use></g></g><g><use xlink:href="#b4rMzubFY" opacity="1" fill="#1f161e" fill-opacity="1"></use><g><use xlink:href="#b4rMzubFY" opacity="1" fill-opacity="0" stroke="#000000" stroke-width="1" stroke-opacity="0"></use></g></g><g><use xlink:href="#d6DnascH9R" opacity="1" fill="#1f161e" fill-opacity="1"></use><g><use xlink:href="#d6DnascH9R" opacity="1" fill-opacity="0" stroke="#000000" stroke-width="1" stroke-opacity="0"></use></g></g><g><use xlink:href="#aNrEZKP81" opacity="1" fill="#00bfa6" fill-opacity="1"></use><g><use xlink:href="#aNrEZKP81" opacity="1" fill-opacity="0" stroke="#000000" stroke-width="1" stroke-opacity="0"></use></g></g><g><use xlink:href="#a3RsrPB9N" opacity="1" fill="#a0616a" fill-opacity="1"></use><g><use xlink:href="#a3RsrPB9N" opacity="1" fill-opacity="0" stroke="#000000" stroke-width="1" stroke-opacity="0"></use></g></g><g><use xlink:href="#d3vJO2pRRn" opacity="1" fill="#1f161e" fill-opacity="1"></use><g><use xlink:href="#d3vJO2pRRn" opacity="1" fill-opacity="0" stroke="#000000" stroke-width="1" stroke-opacity="0"></use></g></g><g><use xlink:href="#bQ0DsMgY3" opacity="1" fill="#f8cdba" fill-opacity="1"></use><g><use xlink:href="#bQ0DsMgY3" opacity="1" fill-opacity="0" stroke="#000000" stroke-width="1" stroke-opacity="0"></use></g></g><g><use xlink:href="#dta1AyRjM" opacity="1" fill="#000000" fill-opacity="1"></use><g><use xlink:href="#dta1AyRjM" opacity="1" fill-opacity="0" stroke="#000000" stroke-width="1" stroke-opacity="0"></use></g></g><g><use xlink:href="#a1nJB1v9cy" opacity="1" fill="#f8cdba" fill-opacity="1"></use><g><use xlink:href="#a1nJB1v9cy" opacity="1" fill-opacity="0" stroke="#000000" stroke-width="1" stroke-opacity="0"></use></g></g><g><use xlink:href="#a7mdooiIU" opacity="1" fill="#fa9e9f" fill-opacity="1"></use><g><use xlink:href="#a7mdooiIU" opacity="1" fill-opacity="0" stroke="#000000" stroke-width="1" stroke-opacity="0"></use></g></g><g><use xlink:href="#b1rCRgKV4" opacity="1" fill="#fa9e9f" fill-opacity="1"></use><g><use xlink:href="#b1rCRgKV4" opacity="1" fill-opacity="0" stroke="#000000" stroke-width="1" stroke-opacity="0"></use></g></g><g><use xlink:href="#c6bESmWAiR" opacity="1" fill="#000000" fill-opacity="0"></use><g><use xlink:href="#c6bESmWAiR" opacity="1" fill-opacity="0" stroke="#1f161e" stroke-width="0.69" stroke-opacity="1"></use></g></g><g><use xlink:href="#a2hxywHVSj" opacity="1" fill="#000000" fill-opacity="0"></use><g><use xlink:href="#a2hxywHVSj" opacity="1" fill-opacity="0" stroke="#1f161e" stroke-width="0.69" stroke-opacity="1"></use></g></g><g><use xlink:href="#dcw1KVtrv" opacity="1" fill="#1f161e" fill-opacity="1"></use><g><use xlink:href="#dcw1KVtrv" opacity="1" fill-opacity="0" stroke="#000000" stroke-width="1" stroke-opacity="0"></use></g></g><g><use xlink:href="#a2TWsac6ux" opacity="1" fill="#f8cdba" fill-opacity="1"></use><g><use xlink:href="#a2TWsac6ux" opacity="1" fill-opacity="0" stroke="#000000" stroke-width="1" stroke-opacity="0"></use></g></g><g><use xlink:href="#aRk3XhibC" opacity="1" fill="#1f161e" fill-opacity="1"></use><g><use xlink:href="#aRk3XhibC" opacity="1" fill-opacity="0" stroke="#000000" stroke-width="1" stroke-opacity="0"></use></g></g><g><use xlink:href="#aBhqESq1r" opacity="1" fill="#000000" fill-opacity="0"></use><g><use xlink:href="#aBhqESq1r" opacity="1" fill-opacity="0" stroke="#d8d8d8" stroke-width="4" stroke-opacity="1"></use></g></g><g><use xlink:href="#cNy2yYvwK" opacity="1" fill="#000000" fill-opacity="0"></use><g><use xlink:href="#cNy2yYvwK" opacity="1" fill-opacity="0" stroke="#969696" stroke-width="4" stroke-opacity="1"></use></g></g><g><use xlink:href="#hjEqiuZJ7" opacity="1" fill="#f8cdba" fill-opacity="1"></use><g><use xlink:href="#hjEqiuZJ7" opacity="1" fill-opacity="0" stroke="#000000" stroke-width="1" stroke-opacity="0"></use></g></g><g><use xlink:href="#a23dGrJhX2" opacity="1" fill="#f8cdba" fill-opacity="1"></use><g><use xlink:href="#a23dGrJhX2" opacity="1" fill-opacity="0" stroke="#000000" stroke-width="1" stroke-opacity="0"></use></g></g><g><use xlink:href="#bw2pEUHsb" opacity="1" fill="#000000" fill-opacity="0"></use><g><use xlink:href="#bw2pEUHsb" opacity="1" fill-opacity="0" stroke="#969696" stroke-width="4" stroke-opacity="1"></use></g></g><g><use xlink:href="#b1t7J9INlS" opacity="1" fill="#a0616a" fill-opacity="1"></use><g><use xlink:href="#b1t7J9INlS" opacity="1" fill-opacity="0" stroke="#000000" stroke-width="1" stroke-opacity="0"></use></g></g><g><use xlink:href="#diWpSY5zp" opacity="1" fill="#000000" fill-opacity="0"></use><g><use xlink:href="#diWpSY5zp" opacity="1" fill-opacity="0" stroke="#969696" stroke-width="4" stroke-opacity="1"></use></g></g><g><use xlink:href="#c1OgCfYri" opacity="1" fill="#000000" fill-opacity="0"></use><g><use xlink:href="#c1OgCfYri" opacity="1" fill-opacity="0" stroke="#969696" stroke-width="4" stroke-opacity="1"></use></g></g><g><use xlink:href="#c4sUqiLJyh" opacity="1" fill="#000000" fill-opacity="0"></use><g><use xlink:href="#c4sUqiLJyh" opacity="1" fill-opacity="0" stroke="#1f161e" stroke-width="1" stroke-opacity="1"></use></g></g><g><use xlink:href="#f2w8ZArBm" opacity="1" fill="#000000" fill-opacity="0"></use><g><use xlink:href="#f2w8ZArBm" opacity="1" fill-opacity="0" stroke="#1f161e" stroke-width="1" stroke-opacity="1"></use></g></g><g><use xlink:href="#b1MtTaCpYN" opacity="1" fill="#1f161e" fill-opacity="1"></use><g><use xlink:href="#b1MtTaCpYN" opacity="1" fill-opacity="0" stroke="#000000" stroke-width="1" stroke-opacity="0"></use></g></g></g></g></svg>