<?xml version="1.0" encoding="UTF-8" standalone="no"?>
<!DOCTYPE svg PUBLIC "-//W3C//DTD SVG 1.1//EN" "http://www.w3.org/Graphics/SVG/1.1/DTD/svg11.dtd">
<svg version="1.1" xmlns="http://www.w3.org/2000/svg" xmlns:xlink="http://www.w3.org/1999/xlink" preserveAspectRatio="xMidYMid meet" viewBox="0 0 640 640" width="640" height="640"><defs><path d="M320 13.6C143.27 13.6 0 156.87 0 333.6C0 510.33 143.27 653.6 320 653.6C496.73 653.6 640 510.33 640 333.6C640 156.87 496.73 13.6 320 13.6Z" id="c4AC5y1pN0"></path><path d="M-138.27 141.81C-138.27 121.85 -88.74 117.62 -69.16 117.62C-29.46 117.62 -26.83 94.89 6.13 94.89C35.11 94.89 49.86 118.36 76.84 118.36C134.74 118.36 147.64 51.66 203.97 51.66C261.29 51.66 258.36 121.29 311.7 121.29C338.81 121.29 501.73 126.41 501.73 141.82C373.73 141.82 -10.27 141.81 -138.27 141.81Z" id="a1zWQorTEy"></path><path d="M141.67 226.93C141.67 216.6 216.54 200.45 257.49 200.45C338.26 200.45 313.04 213.69 363.85 213.69C421.75 213.69 434.97 154.72 523.07 154.72C619.36 154.72 604.25 212.4 663.34 212.4C688.79 212.4 701.54 206.79 737.71 206.79C758.7 206.79 781.67 216.64 781.67 226.97C653.67 226.96 269.67 226.94 141.67 226.93Z" id="aMpmzs0xl"></path><path d="M387.62 329.54C379.24 410.99 368.06 519.59 359.67 601.04C341.78 601.04 198.68 601.04 180.8 601.04C166.77 464.58 160.67 405.56 152.85 329.54C199.8 329.54 340.67 329.54 387.62 329.54Z" id="b1uBMowdsI"></path><linearGradient id="gradienta1uLxsZ8Zi" gradientUnits="userSpaceOnUse" x1="270.23" y1="601.04" x2="270.23" y2="329.54"><stop style="stop-color: #d4d8e1;stop-opacity: 1" offset="0%"></stop><stop style="stop-color: #f3f4f5;stop-opacity: 1" offset="100%"></stop></linearGradient><path d="M388.18 378.41L373.65 519.59C249.55 519.59 180.61 519.59 166.82 519.59C163.58 488.15 156.2 416.42 152.29 378.41C183.74 378.41 262.37 378.41 388.18 378.41Z" id="d3EW39DPH1"></path><linearGradient id="gradientanR2Ka9BL" gradientUnits="userSpaceOnUse" x1="270.23" y1="519.59" x2="270.23" y2="378.41"><stop style="stop-color: #d1a788;stop-opacity: 1" offset="0%"></stop><stop style="stop-color: #f2d3b8;stop-opacity: 1" offset="100%"></stop></linearGradient><path d="M373.65 519.59L166.82 519.59L165.14 503.3L375.32 503.3L375.32 503.3L373.65 519.59Z" id="b23AAlQZHG"></path><path d="M359.67 601.04L180.8 601.04L179.12 584.75L361.35 584.75L361.35 584.75L359.67 601.04Z" id="hapXMWnLJ"></path><path d="M270.23 400.13C242.45 400.13 219.92 422.01 219.92 449C219.92 475.99 242.45 497.87 270.23 497.87C298.02 497.87 320.54 475.99 320.54 449C320.54 422.01 298.02 400.13 270.23 400.13Z" id="h1Z4gP06Kj"></path><linearGradient id="gradienta34MKkgs9L" gradientUnits="userSpaceOnUse" x1="270.23" y1="497.87" x2="270.23" y2="400.13"><stop style="stop-color: #6ab891;stop-opacity: 1" offset="0%"></stop><stop style="stop-color: #85cba9;stop-opacity: 1" offset="100%"></stop></linearGradient><path d="M270.23 400.13C242.45 400.13 219.92 422.01 219.92 449C219.92 475.99 242.45 497.87 270.23 497.87C298.02 497.87 320.54 475.99 320.54 449C320.54 422.01 298.02 400.13 270.23 400.13Z" id="a1LYWctgv1"></path><linearGradient id="gradienta21A7MPLkh" gradientUnits="userSpaceOnUse" x1="270.23" y1="497.87" x2="270.23" y2="400.13"><stop style="stop-color: #6ab891;stop-opacity: 1" offset="0%"></stop><stop style="stop-color: #85cba9;stop-opacity: 1" offset="100%"></stop></linearGradient><path d="M219.95 448.97C219.95 447.17 220.05 445.36 220.26 443.57C223.46 470.38 248.43 489.59 276.03 486.48C299.22 483.86 317.52 466.1 320.21 443.57C323.29 470.39 303.41 494.57 275.8 497.57C273.95 497.77 272.09 497.87 270.23 497.87C242.45 497.86 219.94 475.96 219.95 448.97Z" id="c12SssKyAz"></path><path d="M376.44 296.95C388.79 296.95 398.8 306.68 398.8 318.67C398.8 319.4 398.8 323.02 398.8 329.54L141.67 329.54C141.67 323.02 141.67 319.4 141.67 318.67C141.67 306.68 151.68 296.95 164.03 296.95C206.51 296.95 355.2 296.95 376.44 296.95Z" id="a1PynmkHl2"></path><linearGradient id="gradienti5Kp0HyJp3" gradientUnits="userSpaceOnUse" x1="270.23" y1="329.54" x2="270.23" y2="296.95"><stop style="stop-color: #d4d8e1;stop-opacity: 1" offset="0%"></stop><stop style="stop-color: #f3f4f5;stop-opacity: 1" offset="100%"></stop></linearGradient><path d="M169.62 296.95L180.8 264.37L359.67 264.37L370.85 296.95L370.85 296.95L169.62 296.95Z" id="dbeux9Xgg"></path><linearGradient id="gradientnSQz555h" gradientUnits="userSpaceOnUse" x1="270.23" y1="296.95" x2="270.23" y2="264.37"><stop style="stop-color: #d4d8e1;stop-opacity: 1" offset="0%"></stop><stop style="stop-color: #f3f4f5;stop-opacity: 1" offset="100%"></stop></linearGradient><path d="M385.94 345.83L154.52 345.83L152.85 329.54L387.62 329.54L387.62 329.54L385.94 345.83Z" id="a28eGOXNn"></path><path d="M75.26 146.99C76.15 153.14 81.06 156.03 82.83 155.79C84.6 155.55 93.41 130.13 97.18 130.93C100.95 131.73 95.15 118.65 95.15 118.65C92.75 118.65 71.87 126.37 75.26 146.99Z" id="f31ahMEL9N"></path><path d="M149.76 275.32C146.37 279.58 130.19 382.83 128.1 384.32C126.02 385.81 110.35 384.32 108 382.82C105.66 381.32 107.23 260.05 110.35 256.06C113.47 252.06 161.25 222.06 219.7 223.81C278.15 225.56 266.42 269.57 266.42 269.57C261.61 281.09 153.16 271.07 149.76 275.32Z" id="bbGhxk7OC"></path><path d="M248.6 66.94C275.63 79.55 291.64 215.51 288.06 227.05C284.48 238.59 194.29 205.84 194.29 205.84C194.29 205.84 192.66 135.39 193.96 126.61C186.47 128.48 153.59 134.72 95.63 132.82C91.93 127.4 91.44 120.51 94.36 114.65C102.48 111.42 145.18 106.75 155.87 104.77C174.17 92.81 240.79 63.34 248.6 66.94Z" id="b9saJweDN"></path><path d="M123.67 378.11C124.46 379.63 129.55 388.36 128.98 390.54C127.9 394.41 107.57 402.55 106.19 402.11C104.8 401.66 103.28 400.04 103.83 399.15C104.38 398.26 111.4 392.93 112.13 391.75C112.87 390.57 112.36 386.08 110.75 384.32" id="c12AjqlyjZ"></path><path d="M152.34 246.97C152.16 248.66 151.59 258.65 149.91 260.17C146.89 262.91 125.12 259.36 124.19 258.28C123.26 257.21 122.87 255.07 123.86 254.57C124.84 254.08 133.74 253.24 135 252.57C136.27 251.89 138.35 247.89 137.97 245.58" id="a18gdDXS4"></path><path d="M226.21 76.19C226.11 79.1 242.88 79.81 242.98 76.68C243.02 75.38 243.22 68.86 243.57 57.14L226.8 56.65C226.49 67.07 226.29 73.59 226.21 76.19Z" id="e3z6tV3n6l"></path><path d="M228.21 21.53C216.17 21.53 206.41 30.88 206.41 42.41C206.41 53.94 216.17 63.29 228.21 63.29C240.25 63.29 250.01 53.94 250.01 42.41C250.01 30.88 240.25 21.53 228.21 21.53Z" id="c7juEtKX4W"></path><path d="M206.17 42.77C208.17 42.83 209.77 43.68 209.74 44.68C209.71 45.69 208.06 46.45 206.05 46.39C204.05 46.33 202.45 45.48 202.48 44.47C202.51 43.47 204.16 42.71 206.17 42.77Z" id="b2VxiiCf7t"></path><path d="M229.01 43.43C231.02 43.49 232.62 44.35 232.59 45.35C232.56 46.35 230.9 47.11 228.9 47.05C226.89 47 225.29 46.14 225.32 45.14C225.36 44.14 227.01 43.37 229.01 43.43Z" id="ajgAu8SDE"></path><path d="M215.08 41.06C214.38 41.98 210.76 45.78 214.4 47.46" id="g3asUUg7Ro"></path><path d="M221.58 52.23C222.66 52.23 224.4 51.01 225.33 49.86" id="bfzfjpDOO"></path><path d="M250.01 22.21C248.14 20.91 245.88 20.24 243.57 20.29C243.57 20.29 222.88 0 213.95 0C205.02 0 206.1 5.18 206.1 7.8C206.1 10.42 208.55 26.79 211.92 28.52C213.83 26.58 216.05 24.95 218.5 23.69C219.77 25.29 231.23 36.01 241.61 39.17C244.51 43.92 248.06 51.05 248.06 51.05C251 48.4 252.62 24.29 250.01 22.21Z" id="b14XxV4s0x"></path><path d="M223.94 123.57C216.7 124.69 195.02 127.59 195.02 127.59" id="a2CX8T0xYq"></path><path d="M288.58 227.26C288.58 216.63 178.39 130.17 169.28 130.17C142.38 130.17 134.26 240.74 134.26 245.44C134.26 250.14 153.04 250.3 155.07 249.49C156.42 245.93 173.17 197.94 173.17 197.94C175.36 201.67 210.89 273.97 255.06 273.97C280.61 273.97 288.58 247.46 288.58 227.26Z" id="a2cS8Ner0G"></path><path d="M449.45 275.43C447.68 275.33 445.98 274.57 444.71 273.3C437.52 266.1 446.65 247.12 432.21 229.61C430.51 227.56 416.96 211.12 415.26 209.07C414.07 203.48 416.76 201.37 416.76 201.37C404.76 199.5 395.89 188.74 396.59 176.91C396.59 176.91 393.9 179.02 388.56 176.68C386.87 174.63 373.34 158.24 371.65 156.19C357.17 138.63 336.28 143.25 330.54 134.87C329.53 133.4 329.12 131.64 329.37 129.94C330.2 124.94 335.45 120.14 339.38 117.05C358.42 102.11 384.45 109.89 384.45 109.89C394.13 121.63 471.59 215.55 481.28 227.29C481.28 227.29 483.49 253.75 464.44 268.7C460.52 271.78 454.58 275.75 449.45 275.43Z" id="d3Qzk10yt"></path><linearGradient id="gradientj3sF3rrNaR" gradientUnits="userSpaceOnUse" x1="387.65" y1="204.07" x2="432.86" y2="168.59"><stop style="stop-color: #d1a788;stop-opacity: 1" offset="0%"></stop><stop style="stop-color: #f2d3b8;stop-opacity: 1" offset="100%"></stop></linearGradient><path d="M445.28 273.66C437.44 268.57 447.06 247.29 432.38 229.48C430.68 227.43 417.13 210.99 415.43 208.93C414.07 203.48 416.76 201.37 416.76 201.37C404.76 199.5 395.89 188.74 396.59 176.91C396.59 176.91 393.9 179.02 388.56 176.68C386.87 174.63 373.34 158.24 371.65 156.19C356.87 138.26 333.72 142.96 330.13 134.38C327.64 129.64 331.22 124.71 334.84 121.06C334.21 123.39 334.84 125.93 336.49 127.82C342.16 134.69 359.73 132.22 373.7 145.07C376.82 147.9 372.28 142.68 440.34 225.2C454.82 242.77 446.87 261.66 453.09 269.19C454.63 271.14 457.02 272.26 459.46 272.16C455.06 274.81 449.35 277.16 445.28 273.66Z" id="d1jkLm5Jaz"></path><path d="M388.56 176.68C383.33 173.99 378.79 170.12 375.32 165.39C361.2 148.27 392.16 123.98 384.45 109.89C398.74 98.68 421.65 116.95 421.65 116.95C424.59 128.79 402.75 166.88 396.59 176.91C394.98 176.86 393.9 179.02 388.56 176.68Z" id="e8TEGpzazN"></path><linearGradient id="gradiente6JYNhmLt" gradientUnits="userSpaceOnUse" x1="370.28" y1="159.28" x2="422.66" y2="118.18"><stop style="stop-color: #d1a788;stop-opacity: 1" offset="0%"></stop><stop style="stop-color: #f2d3b8;stop-opacity: 1" offset="100%"></stop></linearGradient><path d="M416.76 201.37C404.76 199.5 395.89 188.74 396.59 176.91C402.6 167.08 424.59 128.79 421.65 116.95C435.58 110.06 450.42 118.55 468.58 140.56C486.73 162.58 492.06 178.54 482.17 190.33C470.26 184.21 417 201.18 416.76 201.37Z" id="a2qCAAJuX"></path><linearGradient id="gradienta244Nnanlm" gradientUnits="userSpaceOnUse" x1="401.91" y1="192.87" x2="468.58" y2="140.56"><stop style="stop-color: #d1a788;stop-opacity: 1" offset="0%"></stop><stop style="stop-color: #f2d3b8;stop-opacity: 1" offset="100%"></stop></linearGradient><path d="M416.76 201.37C404.76 199.5 395.89 188.74 396.59 176.91C402.6 167.08 424.59 128.79 421.65 116.95C435.58 110.06 450.42 118.55 468.58 140.56C486.73 162.58 492.06 178.54 482.17 190.33C470.26 184.21 417 201.18 416.76 201.37Z" id="c2FlUtg1gJ"></path><linearGradient id="gradientafzWO3HRy" gradientUnits="userSpaceOnUse" x1="401.91" y1="192.87" x2="468.58" y2="140.56"><stop style="stop-color: #d1a788;stop-opacity: 1" offset="0%"></stop><stop style="stop-color: #f2d3b8;stop-opacity: 1" offset="100%"></stop></linearGradient><path d="M424.06 195.72C418.29 194.8 412.98 191.76 409.21 187.22C405.54 182.63 403.64 176.95 403.89 171.26C410.71 159.99 424.1 135.18 427.67 122.06C428.34 119.92 427.1 117.56 424.89 116.78C423.81 116.4 422.64 116.47 421.65 116.95C420.47 116.8 423.84 117.13 419.73 129.98C416.15 142.1 397.42 176.25 396.82 176.72C396.34 182.95 398.53 189.22 402.86 194.02C406.65 197.84 411.52 200.42 416.76 201.37C427.48 197.67 471.5 185.28 482.17 190.33C484.55 188.46 482.48 183.28 478.34 183.5C463.65 184.28 437.67 191.25 424.06 195.72Z" id="b3ODslytjv"></path><path d="M423.74 224.09C419.75 219.78 416.84 214.62 415.26 209.07C414.07 203.48 416.76 201.37 416.76 201.37C418.79 200.98 469.34 184.28 482.17 190.33C482.17 190.33 495.56 216.08 481.28 227.29C468.81 216.93 437.86 241.21 423.74 224.09Z" id="f22qHhyz0b"></path><linearGradient id="gradiente1kbR6d1Ps" gradientUnits="userSpaceOnUse" x1="428.78" y1="230.21" x2="481.16" y2="189.11"><stop style="stop-color: #d1a788;stop-opacity: 1" offset="0%"></stop><stop style="stop-color: #f2d3b8;stop-opacity: 1" offset="100%"></stop></linearGradient><path d="M388.56 176.68C383.33 173.99 378.79 170.12 375.32 165.39C361.2 148.27 392.16 123.98 384.45 109.89C386.51 108.34 389.53 108.79 391.21 110.9C392.24 112.2 392.56 113.89 392.06 115.4C387.64 129.06 372.03 146.47 382.8 159.53C386.83 164.42 393.28 171 399.59 171.85C398.91 173.07 397.31 175.74 396.59 176.91C394.98 176.86 393.9 179.02 388.56 176.68Z" id="axj0jfUHj"></path><path d="M423.74 224.09C419.75 219.78 416.84 214.62 415.26 209.07C414.07 203.48 416.76 201.37 416.76 201.37C416.76 201.37 417.75 201 421.69 199.83C423.22 199.36 421.88 199.16 422.66 203.1C424.23 208.66 427.14 213.81 431.13 218.13C441.92 231.21 462.7 220.07 477.3 218.76C479.91 218.37 482.44 220.15 482.98 222.73C483.34 224.49 482.68 226.25 481.28 227.29C468.81 216.93 437.86 241.21 423.74 224.09Z" id="b1KENJ6kbQ"></path><path d="M312.39 450.9C312.39 529.16 373.17 592.6 448.16 592.6C523.14 592.6 583.93 529.16 583.93 450.9C583.93 372.64 523.14 309.2 448.16 309.2C373.17 309.2 312.39 372.64 312.39 450.9ZM496.33 450.9C496.33 478.67 474.76 501.18 448.16 501.18C421.55 501.18 399.98 478.67 399.98 450.9C399.98 423.13 421.55 400.62 448.16 400.62C474.76 400.62 496.33 423.13 496.33 450.9Z" id="a1xfyj1OKI"></path><linearGradient id="gradienta10gV8EbUh" gradientUnits="userSpaceOnUse" x1="448.16" y1="592.6" x2="448.16" y2="309.2"><stop style="stop-color: #d1a788;stop-opacity: 1" offset="0%"></stop><stop style="stop-color: #f2d3b8;stop-opacity: 1" offset="100%"></stop></linearGradient><path d="M312.39 444.5C312.39 522.76 373.17 586.2 448.16 586.2C523.14 586.2 583.93 522.76 583.93 444.5C588.52 520.74 528.22 592.6 448.16 592.6C367.92 592.6 308.01 520.56 312.39 444.5Z" id="eDVUleKs1"></path><path d="M550.6 366.34C545.6 357.29 535.62 351.66 528.7 344.21C524.32 339.64 518.49 331.14 514.81 327.3C473.45 303.16 423.02 303.23 381.72 327.48C379.31 329.95 382.81 328.76 367.83 344.4C360.56 351.66 350.84 357.15 345.72 366.34C340.59 375.52 341.03 386.91 338.4 397.33C335.77 407.75 329.91 417.21 329.91 428.05C329.91 438.88 335.82 448.75 338.4 458.76C340.99 468.77 340.72 480.7 345.72 489.75C350.71 498.8 360.69 504.43 367.83 511.88C385.35 530.16 373.31 550.41 380.67 557.91C384.09 561.47 389.64 561.47 393.05 557.89C394.8 556.06 395.73 553.54 395.6 550.96C395.6 550.5 395.6 546.84 395.6 546.39C395.61 542.35 398.75 539.08 402.62 539.09C403.7 539.09 404.76 539.35 405.72 539.85C414.08 544.38 413.12 545.47 413.12 556.03C413.13 558.45 414.06 560.77 415.7 562.48C419.13 566.04 424.68 566.02 428.09 562.44C429.71 560.74 430.63 558.43 430.64 556.03C430.64 552.5 433.39 549.64 436.78 549.64C437.37 549.64 437.95 549.73 438.52 549.91C448.51 552.92 455.16 551.55 474.04 544.7C477.62 543.38 481.55 545.35 482.81 549.09C483.06 549.85 483.19 550.65 483.19 551.46C483.19 556.51 487.12 560.6 491.95 560.6C496.79 560.6 500.71 556.51 500.71 551.46C500.71 549.18 500.71 530.89 500.71 528.61C500.71 523.56 504.63 519.46 509.47 519.46C514.31 519.46 518.23 523.56 518.23 528.61C518.23 529.06 518.23 532.72 518.23 533.18C518.23 538.23 522.15 542.32 526.99 542.32C531.83 542.32 535.75 538.23 535.75 533.18C535.75 508.31 547.66 495.33 550.6 489.75C555.59 480.61 555.28 469.09 557.91 458.76C560.54 448.43 566.41 438.88 566.41 428.05C566.41 417.21 560.49 407.34 557.91 397.33C555.28 387 555.59 375.39 550.6 366.34ZM399.98 450.9C399.98 423.13 421.55 400.62 448.16 400.62C474.76 400.62 496.33 423.13 496.33 450.9C496.33 478.67 474.76 501.18 448.16 501.18C421.55 501.18 399.98 478.67 399.98 450.9Z" id="aEHjgj2Xh"></path><linearGradient id="gradientfc6CaAOY" gradientUnits="userSpaceOnUse" x1="448.16" y1="565.17" x2="448.16" y2="309.2"><stop style="stop-color: #d96bb0;stop-opacity: 1" offset="0%"></stop><stop style="stop-color: #e49fc6;stop-opacity: 1" offset="100%"></stop></linearGradient><path d="M550.6 366.34C545.6 357.29 535.62 351.66 528.7 344.21C524.32 339.64 518.49 331.14 514.81 327.3C473.45 303.16 423.02 303.23 381.72 327.48C379.31 329.95 382.81 328.76 367.83 344.4C360.56 351.66 350.84 357.15 345.72 366.34C340.59 375.52 341.03 386.91 338.4 397.33C335.77 407.75 329.91 417.21 329.91 428.05C329.91 438.88 335.82 448.75 338.4 458.76C340.99 468.77 340.72 480.7 345.72 489.75C350.71 498.8 360.69 504.43 367.83 511.88C385.35 530.16 373.31 550.41 380.67 557.91C384.09 561.47 389.64 561.47 393.05 557.89C394.8 556.06 395.73 553.54 395.6 550.96C395.6 550.5 395.6 546.84 395.6 546.39C395.61 542.35 398.75 539.08 402.62 539.09C403.7 539.09 404.76 539.35 405.72 539.85C414.08 544.38 413.12 545.47 413.12 556.03C413.13 558.45 414.06 560.77 415.7 562.48C419.13 566.04 424.68 566.02 428.09 562.44C429.71 560.74 430.63 558.43 430.64 556.03C430.64 552.5 433.39 549.64 436.78 549.64C437.37 549.64 437.95 549.73 438.52 549.91C448.51 552.92 455.16 551.55 474.04 544.7C477.62 543.38 481.55 545.35 482.81 549.09C483.06 549.85 483.19 550.65 483.19 551.46C483.19 556.51 487.12 560.6 491.95 560.6C496.79 560.6 500.71 556.51 500.71 551.46C500.71 549.18 500.71 530.89 500.71 528.61C500.71 523.56 504.63 519.46 509.47 519.46C514.31 519.46 518.23 523.56 518.23 528.61C518.23 529.06 518.23 532.72 518.23 533.18C518.23 538.23 522.15 542.32 526.99 542.32C531.83 542.32 535.75 538.23 535.75 533.18C535.75 508.31 547.66 495.33 550.6 489.75C555.59 480.61 555.28 469.09 557.91 458.76C560.54 448.43 566.41 438.88 566.41 428.05C566.41 417.21 560.49 407.34 557.91 397.33C555.28 387 555.59 375.39 550.6 366.34ZM399.98 450.9C399.98 423.13 421.55 400.62 448.16 400.62C474.76 400.62 496.33 423.13 496.33 450.9C496.33 478.67 474.76 501.18 448.16 501.18C421.55 501.18 399.98 478.67 399.98 450.9Z" id="b2kgFsrddm"></path><linearGradient id="gradienth2h59WTSkE" gradientUnits="userSpaceOnUse" x1="448.16" y1="565.17" x2="448.16" y2="309.2"><stop style="stop-color: #d96bb0;stop-opacity: 1" offset="0%"></stop><stop style="stop-color: #e49fc6;stop-opacity: 1" offset="100%"></stop></linearGradient><path d="M550.6 366.34C545.6 357.29 535.62 351.66 528.7 344.21C524.32 339.64 518.49 331.14 514.81 327.3C473.45 303.16 423.02 303.23 381.72 327.48C379.31 329.95 382.81 328.76 367.83 344.4C360.56 351.66 350.84 357.15 345.72 366.34C340.59 375.52 341.03 386.91 338.4 397.33C335.25 409.49 328.33 419.36 330.26 432.62C331.53 423.47 336.17 415.06 338.4 406.47C341.03 396.14 340.72 384.53 345.72 375.48C350.71 366.43 360.69 360.81 367.83 353.36C382.46 338.13 379.48 338.87 381.67 336.63C389.8 331.85 398.37 327.96 407.25 325.02C421.88 322.46 424.94 318.34 448.16 318.34C471.37 318.34 475.53 322.64 489.06 324.88C498 327.74 506.58 331.68 514.64 336.63C519.54 341.93 523.4 348.37 528.48 353.49C535.62 360.94 545.47 366.43 550.38 375.62C555.28 384.8 555.06 396.28 557.69 406.61C559.93 415.2 564.57 423.66 565.84 432.75C567.98 419.36 560.98 409.12 557.91 397.33C555.28 387 555.59 375.39 550.6 366.34Z" id="fzJYcS6pI"></path><path d="M443.79 500.73C420.81 498.44 402.62 479.45 400.42 455.47C397.88 483.11 417.3 507.67 443.79 510.31C470.27 512.96 493.8 492.69 496.33 465.05C496.62 461.86 496.62 458.66 496.33 455.47C493.8 483.11 470.27 503.38 443.79 500.73Z" id="a4gCLR7Wi1"></path><path d="M456.92 359.48C454.5 359.48 452.54 361.53 452.54 364.05C452.54 366.58 454.5 368.62 456.92 368.62C457.79 368.62 464.8 368.62 465.67 368.62C468.09 368.62 470.05 366.58 470.05 364.05C470.05 361.53 468.09 359.48 465.67 359.48C463.92 359.48 457.79 359.48 456.92 359.48Z" id="acUWCTSWP"></path><linearGradient id="gradienta1mWK6Ng3i" gradientUnits="userSpaceOnUse" x1="452.58" y1="364.05" x2="470.01" y2="364.05"><stop style="stop-color: #e9a254;stop-opacity: 1" offset="0%"></stop><stop style="stop-color: #f4bb79;stop-opacity: 1" offset="100%"></stop></linearGradient><path d="M489.54 382.84C487.31 381.87 484.75 382.97 483.82 385.3C482.98 387.39 483.74 389.81 485.6 390.97C486.48 391.43 493.49 395.09 494.36 395.55C496.59 396.52 499.16 395.41 500.09 393.08C500.92 390.99 500.16 388.58 498.3 387.41C496.55 386.5 490.42 383.3 489.54 382.84Z" id="b1IlRwvzB"></path><linearGradient id="gradientc5cwe5vSYI" gradientUnits="userSpaceOnUse" x1="483.19" y1="389.19" x2="500.71" y2="389.19"><stop style="stop-color: #e9a254;stop-opacity: 1" offset="0%"></stop><stop style="stop-color: #f4bb79;stop-opacity: 1" offset="100%"></stop></linearGradient><path d="M526.96 418.88C526.95 417.17 526.04 415.61 524.58 414.84C523.71 414.38 516.7 410.72 515.82 410.26C513.59 409.29 511.03 410.4 510.1 412.73C509.26 414.82 510.02 417.23 511.88 418.4C521.52 423.47 521.21 423.47 522.61 423.47C525.03 423.46 526.98 421.4 526.96 418.88Z" id="aAYcJ4SZl"></path><linearGradient id="gradienta10MkTn10O" gradientUnits="userSpaceOnUse" x1="509.47" y1="416.57" x2="526.99" y2="416.57"><stop style="stop-color: #e9a254;stop-opacity: 1" offset="0%"></stop><stop style="stop-color: #f4bb79;stop-opacity: 1" offset="100%"></stop></linearGradient><path d="M522.61 446.33C520.19 446.33 518.23 448.38 518.23 450.9C518.23 453.42 520.19 455.47 522.61 455.47C523.49 455.47 530.49 455.47 531.37 455.47C533.79 455.47 535.75 453.42 535.75 450.9C535.75 448.38 533.79 446.33 531.37 446.33C529.62 446.33 523.49 446.33 522.61 446.33Z" id="d1d6nozPyl"></path><linearGradient id="gradienta367tez5W" gradientUnits="userSpaceOnUse" x1="518.27" y1="450.9" x2="535.71" y2="450.9"><stop style="stop-color: #e9a254;stop-opacity: 1" offset="0%"></stop><stop style="stop-color: #f4bb79;stop-opacity: 1" offset="100%"></stop></linearGradient><path d="M544.51 432.62C544.51 435.14 546.47 437.19 548.89 437.19C551.31 437.19 553.27 435.14 553.27 432.62C553.27 431.7 553.27 424.39 553.27 423.47C553.27 420.95 551.31 418.9 548.89 418.9C546.47 418.9 544.51 420.95 544.51 423.47C544.51 425.3 544.51 431.7 544.51 432.62Z" id="c9kwyoPFW"></path><linearGradient id="gradientfqCK1ITUU" gradientUnits="userSpaceOnUse" x1="544.51" y1="428.05" x2="553.27" y2="428.05"><stop style="stop-color: #e9a254;stop-opacity: 1" offset="0%"></stop><stop style="stop-color: #f4bb79;stop-opacity: 1" offset="100%"></stop></linearGradient><path d="M526.99 377.76C526.99 375.24 525.03 373.19 522.61 373.19C520.19 373.19 518.23 375.24 518.23 377.76C518.23 378.68 518.23 385.99 518.23 386.91C518.23 389.43 520.19 391.48 522.61 391.48C525.03 391.48 526.99 389.43 526.99 386.91C526.99 385.08 526.99 378.68 526.99 377.76Z" id="c2RMZrw4r"></path><linearGradient id="gradienta2aFRRSLAG" gradientUnits="userSpaceOnUse" x1="518.23" y1="382.34" x2="526.99" y2="382.34"><stop style="stop-color: #e9a254;stop-opacity: 1" offset="0%"></stop><stop style="stop-color: #f4bb79;stop-opacity: 1" offset="100%"></stop></linearGradient><path d="M491.95 345.77C489.53 345.77 487.57 347.81 487.57 350.34C487.57 352.86 489.53 354.91 491.95 354.91C492.83 354.91 499.84 354.91 500.71 354.91C503.13 354.91 505.09 352.86 505.09 350.34C505.09 347.81 503.13 345.77 500.71 345.77C498.96 345.77 492.83 345.77 491.95 345.77Z" id="bs3bCrzfU"></path><linearGradient id="gradientc18Xp0Z6RQ" gradientUnits="userSpaceOnUse" x1="487.62" y1="350.34" x2="505.05" y2="350.34"><stop style="stop-color: #e9a254;stop-opacity: 1" offset="0%"></stop><stop style="stop-color: #f4bb79;stop-opacity: 1" offset="100%"></stop></linearGradient><path d="M391.22 405.19C391.22 402.67 389.26 400.62 386.84 400.62C384.42 400.62 382.46 402.67 382.46 405.19C382.46 406.1 382.46 413.42 382.46 414.33C382.46 416.86 384.42 418.9 386.84 418.9C389.26 418.9 391.22 416.86 391.22 414.33C391.22 412.5 391.22 406.1 391.22 405.19Z" id="awe0mZpMG"></path><linearGradient id="gradienta1BQ6LNFtT" gradientUnits="userSpaceOnUse" x1="382.46" y1="409.76" x2="391.22" y2="409.76"><stop style="stop-color: #e9a254;stop-opacity: 1" offset="0%"></stop><stop style="stop-color: #f4bb79;stop-opacity: 1" offset="100%"></stop></linearGradient><path d="M364.94 391.48C364.94 388.95 362.98 386.91 360.56 386.91C358.14 386.91 356.18 388.95 356.18 391.48C356.18 392.85 356.18 403.82 356.18 405.19C356.18 407.71 358.14 409.76 360.56 409.76C362.98 409.76 364.94 407.71 364.94 405.19C364.94 402.45 364.94 392.85 364.94 391.48Z" id="aB10qHa3t"></path><linearGradient id="gradientc32RBcT7Ev" gradientUnits="userSpaceOnUse" x1="356.18" y1="398.33" x2="364.94" y2="398.33"><stop style="stop-color: #e9a254;stop-opacity: 1" offset="0%"></stop><stop style="stop-color: #f4bb79;stop-opacity: 1" offset="100%"></stop></linearGradient><path d="M380.8 482.26C378.5 481.46 376.02 482.76 375.26 485.16C374.49 487.56 375.74 490.15 378.04 490.94C379.35 491.4 389.86 495.06 391.18 495.51C393.47 496.31 395.96 495.01 396.72 492.61C397.48 490.21 396.23 487.62 393.94 486.83C391.31 485.91 382.11 482.71 380.8 482.26Z" id="bXv3Q1qlI"></path><linearGradient id="gradientc39WZJtM0z" gradientUnits="userSpaceOnUse" x1="375.02" y1="488.88" x2="396.91" y2="488.88"><stop style="stop-color: #e9a254;stop-opacity: 1" offset="0%"></stop><stop style="stop-color: #f4bb79;stop-opacity: 1" offset="100%"></stop></linearGradient><path d="M408.74 510.32C406.32 510.32 404.36 512.37 404.36 514.89C404.36 517.42 406.32 519.46 408.74 519.46C410.05 519.46 420.56 519.46 421.88 519.46C424.3 519.46 426.26 517.42 426.26 514.89C426.26 512.37 424.3 510.32 421.88 510.32C419.25 510.32 410.05 510.32 408.74 510.32Z" id="a1aH8TUv2h"></path><linearGradient id="gradienta3Qph8KlJH" gradientUnits="userSpaceOnUse" x1="404.4" y1="514.89" x2="426.21" y2="514.89"><stop style="stop-color: #e9a254;stop-opacity: 1" offset="0%"></stop><stop style="stop-color: #f4bb79;stop-opacity: 1" offset="100%"></stop></linearGradient><path d="M447.67 517.41C446.43 515.24 443.74 514.55 441.66 515.85C439.8 517.02 439.04 519.43 439.88 521.52C444.26 530.66 444.7 533.18 448.16 533.18C450.58 533.17 452.53 531.12 452.52 528.59C452.52 527.88 452.36 527.18 452.05 526.55C451.18 524.72 448.55 519.24 447.67 517.41Z" id="aKw4DXAPE"></path><linearGradient id="gradientk1S3RzDZk8" gradientUnits="userSpaceOnUse" x1="439.35" y1="524.04" x2="452.54" y2="524.04"><stop style="stop-color: #e9a254;stop-opacity: 1" offset="0%"></stop><stop style="stop-color: #f4bb79;stop-opacity: 1" offset="100%"></stop></linearGradient><path d="M477.41 515.12C475.11 515.93 473.88 518.53 474.65 520.93C475.43 523.33 477.92 524.61 480.22 523.81C481.53 523.35 492.04 519.69 493.35 519.24C495.65 518.43 496.89 515.83 496.11 513.43C495.34 511.03 492.85 509.74 490.55 510.55C487.92 511.47 478.73 514.67 477.41 515.12Z" id="c1E1OkvWZz"></path><linearGradient id="gradientbUdtBCZgx" gradientUnits="userSpaceOnUse" x1="474.43" y1="517.18" x2="496.33" y2="517.18"><stop style="stop-color: #e9a254;stop-opacity: 1" offset="0%"></stop><stop style="stop-color: #f4bb79;stop-opacity: 1" offset="100%"></stop></linearGradient><path d="M521.34 475.08C519.62 473.29 516.84 473.29 515.12 475.08C513.4 476.87 513.4 479.78 515.12 481.57C524.67 491.54 524.63 492.04 526.99 492.04C529.41 492.05 531.38 490.02 531.4 487.49C531.4 486.27 530.94 485.09 530.1 484.22C528.35 482.39 523.09 476.91 521.34 475.08Z" id="g1Vh7fGpLN"></path><linearGradient id="gradienta23zzYIIdz" gradientUnits="userSpaceOnUse" x1="513.81" y1="482.85" x2="531.37" y2="482.85"><stop style="stop-color: #e9a254;stop-opacity: 1" offset="0%"></stop><stop style="stop-color: #f4bb79;stop-opacity: 1" offset="100%"></stop></linearGradient><path d="M421.18 374.06C418.92 373.16 416.39 374.33 415.52 376.69C414.73 378.82 415.58 381.24 417.5 382.34C418.37 382.79 425.38 386.45 426.26 386.91C428.52 387.81 431.05 386.64 431.92 384.28C432.7 382.14 431.86 379.73 429.94 378.63C428.18 377.72 422.05 374.52 421.18 374.06Z" id="f2R08Iinll"></path><linearGradient id="gradientac2BXK8A2" gradientUnits="userSpaceOnUse" x1="414.83" y1="380.42" x2="432.39" y2="380.42"><stop style="stop-color: #e9a254;stop-opacity: 1" offset="0%"></stop><stop style="stop-color: #f4bb79;stop-opacity: 1" offset="100%"></stop></linearGradient><path d="M371.91 444.77C370.76 442.55 368.11 441.71 365.98 442.91C363.94 444.05 363.1 446.65 364.07 448.84C364.5 449.76 368.01 457.07 368.45 457.99C369.59 460.21 372.24 461.05 374.38 459.85C376.42 458.71 377.25 456.11 376.29 453.92C375.41 452.09 372.34 445.69 371.91 444.77Z" id="d1ZcWwgv7R"></path><linearGradient id="gradienta5bK2XhRM2" gradientUnits="userSpaceOnUse" x1="363.54" y1="451.36" x2="376.77" y2="451.36"><stop style="stop-color: #e9a254;stop-opacity: 1" offset="0%"></stop><stop style="stop-color: #f4bb79;stop-opacity: 1" offset="100%"></stop></linearGradient><path d="M448.16 327.48C448.16 324.96 446.2 322.91 443.78 322.91C441.36 322.91 439.4 324.96 439.4 327.48C439.4 328.4 439.4 335.71 439.4 336.63C439.4 339.15 441.36 341.2 443.78 341.2C446.2 341.2 448.16 339.15 448.16 336.63C448.16 334.8 448.16 328.4 448.16 327.48Z" id="bEnETwosX"></path><linearGradient id="gradientdbNq9RJjR" gradientUnits="userSpaceOnUse" x1="439.4" y1="332.05" x2="448.16" y2="332.05"><stop style="stop-color: #e9a254;stop-opacity: 1" offset="0%"></stop><stop style="stop-color: #f4bb79;stop-opacity: 1" offset="100%"></stop></linearGradient><path d="M418.26 348.25C418.25 346.55 417.33 344.99 415.88 344.21C415 343.76 407.99 340.1 407.12 339.64C404.95 338.51 402.32 339.42 401.23 341.68C400.14 343.94 401.01 346.69 403.18 347.82C412.81 352.81 412.51 352.85 413.91 352.85C416.33 352.84 418.28 350.78 418.26 348.25Z" id="bELIXIhCN"></path><linearGradient id="gradientc1VLOUT44e" gradientUnits="userSpaceOnUse" x1="400.77" y1="346" x2="418.29" y2="346"><stop style="stop-color: #e9a254;stop-opacity: 1" offset="0%"></stop><stop style="stop-color: #f4bb79;stop-opacity: 1" offset="100%"></stop></linearGradient><path d="M386.84 368.62C384.42 368.62 382.46 370.67 382.46 373.19C382.46 375.72 384.42 377.76 386.84 377.76C387.72 377.76 394.72 377.76 395.6 377.76C398.02 377.76 399.98 375.72 399.98 373.19C399.98 370.67 398.02 368.62 395.6 368.62C393.85 368.62 387.72 368.62 386.84 368.62Z" id="b10LOqlIfV"></path><linearGradient id="gradienta8UZgnj9NX" gradientUnits="userSpaceOnUse" x1="382.51" y1="373.19" x2="399.94" y2="373.19"><stop style="stop-color: #e9a254;stop-opacity: 1" offset="0%"></stop><stop style="stop-color: #f4bb79;stop-opacity: 1" offset="100%"></stop></linearGradient></defs><g><g><g><use xlink:href="#c4AC5y1pN0" opacity="1" fill="#faefe9" fill-opacity="1"></use><g><use xlink:href="#c4AC5y1pN0" opacity="1" fill-opacity="0" stroke="#000000" stroke-width="1" stroke-opacity="0"></use></g></g><g><use xlink:href="#a1zWQorTEy" opacity="1" fill="#ffffff" fill-opacity="1"></use><g><use xlink:href="#a1zWQorTEy" opacity="1" fill-opacity="0" stroke="#000000" stroke-width="1" stroke-opacity="0"></use></g></g><g><use xlink:href="#aMpmzs0xl" opacity="1" fill="#ffffff" fill-opacity="1"></use><g><use xlink:href="#aMpmzs0xl" opacity="1" fill-opacity="0" stroke="#000000" stroke-width="1" stroke-opacity="0"></use></g></g><g><g><use xlink:href="#b1uBMowdsI" opacity="1" fill="url(#gradienta1uLxsZ8Zi)"></use><g><use xlink:href="#b1uBMowdsI" opacity="1" fill-opacity="0" stroke="#000000" stroke-width="1" stroke-opacity="0"></use></g></g><g><use xlink:href="#d3EW39DPH1" opacity="1" fill="url(#gradientanR2Ka9BL)"></use><g><use xlink:href="#d3EW39DPH1" opacity="1" fill-opacity="0" stroke="#000000" stroke-width="1" stroke-opacity="0"></use></g></g><g><use xlink:href="#b23AAlQZHG" opacity="1" fill="#cba07a" fill-opacity="1"></use><g><use xlink:href="#b23AAlQZHG" opacity="1" fill-opacity="0" stroke="#000000" stroke-width="1" stroke-opacity="0"></use></g></g><g><use xlink:href="#hapXMWnLJ" opacity="1" fill="#c7cdd8" fill-opacity="1"></use><g><use xlink:href="#hapXMWnLJ" opacity="1" fill-opacity="0" stroke="#000000" stroke-width="1" stroke-opacity="0"></use></g></g><g><use xlink:href="#h1Z4gP06Kj" opacity="1" fill="url(#gradienta34MKkgs9L)"></use><g><use xlink:href="#h1Z4gP06Kj" opacity="1" fill-opacity="0" stroke="#000000" stroke-width="1" stroke-opacity="0"></use></g></g><g><use xlink:href="#a1LYWctgv1" opacity="1" fill="url(#gradienta21A7MPLkh)"></use><g><use xlink:href="#a1LYWctgv1" opacity="1" fill-opacity="0" stroke="#000000" stroke-width="1" stroke-opacity="0"></use></g></g><g><use xlink:href="#c12SssKyAz" opacity="1" fill="#4da67f" fill-opacity="1"></use><g><use xlink:href="#c12SssKyAz" opacity="1" fill-opacity="0" stroke="#000000" stroke-width="1" stroke-opacity="0"></use></g></g><g><use xlink:href="#a1PynmkHl2" opacity="1" fill="url(#gradienti5Kp0HyJp3)"></use><g><use xlink:href="#a1PynmkHl2" opacity="1" fill-opacity="0" stroke="#000000" stroke-width="1" stroke-opacity="0"></use></g></g><g><use xlink:href="#dbeux9Xgg" opacity="1" fill="url(#gradientnSQz555h)"></use><g><use xlink:href="#dbeux9Xgg" opacity="1" fill-opacity="0" stroke="#000000" stroke-width="1" stroke-opacity="0"></use></g></g><g><use xlink:href="#a28eGOXNn" opacity="1" fill="#dfe3ea" fill-opacity="1"></use><g><use xlink:href="#a28eGOXNn" opacity="1" fill-opacity="0" stroke="#000000" stroke-width="1" stroke-opacity="0"></use></g></g></g><g><g><use xlink:href="#f31ahMEL9N" opacity="1" fill="#f8cdba" fill-opacity="1"></use><g><use xlink:href="#f31ahMEL9N" opacity="1" fill-opacity="0" stroke="#000000" stroke-width="1" stroke-opacity="0"></use></g></g><g><use xlink:href="#bbGhxk7OC" opacity="1" fill="#1f161e" fill-opacity="1"></use><g><use xlink:href="#bbGhxk7OC" opacity="1" fill-opacity="0" stroke="#000000" stroke-width="1" stroke-opacity="0"></use></g></g><g><use xlink:href="#b9saJweDN" opacity="1" fill="#73e5e2" fill-opacity="1"></use><g><use xlink:href="#b9saJweDN" opacity="1" fill-opacity="0" stroke="#000000" stroke-width="1" stroke-opacity="0"></use></g></g><g><use xlink:href="#c12AjqlyjZ" opacity="1" fill="#1f161e" fill-opacity="1"></use><g><use xlink:href="#c12AjqlyjZ" opacity="1" fill-opacity="0" stroke="#000000" stroke-width="1" stroke-opacity="0"></use></g></g><g><use xlink:href="#a18gdDXS4" opacity="1" fill="#332832" fill-opacity="1"></use><g><use xlink:href="#a18gdDXS4" opacity="1" fill-opacity="0" stroke="#000000" stroke-width="1" stroke-opacity="0"></use></g></g><g><use xlink:href="#e3z6tV3n6l" opacity="1" fill="#f8cdba" fill-opacity="1"></use><g><use xlink:href="#e3z6tV3n6l" opacity="1" fill-opacity="0" stroke="#000000" stroke-width="1" stroke-opacity="0"></use></g></g><g><use xlink:href="#c7juEtKX4W" opacity="1" fill="#f8cdba" fill-opacity="1"></use><g><use xlink:href="#c7juEtKX4W" opacity="1" fill-opacity="0" stroke="#000000" stroke-width="1" stroke-opacity="0"></use></g></g><g><use xlink:href="#b2VxiiCf7t" opacity="1" fill="#fa9e9f" fill-opacity="1"></use><g><use xlink:href="#b2VxiiCf7t" opacity="1" fill-opacity="0" stroke="#000000" stroke-width="1" stroke-opacity="0"></use></g></g><g><use xlink:href="#ajgAu8SDE" opacity="1" fill="#fa9e9f" fill-opacity="1"></use><g><use xlink:href="#ajgAu8SDE" opacity="1" fill-opacity="0" stroke="#000000" stroke-width="1" stroke-opacity="0"></use></g></g><g><use xlink:href="#g3asUUg7Ro" opacity="1" fill="#000000" fill-opacity="0"></use><g><use xlink:href="#g3asUUg7Ro" opacity="1" fill-opacity="0" stroke="#1f161e" stroke-width="0.69" stroke-opacity="1"></use></g></g><g><use xlink:href="#bfzfjpDOO" opacity="1" fill="#000000" fill-opacity="0"></use><g><use xlink:href="#bfzfjpDOO" opacity="1" fill-opacity="0" stroke="#1f161e" stroke-width="0.69" stroke-opacity="1"></use></g></g><g><use xlink:href="#b14XxV4s0x" opacity="1" fill="#000000" fill-opacity="1"></use><g><use xlink:href="#b14XxV4s0x" opacity="1" fill-opacity="0" stroke="#000000" stroke-width="1" stroke-opacity="0"></use></g></g><g><use xlink:href="#a2CX8T0xYq" opacity="1" fill="#000000" fill-opacity="0"></use><g><use xlink:href="#a2CX8T0xYq" opacity="1" fill-opacity="0" stroke="#1f161e" stroke-width="0.55" stroke-opacity="1"></use></g></g><g><use xlink:href="#a2cS8Ner0G" opacity="1" fill="#55b79d" fill-opacity="1"></use><g><use xlink:href="#a2cS8Ner0G" opacity="1" fill-opacity="0" stroke="#000000" stroke-width="1" stroke-opacity="0"></use></g></g></g><g><g><use xlink:href="#d3Qzk10yt" opacity="1" fill="url(#gradientj3sF3rrNaR)"></use><g><use xlink:href="#d3Qzk10yt" opacity="1" fill-opacity="0" stroke="#000000" stroke-width="1" stroke-opacity="0"></use></g></g><g><use xlink:href="#d1jkLm5Jaz" opacity="1" fill="#cba07a" fill-opacity="1"></use><g><use xlink:href="#d1jkLm5Jaz" opacity="1" fill-opacity="0" stroke="#000000" stroke-width="1" stroke-opacity="0"></use></g></g><g><use xlink:href="#e8TEGpzazN" opacity="1" fill="url(#gradiente6JYNhmLt)"></use><g><use xlink:href="#e8TEGpzazN" opacity="1" fill-opacity="0" stroke="#000000" stroke-width="1" stroke-opacity="0"></use></g></g><g><use xlink:href="#a2qCAAJuX" opacity="1" fill="url(#gradienta244Nnanlm)"></use><g><use xlink:href="#a2qCAAJuX" opacity="1" fill-opacity="0" stroke="#000000" stroke-width="1" stroke-opacity="0"></use></g></g><g><use xlink:href="#c2FlUtg1gJ" opacity="1" fill="url(#gradientafzWO3HRy)"></use><g><use xlink:href="#c2FlUtg1gJ" opacity="1" fill-opacity="0" stroke="#000000" stroke-width="1" stroke-opacity="0"></use></g></g><g><use xlink:href="#b3ODslytjv" opacity="1" fill="#cba07a" fill-opacity="1"></use><g><use xlink:href="#b3ODslytjv" opacity="1" fill-opacity="0" stroke="#000000" stroke-width="1" stroke-opacity="0"></use></g></g><g><use xlink:href="#f22qHhyz0b" opacity="1" fill="url(#gradiente1kbR6d1Ps)"></use><g><use xlink:href="#f22qHhyz0b" opacity="1" fill-opacity="0" stroke="#000000" stroke-width="1" stroke-opacity="0"></use></g></g><g><use xlink:href="#axj0jfUHj" opacity="1" fill="#cba07a" fill-opacity="1"></use><g><use xlink:href="#axj0jfUHj" opacity="1" fill-opacity="0" stroke="#000000" stroke-width="1" stroke-opacity="0"></use></g></g><g><use xlink:href="#b1KENJ6kbQ" opacity="1" fill="#cba07a" fill-opacity="1"></use><g><use xlink:href="#b1KENJ6kbQ" opacity="1" fill-opacity="0" stroke="#000000" stroke-width="1" stroke-opacity="0"></use></g></g></g><g><g><use xlink:href="#a1xfyj1OKI" opacity="1" fill="url(#gradienta10gV8EbUh)"></use><g><use xlink:href="#a1xfyj1OKI" opacity="1" fill-opacity="0" stroke="#000000" stroke-width="1" stroke-opacity="0"></use></g></g><g><use xlink:href="#eDVUleKs1" opacity="1" fill="#cba07a" fill-opacity="1"></use><g><use xlink:href="#eDVUleKs1" opacity="1" fill-opacity="0" stroke="#000000" stroke-width="1" stroke-opacity="0"></use></g></g><g><use xlink:href="#aEHjgj2Xh" opacity="1" fill="url(#gradientfc6CaAOY)"></use><g><use xlink:href="#aEHjgj2Xh" opacity="1" fill-opacity="0" stroke="#000000" stroke-width="1" stroke-opacity="0"></use></g></g><g><use xlink:href="#b2kgFsrddm" opacity="1" fill="url(#gradienth2h59WTSkE)"></use><g><use xlink:href="#b2kgFsrddm" opacity="1" fill-opacity="0" stroke="#000000" stroke-width="1" stroke-opacity="0"></use></g></g><g><use xlink:href="#fzJYcS6pI" opacity="1" fill="#f2b1d9" fill-opacity="1"></use><g><use xlink:href="#fzJYcS6pI" opacity="1" fill-opacity="0" stroke="#000000" stroke-width="1" stroke-opacity="0"></use></g></g><g><use xlink:href="#a4gCLR7Wi1" opacity="1" fill="#d861b0" fill-opacity="1"></use><g><use xlink:href="#a4gCLR7Wi1" opacity="1" fill-opacity="0" stroke="#000000" stroke-width="1" stroke-opacity="0"></use></g></g><g><use xlink:href="#acUWCTSWP" opacity="1" fill="url(#gradienta1mWK6Ng3i)"></use><g><use xlink:href="#acUWCTSWP" opacity="1" fill-opacity="0" stroke="#000000" stroke-width="1" stroke-opacity="0"></use></g></g><g><use xlink:href="#b1IlRwvzB" opacity="1" fill="url(#gradientc5cwe5vSYI)"></use><g><use xlink:href="#b1IlRwvzB" opacity="1" fill-opacity="0" stroke="#000000" stroke-width="1" stroke-opacity="0"></use></g></g><g><use xlink:href="#aAYcJ4SZl" opacity="1" fill="url(#gradienta10MkTn10O)"></use><g><use xlink:href="#aAYcJ4SZl" opacity="1" fill-opacity="0" stroke="#000000" stroke-width="1" stroke-opacity="0"></use></g></g><g><use xlink:href="#d1d6nozPyl" opacity="1" fill="url(#gradienta367tez5W)"></use><g><use xlink:href="#d1d6nozPyl" opacity="1" fill-opacity="0" stroke="#000000" stroke-width="1" stroke-opacity="0"></use></g></g><g><use xlink:href="#c9kwyoPFW" opacity="1" fill="url(#gradientfqCK1ITUU)"></use><g><use xlink:href="#c9kwyoPFW" opacity="1" fill-opacity="0" stroke="#000000" stroke-width="1" stroke-opacity="0"></use></g></g><g><use xlink:href="#c2RMZrw4r" opacity="1" fill="url(#gradienta2aFRRSLAG)"></use><g><use xlink:href="#c2RMZrw4r" opacity="1" fill-opacity="0" stroke="#000000" stroke-width="1" stroke-opacity="0"></use></g></g><g><use xlink:href="#bs3bCrzfU" opacity="1" fill="url(#gradientc18Xp0Z6RQ)"></use><g><use xlink:href="#bs3bCrzfU" opacity="1" fill-opacity="0" stroke="#000000" stroke-width="1" stroke-opacity="0"></use></g></g><g><use xlink:href="#awe0mZpMG" opacity="1" fill="url(#gradienta1BQ6LNFtT)"></use><g><use xlink:href="#awe0mZpMG" opacity="1" fill-opacity="0" stroke="#000000" stroke-width="1" stroke-opacity="0"></use></g></g><g><use xlink:href="#aB10qHa3t" opacity="1" fill="url(#gradientc32RBcT7Ev)"></use><g><use xlink:href="#aB10qHa3t" opacity="1" fill-opacity="0" stroke="#000000" stroke-width="1" stroke-opacity="0"></use></g></g><g><use xlink:href="#bXv3Q1qlI" opacity="1" fill="url(#gradientc39WZJtM0z)"></use><g><use xlink:href="#bXv3Q1qlI" opacity="1" fill-opacity="0" stroke="#000000" stroke-width="1" stroke-opacity="0"></use></g></g><g><use xlink:href="#a1aH8TUv2h" opacity="1" fill="url(#gradienta3Qph8KlJH)"></use><g><use xlink:href="#a1aH8TUv2h" opacity="1" fill-opacity="0" stroke="#000000" stroke-width="1" stroke-opacity="0"></use></g></g><g><use xlink:href="#aKw4DXAPE" opacity="1" fill="url(#gradientk1S3RzDZk8)"></use><g><use xlink:href="#aKw4DXAPE" opacity="1" fill-opacity="0" stroke="#000000" stroke-width="1" stroke-opacity="0"></use></g></g><g><use xlink:href="#c1E1OkvWZz" opacity="1" fill="url(#gradientbUdtBCZgx)"></use><g><use xlink:href="#c1E1OkvWZz" opacity="1" fill-opacity="0" stroke="#000000" stroke-width="1" stroke-opacity="0"></use></g></g><g><use xlink:href="#g1Vh7fGpLN" opacity="1" fill="url(#gradienta23zzYIIdz)"></use><g><use xlink:href="#g1Vh7fGpLN" opacity="1" fill-opacity="0" stroke="#000000" stroke-width="1" stroke-opacity="0"></use></g></g><g><use xlink:href="#f2R08Iinll" opacity="1" fill="url(#gradientac2BXK8A2)"></use><g><use xlink:href="#f2R08Iinll" opacity="1" fill-opacity="0" stroke="#000000" stroke-width="1" stroke-opacity="0"></use></g></g><g><use xlink:href="#d1ZcWwgv7R" opacity="1" fill="url(#gradienta5bK2XhRM2)"></use><g><use xlink:href="#d1ZcWwgv7R" opacity="1" fill-opacity="0" stroke="#000000" stroke-width="1" stroke-opacity="0"></use></g></g><g><use xlink:href="#bEnETwosX" opacity="1" fill="url(#gradientdbNq9RJjR)"></use><g><use xlink:href="#bEnETwosX" opacity="1" fill-opacity="0" stroke="#000000" stroke-width="1" stroke-opacity="0"></use></g></g><g><use xlink:href="#bELIXIhCN" opacity="1" fill="url(#gradientc1VLOUT44e)"></use><g><use xlink:href="#bELIXIhCN" opacity="1" fill-opacity="0" stroke="#000000" stroke-width="1" stroke-opacity="0"></use></g></g><g><use xlink:href="#b10LOqlIfV" opacity="1" fill="url(#gradienta8UZgnj9NX)"></use><g><use xlink:href="#b10LOqlIfV" opacity="1" fill-opacity="0" stroke="#000000" stroke-width="1" stroke-opacity="0"></use></g></g></g></g></g></svg>