<?xml version="1.0" encoding="UTF-8" standalone="no"?>
<!DOCTYPE svg PUBLIC "-//W3C//DTD SVG 1.1//EN" "http://www.w3.org/Graphics/SVG/1.1/DTD/svg11.dtd">
<svg version="1.1" xmlns="http://www.w3.org/2000/svg" xmlns:xlink="http://www.w3.org/1999/xlink" preserveAspectRatio="xMidYMid meet" viewBox="0 0 640 640" width="640" height="640"><defs><path d="M320 0C143.27 0 0 143.27 0 320C0 496.73 143.27 640 320 640C496.73 640 640 496.73 640 320C640 143.27 496.73 0 320 0Z" id="c4hEtz0OT"></path><path d="M-142.8 138.41C-142.8 118.45 -93.27 114.22 -73.7 114.22C-34 114.22 -31.37 91.49 1.6 91.49C30.58 91.49 45.32 114.96 72.3 114.96C130.21 114.96 143.11 48.26 199.44 48.26C256.76 48.26 253.83 117.89 307.16 117.89C334.28 117.89 497.2 123.01 497.2 138.42C369.2 138.42 -14.8 138.41 -142.8 138.41Z" id="aIeZ9dEcO"></path><path d="M134.87 231.45C134.87 218.57 209.74 198.4 250.69 198.4C331.46 198.4 306.24 214.93 357.05 214.93C414.95 214.93 428.17 141.35 516.27 141.35C612.56 141.35 597.45 213.32 656.54 213.32C681.99 213.32 694.74 206.32 730.91 206.32C751.9 206.32 774.87 218.61 774.87 231.51C646.87 231.5 262.87 231.46 134.87 231.45Z" id="bnbrCM7yw"></path><path d="M249 454.03C249 454.03 249 454.03 249 454.03C249 532.61 249 576.27 249 585.01C249 585.01 249 585.01 249 585.01C145.84 585.01 88.53 585.01 77.07 585.01C77.07 585.01 77.07 585.01 77.07 585.01C77.07 506.42 77.07 462.76 77.07 454.03C77.07 454.03 77.07 454.03 77.07 454.03C180.23 454.03 237.54 454.03 249 454.03Z" id="aAwTJ1EBW"></path><path d="M77.07 454.03L108.37 424.46L217.7 424.46L249 454.03L249 454.03L77.07 454.03Z" id="e1DbVcS1Px"></path><path d="M181.33 476.27C184.41 476.27 185.96 477.98 185.96 481.4C185.96 481.4 185.96 481.4 185.96 481.4C185.96 484.82 184.41 486.53 181.33 486.53C159.37 486.53 147.18 486.53 144.74 486.53C141.65 486.53 140.11 484.82 140.11 481.4C140.11 481.4 140.11 481.4 140.11 481.4C140.11 477.98 141.65 476.27 144.74 476.27C166.69 476.27 178.89 476.27 181.33 476.27Z" id="h2xWcRa5cY"></path><path d="M163.25 424.46L163.25 454.76" id="a1AsTrkPWM"></path><path d="M174.5 563.75C174.5 563.75 174.5 563.75 174.5 563.75C174.5 576.35 174.5 583.36 174.5 584.76C174.5 584.76 174.5 584.76 174.5 584.76C160.74 584.76 153.1 584.76 151.57 584.76C151.57 584.76 151.57 584.76 151.57 584.76C151.57 572.15 151.57 565.15 151.57 563.75C151.57 563.75 151.57 563.75 151.57 563.75C165.33 563.75 172.97 563.75 174.5 563.75Z" id="nF8sMJDOt"></path><path d="M206.02 514.39C206.02 514.39 206.02 514.39 206.02 514.39C206.02 530.22 206.02 539.02 206.02 540.78C206.02 540.78 206.02 540.78 206.02 540.78C154.44 540.78 125.78 540.78 120.05 540.78C120.05 540.78 120.05 540.78 120.05 540.78C120.05 524.94 120.05 516.14 120.05 514.39C120.05 514.39 120.05 514.39 120.05 514.39C171.63 514.39 200.29 514.39 206.02 514.39Z" id="olUV90rsL"></path><path d="M130.19 523.3L195.88 523.3" id="dwGZzzCro"></path><path d="M130.19 531.86L195.88 531.86" id="d2BI6VeHsS"></path><path d="M373.99 563.07C373.99 565.64 372.42 581.84 375.54 583.33C378.66 584.83 412.9 585.74 414.46 584.23C416.02 582.73 416.95 579.58 415.59 578.68C414.22 577.78 400.96 575.24 399.16 574.04C397.36 572.83 394.88 566.45 395.79 563.07" id="a1ImU9Gp9X"></path><path d="M290.89 344.63C290.06 310.75 281.84 235.03 270.15 223.77C267.42 221.13 213.13 216.53 203.43 216.53C145.64 216.53 128.51 222.9 124.14 227.09C110.63 240.08 106.41 300.36 106.41 321.45C106.41 342.55 168.28 353.49 168.28 353.49C175.53 353.97 233.55 357.82 240.8 358.3C240.8 358.3 256.72 359.87 270.48 360.65C270.77 356.59 271.58 351.29 271.58 351.29C275.44 349.96 288.96 345.3 290.89 344.63Z" id="b34EYZqYn"></path><path d="M329.03 370.93C334.3 369.43 386.77 361.18 398.18 372.02C409.6 382.86 445.6 538.22 445.6 541.8C443.67 541.8 434.01 541.8 416.63 541.8L377.51 460.77" id="e8y0nFyci7"></path><path d="M128.79 404.8C128.79 452.57 169.38 453.56 183.97 453.56C229.39 453.56 302.88 440.56 307.85 438.19C311.14 443.49 371.81 562.81 372.08 565.46C374.87 565.46 397.21 565.46 400.01 565.46C400.01 565.46 382.69 387.05 351.47 366.77C341.32 360.27 161.3 353.26 138.01 357.12C136.7 363.46 128.79 370.26 128.79 404.8Z" id="f3qQ4GYDc"></path><path d="M271.58 327.02C271.49 330.08 270.79 354.57 270.7 357.63C286.45 351.52 290.12 343.02 294.68 343.02C306.09 343.02 312.05 348.69 318.79 348.69C323.49 348.69 331.94 345.13 331.94 340.3C331.94 330.18 310.65 322.2 301.57 322.2C294.22 322.2 288.18 323.88 271.58 327.02Z" id="bPvGCQDHE"></path><path d="M418.27 539.65C418.27 542.23 416.71 558.42 419.83 559.93C422.94 561.43 457.18 562.32 458.75 560.83C460.31 559.33 461.23 556.18 459.87 555.28C458.51 554.38 445.25 551.82 443.45 550.63C441.65 549.44 439.16 543.04 440.07 539.65" id="apkw7x81C"></path><path d="M213.63 223.73C213.63 227.83 189.01 227.95 189.01 223.73C189.01 221.52 189.01 210.44 189.01 190.52L213.63 190.52C213.63 208.23 213.63 219.3 213.63 223.73Z" id="cBA4ZQciQ"></path><path d="M189.01 210.94C189.01 209.14 189.01 194.76 189.01 192.96C192.59 192.96 205.62 201.43 205.62 201.43C203.37 201.43 189.01 207.53 189.01 210.94Z" id="cqEbU8zZn"></path><path d="M210.36 145.46C193.9 145.46 180.55 158.31 180.55 174.17C180.55 190.03 193.9 202.89 210.36 202.89C226.83 202.89 240.17 190.03 240.17 174.17C240.17 158.31 226.83 145.46 210.36 145.46Z" id="dsf1KqhiB"></path><path d="M241.14 151.67C237.45 157.31 229.73 159.9 221.38 159.9C214.26 159.9 203.88 157.91 196.49 161.96C192.51 164.13 187.93 169.06 187 178.93C187 180.62 185.02 187.18 185.02 189.29C185.02 190.74 183.33 191.69 180.52 191.69C179.07 191.69 176.21 189.41 176.21 185.95C176.21 181.95 177.85 180.53 177.85 177.14C177.85 173.75 173.47 170.45 173.47 161.02C173.47 147.44 182.47 139.07 188.83 139.07C194.63 139.07 196.46 140.37 197.19 140.93C197.19 128.58 214.06 122.95 220.81 122.95C228.46 122.95 232.06 125.98 232.06 129.82C232.06 135.96 229.04 141.17 227.5 142.34C230.98 139.31 235.51 137.65 240.2 137.67C248.97 137.67 251.92 143.21 251.92 147.01C251.92 155.26 241.63 162.9 237.81 162.9C236.85 160.94 235.72 159.05 234.44 157.27" id="c1oqOOoJVg"></path><path d="M187.93 171.84C184.42 171.84 181.58 174.59 181.58 177.97C181.58 181.35 184.42 184.09 187.93 184.09C191.44 184.09 194.29 181.35 194.29 177.97C194.29 174.59 191.44 171.84 187.93 171.84Z" id="b34OyVinrk"></path><path d="M245.39 176.97C245.39 178.33 243.19 179.44 240.47 179.44C237.74 179.44 235.54 178.33 235.54 176.97C235.54 175.61 237.74 174.5 240.47 174.5C243.19 174.5 245.39 175.61 245.39 176.97Z" id="ahby8kX8H"></path><path d="M214.41 176.97C214.41 178.33 212.21 179.44 209.49 179.44C206.76 179.44 204.56 178.33 204.56 176.97C204.56 175.61 206.76 174.5 209.49 174.5C212.21 174.5 214.41 175.61 214.41 176.97Z" id="awcCYxFJ"></path><path d="M228.44 171.84C229.36 173.1 234.06 178.42 229.09 180.58" id="fiKZle1er"></path><path d="M219.17 186.79C217.69 186.79 215.4 185.02 214.19 183.42" id="buFeBHe6R"></path><path d="M258.47 263.91C260.72 268.53 271.58 312.95 271.58 327.02" id="axSkXjueD"></path><path d="M106.41 317.87C106.41 367.81 106.89 382.3 127.71 382.3C175.67 382.3 248.18 344.37 261.11 344.37C272.51 344.37 278.47 350.04 285.22 350.04C289.91 350.04 298.37 346.48 298.37 341.65C298.37 331.53 277.08 323.56 268 323.56C247.57 323.56 166 342.53 164.02 342.53C162.04 342.53 158.68 341.7 158.68 338.47C158.68 332.61 162.65 319.07 163.17 317.88C151.82 317.88 117.77 317.87 106.41 317.87Z" id="a2mcchf784"></path><path d="M175.14 274.3C173.77 278.11 163.07 317.42 161.82 322.2" id="c9gtGh1SX"></path><path d="M460.27 367.08L318.41 367.08C333.83 303 342.4 267.4 344.11 260.28C345.43 254.98 349.48 251.37 354.05 251.4C366.09 251.4 462.39 251.4 474.42 251.4C480.04 251.31 484.65 256.73 484.73 263.52C484.75 264.69 484.62 265.86 484.36 266.99C481.15 280.34 473.12 313.7 460.27 367.08Z" id="e1EmOWTRW"></path><path d="M406.75 298.75C401.96 298.75 398.08 303.45 398.08 309.24C398.08 315.04 401.96 319.73 406.75 319.73C411.55 319.73 415.43 315.04 415.43 309.24C415.43 303.45 411.55 298.75 406.75 298.75Z" id="aexgcL67f"></path><path d="M335.27 359.6C335.27 359.6 335.27 359.6 335.27 359.6C335.27 364.1 335.27 366.6 335.27 367.1C335.27 367.1 335.27 367.1 335.27 367.1C275.55 367.1 242.37 367.1 235.73 367.1C235.73 367.1 235.73 367.1 235.73 367.1C235.73 362.6 235.73 360.1 235.73 359.6C235.73 359.6 235.73 359.6 235.73 359.6C295.45 359.6 328.63 359.6 335.27 359.6Z" id="a6QiLtwfNz"></path><path d="M546.08 52.23L559.11 70.77C561.31 69.22 562.54 68.35 562.79 68.18C563.86 67.42 564.34 66.25 563.86 65.57C562.73 63.96 553.71 51.11 552.58 49.51C552.1 48.83 550.84 48.89 549.77 49.64C549.27 49.99 548.05 50.85 546.08 52.23Z" id="b1FvZR08gN"></path><path d="M563.09 76.44L572.26 89.5C574.47 87.95 575.7 87.08 575.95 86.91C577.02 86.16 577.62 85.15 577.28 84.67C576.48 83.54 570.13 74.48 569.33 73.35C569 72.88 567.84 73.1 566.77 73.85C566.28 74.2 565.05 75.06 563.09 76.44Z" id="a1iDDeRBhp"></path><path d="M584.18 131.84L522.92 174.99C526.05 176.27 527.78 176.98 528.13 177.12C531.99 178.68 535.25 181.24 537.59 184.54C537.59 184.54 537.59 184.54 537.59 184.54C541.31 189.84 549.83 190.27 556.62 185.49C559.22 183.65 580.05 168.98 582.65 167.15C589.44 162.37 591.92 154.2 588.19 148.89C588.19 148.89 588.19 148.89 588.19 148.89C585.88 145.57 584.58 141.64 584.42 137.47C584.42 137.47 584.34 135.59 584.18 131.84Z" id="bKmPAR2YN"></path><path d="M523.12 45.89L461.87 89.04C461.72 85.66 461.64 83.78 461.63 83.41C461.47 79.24 460.17 75.3 457.86 71.99C457.86 71.99 457.86 71.99 457.86 71.99C454.13 66.69 456.61 58.51 463.39 53.73C466 51.9 486.82 37.23 489.43 35.39C496.21 30.61 504.73 31.04 508.46 36.35C508.46 36.35 508.46 36.35 508.46 36.35C510.79 39.64 514.05 42.2 517.91 43.76C517.91 43.76 519.65 44.47 523.12 45.89Z" id="bApmx3Gk"></path><path d="M523.95 45.3C531.65 39.88 537.93 40.62 542.78 47.53C570.41 86.86 585.75 108.71 588.82 113.08C593.67 119.99 592.25 126.15 584.55 131.58C547.35 157.78 526.68 172.34 522.55 175.25C514.85 180.67 508.57 179.93 503.72 173.02C476.1 133.69 460.75 111.84 457.68 107.47C452.83 100.57 454.25 94.4 461.95 88.98C499.15 62.77 519.82 48.21 523.95 45.3Z" id="i4b8iijHNE"></path><path d="M526.06 50.44C531.52 46.59 535.97 47.12 539.41 52.02C565.85 89.65 580.53 110.55 583.47 114.73C586.91 119.63 585.9 124.01 580.44 127.86C544.29 153.32 524.2 167.47 520.18 170.3C514.72 174.14 510.27 173.62 506.83 168.72C480.4 131.09 465.72 110.18 462.78 106C459.34 101.1 460.35 96.73 465.81 92.88C501.96 67.42 522.04 53.27 526.06 50.44Z" id="b2q4gGEkA4"></path><path d="M509.14 90.47C496.9 99.1 493.22 115 500.94 125.99C508.66 136.98 524.85 138.9 537.1 130.27C549.35 121.64 553.02 105.74 545.3 94.75C537.58 83.76 521.39 81.84 509.14 90.47Z" id="b1yhYTEKxa"></path><path d="M533.41 141.47C532.8 141.9 532.61 142.7 533 143.26C533.39 143.81 534.2 143.91 534.82 143.47C535.43 143.04 535.62 142.24 535.23 141.68C534.84 141.13 534.03 141.04 533.41 141.47Z" id="eMhYoslEf"></path><path d="M536.56 139.26C535.94 139.69 535.75 140.49 536.14 141.04C536.53 141.6 537.35 141.69 537.96 141.26C538.58 140.82 538.76 140.02 538.37 139.47C537.99 138.92 537.17 138.82 536.56 139.26Z" id="a25WMGax7y"></path><path d="M539.7 137.04C539.08 137.47 538.9 138.27 539.29 138.83C539.68 139.38 540.49 139.48 541.11 139.04C541.72 138.61 541.91 137.81 541.52 137.26C541.13 136.7 540.32 136.61 539.7 137.04Z" id="g1UC7nwtAn"></path><path d="M542.84 134.83C542.23 135.26 542.04 136.06 542.43 136.61C542.82 137.17 543.63 137.26 544.25 136.83C544.87 136.39 545.05 135.59 544.66 135.04C544.27 134.49 543.46 134.39 542.84 134.83Z" id="b73guYOF5"></path><path d="M545.99 132.61C545.37 133.05 545.19 133.85 545.57 134.4C545.96 134.95 546.78 135.05 547.39 134.61C548.01 134.18 548.19 133.38 547.81 132.83C547.42 132.27 546.6 132.18 545.99 132.61Z" id="cczX6K7As"></path><path d="M549.13 130.4C548.52 130.83 548.33 131.63 548.72 132.18C549.11 132.74 549.92 132.83 550.54 132.4C551.15 131.97 551.34 131.17 550.95 130.61C550.56 130.06 549.75 129.96 549.13 130.4Z" id="b1sHx97LZz"></path><path d="M519.9 105.84L517.13 111.22L520.36 115.75L526.35 114.9L529.11 109.51L525.88 104.99L525.88 104.99L519.9 105.84Z" id="aE82JwvrH"></path><path d="M523.25 110.28L501.58 79.43" id="af3Xt3zO4"></path><path d="M523.25 110.28L557.63 86.06" id="cdKklI33n"></path><path d="M135.81 2.36C139.58 0.42 142.5 1.27 144.54 4.9C168.6 47.59 181.96 71.31 184.64 76.05C186.68 79.68 185.82 82.47 182.04 84.41C104.75 124.14 61.81 146.22 53.22 150.63C49.44 152.57 46.53 151.73 44.48 148.09C20.43 105.41 7.06 81.69 4.39 76.95C2.34 73.31 3.21 70.53 6.98 68.59C84.28 28.85 127.22 6.78 135.81 2.36Z" id="a6MxDZsld"></path><path d="M66.06 26.26C37.25 41.07 26.56 75.54 42.18 103.26C57.8 130.98 93.81 141.44 122.62 126.64C151.43 111.83 162.12 77.35 146.5 49.63C130.88 21.92 94.86 11.45 66.06 26.26Z" id="aiTwbQd0h"></path><path d="M73.07 38.7C51.4 49.84 43.36 75.77 55.1 96.62C66.85 117.46 93.94 125.34 115.61 114.2C137.28 103.06 145.32 77.13 133.57 56.28C121.82 35.43 94.73 27.56 73.07 38.7Z" id="cHsZfwS22"></path><path d="M23.67 48.61C23.67 48.61 23.67 48.61 23.67 48.61C26.77 54.11 28.49 57.17 28.83 57.78C28.83 57.78 28.83 57.78 28.83 57.78C18.08 63.3 12.11 66.37 10.92 66.99C10.92 66.99 10.92 66.99 10.92 66.99C7.82 61.49 6.1 58.43 5.75 57.82C5.75 57.82 5.75 57.82 5.75 57.82C16.5 52.3 22.47 49.23 23.67 48.61Z" id="bcRr4uAz6"></path><path d="M130.38 0.79C130.38 0.79 130.38 0.79 130.38 0.79C133.48 6.29 135.2 9.35 135.55 9.96C135.55 9.96 135.55 9.96 135.55 9.96C124.8 15.48 118.82 18.55 117.63 19.17C117.63 19.17 117.63 19.17 117.63 19.17C114.53 13.67 112.81 10.61 112.47 10C112.47 10 112.47 10 112.47 10C123.22 4.48 129.19 1.41 130.38 0.79Z" id="c7cF7uhz7"></path><path d="M156.32 38.25C156.32 38.25 156.32 38.25 156.32 38.25C159.93 44.67 161.94 48.23 162.34 48.95C162.34 48.95 162.34 48.95 162.34 48.95C137.72 61.61 124.03 68.64 121.3 70.05C121.3 70.05 121.3 70.05 121.3 70.05C117.68 63.63 115.67 60.07 115.27 59.35C115.27 59.35 115.27 59.35 115.27 59.35C139.9 46.69 153.58 39.66 156.32 38.25Z" id="a3GhJWf6J"></path><path d="M123.6 63.36C123.93 63.51 124.31 63.51 124.63 63.35C125.15 63.09 125.28 62.57 125 62.06C124.89 61.87 124.36 60.93 123.4 59.23L123.92 58.96C124.88 60.66 125.41 61.61 125.52 61.8C126.02 62.68 125.66 63.4 124.91 63.79C124.49 64.02 123.99 64.06 123.54 63.88C123.55 63.78 123.59 63.47 123.6 63.36Z" id="c5Dvj6W2kw"></path><path d="M124.91 58.44C125.93 57.92 126.5 57.63 126.61 57.57C127.46 57.13 128.25 57.45 128.63 58.11C129 58.78 128.83 59.6 127.99 60.03C127.92 60.07 127.52 60.27 126.82 60.63L127.73 62.25L127.21 62.51L124.91 58.44ZM125.69 58.63L126.56 60.17C127.23 59.83 127.6 59.64 127.67 59.6C128.13 59.39 128.32 58.87 128.1 58.43C127.88 57.99 127.33 57.81 126.88 58.02C126.85 58.03 126.83 58.04 126.8 58.05C126.65 58.13 126.28 58.32 125.69 58.63Z" id="bWDjBrBDi"></path><path d="M132.67 55.35C132.64 55.4 132.43 55.77 132.4 55.81C131.9 55.61 131.33 55.63 130.86 55.88C129.94 56.36 129.62 57.4 130.16 58.37C130.71 59.34 131.8 59.67 132.73 59.19C133.15 58.97 133.46 58.61 133.61 58.17C133.58 58.11 133.43 57.84 133.14 57.34L131.69 58.08L131.44 57.63L133.42 56.61C133.91 57.5 134.19 57.99 134.24 58.08C134.08 58.75 133.61 59.32 132.98 59.64C131.77 60.26 130.26 59.82 129.6 58.66C128.94 57.49 129.39 56.05 130.6 55.42C131.23 55.09 132 55.06 132.67 55.35Z" id="b2qn1tBOjF"></path><path d="M138.01 56.19L137.65 56.37L136.92 55.07L135.7 55.7L135.53 55.38L136.74 54.75L136.03 53.49L136.39 53.31L137.1 54.57L138.32 53.94L138.49 54.26L137.28 54.89L138.01 56.19Z" id="a2p5oN9ZL"></path><path d="M142.34 52.65L141.5 53.09L142.41 54.7L141.89 54.97L139.59 50.9C140.61 50.37 141.18 50.08 141.29 50.02C142.06 49.63 142.88 49.82 143.31 50.57C143.69 51.17 143.5 51.95 142.88 52.32C143.01 52.39 143.71 52.74 144.95 53.39L144.33 53.71L142.34 52.65ZM140.37 51.08L141.24 52.64C141.91 52.3 142.28 52.11 142.35 52.07C142.81 51.86 143 51.33 142.78 50.89C142.56 50.45 142.01 50.26 141.55 50.47C141.53 50.49 141.5 50.5 141.48 50.51C141.33 50.59 140.96 50.78 140.37 51.08Z" id="m4T8g7nax"></path><path d="M147.88 50.72L145.75 51.82L145.88 52.91L145.3 53.21L144.71 48.27L145.36 47.93L149.36 51.12L148.77 51.43L147.88 50.72ZM145.64 51.29L147.47 50.35L145.29 48.55L145.64 51.29Z" id="c3qhi3FEg"></path><path d="M150.06 46.53L150.98 50.29L150.41 50.59L146.91 47.14L147.49 46.84L150.34 49.75L149.39 45.86L149.83 45.63L152.71 48.53L151.73 44.66L152.31 44.36L153.4 49.04L152.83 49.34L150.06 46.53Z" id="c2krMR4xht"></path><path d="M12.76 110.22C11.38 110.93 10.87 112.58 11.62 113.9C12.36 115.23 14.09 115.73 15.47 115.02C16.84 114.31 17.35 112.66 16.61 111.34C15.86 110.01 14.14 109.51 12.76 110.22Z" id="c9DYsXYTp"></path><path d="M19.79 106.61C18.41 107.31 17.9 108.96 18.65 110.29C19.39 111.62 21.12 112.12 22.49 111.41C23.87 110.7 24.38 109.05 23.64 107.72C22.89 106.4 21.17 105.9 19.79 106.61Z" id="b8KN2RWNT"></path><path d="M26.82 102.99C25.44 103.7 24.93 105.35 25.68 106.68C26.42 108 28.15 108.5 29.53 107.79C30.9 107.09 31.42 105.44 30.67 104.11C29.92 102.78 28.2 102.28 26.82 102.99Z" id="bw3SibSWT"></path><path d="M33.85 99.38C32.47 100.09 31.96 101.74 32.71 103.06C33.45 104.39 35.18 104.89 36.56 104.18C37.93 103.47 38.44 101.82 37.7 100.5C36.95 99.17 35.23 98.67 33.85 99.38Z" id="a1ZGQZ5PeB"></path><path d="M40.88 95.76C39.5 96.47 38.99 98.12 39.74 99.45C40.49 100.77 42.21 101.27 43.59 100.57C44.96 99.86 45.48 98.21 44.73 96.88C43.98 95.56 42.26 95.06 40.88 95.76Z" id="a1AokQb8V0"></path><path d="M47.91 92.15C46.53 92.86 46.02 94.51 46.77 95.83C47.51 97.16 49.24 97.66 50.62 96.95C51.99 96.24 52.51 94.59 51.76 93.27C51.01 91.94 49.29 91.44 47.91 92.15Z" id="bRYorkfc3"></path><path d="M20.63 124.19C19.25 124.89 18.74 126.54 19.49 127.87C20.23 129.2 21.96 129.7 23.34 128.99C24.71 128.28 25.22 126.63 24.48 125.3C23.73 123.98 22.01 123.48 20.63 124.19Z" id="aRdUdIv0"></path><path d="M27.66 120.57C26.28 121.28 25.77 122.93 26.52 124.26C27.26 125.58 28.99 126.08 30.36 125.37C31.74 124.67 32.25 123.02 31.51 121.69C30.76 120.36 29.04 119.86 27.66 120.57Z" id="gpH9ir6gE"></path><path d="M34.69 116.96C33.31 117.67 32.8 119.32 33.55 120.64C34.29 121.97 36.02 122.47 37.4 121.76C38.77 121.05 39.29 119.4 38.54 118.08C37.79 116.75 36.07 116.25 34.69 116.96Z" id="a2Vepx2f5Y"></path><path d="M41.72 113.34C40.34 114.05 39.83 115.7 40.58 117.03C41.32 118.35 43.05 118.85 44.43 118.15C45.8 117.44 46.31 115.79 45.57 114.46C44.82 113.14 43.1 112.64 41.72 113.34Z" id="byLxpLMGK"></path><path d="M48.75 109.73C47.37 110.44 46.86 112.09 47.61 113.41C48.36 114.74 50.08 115.24 51.46 114.53C52.83 113.82 53.35 112.17 52.6 110.85C51.85 109.52 50.13 109.02 48.75 109.73Z" id="d1uda1xfnb"></path><path d="M55.78 106.12C54.4 106.83 53.89 108.47 54.64 109.8C55.38 111.13 57.11 111.63 58.49 110.92C59.86 110.21 60.38 108.56 59.63 107.24C58.88 105.91 57.16 105.41 55.78 106.12Z" id="b4htPaP3tS"></path><path d="M20.32 115.34C18.95 116.05 18.43 117.7 19.18 119.02C19.93 120.35 21.65 120.85 23.03 120.14C24.41 119.43 24.92 117.78 24.17 116.46C23.42 115.13 21.7 114.63 20.32 115.34Z" id="dcF93W4bH"></path><path d="M27.35 111.72C25.97 112.43 25.46 114.08 26.21 115.41C26.96 116.73 28.68 117.24 30.06 116.53C31.44 115.82 31.95 114.17 31.2 112.84C30.45 111.52 28.73 111.02 27.35 111.72Z" id="eT2QO3VY8"></path><path d="M34.38 108.11C33.01 108.82 32.49 110.47 33.24 111.79C33.99 113.12 35.71 113.62 37.09 112.91C38.47 112.2 38.98 110.55 38.23 109.23C37.48 107.9 35.76 107.4 34.38 108.11Z" id="a1jrAohDVl"></path><path d="M41.41 104.5C40.04 105.21 39.52 106.85 40.27 108.18C41.02 109.51 42.74 110.01 44.12 109.3C45.5 108.59 46.01 106.94 45.26 105.62C44.51 104.29 42.79 103.79 41.41 104.5Z" id="b3v5o9ev1G"></path><path d="M48.44 100.88C47.07 101.59 46.55 103.24 47.3 104.57C48.05 105.89 49.77 106.39 51.15 105.68C52.53 104.98 53.04 103.33 52.29 102C51.55 100.68 49.82 100.17 48.44 100.88Z" id="a4AFIIwkh2"></path><path d="M55.47 97.27C54.1 97.98 53.58 99.63 54.33 100.95C55.08 102.28 56.8 102.78 58.18 102.07C59.56 101.36 60.07 99.71 59.32 98.39C58.57 97.06 56.85 96.56 55.47 97.27Z" id="d1zpRUlCan"></path><path d="M28.19 129.3C26.81 130.01 26.3 131.66 27.05 132.99C27.8 134.31 29.52 134.81 30.9 134.1C32.28 133.4 32.79 131.75 32.04 130.42C31.29 129.1 29.57 128.59 28.19 129.3Z" id="b30e4jZ6X"></path><path d="M35.22 125.69C33.84 126.4 33.33 128.05 34.08 129.37C34.83 130.7 36.55 131.2 37.93 130.49C39.31 129.78 39.82 128.13 39.07 126.81C38.32 125.48 36.6 124.98 35.22 125.69Z" id="cPTolwBrA"></path><path d="M42.25 122.08C40.87 122.78 40.36 124.43 41.11 125.76C41.86 127.08 43.58 127.59 44.96 126.88C46.34 126.17 46.85 124.52 46.1 123.19C45.35 121.87 43.63 121.37 42.25 122.08Z" id="gLuuByNjO"></path><path d="M49.28 118.46C47.9 119.17 47.39 120.82 48.14 122.15C48.89 123.47 50.61 123.97 51.99 123.26C53.37 122.56 53.88 120.91 53.13 119.58C52.38 118.25 50.66 117.75 49.28 118.46Z" id="eSJQWJn1V"></path><path d="M56.31 114.85C54.94 115.56 54.42 117.21 55.17 118.53C55.92 119.86 57.64 120.36 59.02 119.65C60.4 118.94 60.91 117.29 60.16 115.97C59.41 114.64 57.69 114.14 56.31 114.85Z" id="bncUmh00n"></path><path d="M63.34 111.23C61.96 111.94 61.45 113.59 62.2 114.92C62.95 116.24 64.67 116.74 66.05 116.04C67.43 115.33 67.94 113.68 67.19 112.35C66.44 111.03 64.72 110.53 63.34 111.23Z" id="c5gMQiTq0d"></path><path d="M136.02 150.42L94.34 76.45" id="a2NIMoi5mR"></path><path d="M94.16 76.4L122.51 -15" id="bognlyeTB"></path><path d="M87.94 65.52L81.27 76.07L87.49 86.94L100.38 87.27L107.06 76.72L100.84 65.85L100.84 65.85L87.94 65.52Z" id="d1U7VWAgqg"></path><path d="M477.94 419.57C479.55 418.05 481.09 418.07 482.58 419.63C482.58 419.63 482.58 419.63 482.58 419.63C484.07 421.2 484.01 422.75 482.4 424.27C467.76 438.18 459.62 445.91 457.99 447.45C456.39 448.98 454.84 448.96 453.35 447.39C453.35 447.39 453.35 447.39 453.35 447.39C451.86 445.83 451.92 444.28 453.53 442.75C468.18 428.85 476.31 421.12 477.94 419.57Z" id="d8CVkIAbg"></path><path d="M563.12 343.15C570.7 335.95 578 336.05 585.02 343.44C629.13 389.89 653.63 415.7 658.53 420.86C665.55 428.25 665.27 435.54 657.69 442.74C587.08 509.79 547.85 547.05 540 554.5C532.42 561.69 525.12 561.6 518.11 554.21C474 507.76 449.49 481.95 444.59 476.79C437.57 469.4 437.85 462.11 445.43 454.91C516.05 387.86 555.28 350.6 563.12 343.15Z" id="a9CDtR8YsD"></path><path d="M564.25 339.85C571.34 333.11 578.16 333.2 584.72 340.11C609.4 366.1 623.11 380.54 625.85 383.43C632.42 390.33 632.15 397.15 625.06 403.89C595.51 431.95 579.1 447.54 575.81 450.66C568.73 457.39 561.9 457.3 555.34 450.39C530.66 424.4 516.95 409.96 514.21 407.08C507.65 400.17 507.91 393.35 515 386.62C544.55 358.55 560.97 342.96 564.25 339.85Z" id="b2ZwZfnNjU"></path><path d="M506.07 435.32C508.48 433.03 510.8 433.06 513.03 435.41C531.61 454.97 541.94 465.84 544 468.02C546.23 470.37 546.14 472.69 543.73 474.98C523.66 494.03 512.51 504.62 510.28 506.74C507.87 509.03 505.55 509 503.32 506.65C484.74 487.08 474.42 476.22 472.35 474.04C470.12 471.69 470.21 469.37 472.62 467.08C492.69 448.02 503.84 437.44 506.07 435.32Z" id="a2oQ2fNB8"></path><path d="M547.99 372.04C534.85 384.53 534.05 405.04 546.23 417.86C558.4 430.67 578.92 430.94 592.07 418.46C605.22 405.97 606.01 385.46 593.84 372.64C581.67 359.83 561.14 359.56 547.99 372.04Z" id="cdy8g3OO"></path><path d="M551.06 375.27C539.75 386.02 539.06 403.68 549.54 414.71C560.02 425.74 577.68 425.97 589 415.23C600.32 404.48 601 386.82 590.52 375.79C580.05 364.76 562.38 364.53 551.06 375.27Z" id="e6DCcZqNm"></path><path d="M554.69 379.09C545.54 387.79 544.98 402.07 553.46 410.99C561.93 419.91 576.22 420.1 585.38 411.41C594.53 402.71 595.08 388.43 586.61 379.51C578.13 370.59 563.84 370.4 554.69 379.09Z" id="aLeTVnzhd"></path><path d="M562.78 387.61C558.45 391.72 558.19 398.47 562.2 402.69C566.2 406.91 572.96 407 577.29 402.89C581.61 398.78 581.87 392.03 577.87 387.81C573.86 383.59 567.11 383.5 562.78 387.61Z" id="bVQt9WZZo"></path><path d="M567.8 392.9C566.47 394.16 566.39 396.24 567.62 397.54C568.85 398.84 570.93 398.86 572.26 397.6C573.6 396.34 573.68 394.26 572.44 392.96C571.21 391.66 569.13 391.64 567.8 392.9Z" id="c9fbmM2s0"></path><path d="M628.73 423.87C628.73 423.87 628.73 423.87 628.73 423.87C635.42 430.92 639.14 434.84 639.89 435.62C639.89 435.62 639.89 435.62 639.89 435.62C617.65 456.74 605.29 468.47 602.82 470.82C602.82 470.82 602.82 470.82 602.82 470.82C596.13 463.77 592.41 459.85 591.66 459.07C591.66 459.07 591.66 459.07 591.66 459.07C613.9 437.95 626.26 426.22 628.73 423.87Z" id="a13CPDmJk7"></path><path d="M68.03 346.53C78.12 346.53 83.17 353.11 83.17 366.26C83.17 392.01 83.17 406.31 83.17 409.17C83.17 422.33 78.12 428.9 68.03 428.9C58.49 428.9 53.19 428.9 52.13 428.9C42.04 428.9 36.99 422.33 36.99 409.17C36.99 383.43 36.99 369.12 36.99 366.26C36.99 353.11 42.04 346.53 52.13 346.53C61.67 346.53 66.97 346.53 68.03 346.53Z" id="dQoIniqzc"></path><path d="M62.35 340.77C70.5 340.8 77.1 349.41 77.12 360.03C77.12 364.32 77.12 398.65 77.12 402.94C77.1 413.56 70.5 422.16 62.35 422.2C60.76 422.2 48.04 422.2 46.45 422.2C38.3 422.16 31.7 413.56 31.67 402.94C31.67 398.65 31.67 364.32 31.67 360.03C31.7 349.41 38.3 340.8 46.45 340.77C47.51 340.77 52.81 340.77 62.35 340.77M46.45 340.3C38.12 340.3 31.31 349.18 31.31 360.03C31.31 364.32 31.31 398.65 31.31 402.94C31.31 413.79 38.12 422.67 46.45 422.67C48.04 422.67 60.76 422.67 62.35 422.67C70.67 422.67 77.49 413.79 77.49 402.94C77.49 398.65 77.49 364.32 77.49 360.03C77.49 349.18 70.67 340.3 62.35 340.3C59.17 340.3 48.04 340.3 46.45 340.3Z" id="gjNTCGkr"></path><path d="M54.4 340.3C49.63 340.3 46.98 340.3 46.45 340.3C38.12 340.3 31.31 349.18 31.31 360.03C31.31 360.31 31.31 361.7 31.31 364.21L54.4 364.21L54.4 340.3Z" id="a1lCGOoOoO"></path><path d="M31.36 364.23L77.44 364.23" id="f2QK1263z"></path><path d="M54.35 363.6L54.35 302.84L9.98 302.84L9.98 279.05" id="bgSqtFnOF"></path><path d="M53.48 389.59C52.52 389.59 51.74 390.6 51.74 391.85C51.74 393.1 52.52 394.12 53.48 394.12C54.44 394.12 55.22 393.1 55.22 391.85C55.22 390.6 54.44 389.59 53.48 389.59Z" id="a20xZqbztx"></path><path d="M58.38 389.59C57.42 389.59 56.64 390.6 56.64 391.85C56.64 393.1 57.42 394.12 58.38 394.12C59.34 394.12 60.11 393.1 60.11 391.85C60.11 390.6 59.34 389.59 58.38 389.59Z" id="agD8Pjlr4"></path><path d="M63.27 389.59C62.31 389.59 61.54 390.6 61.54 391.85C61.54 393.1 62.31 394.12 63.27 394.12C64.23 394.12 65.01 393.1 65.01 391.85C65.01 390.6 64.23 389.59 63.27 389.59Z" id="b2yYt9S7up"></path><path d="M68.17 389.59C67.21 389.59 66.43 390.6 66.43 391.85C66.43 393.1 67.21 394.12 68.17 394.12C69.13 394.12 69.91 393.1 69.91 391.85C69.91 390.6 69.13 389.59 68.17 389.59Z" id="b6xC9cqms"></path><path d="M73.07 389.59C72.11 389.59 71.33 390.6 71.33 391.85C71.33 393.1 72.11 394.12 73.07 394.12C74.03 394.12 74.81 393.1 74.81 391.85C74.81 390.6 74.03 389.59 73.07 389.59Z" id="a9hXBWPQ8"></path><path d="M77.97 389.59C77.01 389.59 76.23 390.6 76.23 391.85C76.23 393.1 77.01 394.12 77.97 394.12C78.93 394.12 79.7 393.1 79.7 391.85C79.7 390.6 78.93 389.59 77.97 389.59Z" id="f2YdX1n81X"></path><path d="M53.48 402.77C52.52 402.77 51.74 403.78 51.74 405.03C51.74 406.28 52.52 407.3 53.48 407.3C54.44 407.3 55.22 406.28 55.22 405.03C55.22 403.78 54.44 402.77 53.48 402.77Z" id="h7LH3UJVN"></path><path d="M58.38 402.77C57.42 402.77 56.64 403.78 56.64 405.03C56.64 406.28 57.42 407.3 58.38 407.3C59.34 407.3 60.11 406.28 60.11 405.03C60.11 403.78 59.34 402.77 58.38 402.77Z" id="a1ZT5jB9kJ"></path><path d="M63.27 402.77C62.31 402.77 61.54 403.78 61.54 405.03C61.54 406.28 62.31 407.3 63.27 407.3C64.23 407.3 65.01 406.28 65.01 405.03C65.01 403.78 64.23 402.77 63.27 402.77Z" id="a2WmjTcffq"></path><path d="M68.17 402.77C67.21 402.77 66.43 403.78 66.43 405.03C66.43 406.28 67.21 407.3 68.17 407.3C69.13 407.3 69.91 406.28 69.91 405.03C69.91 403.78 69.13 402.77 68.17 402.77Z" id="a2zGfNWnuA"></path><path d="M73.07 402.77C72.11 402.77 71.33 403.78 71.33 405.03C71.33 406.28 72.11 407.3 73.07 407.3C74.03 407.3 74.81 406.28 74.81 405.03C74.81 403.78 74.03 402.77 73.07 402.77Z" id="a36P5mY5Ts"></path><path d="M77.97 402.77C77.01 402.77 76.23 403.78 76.23 405.03C76.23 406.28 77.01 407.3 77.97 407.3C78.93 407.3 79.7 406.28 79.7 405.03C79.7 403.78 78.93 402.77 77.97 402.77Z" id="azd5XOGRS"></path><path d="M56.01 396.18C55.05 396.18 54.27 397.19 54.27 398.44C54.27 399.69 55.05 400.71 56.01 400.71C56.97 400.71 57.75 399.69 57.75 398.44C57.75 397.19 56.97 396.18 56.01 396.18Z" id="atCPi4urg"></path><path d="M60.9 396.18C59.94 396.18 59.17 397.19 59.17 398.44C59.17 399.69 59.94 400.71 60.9 400.71C61.86 400.71 62.64 399.69 62.64 398.44C62.64 397.19 61.86 396.18 60.9 396.18Z" id="g3lbCK25Xr"></path><path d="M65.8 396.18C64.84 396.18 64.06 397.19 64.06 398.44C64.06 399.69 64.84 400.71 65.8 400.71C66.76 400.71 67.54 399.69 67.54 398.44C67.54 397.19 66.76 396.18 65.8 396.18Z" id="a6XrNu5nt"></path><path d="M70.7 396.18C69.74 396.18 68.96 397.19 68.96 398.44C68.96 399.69 69.74 400.71 70.7 400.71C71.66 400.71 72.44 399.69 72.44 398.44C72.44 397.19 71.66 396.18 70.7 396.18Z" id="agUyWZR9o"></path><path d="M75.6 396.18C74.64 396.18 73.86 397.19 73.86 398.44C73.86 399.69 74.64 400.71 75.6 400.71C76.56 400.71 77.33 399.69 77.33 398.44C77.33 397.19 76.56 396.18 75.6 396.18Z" id="k5E0y60TxM"></path><path d="M80.49 396.18C79.53 396.18 78.75 397.19 78.75 398.44C78.75 399.69 79.53 400.71 80.49 400.71C81.45 400.71 82.23 399.69 82.23 398.44C82.23 397.19 81.45 396.18 80.49 396.18Z" id="et58Nc5WA"></path><path d="M56.01 409.36C55.05 409.36 54.27 410.37 54.27 411.62C54.27 412.87 55.05 413.89 56.01 413.89C56.97 413.89 57.75 412.87 57.75 411.62C57.75 410.37 56.97 409.36 56.01 409.36Z" id="a1mls0CVPn"></path><path d="M60.9 409.36C59.94 409.36 59.17 410.37 59.17 411.62C59.17 412.87 59.94 413.89 60.9 413.89C61.86 413.89 62.64 412.87 62.64 411.62C62.64 410.37 61.86 409.36 60.9 409.36Z" id="cpEACUtRz"></path><path d="M65.8 409.36C64.84 409.36 64.06 410.37 64.06 411.62C64.06 412.87 64.84 413.89 65.8 413.89C66.76 413.89 67.54 412.87 67.54 411.62C67.54 410.37 66.76 409.36 65.8 409.36Z" id="d81wGkFoP6"></path><path d="M70.7 409.36C69.74 409.36 68.96 410.37 68.96 411.62C68.96 412.87 69.74 413.89 70.7 413.89C71.66 413.89 72.44 412.87 72.44 411.62C72.44 410.37 71.66 409.36 70.7 409.36Z" id="cZz8MjNkM"></path><path d="M75.6 409.36C74.64 409.36 73.86 410.37 73.86 411.62C73.86 412.87 74.64 413.89 75.6 413.89C76.56 413.89 77.33 412.87 77.33 411.62C77.33 410.37 76.56 409.36 75.6 409.36Z" id="cEo35DNsu"></path><path d="M80.49 409.36C79.53 409.36 78.75 410.37 78.75 411.62C78.75 412.87 79.53 413.89 80.49 413.89C81.45 413.89 82.23 412.87 82.23 411.62C82.23 410.37 81.45 409.36 80.49 409.36Z" id="c40hUdS29"></path></defs><g><g><g><use xlink:href="#c4hEtz0OT" opacity="1" fill="#faefe9" fill-opacity="1"></use><g><use xlink:href="#c4hEtz0OT" opacity="1" fill-opacity="0" stroke="#000000" stroke-width="1" stroke-opacity="0"></use></g></g><g><use xlink:href="#aIeZ9dEcO" opacity="1" fill="#ffffff" fill-opacity="1"></use><g><use xlink:href="#aIeZ9dEcO" opacity="1" fill-opacity="0" stroke="#000000" stroke-width="1" stroke-opacity="0"></use></g></g><g><use xlink:href="#bnbrCM7yw" opacity="1" fill="#ffffff" fill-opacity="1"></use><g><use xlink:href="#bnbrCM7yw" opacity="1" fill-opacity="0" stroke="#000000" stroke-width="1" stroke-opacity="0"></use></g></g><g><g><use xlink:href="#aAwTJ1EBW" opacity="1" fill="#b27363" fill-opacity="1"></use><g><use xlink:href="#aAwTJ1EBW" opacity="1" fill-opacity="0" stroke="#000000" stroke-width="1" stroke-opacity="0"></use></g></g><g><use xlink:href="#e1DbVcS1Px" opacity="1" fill="#98574c" fill-opacity="1"></use><g><use xlink:href="#e1DbVcS1Px" opacity="1" fill-opacity="0" stroke="#000000" stroke-width="1" stroke-opacity="0"></use></g></g><g><use xlink:href="#h2xWcRa5cY" opacity="1" fill="#98574c" fill-opacity="1"></use><g><use xlink:href="#h2xWcRa5cY" opacity="1" fill-opacity="0" stroke="#000000" stroke-width="1" stroke-opacity="0"></use></g></g><g><use xlink:href="#a1AsTrkPWM" opacity="1" fill="#000000" fill-opacity="0"></use><g><use xlink:href="#a1AsTrkPWM" opacity="1" fill-opacity="0" stroke="#b27363" stroke-width="20" stroke-opacity="1"></use></g></g><g><use xlink:href="#nF8sMJDOt" opacity="1" fill="#98574c" fill-opacity="1"></use><g><use xlink:href="#nF8sMJDOt" opacity="1" fill-opacity="0" stroke="#000000" stroke-width="1" stroke-opacity="0"></use></g></g><g><use xlink:href="#olUV90rsL" opacity="1" fill="#fadb93" fill-opacity="1"></use><g><use xlink:href="#olUV90rsL" opacity="1" fill-opacity="0" stroke="#000000" stroke-width="1" stroke-opacity="0"></use></g></g><g><use xlink:href="#dwGZzzCro" opacity="1" fill="#000000" fill-opacity="0"></use><g><use xlink:href="#dwGZzzCro" opacity="1" fill-opacity="0" stroke="#b27363" stroke-width="9" stroke-opacity="1"></use></g></g><g><use xlink:href="#d2BI6VeHsS" opacity="1" fill="#000000" fill-opacity="0"></use><g><use xlink:href="#d2BI6VeHsS" opacity="1" fill-opacity="0" stroke="#b27363" stroke-width="9" stroke-opacity="1"></use></g></g></g><g><g><use xlink:href="#a1ImU9Gp9X" opacity="1" fill="#1f161e" fill-opacity="1"></use><g><use xlink:href="#a1ImU9Gp9X" opacity="1" fill-opacity="0" stroke="#000000" stroke-width="1" stroke-opacity="0"></use></g></g><g><use xlink:href="#b34EYZqYn" opacity="1" fill="#78e5e1" fill-opacity="1"></use><g><use xlink:href="#b34EYZqYn" opacity="1" fill-opacity="0" stroke="#000000" stroke-width="1" stroke-opacity="0"></use></g></g><g><use xlink:href="#e8y0nFyci7" opacity="1" fill="#1f161e" fill-opacity="1"></use><g><use xlink:href="#e8y0nFyci7" opacity="1" fill-opacity="0" stroke="#000000" stroke-width="1" stroke-opacity="0"></use></g></g><g><use xlink:href="#f3qQ4GYDc" opacity="1" fill="#55b79d" fill-opacity="1"></use><g><use xlink:href="#f3qQ4GYDc" opacity="1" fill-opacity="0" stroke="#000000" stroke-width="1" stroke-opacity="0"></use></g></g><g><use xlink:href="#bPvGCQDHE" opacity="1" fill="#f8cdba" fill-opacity="1"></use><g><use xlink:href="#bPvGCQDHE" opacity="1" fill-opacity="0" stroke="#000000" stroke-width="1" stroke-opacity="0"></use></g></g><g><use xlink:href="#apkw7x81C" opacity="1" fill="#1f161e" fill-opacity="1"></use><g><use xlink:href="#apkw7x81C" opacity="1" fill-opacity="0" stroke="#000000" stroke-width="1" stroke-opacity="0"></use></g></g><g><use xlink:href="#cBA4ZQciQ" opacity="1" fill="#f8cdba" fill-opacity="1"></use><g><use xlink:href="#cBA4ZQciQ" opacity="1" fill-opacity="0" stroke="#000000" stroke-width="1" stroke-opacity="0"></use></g></g><g><use xlink:href="#cqEbU8zZn" opacity="1" fill="#1f161e" fill-opacity="1"></use><g><use xlink:href="#cqEbU8zZn" opacity="1" fill-opacity="0" stroke="#000000" stroke-width="1" stroke-opacity="0"></use></g></g><g><use xlink:href="#dsf1KqhiB" opacity="1" fill="#f8cdba" fill-opacity="1"></use><g><use xlink:href="#dsf1KqhiB" opacity="1" fill-opacity="0" stroke="#000000" stroke-width="1" stroke-opacity="0"></use></g></g><g><use xlink:href="#c1oqOOoJVg" opacity="1" fill="#1f161e" fill-opacity="1"></use><g><use xlink:href="#c1oqOOoJVg" opacity="1" fill-opacity="0" stroke="#000000" stroke-width="1" stroke-opacity="0"></use></g></g><g><use xlink:href="#b34OyVinrk" opacity="1" fill="#f8cdba" fill-opacity="1"></use><g><use xlink:href="#b34OyVinrk" opacity="1" fill-opacity="0" stroke="#000000" stroke-width="1" stroke-opacity="0"></use></g></g><g><use xlink:href="#ahby8kX8H" opacity="1" fill="#fa9e9f" fill-opacity="1"></use><g><use xlink:href="#ahby8kX8H" opacity="1" fill-opacity="0" stroke="#000000" stroke-width="1" stroke-opacity="0"></use></g></g><g><use xlink:href="#awcCYxFJ" opacity="1" fill="#fa9e9f" fill-opacity="1"></use><g><use xlink:href="#awcCYxFJ" opacity="1" fill-opacity="0" stroke="#000000" stroke-width="1" stroke-opacity="0"></use></g></g><g><use xlink:href="#fiKZle1er" opacity="1" fill="#000000" fill-opacity="0"></use><g><use xlink:href="#fiKZle1er" opacity="1" fill-opacity="0" stroke="#1f161e" stroke-width="1" stroke-opacity="1"></use></g></g><g><use xlink:href="#buFeBHe6R" opacity="1" fill="#000000" fill-opacity="0"></use><g><use xlink:href="#buFeBHe6R" opacity="1" fill-opacity="0" stroke="#1f161e" stroke-width="1" stroke-opacity="1"></use></g></g><g><use xlink:href="#axSkXjueD" opacity="1" fill="#000000" fill-opacity="0"></use><g><use xlink:href="#axSkXjueD" opacity="1" fill-opacity="0" stroke="#1f161e" stroke-width="1" stroke-opacity="1"></use></g></g><g><use xlink:href="#a2mcchf784" opacity="1" fill="#f8cdba" fill-opacity="1"></use><g><use xlink:href="#a2mcchf784" opacity="1" fill-opacity="0" stroke="#000000" stroke-width="1" stroke-opacity="0"></use></g></g><g><use xlink:href="#c9gtGh1SX" opacity="1" fill="#000000" fill-opacity="0"></use><g><use xlink:href="#c9gtGh1SX" opacity="1" fill-opacity="0" stroke="#1f161e" stroke-width="1" stroke-opacity="1"></use></g></g></g><g><g><use xlink:href="#e1EmOWTRW" opacity="1" fill="#000000" fill-opacity="1"></use><g><use xlink:href="#e1EmOWTRW" opacity="1" fill-opacity="0" stroke="#000000" stroke-width="1" stroke-opacity="0"></use></g></g><g><use xlink:href="#aexgcL67f" opacity="1" fill="#ffffff" fill-opacity="1"></use><g><use xlink:href="#aexgcL67f" opacity="1" fill-opacity="0" stroke="#000000" stroke-width="1" stroke-opacity="0"></use></g></g><g><use xlink:href="#a6QiLtwfNz" opacity="1" fill="#000000" fill-opacity="1"></use><g><use xlink:href="#a6QiLtwfNz" opacity="1" fill-opacity="0" stroke="#000000" stroke-width="1" stroke-opacity="0"></use></g></g></g><g><g><use xlink:href="#b1FvZR08gN" opacity="1" fill="#ab91df" fill-opacity="1"></use><g><use xlink:href="#b1FvZR08gN" opacity="1" fill-opacity="0" stroke="#000000" stroke-width="1" stroke-opacity="0"></use></g></g><g><use xlink:href="#a1iDDeRBhp" opacity="1" fill="#ab91df" fill-opacity="1"></use><g><use xlink:href="#a1iDDeRBhp" opacity="1" fill-opacity="0" stroke="#000000" stroke-width="1" stroke-opacity="0"></use></g></g><g><use xlink:href="#bKmPAR2YN" opacity="1" fill="#fadb93" fill-opacity="1"></use><g><use xlink:href="#bKmPAR2YN" opacity="1" fill-opacity="0" stroke="#000000" stroke-width="1" stroke-opacity="0"></use></g></g><g><use xlink:href="#bApmx3Gk" opacity="1" fill="#fadb93" fill-opacity="1"></use><g><use xlink:href="#bApmx3Gk" opacity="1" fill-opacity="0" stroke="#000000" stroke-width="1" stroke-opacity="0"></use></g></g><g><use xlink:href="#i4b8iijHNE" opacity="1" fill="#000000" fill-opacity="0"></use><g><use xlink:href="#i4b8iijHNE" opacity="1" fill-opacity="0" stroke="#000000" stroke-width="3.34" stroke-opacity="1"></use></g></g><g><use xlink:href="#b2q4gGEkA4" opacity="1" fill="#e2e2e2" fill-opacity="1"></use><g><use xlink:href="#b2q4gGEkA4" opacity="1" fill-opacity="0" stroke="#000000" stroke-width="1" stroke-opacity="0"></use></g></g><g><use xlink:href="#b1yhYTEKxa" opacity="1" fill="#78e5e1" fill-opacity="1"></use><g><use xlink:href="#b1yhYTEKxa" opacity="1" fill-opacity="0" stroke="#000000" stroke-width="1" stroke-opacity="0"></use></g></g><g><use xlink:href="#eMhYoslEf" opacity="1" fill="#ffffff" fill-opacity="1"></use><g><use xlink:href="#eMhYoslEf" opacity="1" fill-opacity="0" stroke="#000000" stroke-width="1" stroke-opacity="0"></use></g></g><g><use xlink:href="#a25WMGax7y" opacity="1" fill="#ffffff" fill-opacity="1"></use><g><use xlink:href="#a25WMGax7y" opacity="1" fill-opacity="0" stroke="#000000" stroke-width="1" stroke-opacity="0"></use></g></g><g><use xlink:href="#g1UC7nwtAn" opacity="1" fill="#ffffff" fill-opacity="1"></use><g><use xlink:href="#g1UC7nwtAn" opacity="1" fill-opacity="0" stroke="#000000" stroke-width="1" stroke-opacity="0"></use></g></g><g><use xlink:href="#b73guYOF5" opacity="1" fill="#ffffff" fill-opacity="1"></use><g><use xlink:href="#b73guYOF5" opacity="1" fill-opacity="0" stroke="#000000" stroke-width="1" stroke-opacity="0"></use></g></g><g><use xlink:href="#cczX6K7As" opacity="1" fill="#ffffff" fill-opacity="1"></use><g><use xlink:href="#cczX6K7As" opacity="1" fill-opacity="0" stroke="#000000" stroke-width="1" stroke-opacity="0"></use></g></g><g><use xlink:href="#b1sHx97LZz" opacity="1" fill="#ffffff" fill-opacity="1"></use><g><use xlink:href="#b1sHx97LZz" opacity="1" fill-opacity="0" stroke="#000000" stroke-width="1" stroke-opacity="0"></use></g></g><g><use xlink:href="#aE82JwvrH" opacity="1" fill="#000000" fill-opacity="0"></use><g><use xlink:href="#aE82JwvrH" opacity="1" fill-opacity="0" stroke="#000000" stroke-width="0.63" stroke-opacity="1"></use></g></g><g><use xlink:href="#af3Xt3zO4" opacity="1" fill="#000000" fill-opacity="0"></use><g><use xlink:href="#af3Xt3zO4" opacity="1" fill-opacity="0" stroke="#000000" stroke-width="0.63" stroke-opacity="1"></use></g></g><g><use xlink:href="#cdKklI33n" opacity="1" fill="#000000" fill-opacity="0"></use><g><use xlink:href="#cdKklI33n" opacity="1" fill-opacity="0" stroke="#000000" stroke-width="0.63" stroke-opacity="1"></use></g></g></g><g><g><use xlink:href="#a6MxDZsld" opacity="1" fill="#e2e2e2" fill-opacity="1"></use><g><use xlink:href="#a6MxDZsld" opacity="1" fill-opacity="0" stroke="#000000" stroke-width="1" stroke-opacity="0"></use></g></g><g><use xlink:href="#aiTwbQd0h" opacity="1" fill="#ffffff" fill-opacity="1"></use><g><use xlink:href="#aiTwbQd0h" opacity="1" fill-opacity="0" stroke="#000000" stroke-width="1.31" stroke-opacity="1"></use></g></g><g><use xlink:href="#cHsZfwS22" opacity="1" fill="#78e5e1" fill-opacity="1"></use><g><use xlink:href="#cHsZfwS22" opacity="1" fill-opacity="0" stroke="#000000" stroke-width="1" stroke-opacity="0"></use></g></g><g><use xlink:href="#bcRr4uAz6" opacity="1" fill="#e2e2e2" fill-opacity="1"></use><g><use xlink:href="#bcRr4uAz6" opacity="1" fill-opacity="0" stroke="#000000" stroke-width="1" stroke-opacity="0"></use></g></g><g><use xlink:href="#c7cF7uhz7" opacity="1" fill="#e2e2e2" fill-opacity="1"></use><g><use xlink:href="#c7cF7uhz7" opacity="1" fill-opacity="0" stroke="#000000" stroke-width="1" stroke-opacity="0"></use></g></g><g><use xlink:href="#a3GhJWf6J" opacity="1" fill="#55b79d" fill-opacity="1"></use><g><use xlink:href="#a3GhJWf6J" opacity="1" fill-opacity="0" stroke="#000000" stroke-width="1" stroke-opacity="0"></use></g></g><g><use xlink:href="#c5Dvj6W2kw" opacity="1" fill="#000000" fill-opacity="1"></use><g><use xlink:href="#c5Dvj6W2kw" opacity="1" fill-opacity="0" stroke="#000000" stroke-width="1" stroke-opacity="0"></use></g></g><g><use xlink:href="#bWDjBrBDi" opacity="1" fill="#000000" fill-opacity="1"></use><g><use xlink:href="#bWDjBrBDi" opacity="1" fill-opacity="0" stroke="#000000" stroke-width="1" stroke-opacity="0"></use></g></g><g><use xlink:href="#b2qn1tBOjF" opacity="1" fill="#000000" fill-opacity="1"></use><g><use xlink:href="#b2qn1tBOjF" opacity="1" fill-opacity="0" stroke="#000000" stroke-width="1" stroke-opacity="0"></use></g></g><g><use xlink:href="#a2p5oN9ZL" opacity="1" fill="#000000" fill-opacity="1"></use><g><use xlink:href="#a2p5oN9ZL" opacity="1" fill-opacity="0" stroke="#000000" stroke-width="1" stroke-opacity="0"></use></g></g><g><use xlink:href="#m4T8g7nax" opacity="1" fill="#000000" fill-opacity="1"></use><g><use xlink:href="#m4T8g7nax" opacity="1" fill-opacity="0" stroke="#000000" stroke-width="1" stroke-opacity="0"></use></g></g><g><use xlink:href="#c3qhi3FEg" opacity="1" fill="#000000" fill-opacity="1"></use><g><use xlink:href="#c3qhi3FEg" opacity="1" fill-opacity="0" stroke="#000000" stroke-width="1" stroke-opacity="0"></use></g></g><g><use xlink:href="#c2krMR4xht" opacity="1" fill="#000000" fill-opacity="1"></use><g><use xlink:href="#c2krMR4xht" opacity="1" fill-opacity="0" stroke="#000000" stroke-width="1" stroke-opacity="0"></use></g></g><g><use xlink:href="#c9DYsXYTp" opacity="1" fill="#fadb93" fill-opacity="1"></use><g><use xlink:href="#c9DYsXYTp" opacity="1" fill-opacity="0" stroke="#000000" stroke-width="1" stroke-opacity="0"></use></g></g><g><use xlink:href="#b8KN2RWNT" opacity="1" fill="#fadb93" fill-opacity="1"></use><g><use xlink:href="#b8KN2RWNT" opacity="1" fill-opacity="0" stroke="#000000" stroke-width="1" stroke-opacity="0"></use></g></g><g><use xlink:href="#bw3SibSWT" opacity="1" fill="#fadb93" fill-opacity="1"></use><g><use xlink:href="#bw3SibSWT" opacity="1" fill-opacity="0" stroke="#000000" stroke-width="1" stroke-opacity="0"></use></g></g><g><use xlink:href="#a1ZGQZ5PeB" opacity="1" fill="#fadb93" fill-opacity="1"></use><g><use xlink:href="#a1ZGQZ5PeB" opacity="1" fill-opacity="0" stroke="#000000" stroke-width="1" stroke-opacity="0"></use></g></g><g><use xlink:href="#a1AokQb8V0" opacity="1" fill="#fadb93" fill-opacity="1"></use><g><use xlink:href="#a1AokQb8V0" opacity="1" fill-opacity="0" stroke="#000000" stroke-width="1" stroke-opacity="0"></use></g></g><g><use xlink:href="#bRYorkfc3" opacity="1" fill="#fadb93" fill-opacity="1"></use><g><use xlink:href="#bRYorkfc3" opacity="1" fill-opacity="0" stroke="#000000" stroke-width="1" stroke-opacity="0"></use></g></g><g><use xlink:href="#aRdUdIv0" opacity="1" fill="#fadb93" fill-opacity="1"></use><g><use xlink:href="#aRdUdIv0" opacity="1" fill-opacity="0" stroke="#000000" stroke-width="1" stroke-opacity="0"></use></g></g><g><use xlink:href="#gpH9ir6gE" opacity="1" fill="#fadb93" fill-opacity="1"></use><g><use xlink:href="#gpH9ir6gE" opacity="1" fill-opacity="0" stroke="#000000" stroke-width="1" stroke-opacity="0"></use></g></g><g><use xlink:href="#a2Vepx2f5Y" opacity="1" fill="#fadb93" fill-opacity="1"></use><g><use xlink:href="#a2Vepx2f5Y" opacity="1" fill-opacity="0" stroke="#000000" stroke-width="1" stroke-opacity="0"></use></g></g><g><use xlink:href="#byLxpLMGK" opacity="1" fill="#fadb93" fill-opacity="1"></use><g><use xlink:href="#byLxpLMGK" opacity="1" fill-opacity="0" stroke="#000000" stroke-width="1" stroke-opacity="0"></use></g></g><g><use xlink:href="#d1uda1xfnb" opacity="1" fill="#fadb93" fill-opacity="1"></use><g><use xlink:href="#d1uda1xfnb" opacity="1" fill-opacity="0" stroke="#000000" stroke-width="1" stroke-opacity="0"></use></g></g><g><use xlink:href="#b4htPaP3tS" opacity="1" fill="#fadb93" fill-opacity="1"></use><g><use xlink:href="#b4htPaP3tS" opacity="1" fill-opacity="0" stroke="#000000" stroke-width="1" stroke-opacity="0"></use></g></g><g><use xlink:href="#dcF93W4bH" opacity="1" fill="#fadb93" fill-opacity="1"></use><g><use xlink:href="#dcF93W4bH" opacity="1" fill-opacity="0" stroke="#000000" stroke-width="1" stroke-opacity="0"></use></g></g><g><use xlink:href="#eT2QO3VY8" opacity="1" fill="#fadb93" fill-opacity="1"></use><g><use xlink:href="#eT2QO3VY8" opacity="1" fill-opacity="0" stroke="#000000" stroke-width="1" stroke-opacity="0"></use></g></g><g><use xlink:href="#a1jrAohDVl" opacity="1" fill="#fadb93" fill-opacity="1"></use><g><use xlink:href="#a1jrAohDVl" opacity="1" fill-opacity="0" stroke="#000000" stroke-width="1" stroke-opacity="0"></use></g></g><g><use xlink:href="#b3v5o9ev1G" opacity="1" fill="#fadb93" fill-opacity="1"></use><g><use xlink:href="#b3v5o9ev1G" opacity="1" fill-opacity="0" stroke="#000000" stroke-width="1" stroke-opacity="0"></use></g></g><g><use xlink:href="#a4AFIIwkh2" opacity="1" fill="#fadb93" fill-opacity="1"></use><g><use xlink:href="#a4AFIIwkh2" opacity="1" fill-opacity="0" stroke="#000000" stroke-width="1" stroke-opacity="0"></use></g></g><g><use xlink:href="#d1zpRUlCan" opacity="1" fill="#fadb93" fill-opacity="1"></use><g><use xlink:href="#d1zpRUlCan" opacity="1" fill-opacity="0" stroke="#000000" stroke-width="1" stroke-opacity="0"></use></g></g><g><use xlink:href="#b30e4jZ6X" opacity="1" fill="#fadb93" fill-opacity="1"></use><g><use xlink:href="#b30e4jZ6X" opacity="1" fill-opacity="0" stroke="#000000" stroke-width="1" stroke-opacity="0"></use></g></g><g><use xlink:href="#cPTolwBrA" opacity="1" fill="#fadb93" fill-opacity="1"></use><g><use xlink:href="#cPTolwBrA" opacity="1" fill-opacity="0" stroke="#000000" stroke-width="1" stroke-opacity="0"></use></g></g><g><use xlink:href="#gLuuByNjO" opacity="1" fill="#fadb93" fill-opacity="1"></use><g><use xlink:href="#gLuuByNjO" opacity="1" fill-opacity="0" stroke="#000000" stroke-width="1" stroke-opacity="0"></use></g></g><g><use xlink:href="#eSJQWJn1V" opacity="1" fill="#fadb93" fill-opacity="1"></use><g><use xlink:href="#eSJQWJn1V" opacity="1" fill-opacity="0" stroke="#000000" stroke-width="1" stroke-opacity="0"></use></g></g><g><use xlink:href="#bncUmh00n" opacity="1" fill="#fadb93" fill-opacity="1"></use><g><use xlink:href="#bncUmh00n" opacity="1" fill-opacity="0" stroke="#000000" stroke-width="1" stroke-opacity="0"></use></g></g><g><use xlink:href="#c5gMQiTq0d" opacity="1" fill="#fadb93" fill-opacity="1"></use><g><use xlink:href="#c5gMQiTq0d" opacity="1" fill-opacity="0" stroke="#000000" stroke-width="1" stroke-opacity="0"></use></g></g><g><use xlink:href="#a2NIMoi5mR" opacity="1" fill="#000000" fill-opacity="0"></use><g><use xlink:href="#a2NIMoi5mR" opacity="1" fill-opacity="0" stroke="#000000" stroke-width="1.31" stroke-opacity="1"></use></g></g><g><use xlink:href="#bognlyeTB" opacity="1" fill="#000000" fill-opacity="0"></use><g><use xlink:href="#bognlyeTB" opacity="1" fill-opacity="0" stroke="#000000" stroke-width="1.31" stroke-opacity="1"></use></g></g><g><use xlink:href="#d1U7VWAgqg" opacity="1" fill="#000000" fill-opacity="0"></use><g><use xlink:href="#d1U7VWAgqg" opacity="1" fill-opacity="0" stroke="#000000" stroke-width="1.31" stroke-opacity="1"></use></g></g></g><g><g><use xlink:href="#d8CVkIAbg" opacity="1" fill="#dbdbdb" fill-opacity="1"></use><g><use xlink:href="#d8CVkIAbg" opacity="1" fill-opacity="0" stroke="#000000" stroke-width="1" stroke-opacity="0"></use></g></g><g><use xlink:href="#a9CDtR8YsD" opacity="1" fill="#f1f1f1" fill-opacity="1"></use><g><use xlink:href="#a9CDtR8YsD" opacity="1" fill-opacity="0" stroke="#000000" stroke-width="1" stroke-opacity="0"></use></g></g><g><use xlink:href="#b2ZwZfnNjU" opacity="1" fill="#dbdbdb" fill-opacity="1"></use><g><use xlink:href="#b2ZwZfnNjU" opacity="1" fill-opacity="0" stroke="#000000" stroke-width="1" stroke-opacity="0"></use></g></g><g><use xlink:href="#a2oQ2fNB8" opacity="1" fill="#f7d999" fill-opacity="1"></use><g><use xlink:href="#a2oQ2fNB8" opacity="1" fill-opacity="0" stroke="#000000" stroke-width="1" stroke-opacity="0"></use></g></g><g><use xlink:href="#cdy8g3OO" opacity="1" fill="#000000" fill-opacity="0"></use><g><use xlink:href="#cdy8g3OO" opacity="1" fill-opacity="0" stroke="#000000" stroke-width="1" stroke-opacity="1"></use></g></g><g><use xlink:href="#e6DCcZqNm" opacity="1" fill="#000000" fill-opacity="0"></use><g><use xlink:href="#e6DCcZqNm" opacity="1" fill-opacity="0" stroke="#000000" stroke-width="1" stroke-opacity="1"></use></g></g><g><use xlink:href="#aLeTVnzhd" opacity="1" fill="#f1f1f1" fill-opacity="1"></use><g><use xlink:href="#aLeTVnzhd" opacity="1" fill-opacity="0" stroke="#000000" stroke-width="1" stroke-opacity="0"></use></g></g><g><use xlink:href="#bVQt9WZZo" opacity="1" fill="#ae95f8" fill-opacity="1"></use><g><use xlink:href="#bVQt9WZZo" opacity="1" fill-opacity="0" stroke="#000000" stroke-width="1" stroke-opacity="0"></use></g></g><g><use xlink:href="#c9fbmM2s0" opacity="1" fill="#7fe3de" fill-opacity="1"></use><g><use xlink:href="#c9fbmM2s0" opacity="1" fill-opacity="0" stroke="#000000" stroke-width="1" stroke-opacity="0"></use></g></g><g><use xlink:href="#a13CPDmJk7" opacity="1" fill="#dbdbdb" fill-opacity="1"></use><g><use xlink:href="#a13CPDmJk7" opacity="1" fill-opacity="0" stroke="#000000" stroke-width="1" stroke-opacity="0"></use></g></g></g><g><g><use xlink:href="#dQoIniqzc" opacity="1" fill="#7ce4df" fill-opacity="1"></use><g><use xlink:href="#dQoIniqzc" opacity="1" fill-opacity="0" stroke="#000000" stroke-width="1" stroke-opacity="0"></use></g></g><g><use xlink:href="#gjNTCGkr" opacity="1" fill="#000000" fill-opacity="1"></use><g><use xlink:href="#gjNTCGkr" opacity="1" fill-opacity="0" stroke="#000000" stroke-width="1" stroke-opacity="0"></use></g></g><g><use xlink:href="#a1lCGOoOoO" opacity="1" fill="#f7d999" fill-opacity="1"></use><g><use xlink:href="#a1lCGOoOoO" opacity="1" fill-opacity="0" stroke="#000000" stroke-width="1" stroke-opacity="0"></use></g></g><g><use xlink:href="#f2QK1263z" opacity="1" fill="#000000" fill-opacity="0"></use><g><use xlink:href="#f2QK1263z" opacity="1" fill-opacity="0" stroke="#000000" stroke-width="3" stroke-opacity="1"></use></g></g><g><use xlink:href="#bgSqtFnOF" opacity="1" fill="#000000" fill-opacity="0"></use><g><use xlink:href="#bgSqtFnOF" opacity="1" fill-opacity="0" stroke="#7ce4df" stroke-width="5" stroke-opacity="1"></use></g></g><g><use xlink:href="#a20xZqbztx" opacity="1" fill="#ae95f8" fill-opacity="1"></use><g><use xlink:href="#a20xZqbztx" opacity="1" fill-opacity="0" stroke="#000000" stroke-width="1" stroke-opacity="0"></use></g></g><g><use xlink:href="#agD8Pjlr4" opacity="1" fill="#ae95f8" fill-opacity="1"></use><g><use xlink:href="#agD8Pjlr4" opacity="1" fill-opacity="0" stroke="#000000" stroke-width="1" stroke-opacity="0"></use></g></g><g><use xlink:href="#b2yYt9S7up" opacity="1" fill="#ae95f8" fill-opacity="1"></use><g><use xlink:href="#b2yYt9S7up" opacity="1" fill-opacity="0" stroke="#000000" stroke-width="1" stroke-opacity="0"></use></g></g><g><use xlink:href="#b6xC9cqms" opacity="1" fill="#ae95f8" fill-opacity="1"></use><g><use xlink:href="#b6xC9cqms" opacity="1" fill-opacity="0" stroke="#000000" stroke-width="1" stroke-opacity="0"></use></g></g><g><use xlink:href="#a9hXBWPQ8" opacity="1" fill="#ae95f8" fill-opacity="1"></use><g><use xlink:href="#a9hXBWPQ8" opacity="1" fill-opacity="0" stroke="#000000" stroke-width="1" stroke-opacity="0"></use></g></g><g><use xlink:href="#f2YdX1n81X" opacity="1" fill="#ae95f8" fill-opacity="1"></use><g><use xlink:href="#f2YdX1n81X" opacity="1" fill-opacity="0" stroke="#000000" stroke-width="1" stroke-opacity="0"></use></g></g><g><use xlink:href="#h7LH3UJVN" opacity="1" fill="#ae95f8" fill-opacity="1"></use><g><use xlink:href="#h7LH3UJVN" opacity="1" fill-opacity="0" stroke="#000000" stroke-width="1" stroke-opacity="0"></use></g></g><g><use xlink:href="#a1ZT5jB9kJ" opacity="1" fill="#ae95f8" fill-opacity="1"></use><g><use xlink:href="#a1ZT5jB9kJ" opacity="1" fill-opacity="0" stroke="#000000" stroke-width="1" stroke-opacity="0"></use></g></g><g><use xlink:href="#a2WmjTcffq" opacity="1" fill="#ae95f8" fill-opacity="1"></use><g><use xlink:href="#a2WmjTcffq" opacity="1" fill-opacity="0" stroke="#000000" stroke-width="1" stroke-opacity="0"></use></g></g><g><use xlink:href="#a2zGfNWnuA" opacity="1" fill="#ae95f8" fill-opacity="1"></use><g><use xlink:href="#a2zGfNWnuA" opacity="1" fill-opacity="0" stroke="#000000" stroke-width="1" stroke-opacity="0"></use></g></g><g><use xlink:href="#a36P5mY5Ts" opacity="1" fill="#ae95f8" fill-opacity="1"></use><g><use xlink:href="#a36P5mY5Ts" opacity="1" fill-opacity="0" stroke="#000000" stroke-width="1" stroke-opacity="0"></use></g></g><g><use xlink:href="#azd5XOGRS" opacity="1" fill="#ae95f8" fill-opacity="1"></use><g><use xlink:href="#azd5XOGRS" opacity="1" fill-opacity="0" stroke="#000000" stroke-width="1" stroke-opacity="0"></use></g></g><g><use xlink:href="#atCPi4urg" opacity="1" fill="#ae95f8" fill-opacity="1"></use><g><use xlink:href="#atCPi4urg" opacity="1" fill-opacity="0" stroke="#000000" stroke-width="1" stroke-opacity="0"></use></g></g><g><use xlink:href="#g3lbCK25Xr" opacity="1" fill="#ae95f8" fill-opacity="1"></use><g><use xlink:href="#g3lbCK25Xr" opacity="1" fill-opacity="0" stroke="#000000" stroke-width="1" stroke-opacity="0"></use></g></g><g><use xlink:href="#a6XrNu5nt" opacity="1" fill="#ae95f8" fill-opacity="1"></use><g><use xlink:href="#a6XrNu5nt" opacity="1" fill-opacity="0" stroke="#000000" stroke-width="1" stroke-opacity="0"></use></g></g><g><use xlink:href="#agUyWZR9o" opacity="1" fill="#ae95f8" fill-opacity="1"></use><g><use xlink:href="#agUyWZR9o" opacity="1" fill-opacity="0" stroke="#000000" stroke-width="1" stroke-opacity="0"></use></g></g><g><use xlink:href="#k5E0y60TxM" opacity="1" fill="#ae95f8" fill-opacity="1"></use><g><use xlink:href="#k5E0y60TxM" opacity="1" fill-opacity="0" stroke="#000000" stroke-width="1" stroke-opacity="0"></use></g></g><g><use xlink:href="#et58Nc5WA" opacity="1" fill="#ae95f8" fill-opacity="1"></use><g><use xlink:href="#et58Nc5WA" opacity="1" fill-opacity="0" stroke="#000000" stroke-width="1" stroke-opacity="0"></use></g></g><g><use xlink:href="#a1mls0CVPn" opacity="1" fill="#ae95f8" fill-opacity="1"></use><g><use xlink:href="#a1mls0CVPn" opacity="1" fill-opacity="0" stroke="#000000" stroke-width="1" stroke-opacity="0"></use></g></g><g><use xlink:href="#cpEACUtRz" opacity="1" fill="#ae95f8" fill-opacity="1"></use><g><use xlink:href="#cpEACUtRz" opacity="1" fill-opacity="0" stroke="#000000" stroke-width="1" stroke-opacity="0"></use></g></g><g><use xlink:href="#d81wGkFoP6" opacity="1" fill="#ae95f8" fill-opacity="1"></use><g><use xlink:href="#d81wGkFoP6" opacity="1" fill-opacity="0" stroke="#000000" stroke-width="1" stroke-opacity="0"></use></g></g><g><use xlink:href="#cZz8MjNkM" opacity="1" fill="#ae95f8" fill-opacity="1"></use><g><use xlink:href="#cZz8MjNkM" opacity="1" fill-opacity="0" stroke="#000000" stroke-width="1" stroke-opacity="0"></use></g></g><g><use xlink:href="#cEo35DNsu" opacity="1" fill="#ae95f8" fill-opacity="1"></use><g><use xlink:href="#cEo35DNsu" opacity="1" fill-opacity="0" stroke="#000000" stroke-width="1" stroke-opacity="0"></use></g></g><g><use xlink:href="#c40hUdS29" opacity="1" fill="#ae95f8" fill-opacity="1"></use><g><use xlink:href="#c40hUdS29" opacity="1" fill-opacity="0" stroke="#000000" stroke-width="1" stroke-opacity="0"></use></g></g></g></g></g></svg>