<?xml version="1.0" encoding="UTF-8" standalone="no"?>
<!DOCTYPE svg PUBLIC "-//W3C//DTD SVG 1.1//EN" "http://www.w3.org/Graphics/SVG/1.1/DTD/svg11.dtd">
<svg version="1.1" xmlns="http://www.w3.org/2000/svg" xmlns:xlink="http://www.w3.org/1999/xlink" preserveAspectRatio="xMidYMid meet" viewBox="0 0 640 640" width="640" height="640"><defs><path d="M320 13.6C143.27 13.6 0 156.87 0 333.6C0 510.33 143.27 653.6 320 653.6C496.73 653.6 640 510.33 640 333.6C640 156.87 496.73 13.6 320 13.6Z" id="a26L4Deh6"></path><path d="M-138.27 141.81C-138.27 121.85 -88.74 117.62 -69.16 117.62C-29.46 117.62 -26.83 94.89 6.13 94.89C35.11 94.89 49.86 118.36 76.84 118.36C134.74 118.36 147.64 51.66 203.97 51.66C261.29 51.66 258.36 121.29 311.7 121.29C338.81 121.29 501.73 126.41 501.73 141.82C373.73 141.82 -10.27 141.81 -138.27 141.81Z" id="a4I7EricoJ"></path><path d="M141.67 226.93C141.67 216.6 216.54 200.45 257.49 200.45C338.26 200.45 313.04 213.69 363.85 213.69C421.75 213.69 434.97 154.72 523.07 154.72C619.36 154.72 604.25 212.4 663.34 212.4C688.79 212.4 701.54 206.79 737.71 206.79C758.7 206.79 781.67 216.64 781.67 226.97C653.67 226.96 269.67 226.94 141.67 226.93Z" id="e1Hyzkuhcc"></path><path d="M542.77 491.18C544.14 491.18 552.21 490.71 553.58 491.78C556.05 493.73 555.12 509.71 554.33 510.5C553.54 511.3 551.87 511.73 551.38 511.07C550.89 510.4 549.44 504.06 548.79 503.21C548.14 502.36 540.79 500.93 538.96 501.4" id="akRJcfWcz"></path><path d="M235.37 486.17L235.08 525.64" id="acCi5kjnj"></path><path d="M315.48 435.35C314.02 437.92 315.18 453.14 244.07 500.48C241.1 501.66 238.82 503.98 237.84 506.85C237.84 506.85 238.94 510.6 242.06 509.61C242.06 509.61 298.86 490.12 325.44 472.59C332.22 468.26 345.87 450.05 345.87 450.05C339.79 447.11 321.56 438.29 315.48 435.35Z" id="a3ybCXNk1"></path><path d="M373.28 467.16C373.28 470.12 371.04 500.14 364.97 518.14C362.68 518.43 354.97 519.6 354.97 523.92C354.97 525.11 357.72 528.96 364.15 528.95C366.22 528.95 373.8 526.73 375.38 524.37C376.96 522 394.38 474.27 394.7 468.35C395.02 462.42 393.59 441.82 391.53 437.96C389.47 434.11 356.66 431.89 356.66 431.89C358.72 435.21 373.28 464.2 373.28 467.16Z" id="dM9ZjGgrP"></path><path d="M421.22 442.36C414.33 448.96 402.46 515.37 406.42 523.22C410.38 531.08 421.22 529.99 421.22 529.99C421.22 529.99 543.57 512.92 545.12 511.14C546.67 509.36 547.01 491.65 543.22 489.24C539.43 486.82 483 483.98 472.67 486.21C462.34 488.43 444.62 446.89 444.62 446.89C439.94 445.99 425.9 443.27 421.22 442.36Z" id="a163rwTaW"></path><path d="M556.19 503.8C557.56 503.8 565.63 503.33 567 504.41C569.47 506.36 568.54 522.33 567.75 523.13C566.96 523.93 565.29 524.36 564.8 523.69C564.31 523.03 562.86 516.7 562.21 515.84C561.56 514.98 554.21 513.56 552.38 514.02" id="b5eU3vUnp"></path><path d="M335.1 403.77C324.1 415.23 324.25 420.55 313.1 439.42C318.39 443.16 340.28 457.2 340.28 457.2C340.28 457.2 357.08 434.91 358.62 435.17C364.4 437.39 401.14 447.61 435 447.54C442.67 447.54 478.9 409.91 477.31 405.95C475.72 401.99 402.47 364.81 342.21 372.66C339.13 373.06 331.92 385.21 335.1 403.77Z" id="d1rbkc2I1"></path><path d="M506.98 436.48C506.46 458.88 476.45 496.44 472.86 500.73C479.64 500.92 548.09 500.17 556.67 502.23C559.46 502.79 557.67 513.46 556.67 514.93C555.67 516.4 493.08 532.58 417.97 537.39C413.38 537.69 412.19 531.41 411.39 528.24C410.59 525.07 422.93 465.35 437.33 442.5C438.97 439.86 472.86 404.91 472.86 404.91C475.45 405.65 507.38 418.95 506.98 436.48Z" id="a4pjqHGuXP"></path><path d="M248.7 507.71C248.7 511.25 243.77 514.11 237.69 514.11C231.6 514.11 226.67 511.25 226.67 507.71C226.67 504.18 231.6 501.32 237.69 501.32C243.77 501.32 248.7 504.18 248.7 507.71Z" id="b17RLWqF2R"></path><path d="M294.62 340.74C297.56 337.14 307.29 336 307.62 340.08C307.95 344.16 302.25 358.4 298.1 358.03C296.74 357.92 292.19 352.61 294.62 340.74Z" id="a1D5nvnNUx"></path><path d="M336.77 388.44C339.65 389.88 346.42 378.49 343.31 376.95C342.02 376.3 335.57 373.09 323.96 367.3L317.41 378.8C327.73 383.94 334.19 387.16 336.77 388.44Z" id="f3omaHCtWk"></path><path d="M335.52 373.05C333.79 372.2 326.24 372.12 326 374.78C326.21 371.42 322.47 367.83 324 367.29C326.3 368.44 333.21 371.9 335.52 373.05Z" id="d11BghP89M"></path><path d="M315.25 346.5C305.26 346.5 297.17 354.08 297.17 363.42C297.17 372.77 305.26 380.35 315.25 380.35C325.23 380.35 333.33 372.77 333.33 363.42C333.33 354.08 325.23 346.5 315.25 346.5Z" id="i3GlHGEeEb"></path><path d="M300.47 367.62C300.59 368.42 299.34 369.25 297.69 369.46C296.04 369.67 294.6 369.19 294.48 368.39C294.37 367.58 295.61 366.76 297.26 366.55C298.91 366.33 300.35 366.81 300.47 367.62Z" id="bSo5lylj"></path><path d="M319.25 365.2C319.37 366 318.12 366.83 316.47 367.04C314.82 367.25 313.38 366.77 313.27 365.97C313.15 365.17 314.39 364.34 316.04 364.13C317.7 363.92 319.13 364.4 319.25 365.2Z" id="a2NZY3QwZP"></path><path d="M304.32 364.04C303.88 364.85 301.46 368.33 304.66 369.26" id="e6XmiAVvkj"></path><path d="M311.24 372.13C312.13 371.99 313.37 370.79 313.97 369.75" id="ab2efwCGO"></path><path d="M374.12 330.64C391.35 330.64 404.95 323.4 424.26 323.4C433.07 323.4 455.65 330.4 455.65 354.1C455.65 367.53 447.65 394.21 413.38 394.21C384.04 394.21 378.92 382.59 367.04 382.59C354.5 382.59 331.18 388.12 327.24 373.16C326.39 369.18 325.43 364.3 323.07 360.3C309.93 356.02 305.66 356.39 299.49 352.97C290.55 348.99 290.13 326.96 321.83 326.96C345.75 326.96 362.93 330.64 374.12 330.64Z" id="gpJd15LsH"></path><path d="M326.29 359.09C324.09 359.09 322.31 360.76 322.31 362.81C322.31 364.87 324.09 366.54 326.29 366.54C328.49 366.54 330.27 364.87 330.27 362.81C330.27 360.76 328.49 359.09 326.29 359.09Z" id="b1htDJtZdr"></path><path d="M137.8 532.2C137.27 533.73 133.73 542.59 134.53 544.54C135.97 548.07 155.7 553.27 156.91 552.68C158.12 552.09 159.32 550.41 158.69 549.61C158.06 548.8 150.92 544.68 150.13 543.63C149.34 542.59 149.19 538.32 150.44 536.47" id="aUugs9z7I"></path><path d="M11.79 519.19C11.26 520.71 7.72 529.57 8.52 531.51C9.96 535.05 29.69 540.25 30.9 539.67C32.11 539.09 33.3 537.4 32.67 536.59C32.04 535.78 24.9 531.66 24.11 530.62C23.32 529.57 23.18 525.3 24.43 523.45" id="a1PHObKQL5"></path><path d="M78.69 451.41C72.98 461.77 34.54 523.98 30.63 525.46C26.72 526.94 9.31 521.06 8.4 518.1C7.49 515.14 53.47 426.52 57.07 415.56C60.67 404.59 99.39 315.43 109.94 306.55C120.48 297.67 145.01 371.23 142.68 374.98C140.5 378.49 112.34 424.15 78.69 451.41Z" id="fhVNqN24G"></path><path d="M199.98 430.42C197.98 445.04 154.49 537.42 150.79 538.41C147.09 539.41 137.31 536.09 135.62 532.1C133.93 528.12 154.83 421.11 154.83 421.11C150.83 416.79 109.43 346.01 112.02 311.76C114.62 277.5 171.99 335.03 171.99 335.03C177.38 343.34 201.98 415.79 199.98 430.42Z" id="cbik6u9A6w"></path><path d="M192.24 242.29C191.53 244.97 176.48 241.3 177.25 238.35C177.57 237.15 179.17 231.15 182.06 220.36L197.05 224.31C194.49 233.9 192.89 239.89 192.24 242.29Z" id="gOxltRHOd"></path><path d="M179.19 231.17C179.62 229.56 184.8 225.02 187.4 226.69C184.21 224.54 183.59 219.9 182.06 220.42C181.48 222.57 179.76 229.02 179.19 231.17Z" id="c1tTEwXZZ"></path><path d="M199.73 191.06C188.6 191.06 179.58 199.96 179.58 210.94C179.58 221.91 188.6 230.81 199.73 230.81C210.87 230.81 219.89 221.91 219.89 210.94C219.89 199.96 210.87 191.06 199.73 191.06Z" id="a3JNirulCt"></path><path d="M219.19 216.97C220.98 217.43 222.24 218.56 221.99 219.48C221.75 220.4 220.09 220.77 218.3 220.31C216.5 219.84 215.25 218.71 215.49 217.79C215.74 216.87 217.4 216.5 219.19 216.97Z" id="aLHa5nJ7D"></path><path d="M198.74 211.65C200.53 212.12 201.79 213.24 201.54 214.16C201.3 215.09 199.64 215.45 197.85 214.99C196.05 214.52 194.8 213.4 195.04 212.48C195.29 211.55 196.95 211.18 198.74 211.65Z" id="gLuk1v3j9"></path><path d="M211.73 213.11C212.11 214.1 214.27 218.53 210.59 219.13" id="a14itjmPx"></path><path d="M202.91 221.62C201.91 221.34 200.75 219.78 200.24 218.49" id="kg6RIFhLo"></path><path d="M218.71 204.34C215.01 193.99 203.49 188.55 193 192.21C184.61 195.12 179.15 203.11 179.57 211.87C182.45 211.17 190.42 207.56 192.37 203.77C194.44 199.82 213.45 197.96 218.71 204.34Z" id="gxb8q2qVc"></path><path d="M186.29 202.01C183.84 202.01 181.86 203.97 181.86 206.39C181.86 208.81 183.84 210.77 186.29 210.77C188.75 210.77 190.73 208.81 190.73 206.39C190.73 203.97 188.75 202.01 186.29 202.01Z" id="a11RHeYsWr"></path><path d="M173.04 114.63C175.31 112.84 187.26 115.74 187.4 118.21C187.4 122.05 164.94 219.77 165.41 221.62C165.88 223.48 200.25 246.59 200.25 246.59C200.25 246.59 233.52 213.91 234.69 211.87C235.86 209.83 240.17 156.23 240.99 155C241.81 153.77 254.31 151.89 254.99 152.58C255.67 153.27 258.14 211.45 257.44 214.79C256.74 218.13 221.57 259.16 220.44 261.13C219.31 263.11 177.22 337.17 173.84 338.89C170.46 340.62 129.38 331.33 105.24 310.73C107.24 306.26 170.77 116.42 173.04 114.63Z" id="f4LQzQDyPM"></path><path d="M183.36 102.18C187.42 103.16 189.77 107.72 188.62 112.37C187.46 117.01 183.24 119.98 179.18 119C175.12 118.02 172.76 113.46 173.92 108.81C175.07 104.17 179.3 101.2 183.36 102.18Z" id="f2zElvUFD"></path><path d="M249.61 139.9C253.67 140.88 256.03 145.44 254.88 150.08C253.72 154.73 249.5 157.7 245.44 156.72C241.38 155.73 239.02 151.17 240.17 146.53C241.33 141.89 245.55 138.92 249.61 139.9Z" id="a5YdRie7vZ"></path><path d="M165.38 221.62C161.98 219.47 153.92 216.4 148.59 215.12" id="f1zmfT2yR8"></path><path d="M200.24 246.59C202.64 247.83 204.9 249.32 206.98 251.04" id="i5r9yYXK3u"></path><path d="M350.56 72.35C350.56 72.35 350.56 72.35 350.56 72.35C339.38 65.92 325.76 69.24 320.09 79.79C316.44 86.62 287.28 141.23 283.64 148.06C278.03 158.64 282.5 172.44 293.65 178.93C294.73 179.56 300.14 182.7 309.89 188.34L366.8 81.75L350.56 72.35Z" id="b2ccrLHklL"></path><path d="M575.82 202.76C575.82 202.76 575.82 202.76 575.82 202.76C586.96 209.26 591.43 223.05 585.82 233.64C582.18 240.47 553.02 295.08 549.37 301.9C543.7 312.45 530.09 315.78 518.91 309.35C517.82 308.72 512.41 305.59 502.67 299.95L559.58 193.36L575.82 202.76Z" id="a1rsP7E5pV"></path><path d="M556.48 192.21C556.48 192.21 556.48 192.21 556.48 192.21C522.65 255.57 503.85 290.77 500.09 297.81C500.09 297.81 500.09 297.81 500.09 297.81C387.82 232.82 325.45 196.71 312.98 189.48C312.98 189.48 312.98 189.48 312.98 189.48C346.81 126.12 365.61 90.92 369.37 83.88C369.37 83.88 369.37 83.88 369.37 83.88C481.63 148.87 544.01 184.98 556.48 192.21Z" id="g96PMz2mqc"></path><path d="M546.42 190.54C549.95 192.58 550.82 195.28 549.04 198.62C520.45 252.16 504.57 281.9 501.39 287.85C499.61 291.19 496.95 291.84 493.42 289.79C390.77 230.36 333.74 197.35 322.33 190.74C318.81 188.7 317.93 186.01 319.72 182.67C348.3 129.13 364.18 99.38 367.36 93.44C369.14 90.09 371.8 89.44 375.33 91.49C477.98 150.92 535.01 183.94 546.42 190.54Z" id="bKRVVnezF"></path><path d="M533.7 193.9C533.7 193.9 533.7 193.9 533.7 193.9C507.15 243.62 492.4 271.25 489.45 276.77C489.45 276.77 489.45 276.77 489.45 276.77C397.14 223.33 345.86 193.64 335.61 187.71C335.61 187.71 335.61 187.71 335.61 187.71C362.16 137.98 376.91 110.36 379.86 104.83C379.86 104.83 379.86 104.83 379.86 104.83C472.16 158.27 523.44 187.96 533.7 193.9Z" id="ck72Kjt1i"></path><path d="M359.62 88.61C359.62 88.61 359.62 88.61 359.62 88.61C358.92 89.91 358.53 90.64 358.46 90.78C358.46 90.78 358.46 90.78 358.46 90.78C354.64 88.58 352.52 87.35 352.1 87.1C352.1 87.1 352.1 87.1 352.1 87.1C352.79 85.8 353.18 85.07 353.26 84.93C353.26 84.93 353.26 84.93 353.26 84.93C357.07 87.14 359.19 88.37 359.62 88.61Z" id="cczuAuayX"></path><path d="M564.19 207.05C564.19 207.05 564.19 207.05 564.19 207.05C563.5 208.36 563.11 209.08 563.03 209.22C563.03 209.22 563.03 209.22 563.03 209.22C559.22 207.02 557.1 205.79 556.67 205.54C556.67 205.54 556.67 205.54 556.67 205.54C557.37 204.24 557.76 203.51 557.83 203.37C557.83 203.37 557.83 203.37 557.83 203.37C561.65 205.58 563.77 206.81 564.19 207.05Z" id="c1paixne"></path><path d="M560.89 202.62C560.89 202.62 560.89 202.62 560.89 202.62C562.27 203.42 563.03 203.86 563.19 203.95C563.19 203.95 563.19 203.95 563.19 203.95C561.26 207.56 560.19 209.57 559.97 209.97C559.97 209.97 559.97 209.97 559.97 209.97C558.59 209.18 557.83 208.73 557.68 208.64C557.68 208.64 557.68 208.64 557.68 208.64C559.61 205.03 560.68 203.02 560.89 202.62Z" id="b1SrdmjkY"></path><path d="M340.16 89.1C335.38 86.34 329.54 87.76 327.13 92.29C324.71 96.81 326.63 102.72 331.41 105.49C336.19 108.26 342.02 106.83 344.44 102.31C346.85 97.78 344.94 91.87 340.16 89.1Z" id="bqzJsZ73g"></path><path d="M549.79 254.69C545.01 251.92 539.18 253.35 536.76 257.87C534.34 262.4 536.26 268.31 541.04 271.08C545.82 273.84 551.66 272.42 554.07 267.89C556.49 263.37 554.57 257.45 549.79 254.69Z" id="e1eCDwLik6"></path><path d="M324.01 119.58C321.77 118.29 319.03 118.95 317.89 121.08C316.76 123.2 317.66 125.98 319.9 127.28C322.15 128.58 324.88 127.91 326.02 125.78C327.15 123.66 326.25 120.88 324.01 119.58Z" id="aWKmlHUFv"></path><path d="M319.94 123.38L323.07 125.19L322.87 121.72L322.87 121.72L319.94 123.38Z" id="ak2YLFNSu"></path><path d="M315.68 135.19C313.43 133.89 310.69 134.56 309.56 136.68C308.43 138.81 309.33 141.58 311.57 142.88C313.81 144.18 316.55 143.51 317.69 141.39C318.82 139.26 317.92 136.49 315.68 135.19Z" id="beDaptAB9"></path><path d="M312.52 137.28L315.65 139.09L312.71 140.75L312.71 140.75L312.52 137.28Z" id="iJ1raMHsk"></path><path d="M328.86 132.47C326.61 131.17 323.87 131.84 322.74 133.96C321.6 136.09 322.5 138.86 324.75 140.16C326.99 141.46 329.73 140.79 330.86 138.67C332 136.54 331.1 133.77 328.86 132.47Z" id="e3jBLAMPAY"></path><path d="M325.11 137.27L326.69 134.31L328.61 137.36L328.61 137.36L325.11 137.27Z" id="b8ggqyGlg"></path><path d="M311.21 122.25C308.97 120.95 306.23 121.62 305.09 123.75C303.96 125.87 304.86 128.65 307.1 129.95C309.35 131.25 312.08 130.58 313.22 128.45C314.35 126.33 313.45 123.55 311.21 122.25Z" id="cr8NnbGJt"></path><path d="M309.27 128.1L310.85 125.14L307.35 125.05L307.35 125.05L309.27 128.1Z" id="aLdCF6byJ"></path><path d="M568.23 220.16C565.98 218.86 563.24 219.53 562.11 221.66C560.97 223.78 561.87 226.56 564.12 227.86C566.36 229.15 569.1 228.49 570.24 226.36C571.37 224.24 570.47 221.46 568.23 220.16Z" id="a1FTQ6siTm"></path><path d="M559.89 235.77C557.65 234.47 554.91 235.14 553.78 237.26C552.64 239.38 553.54 242.16 555.79 243.46C558.03 244.76 560.77 244.09 561.9 241.97C563.04 239.84 562.14 237.06 559.89 235.77Z" id="aNCYQH1Lo"></path><path d="M573.07 233.04C570.83 231.74 568.09 232.41 566.96 234.53C565.82 236.66 566.72 239.44 568.97 240.73C571.21 242.03 573.95 241.36 575.08 239.24C576.22 237.12 575.32 234.34 573.07 233.04Z" id="mdBKAmu1W"></path><path d="M555.43 222.82C553.18 221.52 550.45 222.19 549.31 224.32C548.18 226.44 549.08 229.22 551.32 230.52C553.56 231.82 556.3 231.15 557.44 229.02C558.57 226.9 557.67 224.12 555.43 222.82Z" id="aQ4fZRtF2"></path><path d="M404.7 102.05C404.7 102.05 404.7 102.05 404.7 102.05C404.14 103.1 403.83 103.68 403.77 103.79C403.77 103.79 403.77 103.79 403.77 103.79C391.87 96.9 385.26 93.08 383.93 92.31C383.93 92.31 383.93 92.31 383.93 92.31C384.49 91.26 384.8 90.68 384.87 90.56C384.87 90.56 384.87 90.56 384.87 90.56C396.77 97.45 403.38 101.28 404.7 102.05Z" id="a6lliuuP5"></path><path d="M467.5 261.79L571.42 178.98L439.53 125.15L439.53 125.15L467.5 261.79Z" id="bhpGLToUm"></path><path d="M373.47 163.34L335.66 187.62L350.28 232.73L397.13 236.33L411.47 193.44L411.47 193.44L373.47 163.34Z" id="cmxfoog77"></path></defs><g><g><g><use xlink:href="#a26L4Deh6" opacity="1" fill="#faefe9" fill-opacity="1"></use><g><use xlink:href="#a26L4Deh6" opacity="1" fill-opacity="0" stroke="#000000" stroke-width="1" stroke-opacity="0"></use></g></g><g><use xlink:href="#a4I7EricoJ" opacity="1" fill="#ffffff" fill-opacity="1"></use><g><use xlink:href="#a4I7EricoJ" opacity="1" fill-opacity="0" stroke="#000000" stroke-width="1" stroke-opacity="0"></use></g></g><g><use xlink:href="#e1Hyzkuhcc" opacity="1" fill="#ffffff" fill-opacity="1"></use><g><use xlink:href="#e1Hyzkuhcc" opacity="1" fill-opacity="0" stroke="#000000" stroke-width="1" stroke-opacity="0"></use></g></g><g><g><use xlink:href="#akRJcfWcz" opacity="1" fill="#1f161e" fill-opacity="1"></use><g><use xlink:href="#akRJcfWcz" opacity="1" fill-opacity="0" stroke="#000000" stroke-width="1" stroke-opacity="0"></use></g></g><g><use xlink:href="#acCi5kjnj" opacity="1" fill="#000000" fill-opacity="0"></use><g><use xlink:href="#acCi5kjnj" opacity="1" fill-opacity="0" stroke="#000000" stroke-width="3" stroke-opacity="1"></use></g></g><g><use xlink:href="#a3ybCXNk1" opacity="1" fill="#f8cdba" fill-opacity="1"></use><g><use xlink:href="#a3ybCXNk1" opacity="1" fill-opacity="0" stroke="#000000" stroke-width="1" stroke-opacity="0"></use></g></g><g><use xlink:href="#dM9ZjGgrP" opacity="1" fill="#1f161e" fill-opacity="1"></use><g><use xlink:href="#dM9ZjGgrP" opacity="1" fill-opacity="0" stroke="#000000" stroke-width="1" stroke-opacity="0"></use></g></g><g><use xlink:href="#a163rwTaW" opacity="1" fill="#1f161e" fill-opacity="1"></use><g><use xlink:href="#a163rwTaW" opacity="1" fill-opacity="0" stroke="#000000" stroke-width="1" stroke-opacity="0"></use></g></g><g><use xlink:href="#b5eU3vUnp" opacity="1" fill="#1f161e" fill-opacity="1"></use><g><use xlink:href="#b5eU3vUnp" opacity="1" fill-opacity="0" stroke="#000000" stroke-width="1" stroke-opacity="0"></use></g></g><g><use xlink:href="#d1rbkc2I1" opacity="1" fill="#55b79d" fill-opacity="1"></use><g><use xlink:href="#d1rbkc2I1" opacity="1" fill-opacity="0" stroke="#000000" stroke-width="1" stroke-opacity="0"></use></g></g><g><use xlink:href="#a4pjqHGuXP" opacity="1" fill="#73e5e2" fill-opacity="1"></use><g><use xlink:href="#a4pjqHGuXP" opacity="1" fill-opacity="0" stroke="#000000" stroke-width="1" stroke-opacity="0"></use></g></g><g><use xlink:href="#b17RLWqF2R" opacity="1" fill="#f8cdba" fill-opacity="1"></use><g><use xlink:href="#b17RLWqF2R" opacity="1" fill-opacity="0" stroke="#000000" stroke-width="1" stroke-opacity="0"></use></g></g><g><use xlink:href="#a1D5nvnNUx" opacity="1" fill="#1f161e" fill-opacity="1"></use><g><use xlink:href="#a1D5nvnNUx" opacity="1" fill-opacity="0" stroke="#000000" stroke-width="1" stroke-opacity="0"></use></g></g><g><use xlink:href="#f3omaHCtWk" opacity="1" fill="#f8cdba" fill-opacity="1"></use><g><use xlink:href="#f3omaHCtWk" opacity="1" fill-opacity="0" stroke="#000000" stroke-width="1" stroke-opacity="0"></use></g></g><g><use xlink:href="#d11BghP89M" opacity="1" fill="#000000" fill-opacity="1"></use><g><use xlink:href="#d11BghP89M" opacity="1" fill-opacity="0" stroke="#000000" stroke-width="1" stroke-opacity="0"></use></g></g><g><use xlink:href="#i3GlHGEeEb" opacity="1" fill="#f8cdba" fill-opacity="1"></use><g><use xlink:href="#i3GlHGEeEb" opacity="1" fill-opacity="0" stroke="#000000" stroke-width="1" stroke-opacity="0"></use></g></g><g><use xlink:href="#bSo5lylj" opacity="1" fill="#fa9e9f" fill-opacity="1"></use><g><use xlink:href="#bSo5lylj" opacity="1" fill-opacity="0" stroke="#000000" stroke-width="1" stroke-opacity="0"></use></g></g><g><use xlink:href="#a2NZY3QwZP" opacity="1" fill="#fa9e9f" fill-opacity="1"></use><g><use xlink:href="#a2NZY3QwZP" opacity="1" fill-opacity="0" stroke="#000000" stroke-width="1" stroke-opacity="0"></use></g></g><g><use xlink:href="#e6XmiAVvkj" opacity="1" fill="#000000" fill-opacity="0"></use><g><use xlink:href="#e6XmiAVvkj" opacity="1" fill-opacity="0" stroke="#1f161e" stroke-width="0.69" stroke-opacity="1"></use></g></g><g><use xlink:href="#ab2efwCGO" opacity="1" fill="#000000" fill-opacity="0"></use><g><use xlink:href="#ab2efwCGO" opacity="1" fill-opacity="0" stroke="#1f161e" stroke-width="0.69" stroke-opacity="1"></use></g></g><g><use xlink:href="#gpJd15LsH" opacity="1" fill="#1f161e" fill-opacity="1"></use><g><use xlink:href="#gpJd15LsH" opacity="1" fill-opacity="0" stroke="#000000" stroke-width="1" stroke-opacity="0"></use></g></g><g><use xlink:href="#b1htDJtZdr" opacity="1" fill="#f8cdba" fill-opacity="1"></use><g><use xlink:href="#b1htDJtZdr" opacity="1" fill-opacity="0" stroke="#000000" stroke-width="1" stroke-opacity="0"></use></g></g></g><g><g><use xlink:href="#aUugs9z7I" opacity="1" fill="#1f161e" fill-opacity="1"></use><g><use xlink:href="#aUugs9z7I" opacity="1" fill-opacity="0" stroke="#000000" stroke-width="1" stroke-opacity="0"></use></g></g><g><use xlink:href="#a1PHObKQL5" opacity="1" fill="#1f161e" fill-opacity="1"></use><g><use xlink:href="#a1PHObKQL5" opacity="1" fill-opacity="0" stroke="#000000" stroke-width="1" stroke-opacity="0"></use></g></g><g><use xlink:href="#fhVNqN24G" opacity="1" fill="#1f161e" fill-opacity="1"></use><g><use xlink:href="#fhVNqN24G" opacity="1" fill-opacity="0" stroke="#000000" stroke-width="1" stroke-opacity="0"></use></g></g><g><use xlink:href="#cbik6u9A6w" opacity="1" fill="#ab8fe2" fill-opacity="1"></use><g><use xlink:href="#cbik6u9A6w" opacity="1" fill-opacity="0" stroke="#000000" stroke-width="1" stroke-opacity="0"></use></g></g><g><use xlink:href="#gOxltRHOd" opacity="1" fill="#f8cdba" fill-opacity="1"></use><g><use xlink:href="#gOxltRHOd" opacity="1" fill-opacity="0" stroke="#000000" stroke-width="1" stroke-opacity="0"></use></g></g><g><use xlink:href="#c1tTEwXZZ" opacity="1" fill="#000000" fill-opacity="1"></use><g><use xlink:href="#c1tTEwXZZ" opacity="1" fill-opacity="0" stroke="#000000" stroke-width="1" stroke-opacity="0"></use></g></g><g><use xlink:href="#a3JNirulCt" opacity="1" fill="#f8cdba" fill-opacity="1"></use><g><use xlink:href="#a3JNirulCt" opacity="1" fill-opacity="0" stroke="#000000" stroke-width="1" stroke-opacity="0"></use></g></g><g><use xlink:href="#aLHa5nJ7D" opacity="1" fill="#fa9e9f" fill-opacity="1"></use><g><use xlink:href="#aLHa5nJ7D" opacity="1" fill-opacity="0" stroke="#000000" stroke-width="1" stroke-opacity="0"></use></g></g><g><use xlink:href="#gLuk1v3j9" opacity="1" fill="#fa9e9f" fill-opacity="1"></use><g><use xlink:href="#gLuk1v3j9" opacity="1" fill-opacity="0" stroke="#000000" stroke-width="1" stroke-opacity="0"></use></g></g><g><use xlink:href="#a14itjmPx" opacity="1" fill="#000000" fill-opacity="0"></use><g><use xlink:href="#a14itjmPx" opacity="1" fill-opacity="0" stroke="#1f161e" stroke-width="0.69" stroke-opacity="1"></use></g></g><g><use xlink:href="#kg6RIFhLo" opacity="1" fill="#000000" fill-opacity="0"></use><g><use xlink:href="#kg6RIFhLo" opacity="1" fill-opacity="0" stroke="#1f161e" stroke-width="0.69" stroke-opacity="1"></use></g></g><g><use xlink:href="#gxb8q2qVc" opacity="1" fill="#000000" fill-opacity="1"></use><g><use xlink:href="#gxb8q2qVc" opacity="1" fill-opacity="0" stroke="#000000" stroke-width="1" stroke-opacity="0"></use></g></g><g><use xlink:href="#a11RHeYsWr" opacity="1" fill="#f8cdba" fill-opacity="1"></use><g><use xlink:href="#a11RHeYsWr" opacity="1" fill-opacity="0" stroke="#000000" stroke-width="1" stroke-opacity="0"></use></g></g><g><use xlink:href="#f4LQzQDyPM" opacity="1" fill="#fadb93" fill-opacity="1"></use><g><use xlink:href="#f4LQzQDyPM" opacity="1" fill-opacity="0" stroke="#000000" stroke-width="1" stroke-opacity="0"></use></g></g><g><use xlink:href="#f2zElvUFD" opacity="1" fill="#f8cdba" fill-opacity="1"></use><g><use xlink:href="#f2zElvUFD" opacity="1" fill-opacity="0" stroke="#000000" stroke-width="1" stroke-opacity="0"></use></g></g><g><use xlink:href="#a5YdRie7vZ" opacity="1" fill="#f8cdba" fill-opacity="1"></use><g><use xlink:href="#a5YdRie7vZ" opacity="1" fill-opacity="0" stroke="#000000" stroke-width="1" stroke-opacity="0"></use></g></g><g><use xlink:href="#f1zmfT2yR8" opacity="1" fill="#000000" fill-opacity="0"></use><g><use xlink:href="#f1zmfT2yR8" opacity="1" fill-opacity="0" stroke="#1f161e" stroke-width="0.55" stroke-opacity="1"></use></g></g><g><use xlink:href="#i5r9yYXK3u" opacity="1" fill="#000000" fill-opacity="0"></use><g><use xlink:href="#i5r9yYXK3u" opacity="1" fill-opacity="0" stroke="#1f161e" stroke-width="0.55" stroke-opacity="1"></use></g></g></g><g><g><use xlink:href="#b2ccrLHklL" opacity="1" fill="#7fe3de" fill-opacity="1"></use><g><use xlink:href="#b2ccrLHklL" opacity="1" fill-opacity="0" stroke="#000000" stroke-width="1" stroke-opacity="0"></use></g></g><g><use xlink:href="#a1rsP7E5pV" opacity="1" fill="#ae95f8" fill-opacity="1"></use><g><use xlink:href="#a1rsP7E5pV" opacity="1" fill-opacity="0" stroke="#000000" stroke-width="1" stroke-opacity="0"></use></g></g><g><use xlink:href="#g96PMz2mqc" opacity="1" fill="#f1f1f1" fill-opacity="1"></use><g><use xlink:href="#g96PMz2mqc" opacity="1" fill-opacity="0" stroke="#000000" stroke-width="1" stroke-opacity="0"></use></g></g><g><use xlink:href="#bKRVVnezF" opacity="1" fill="#dbdbdb" fill-opacity="1"></use><g><use xlink:href="#bKRVVnezF" opacity="1" fill-opacity="0" stroke="#000000" stroke-width="1" stroke-opacity="0"></use></g></g><g><use xlink:href="#ck72Kjt1i" opacity="1" fill="#f1f1f1" fill-opacity="1"></use><g><use xlink:href="#ck72Kjt1i" opacity="1" fill-opacity="0" stroke="#000000" stroke-width="1" stroke-opacity="0"></use></g></g><g><use xlink:href="#cczuAuayX" opacity="1" fill="#f7d999" fill-opacity="1"></use><g><use xlink:href="#cczuAuayX" opacity="1" fill-opacity="0" stroke="#000000" stroke-width="1" stroke-opacity="0"></use></g></g><g><use xlink:href="#c1paixne" opacity="1" fill="#f7d999" fill-opacity="1"></use><g><use xlink:href="#c1paixne" opacity="1" fill-opacity="0" stroke="#000000" stroke-width="1" stroke-opacity="0"></use></g></g><g><use xlink:href="#b1SrdmjkY" opacity="1" fill="#f7d999" fill-opacity="1"></use><g><use xlink:href="#b1SrdmjkY" opacity="1" fill-opacity="0" stroke="#000000" stroke-width="1" stroke-opacity="0"></use></g></g><g><use xlink:href="#bqzJsZ73g" opacity="1" fill="#969696" fill-opacity="1"></use><g><use xlink:href="#bqzJsZ73g" opacity="1" fill-opacity="0" stroke="#000000" stroke-width="1" stroke-opacity="0"></use></g></g><g><use xlink:href="#e1eCDwLik6" opacity="1" fill="#969696" fill-opacity="1"></use><g><use xlink:href="#e1eCDwLik6" opacity="1" fill-opacity="0" stroke="#000000" stroke-width="1" stroke-opacity="0"></use></g></g><g><use xlink:href="#aWKmlHUFv" opacity="1" fill="#969696" fill-opacity="1"></use><g><use xlink:href="#aWKmlHUFv" opacity="1" fill-opacity="0" stroke="#000000" stroke-width="1" stroke-opacity="0"></use></g></g><g><use xlink:href="#ak2YLFNSu" opacity="1" fill="#ffffff" fill-opacity="1"></use><g><use xlink:href="#ak2YLFNSu" opacity="1" fill-opacity="0" stroke="#000000" stroke-width="1" stroke-opacity="0"></use></g></g><g><use xlink:href="#beDaptAB9" opacity="1" fill="#969696" fill-opacity="1"></use><g><use xlink:href="#beDaptAB9" opacity="1" fill-opacity="0" stroke="#000000" stroke-width="1" stroke-opacity="0"></use></g></g><g><use xlink:href="#iJ1raMHsk" opacity="1" fill="#ffffff" fill-opacity="1"></use><g><use xlink:href="#iJ1raMHsk" opacity="1" fill-opacity="0" stroke="#000000" stroke-width="1" stroke-opacity="0"></use></g></g><g><use xlink:href="#e3jBLAMPAY" opacity="1" fill="#969696" fill-opacity="1"></use><g><use xlink:href="#e3jBLAMPAY" opacity="1" fill-opacity="0" stroke="#000000" stroke-width="1" stroke-opacity="0"></use></g></g><g><use xlink:href="#b8ggqyGlg" opacity="1" fill="#ffffff" fill-opacity="1"></use><g><use xlink:href="#b8ggqyGlg" opacity="1" fill-opacity="0" stroke="#000000" stroke-width="1" stroke-opacity="0"></use></g></g><g><use xlink:href="#cr8NnbGJt" opacity="1" fill="#969696" fill-opacity="1"></use><g><use xlink:href="#cr8NnbGJt" opacity="1" fill-opacity="0" stroke="#000000" stroke-width="1" stroke-opacity="0"></use></g></g><g><use xlink:href="#aLdCF6byJ" opacity="1" fill="#ffffff" fill-opacity="1"></use><g><use xlink:href="#aLdCF6byJ" opacity="1" fill-opacity="0" stroke="#000000" stroke-width="1" stroke-opacity="0"></use></g></g><g><use xlink:href="#a1FTQ6siTm" opacity="1" fill="#ffffff" fill-opacity="1"></use><g><use xlink:href="#a1FTQ6siTm" opacity="1" fill-opacity="0" stroke="#000000" stroke-width="1" stroke-opacity="0"></use></g></g><g><use xlink:href="#aNCYQH1Lo" opacity="1" fill="#ffffff" fill-opacity="1"></use><g><use xlink:href="#aNCYQH1Lo" opacity="1" fill-opacity="0" stroke="#000000" stroke-width="1" stroke-opacity="0"></use></g></g><g><use xlink:href="#mdBKAmu1W" opacity="1" fill="#ffffff" fill-opacity="1"></use><g><use xlink:href="#mdBKAmu1W" opacity="1" fill-opacity="0" stroke="#000000" stroke-width="1" stroke-opacity="0"></use></g></g><g><use xlink:href="#aQ4fZRtF2" opacity="1" fill="#ffffff" fill-opacity="1"></use><g><use xlink:href="#aQ4fZRtF2" opacity="1" fill-opacity="0" stroke="#000000" stroke-width="1" stroke-opacity="0"></use></g></g><g><use xlink:href="#a6lliuuP5" opacity="1" fill="#dbdbdb" fill-opacity="1"></use><g><use xlink:href="#a6lliuuP5" opacity="1" fill-opacity="0" stroke="#000000" stroke-width="1" stroke-opacity="0"></use></g></g><g><use xlink:href="#bhpGLToUm" opacity="1" fill="#000000" fill-opacity="0"></use><g><use xlink:href="#bhpGLToUm" opacity="1" fill-opacity="0" stroke="#f7d999" stroke-width="2" stroke-opacity="1"></use></g></g><g><use xlink:href="#cmxfoog77" opacity="1" fill="#000000" fill-opacity="0"></use><g><use xlink:href="#cmxfoog77" opacity="1" fill-opacity="0" stroke="#ae95f8" stroke-width="1" stroke-opacity="1"></use></g></g></g></g></g></svg>