<?xml version="1.0" encoding="UTF-8" standalone="no"?>
<!DOCTYPE svg PUBLIC "-//W3C//DTD SVG 1.1//EN" "http://www.w3.org/Graphics/SVG/1.1/DTD/svg11.dtd">
<svg version="1.1" xmlns="http://www.w3.org/2000/svg" xmlns:xlink="http://www.w3.org/1999/xlink" preserveAspectRatio="xMidYMid meet" viewBox="0 0 640 640" width="640" height="640"><defs><path d="M320 13.6C143.27 13.6 0 156.87 0 333.6C0 510.33 143.27 653.6 320 653.6C496.73 653.6 640 510.33 640 333.6C640 156.87 496.73 13.6 320 13.6Z" id="a26L4Deh6"></path><path d="M-138.27 141.81C-138.27 121.85 -88.74 117.62 -69.16 117.62C-29.46 117.62 -26.83 94.89 6.13 94.89C35.11 94.89 49.86 118.36 76.84 118.36C134.74 118.36 147.64 51.66 203.97 51.66C261.29 51.66 258.36 121.29 311.7 121.29C338.81 121.29 501.73 126.41 501.73 141.82C373.73 141.82 -10.27 141.81 -138.27 141.81Z" id="a4I7EricoJ"></path><path d="M141.67 226.93C141.67 216.6 216.54 200.45 257.49 200.45C338.26 200.45 313.04 213.69 363.85 213.69C421.75 213.69 434.97 154.72 523.07 154.72C619.36 154.72 604.25 212.4 663.34 212.4C688.79 212.4 701.54 206.79 737.71 206.79C758.7 206.79 781.67 216.64 781.67 226.97C653.67 226.96 269.67 226.94 141.67 226.93Z" id="e1Hyzkuhcc"></path><path d="M532.53 319.72C531.78 320.34 531.68 321.46 532.3 322.21C532.63 322.61 533.13 322.84 533.65 322.84C543.45 322.84 621.78 322.84 631.57 322.84C632.55 322.87 633.36 322.09 633.38 321.12C633.39 320.58 633.15 320.06 632.74 319.72C627.85 315.7 588.71 283.54 583.82 279.52C583.17 278.92 582.18 278.9 581.5 279.47C571.7 287.52 537.42 315.69 532.53 319.72Z" id="aCAWbBI9T"></path><path d="M567.29 263.88C567.14 259.65 570.44 256.1 574.67 255.94C578.91 255.79 582.46 259.1 582.61 263.33C582.62 263.51 582.62 263.7 582.61 263.88" id="d13fFXlueH"></path><path d="M582.61 279.07L582.61 263.88" id="avnF2j6m5"></path><path d="M449.41 263.62C453.44 264.68 470.01 230.17 470.01 230.17C467.27 228.54 445.37 215.52 442.64 213.9C436.07 216.89 418.92 232.32 421.89 247.92C424.01 250.07 445.39 262.56 449.41 263.62Z" id="b1nzZr8D7n"></path><path d="M279.58 319.67C278.82 320.28 278.7 321.39 279.31 322.14C279.65 322.56 280.16 322.8 280.69 322.79C290.49 322.79 368.82 322.79 378.61 322.79C379.59 322.79 380.37 321.99 380.37 321.02C380.36 320.5 380.13 320 379.73 319.67C374.84 315.65 335.7 283.49 330.81 279.47C330.14 278.89 329.16 278.89 328.49 279.47C318.71 287.51 284.47 315.65 279.58 319.67Z" id="h9E087oyOS"></path><path d="M314.27 263.88C314.12 259.65 317.42 256.1 321.65 255.94C325.89 255.79 329.44 259.1 329.59 263.33C329.6 263.51 329.6 263.7 329.59 263.88" id="a1fBjbbDlY"></path><path d="M329.61 279.07L329.61 263.88" id="a6lR2YjIX"></path><path d="M119.2 581.98L119.2 260.05L668.31 260.05L668.31 581.98" id="a4y57rLXf"></path><path d="M530.07 119.95C530.07 124.7 528.76 135.19 529.49 141.78C530.91 154.7 548.09 174.21 548.09 188.84C548.09 215.71 511.9 217.63 500.07 217.63C488.24 217.63 461.03 190.74 461.03 181.41C461.03 172.07 470.01 146.41 470.01 141.33C470.01 136.24 482.65 82.11 500.07 82.11C516.65 82.11 530.07 99.86 530.07 119.95Z" id="btJrIBxA"></path><path d="M447.58 569.97L470.54 569.97C488.19 494.1 498 451.95 499.96 443.52C499.96 443.52 503.02 292.76 447.58 306.94C447.58 342.01 447.58 429.69 447.58 569.97Z" id="csPVmRTHA"></path><path d="M469.26 240.79C464.27 241.35 434.26 217.47 434.22 210.84C434.17 200.22 471.35 171.22 485.98 185.76C496.97 196.74 476.68 239.97 469.26 240.79Z" id="b7wTQEIGy"></path><path d="M542.73 569.97L517.38 569.97C487.29 415.31 470.57 329.39 467.22 312.2C467.22 307.05 537.9 304.74 542.73 309.63C542.73 344.34 542.73 431.12 542.73 569.97Z" id="a2VEI9g9X"></path><path d="M546.17 307.83C542.06 315.18 466.03 323.36 444.97 304.23C438.64 298.49 433.41 173.87 503.4 173.87C555.68 173.87 549.03 302.71 546.17 307.83Z" id="a4qfIlodD"></path><path d="M439.94 341.48C435.48 321.42 428.39 241.6 428.53 236.13C443.24 235.93 462.83 224.58 462.83 224.58C462.83 224.58 445.41 175.76 442.97 172.96C440.54 170.17 411.78 163.84 407.92 160.19C403.47 164.45 394.15 167.28 388.48 167.28C382.8 167.28 373.5 164.45 369.03 160.19C365.18 163.8 336.41 170.08 333.98 172.96C331.54 175.85 314.13 224.62 314.13 224.62C314.13 224.62 333.71 235.97 348.43 236.17C348.56 241.64 341.44 321.46 337.02 341.52C339.86 346.55 368.83 351.41 388.48 351.41C408.13 351.41 437.1 346.55 439.94 341.48Z" id="eXEYR6LkT"></path><path d="M251.34 462.7C246.89 442.65 239.8 362.82 239.93 357.35C254.66 357.15 274.23 345.81 274.23 345.81C274.23 345.81 256.81 296.98 254.37 294.14C251.92 291.31 223.16 285.03 219.32 281.37C214.85 285.63 205.54 288.47 199.87 288.47C194.2 288.47 184.89 285.63 180.42 281.37C176.57 285.03 147.79 291.31 145.37 294.14C142.94 296.98 125.58 345.81 125.58 345.81C125.58 345.81 145.16 357.15 159.88 357.35C160.02 362.82 152.9 442.65 148.47 462.7C151.26 467.76 180.23 472.63 199.89 472.63C219.54 472.63 248.51 467.76 251.34 462.7Z" id="h3exP8ik3W"></path><path d="M219.22 319.67C218.46 320.28 218.34 321.39 218.95 322.14C219.29 322.56 219.8 322.8 220.33 322.79C230.13 322.79 308.47 322.79 318.26 322.79C319.24 322.79 320.02 321.99 320.02 321.02C320.01 320.5 319.78 320 319.38 319.67C314.49 315.65 275.35 283.49 270.46 279.47C269.79 278.89 268.8 278.89 268.13 279.47C258.35 287.51 224.11 315.65 219.22 319.67Z" id="lkbqMRaFW"></path><path d="M253.93 263.88C253.78 259.65 257.08 256.1 261.31 255.94C265.55 255.79 269.1 259.1 269.25 263.33C269.26 263.51 269.26 263.7 269.25 263.88" id="a9Uc9NUwpz"></path><path d="M269.25 279.07L269.25 263.88" id="ajrzMcAHY"></path><path d="M149.81 319.72C149.06 320.33 148.94 321.44 149.55 322.19C149.88 322.61 150.39 322.85 150.93 322.84C160.72 322.84 239.05 322.84 248.85 322.84C249.82 322.84 250.61 322.04 250.6 321.07C250.6 320.55 250.36 320.05 249.96 319.72C245.07 315.7 205.94 283.54 201.05 279.52C200.4 278.95 199.44 278.93 198.77 279.47C188.98 287.52 154.71 315.69 149.81 319.72Z" id="c1cDld8SPR"></path><path d="M184.56 263.88C184.41 259.65 187.72 256.1 191.95 255.94C196.18 255.79 199.73 259.1 199.89 263.33C199.89 263.51 199.89 263.7 199.89 263.88" id="a1YCTGdDEY"></path><path d="M199.89 279.07L199.89 263.88" id="a17wNW2fGo"></path><path d="M414.06 602.65L414.06 597.41L448.71 581.98L468.47 581.98L468.47 602.65L468.47 602.65L414.06 602.65Z" id="dU1a78lbN"></path><path d="M549 602.65L541.25 584.84L516.94 584.84L509.96 602.65L509.96 602.65L549 602.65Z" id="b11Zh9Y8aF"></path><path d="M467.87 569.97C467.87 569.97 467.87 569.97 467.87 569.97C467.87 577.17 467.87 581.18 467.87 581.98C467.87 581.98 467.87 581.98 467.87 581.98C456.65 581.98 450.41 581.98 449.16 581.98C449.16 581.98 449.16 581.98 449.16 581.98C449.16 574.77 449.16 570.77 449.16 569.97C449.16 569.97 449.16 569.97 449.16 569.97C460.39 569.97 466.63 569.97 467.87 569.97Z" id="amVdDLHJE"></path><path d="M539.93 569.97C539.93 569.97 539.93 569.97 539.93 569.97C539.93 578.89 539.93 583.85 539.93 584.84C539.93 584.84 539.93 584.84 539.93 584.84C527.31 584.84 520.29 584.84 518.89 584.84C518.89 584.84 518.89 584.84 518.89 584.84C518.89 575.92 518.89 570.96 518.89 569.97C518.89 569.97 518.89 569.97 518.89 569.97C531.52 569.97 538.53 569.97 539.93 569.97Z" id="d78WfZaY6"></path><path d="M512.36 187.16C510.28 190.05 492.09 190.51 489.2 187.63C490.7 182.72 491.79 169.37 490.88 160.67C496.65 153 517.23 142.14 517.23 142.14C513.7 147.53 510.86 176.02 512.36 187.16Z" id="c6Q6EGuHZ"></path><path d="M155.88 594.22L155.88 581.98L82.15 581.98L82.15 594.22" id="b71dxiBol"></path><path d="M705.17 594.22L705.17 581.98L631.44 581.98L631.44 594.22" id="adz6jhyCC"></path><path d="M82.15 594.76C77.47 594.76 73.67 598.56 73.67 603.25C73.67 607.94 77.47 611.74 82.15 611.74C86.84 611.74 90.64 607.94 90.64 603.25C90.64 598.56 86.84 594.76 82.15 594.76Z" id="aKNwtZPjO"></path><path d="M155.88 594.76C151.19 594.76 147.39 598.56 147.39 603.25C147.39 607.94 151.19 611.74 155.88 611.74C160.57 611.74 164.37 607.94 164.37 603.25C164.37 598.56 160.57 594.76 155.88 594.76Z" id="c128eq2ydn"></path><path d="M631.44 594.76C626.76 594.76 622.96 598.56 622.96 603.25C622.96 607.94 626.76 611.74 631.44 611.74C636.13 611.74 639.93 607.94 639.93 603.25C639.93 598.56 636.13 594.76 631.44 594.76Z" id="b1fzmCYtXQ"></path><path d="M705.18 594.76C700.49 594.76 696.69 598.56 696.69 603.25C696.69 607.94 700.49 611.74 705.18 611.74C709.87 611.74 713.67 607.94 713.67 603.25C713.67 598.56 709.87 594.76 705.18 594.76Z" id="a3OyOZ57ms"></path><path d="M482.15 240.39C480.02 236.77 453.32 185.07 451.2 183.19C449.08 181.3 436.86 186.65 436.39 190.17C435.92 193.7 449.61 255.13 467.81 275.79C470.25 278.55 482.47 278.87 485.54 278.39C488.62 277.91 524.23 246.32 525.97 243.09C527.7 239.85 496.58 222.58 496.58 222.58C493.82 225.03 484.05 238.11 482.15 240.39Z" id="c5SD8GzlRF"></path><path d="M525.3 127.61C525.3 148.63 511.66 165.67 494.83 165.67C478 165.67 464.36 148.63 464.36 127.61C464.36 106.59 478 89.55 494.83 89.55C511.66 89.55 525.3 106.59 525.3 127.61Z" id="b25toKzFS"></path><path d="M500.07 82.11C487.73 95.57 477.82 120.49 463.57 121.24C461.03 97.58 482.58 82.11 500.07 82.11Z" id="a9mvXKDKP"></path><path d="M513.16 129.33C553.66 128.04 501.66 63.08 480.82 95.49C478.93 98.49 490.49 129.33 513.16 129.33Z" id="eJd2jZPNR"></path><path d="M518.93 122.17C514.33 122.17 510.6 125.9 510.6 130.49C510.6 135.09 514.33 138.82 518.93 138.82C523.53 138.82 527.26 135.09 527.26 130.49C527.26 125.9 523.53 122.17 518.93 122.17Z" id="a1HIj2jvZe"></path><path d="M453.76 177.88C453.76 184.62 448.06 190.09 441.04 190.09C434.01 190.09 428.32 184.62 428.32 177.88C428.32 171.13 434.01 165.66 441.04 165.66C448.06 165.66 453.76 171.13 453.76 177.88Z" id="aBcEx5Iwf"></path><path d="M528.53 247.96C523.54 248.52 493.52 224.64 493.49 218.01C493.43 207.34 530.6 178.33 545.25 192.93C556.23 203.91 535.94 247.14 528.53 247.96Z" id="b5bLZYYbeJ"></path><path d="M348.43 176.67C348.43 183.42 342.74 188.89 335.71 188.89C328.69 188.89 322.99 183.42 322.99 176.67C322.99 169.92 328.69 164.45 335.71 164.45C342.74 164.45 348.43 169.92 348.43 176.67Z" id="bc7qEwbC3"></path></defs><g><g><g><use xlink:href="#a26L4Deh6" opacity="1" fill="#faefe9" fill-opacity="1"></use><g><use xlink:href="#a26L4Deh6" opacity="1" fill-opacity="0" stroke="#000000" stroke-width="1" stroke-opacity="0"></use></g></g><g><use xlink:href="#a4I7EricoJ" opacity="1" fill="#ffffff" fill-opacity="1"></use><g><use xlink:href="#a4I7EricoJ" opacity="1" fill-opacity="0" stroke="#000000" stroke-width="1" stroke-opacity="0"></use></g></g><g><use xlink:href="#e1Hyzkuhcc" opacity="1" fill="#ffffff" fill-opacity="1"></use><g><use xlink:href="#e1Hyzkuhcc" opacity="1" fill-opacity="0" stroke="#000000" stroke-width="1" stroke-opacity="0"></use></g></g><g><use xlink:href="#aCAWbBI9T" opacity="1" fill="#000000" fill-opacity="0"></use><g><use xlink:href="#aCAWbBI9T" opacity="1" fill-opacity="0" stroke="#e0e0e0" stroke-width="2" stroke-opacity="1"></use></g></g><g><use xlink:href="#d13fFXlueH" opacity="1" fill="#000000" fill-opacity="0"></use><g><use xlink:href="#d13fFXlueH" opacity="1" fill-opacity="0" stroke="#e0e0e0" stroke-width="2" stroke-opacity="1"></use></g></g><g><use xlink:href="#avnF2j6m5" opacity="1" fill="#000000" fill-opacity="0"></use><g><use xlink:href="#avnF2j6m5" opacity="1" fill-opacity="0" stroke="#e0e0e0" stroke-width="2" stroke-opacity="1"></use></g></g><g><use xlink:href="#b1nzZr8D7n" opacity="1" fill="#e49d75" fill-opacity="1"></use><g><use xlink:href="#b1nzZr8D7n" opacity="1" fill-opacity="0" stroke="#000000" stroke-width="1" stroke-opacity="0"></use></g></g><g><use xlink:href="#h9E087oyOS" opacity="1" fill="#000000" fill-opacity="0"></use><g><use xlink:href="#h9E087oyOS" opacity="1" fill-opacity="0" stroke="#e0e0e0" stroke-width="2" stroke-opacity="1"></use></g></g><g><use xlink:href="#a1fBjbbDlY" opacity="1" fill="#000000" fill-opacity="0"></use><g><use xlink:href="#a1fBjbbDlY" opacity="1" fill-opacity="0" stroke="#e0e0e0" stroke-width="2" stroke-opacity="1"></use></g></g><g><use xlink:href="#a6lR2YjIX" opacity="1" fill="#000000" fill-opacity="0"></use><g><use xlink:href="#a6lR2YjIX" opacity="1" fill-opacity="0" stroke="#e0e0e0" stroke-width="2" stroke-opacity="1"></use></g></g><g><use xlink:href="#a4y57rLXf" opacity="1" fill="#000000" fill-opacity="0"></use><g><use xlink:href="#a4y57rLXf" opacity="1" fill-opacity="0" stroke="#e0e0e0" stroke-width="3" stroke-opacity="1"></use></g></g><g><use xlink:href="#btJrIBxA" opacity="1" fill="#000000" fill-opacity="1"></use><g><use xlink:href="#btJrIBxA" opacity="1" fill-opacity="0" stroke="#000000" stroke-width="1" stroke-opacity="0"></use></g></g><g><use xlink:href="#csPVmRTHA" opacity="1" fill="#5fc5d1" fill-opacity="1"></use><g><use xlink:href="#csPVmRTHA" opacity="1" fill-opacity="0" stroke="#000000" stroke-width="1" stroke-opacity="0"></use></g></g><g><use xlink:href="#b7wTQEIGy" opacity="1" fill="#ffc78e" fill-opacity="1"></use><g><use xlink:href="#b7wTQEIGy" opacity="1" fill-opacity="0" stroke="#000000" stroke-width="1" stroke-opacity="0"></use></g></g><g><use xlink:href="#a2VEI9g9X" opacity="1" fill="#6bd5e1" fill-opacity="1"></use><g><use xlink:href="#a2VEI9g9X" opacity="1" fill-opacity="0" stroke="#000000" stroke-width="1" stroke-opacity="0"></use></g></g><g><use xlink:href="#a4qfIlodD" opacity="1" fill="#ffd98e" fill-opacity="1"></use><g><use xlink:href="#a4qfIlodD" opacity="1" fill-opacity="0" stroke="#000000" stroke-width="1" stroke-opacity="0"></use></g></g><g><use xlink:href="#eXEYR6LkT" opacity="1" fill="#e0e0e0" fill-opacity="1"></use><g><use xlink:href="#eXEYR6LkT" opacity="1" fill-opacity="0" stroke="#000000" stroke-width="1" stroke-opacity="0"></use></g></g><g><use xlink:href="#h3exP8ik3W" opacity="1" fill="#e0e0e0" fill-opacity="1"></use><g><use xlink:href="#h3exP8ik3W" opacity="1" fill-opacity="0" stroke="#000000" stroke-width="1" stroke-opacity="0"></use></g></g><g><use xlink:href="#lkbqMRaFW" opacity="1" fill="#000000" fill-opacity="0"></use><g><use xlink:href="#lkbqMRaFW" opacity="1" fill-opacity="0" stroke="#e0e0e0" stroke-width="2" stroke-opacity="1"></use></g></g><g><use xlink:href="#a9Uc9NUwpz" opacity="1" fill="#000000" fill-opacity="0"></use><g><use xlink:href="#a9Uc9NUwpz" opacity="1" fill-opacity="0" stroke="#e0e0e0" stroke-width="2" stroke-opacity="1"></use></g></g><g><use xlink:href="#ajrzMcAHY" opacity="1" fill="#000000" fill-opacity="0"></use><g><use xlink:href="#ajrzMcAHY" opacity="1" fill-opacity="0" stroke="#e0e0e0" stroke-width="2" stroke-opacity="1"></use></g></g><g><use xlink:href="#c1cDld8SPR" opacity="1" fill="#000000" fill-opacity="0"></use><g><use xlink:href="#c1cDld8SPR" opacity="1" fill-opacity="0" stroke="#e0e0e0" stroke-width="2" stroke-opacity="1"></use></g></g><g><use xlink:href="#a1YCTGdDEY" opacity="1" fill="#000000" fill-opacity="0"></use><g><use xlink:href="#a1YCTGdDEY" opacity="1" fill-opacity="0" stroke="#e0e0e0" stroke-width="2" stroke-opacity="1"></use></g></g><g><use xlink:href="#a17wNW2fGo" opacity="1" fill="#000000" fill-opacity="0"></use><g><use xlink:href="#a17wNW2fGo" opacity="1" fill-opacity="0" stroke="#e0e0e0" stroke-width="2" stroke-opacity="1"></use></g></g><g><use xlink:href="#dU1a78lbN" opacity="1" fill="#000000" fill-opacity="1"></use><g><use xlink:href="#dU1a78lbN" opacity="1" fill-opacity="0" stroke="#000000" stroke-width="1" stroke-opacity="0"></use></g></g><g><use xlink:href="#b11Zh9Y8aF" opacity="1" fill="#000000" fill-opacity="1"></use><g><use xlink:href="#b11Zh9Y8aF" opacity="1" fill-opacity="0" stroke="#000000" stroke-width="1" stroke-opacity="0"></use></g></g><g><use xlink:href="#amVdDLHJE" opacity="1" fill="#e49d75" fill-opacity="1"></use><g><use xlink:href="#amVdDLHJE" opacity="1" fill-opacity="0" stroke="#000000" stroke-width="1" stroke-opacity="0"></use></g></g><g><use xlink:href="#d78WfZaY6" opacity="1" fill="#e49d75" fill-opacity="1"></use><g><use xlink:href="#d78WfZaY6" opacity="1" fill-opacity="0" stroke="#000000" stroke-width="1" stroke-opacity="0"></use></g></g><g><use xlink:href="#c6Q6EGuHZ" opacity="1" fill="#d38d6a" fill-opacity="1"></use><g><use xlink:href="#c6Q6EGuHZ" opacity="1" fill-opacity="0" stroke="#000000" stroke-width="1" stroke-opacity="0"></use></g></g><g><use xlink:href="#b71dxiBol" opacity="1" fill="#000000" fill-opacity="0"></use><g><use xlink:href="#b71dxiBol" opacity="1" fill-opacity="0" stroke="#e0e0e0" stroke-width="3" stroke-opacity="1"></use></g></g><g><use xlink:href="#adz6jhyCC" opacity="1" fill="#000000" fill-opacity="0"></use><g><use xlink:href="#adz6jhyCC" opacity="1" fill-opacity="0" stroke="#e0e0e0" stroke-width="3" stroke-opacity="1"></use></g></g><g><use xlink:href="#aKNwtZPjO" opacity="1" fill="#e0e0e0" fill-opacity="1"></use><g><use xlink:href="#aKNwtZPjO" opacity="1" fill-opacity="0" stroke="#000000" stroke-width="1" stroke-opacity="0"></use></g></g><g><use xlink:href="#c128eq2ydn" opacity="1" fill="#e0e0e0" fill-opacity="1"></use><g><use xlink:href="#c128eq2ydn" opacity="1" fill-opacity="0" stroke="#000000" stroke-width="1" stroke-opacity="0"></use></g></g><g><use xlink:href="#b1fzmCYtXQ" opacity="1" fill="#e0e0e0" fill-opacity="1"></use><g><use xlink:href="#b1fzmCYtXQ" opacity="1" fill-opacity="0" stroke="#000000" stroke-width="1" stroke-opacity="0"></use></g></g><g><use xlink:href="#a3OyOZ57ms" opacity="1" fill="#e0e0e0" fill-opacity="1"></use><g><use xlink:href="#a3OyOZ57ms" opacity="1" fill-opacity="0" stroke="#000000" stroke-width="1" stroke-opacity="0"></use></g></g><g><use xlink:href="#c5SD8GzlRF" opacity="1" fill="#e49d75" fill-opacity="1"></use><g><use xlink:href="#c5SD8GzlRF" opacity="1" fill-opacity="0" stroke="#000000" stroke-width="1" stroke-opacity="0"></use></g></g><g><use xlink:href="#b25toKzFS" opacity="1" fill="#e49d75" fill-opacity="1"></use><g><use xlink:href="#b25toKzFS" opacity="1" fill-opacity="0" stroke="#000000" stroke-width="1" stroke-opacity="0"></use></g></g><g><use xlink:href="#a9mvXKDKP" opacity="1" fill="#000000" fill-opacity="1"></use><g><use xlink:href="#a9mvXKDKP" opacity="1" fill-opacity="0" stroke="#000000" stroke-width="1" stroke-opacity="0"></use></g></g><g><use xlink:href="#eJd2jZPNR" opacity="1" fill="#000000" fill-opacity="1"></use><g><use xlink:href="#eJd2jZPNR" opacity="1" fill-opacity="0" stroke="#000000" stroke-width="1" stroke-opacity="0"></use></g></g><g><use xlink:href="#a1HIj2jvZe" opacity="1" fill="#e49d75" fill-opacity="1"></use><g><use xlink:href="#a1HIj2jvZe" opacity="1" fill-opacity="0" stroke="#000000" stroke-width="1" stroke-opacity="0"></use></g></g><g><use xlink:href="#aBcEx5Iwf" opacity="1" fill="#e49d75" fill-opacity="1"></use><g><use xlink:href="#aBcEx5Iwf" opacity="1" fill-opacity="0" stroke="#000000" stroke-width="1" stroke-opacity="0"></use></g></g><g><use xlink:href="#b5bLZYYbeJ" opacity="1" fill="#ffe4ad" fill-opacity="1"></use><g><use xlink:href="#b5bLZYYbeJ" opacity="1" fill-opacity="0" stroke="#000000" stroke-width="1" stroke-opacity="0"></use></g></g><g><use xlink:href="#bc7qEwbC3" opacity="1" fill="#e49d75" fill-opacity="1"></use><g><use xlink:href="#bc7qEwbC3" opacity="1" fill-opacity="0" stroke="#000000" stroke-width="1" stroke-opacity="0"></use></g></g></g></g></svg>