<?xml version="1.0" encoding="UTF-8" standalone="no"?>
<!DOCTYPE svg PUBLIC "-//W3C//DTD SVG 1.1//EN" "http://www.w3.org/Graphics/SVG/1.1/DTD/svg11.dtd">
<svg version="1.1" xmlns="http://www.w3.org/2000/svg" xmlns:xlink="http://www.w3.org/1999/xlink" preserveAspectRatio="xMidYMid meet" viewBox="0 0 640 640" width="640" height="640"><defs><path d="M320 13.6C143.27 13.6 0 156.87 0 333.6C0 510.33 143.27 653.6 320 653.6C496.73 653.6 640 510.33 640 333.6C640 156.87 496.73 13.6 320 13.6Z" id="c2BH8p4ddg"></path><path d="M-138.27 141.81C-138.27 121.85 -88.74 117.62 -69.16 117.62C-29.46 117.62 -26.83 94.89 6.13 94.89C35.11 94.89 49.86 118.36 76.84 118.36C134.74 118.36 147.64 51.66 203.97 51.66C261.29 51.66 258.36 121.29 311.7 121.29C338.81 121.29 501.73 126.41 501.73 141.82C373.73 141.82 -10.27 141.81 -138.27 141.81Z" id="dbLz6vcx1"></path><path d="M141.67 226.93C141.67 216.6 216.54 200.45 257.49 200.45C338.26 200.45 313.04 213.69 363.85 213.69C421.75 213.69 434.97 154.72 523.07 154.72C619.36 154.72 604.25 212.4 663.34 212.4C688.79 212.4 701.54 206.79 737.71 206.79C758.7 206.79 781.67 216.64 781.67 226.97C653.67 226.96 269.67 226.94 141.67 226.93Z" id="alOHBKoDU"></path><path d="M109.57 257.63L93.87 257.63L93.87 385.42" id="aVI2hsIGv"></path><path d="M279.31 241.86C279.31 241.86 279.31 241.86 279.31 241.86C279.31 403.58 279.31 493.43 279.31 511.4C279.31 511.4 279.31 511.4 279.31 511.4C195.33 511.4 148.68 511.4 139.35 511.4C139.35 511.4 139.35 511.4 139.35 511.4C139.35 349.68 139.35 259.83 139.35 241.86C139.35 241.86 139.35 241.86 139.35 241.86C223.32 241.86 269.98 241.86 279.31 241.86Z" id="c1phwBKjHD"></path><path d="M139.73 241.86C139.73 241.86 139.73 241.86 139.73 241.86C139.73 403.58 139.73 493.43 139.73 511.4C139.73 511.4 139.73 511.4 139.73 511.4C120.2 511.4 109.35 511.4 107.18 511.4C107.18 511.4 107.18 511.4 107.18 511.4C107.18 349.68 107.18 259.83 107.18 241.86C107.18 241.86 107.18 241.86 107.18 241.86C126.71 241.86 137.56 241.86 139.73 241.86Z" id="a1GBXZD3qt"></path><path d="M54.75 431.22C54.75 428.18 56.19 422.43 59.38 422.43C76.62 422.4 140.23 473.8 140.23 519.47C108.65 519.47 54.75 471.26 54.75 431.22Z" id="e2wFqkmlwG"></path><path d="M349.64 168.91L349.64 344.83L359.73 344.83" id="a3xku6EEzO"></path><path d="M516.2 537.89L481.54 479.57" id="bb3Q3W7am"></path><path d="M531.23 537.89L496.57 479.57" id="bot9gITqa"></path><path d="M420.6 537.89L455.25 479.57" id="b8F48jUkf"></path><path d="M500.27 356.69L551.5 356.69L517.09 481.4L429.8 481.4L429.8 476.96L494.54 476.96L500.27 356.69Z" id="b1PMywG5tQ"></path><path d="M424.1 533.39C424.1 533.39 424.1 533.39 424.1 533.39C424.91 538.59 425.36 541.49 425.45 542.07C425.45 542.07 425.45 542.07 425.45 542.07C419.62 542.97 416.39 543.48 415.74 543.58C415.74 543.58 415.74 543.58 415.74 543.58C414.93 538.37 414.48 535.48 414.39 534.9C414.39 534.9 414.39 534.9 414.39 534.9C420.22 533.99 423.45 533.49 424.1 533.39Z" id="c2bxIdnk8"></path><path d="M366.92 527.9C366.92 527.9 366.92 527.9 366.92 527.9C364.05 532.32 362.45 534.77 362.13 535.26C362.13 535.26 362.13 535.26 362.13 535.26C357.19 532.05 354.44 530.27 353.89 529.91C353.89 529.91 353.89 529.91 353.89 529.91C356.76 525.49 358.35 523.03 358.67 522.54C358.67 522.54 358.67 522.54 358.67 522.54C363.62 525.75 366.37 527.54 366.92 527.9Z" id="ceokcuO9F"></path><path d="M356.27 524.94C356.27 527.98 364.04 531.44 365.18 531.44C366.97 529.78 401.24 480.24 404.81 476.78C408.38 473.33 399.24 438.54 399.24 438.54C392.07 438.54 356.27 521.89 356.27 524.94Z" id="f1QUtlAZ9i"></path><path d="M456.21 377.33C453.86 378.07 442.35 387.93 440.34 399.78C438.29 399.53 426 399.02 420.88 398.81C419.21 396.2 415.68 394.39 411.59 394.39C405.89 394.39 401.26 397.9 401.26 402.22C401.26 402.31 401.26 402.41 401.26 402.5C403.33 402.5 419.82 402.5 421.88 402.5C421.88 402.41 421.88 402.31 421.88 402.22C421.87 401.13 421.58 400.06 421.02 399.11C422.22 399.3 428.19 400.26 438.93 401.97L460.21 404.18L462.4 385.6C459.1 381.19 457.04 378.43 456.21 377.33Z" id="a1gVpdFJOF"></path><path d="M467.4 360.93C460.09 360.93 447.71 374.26 447.71 375.94C447.71 377.61 456.62 385.07 463.47 385.51C470.31 385.96 473.88 364.13 473.88 364.13C473.88 362.63 470.14 360.93 467.4 360.93Z" id="aKeG0nBVp"></path><path d="M518.72 450.82C513.48 454.77 467.52 455.13 464.53 451.18C461.54 447.24 442.97 353.44 492.05 353.44C533.41 353.44 523.96 446.87 518.72 450.82Z" id="b5QwwjpoNm"></path><path d="M499.32 335.57L482.79 335.57C482.79 348.86 482.79 356.24 482.79 357.72C482.79 361.23 499.32 361.26 499.32 357.72C499.32 354.76 499.32 347.38 499.32 335.57Z" id="d3uCAH9Mbf"></path><path d="M491.72 300.61C500.63 302.04 506.14 313.93 504.03 327.18C501.92 340.43 492.98 350.02 484.07 348.59C475.15 347.17 469.64 335.28 471.75 322.03C473.87 308.78 482.81 299.19 491.72 300.61Z" id="ckPjbIJBd"></path><path d="M552.8 293.07C560.8 293.07 568.27 289.87 577.87 289.87C594.93 289.87 600.27 301.07 600.27 308C600.27 325.6 585.87 332.53 575.2 332.53C558.13 332.53 556 320.8 535.73 320.8C516 320.8 518.67 304.8 514.4 304.8C512.27 304.8 510.93 305.07 510.13 305.87C509.33 306.67 505.33 303.73 505.33 302.67C505.33 301.6 510.67 288.8 526.67 288.8C534.67 288.8 542.67 293.07 552.8 293.07Z" id="d5unmhQDoa"></path><path d="M468.12 313.16C468.12 317.31 470.74 320.38 472.08 320.48C472.91 315.53 476.88 308.69 477.07 308.53C478.13 309.6 482.09 313.02 486.13 313.33C489.51 313.51 492.78 314.53 495.65 316.3C495.89 317.68 496.41 318.99 497.18 320.16C498.27 321.92 499.92 323.26 501.86 323.97C502.34 325.16 502.61 326.43 502.67 327.71C502.67 333.4 502.13 335.71 501.6 337.31C510.29 337.31 514.4 328.35 514.4 317.04C514.4 298.42 497.92 294.67 490.93 294.67C472.07 294.67 468.12 309.02 468.12 313.16Z" id="a5pwnY3bHa"></path><path d="M502.64 323.21C500.1 323.21 498.03 325.27 498.03 327.82C498.03 330.36 500.1 332.43 502.64 332.43C505.18 332.43 507.25 330.36 507.25 327.82C507.25 325.27 505.18 323.21 502.64 323.21Z" id="coMhPmZk6"></path><path d="M473.4 400.98C469 400.16 451.1 395.69 435.22 395.69C433.72 395.69 429.85 394.46 428.28 394.46C418.97 394.46 417.02 399.49 417.02 400.98C417.02 402.47 417.34 402.51 417.63 402.51C449.63 402.51 457.67 416.01 475.67 416.01C481.5 416.01 493.5 411.79 500.74 400.99C498.2 392.38 487.2 387.93 487.2 387.93C485.34 388.38 477.88 393 473.4 400.98Z" id="d7dvU9S4EB"></path><path d="M499.32 405.9C495.27 405.51 480.66 390.12 480.52 385.45C480.38 380.77 509 360.36 518.66 369.74C528.65 379.45 503.38 406.3 499.32 405.9Z" id="bN0XK7yHK"></path><path d="M539.2 403.71C539.2 403.71 539.2 403.71 539.2 403.71C539.2 408.08 539.2 410.51 539.2 410.99C539.2 410.99 539.2 410.99 539.2 410.99C403.77 410.99 328.53 410.99 313.48 410.99C313.48 410.99 313.48 410.99 313.48 410.99C313.48 406.62 313.48 404.19 313.48 403.71C313.48 403.71 313.48 403.71 313.48 403.71C448.91 403.71 524.15 403.71 539.2 403.71Z" id="brKtgzqEX"></path><path d="M517.6 449.93C483.67 435.94 433.99 434.12 426.34 434.12C418.69 434.12 396.31 434.9 396.31 441.31C396.31 464.44 409.2 535.67 411.82 538.33C413.06 539.58 423.9 538.75 425.25 537.39C425.16 531.53 428.57 472.6 425.46 465.46C453.97 475.91 486.36 480.86 494.89 480.86C519.62 480.84 518.63 458.19 518.63 455.47C518.63 453.17 519.03 450.52 517.6 449.93Z" id="d9U7SeQeE"></path><path d="M354.34 528.43L331.17 523.57L328.97 527.21L356.27 544.09L362.94 534.17L362.94 534.17L354.34 528.43Z" id="b6GskQeZHj"></path><path d="M416.04 541.38L395.71 553.5L396.55 557.67L428.07 551.61L426.26 539.78L426.26 539.78L416.04 541.38Z" id="a1zkhLjbOw"></path><path d="M527.07 519.64L527.07 408.95" id="g1CMiILRCQ"></path><path d="M339.53 519.64L339.53 408.95" id="a1Lo1v2Js9"></path><path d="M511.22 541.82L511.22 408.95" id="dq74a2yJG"></path><path d="M322.78 541.82L322.78 408.95" id="b1ClqezJem"></path><path d="M436.02 537.89L470.67 479.57" id="fnjSVp7ra"></path><path d="M433.79 402.37C433.79 402.37 433.79 402.37 433.79 402.37C433.79 403.17 433.79 403.62 433.79 403.71C433.79 403.71 433.79 403.71 433.79 403.71C411.3 403.71 398.81 403.71 396.31 403.71C396.31 403.71 396.31 403.71 396.31 403.71C396.31 402.9 396.31 402.46 396.31 402.37C396.31 402.37 396.31 402.37 396.31 402.37C418.8 402.37 431.29 402.37 433.79 402.37Z" id="dSjP3gMRm"></path><path d="M436.56 315.12C436.56 315.12 436.56 315.12 436.56 315.12C436.56 350.77 436.56 370.58 436.56 374.54C436.56 374.54 436.56 374.54 436.56 374.54C387.47 374.54 360.19 374.54 354.74 374.54C354.74 374.54 354.74 374.54 354.74 374.54C354.74 338.89 354.74 319.08 354.74 315.12C354.74 315.12 354.74 315.12 354.74 315.12C403.83 315.12 431.11 315.12 436.56 315.12Z" id="dgUPaBBXj"></path><path d="M372.87 403.71L392.65 403.71L403.61 363.37L384.15 363.37L384.15 363.37L372.87 403.71Z" id="i5QWG8LwrJ"></path><path d="M400.1 171.78C409.52 162.57 409.69 147.46 400.47 138.05C393.8 131.22 383.7 129.03 374.79 132.49C364.81 117.19 344.33 112.88 329.03 122.86C323.53 126.45 319.23 131.6 316.66 137.64C304.45 132.7 290.54 138.6 285.6 150.81C282.83 157.66 283.39 165.4 287.11 171.78C309.71 171.78 377.5 171.78 400.1 171.78Z" id="a32IOSR3RB"></path><path d="M341.31 167.26L341.31 205.51L223.94 205.51L223.94 241.86" id="a2DwuT4BUl"></path><path d="M167.32 510.75C167.32 495.76 156.82 486.06 153.7 471.21C148.9 448.43 125.13 381.52 88.01 381.52C83.74 381.52 78.02 390.49 78.02 408.95C78.02 431.35 99.71 454.55 99.71 459.36C99.73 514.29 148.18 541.82 158.12 541.82C161.24 541.82 167.32 531.25 167.32 510.75Z" id="b1Gj1xjxH4"></path><path d="M158.36 541.82C158.36 538.82 154.02 518.68 151.77 513.64C149.51 508.61 140.65 483.43 139.26 476.48C137.88 469.53 112.18 401.64 88.04 384.45" id="g1dfgDwLl5"></path><path d="M147.29 501.79L106.79 493.54" id="c28IknVC25"></path><path d="M149.32 507.41L112.24 504.33" id="a1IaZ3C8jr"></path><path d="M137.65 471.23L100.02 459.84" id="d957I2yms"></path><path d="M141.24 483.71L152.73 475.35" id="ffgwTjX8o"></path><path d="M119.49 428.83L130.84 415.96" id="dB6evMYZn"></path><path d="M115.94 421.98L125.6 408.87" id="d1HE28rPfG"></path><path d="M267.71 258.91C267.71 258.91 267.71 258.91 267.71 258.91C267.71 272.42 267.71 279.92 267.71 281.42C267.71 281.42 267.71 281.42 267.71 281.42C197.65 281.42 158.73 281.42 150.94 281.42C150.94 281.42 150.94 281.42 150.94 281.42C150.94 267.91 150.94 260.41 150.94 258.91C150.94 258.91 150.94 258.91 150.94 258.91C221 258.91 259.92 258.91 267.71 258.91Z" id="b35ZYviEPg"></path><path d="M259.32 263.39C257.14 263.39 255.38 265.16 255.38 267.34C255.38 269.52 257.14 271.29 259.32 271.29C261.5 271.29 263.27 269.52 263.27 267.34C263.27 265.16 261.5 263.39 259.32 263.39Z" id="awjWdyF4g"></path><path d="M191.26 267.34L252.05 267.34" id="akCmPoBKI"></path><path d="M267.71 296.96C267.71 296.96 267.71 296.96 267.71 296.96C267.71 310.46 267.71 317.97 267.71 319.47C267.71 319.47 267.71 319.47 267.71 319.47C197.65 319.47 158.73 319.47 150.94 319.47C150.94 319.47 150.94 319.47 150.94 319.47C150.94 305.96 150.94 298.46 150.94 296.96C150.94 296.96 150.94 296.96 150.94 296.96C221 296.96 259.92 296.96 267.71 296.96Z" id="i1eMzHJFE5"></path><path d="M259.32 301.44C257.14 301.44 255.38 303.21 255.38 305.39C255.38 307.57 257.14 309.33 259.32 309.33C261.5 309.33 263.27 307.57 263.27 305.39C263.27 303.21 261.5 301.44 259.32 301.44Z" id="b1jMJHagk"></path><path d="M191.26 305.39L252.05 305.39" id="i1oyv5la48"></path><path d="M267.71 335C267.71 335 267.71 335 267.71 335C267.71 348.51 267.71 356.01 267.71 357.51C267.71 357.51 267.71 357.51 267.71 357.51C197.65 357.51 158.73 357.51 150.94 357.51C150.94 357.51 150.94 357.51 150.94 357.51C150.94 344.01 150.94 336.5 150.94 335C150.94 335 150.94 335 150.94 335C221 335 259.92 335 267.71 335Z" id="awYIjy485"></path><path d="M259.32 339.48C257.14 339.48 255.38 341.25 255.38 343.43C255.38 345.61 257.14 347.38 259.32 347.38C261.5 347.38 263.27 345.61 263.27 343.43C263.27 341.25 261.5 339.48 259.32 339.48Z" id="e3emOwFe00"></path><path d="M191.26 343.43L252.05 343.43" id="bWE9lmXfv"></path><path d="M267.71 373.05C267.71 373.05 267.71 373.05 267.71 373.05C267.71 386.55 267.71 394.06 267.71 395.56C267.71 395.56 267.71 395.56 267.71 395.56C197.65 395.56 158.73 395.56 150.94 395.56C150.94 395.56 150.94 395.56 150.94 395.56C150.94 382.05 150.94 374.55 150.94 373.05C150.94 373.05 150.94 373.05 150.94 373.05C221 373.05 259.92 373.05 267.71 373.05Z" id="a3ttgoheys"></path><path d="M259.32 377.53C257.14 377.53 255.38 379.3 255.38 381.48C255.38 383.66 257.14 385.42 259.32 385.42C261.5 385.42 263.27 383.66 263.27 381.48C263.27 379.3 261.5 377.53 259.32 377.53Z" id="b8rBeT7Sv"></path><path d="M191.26 381.48L252.05 381.48" id="a46x7MRCf"></path><path d="M267.71 411.09C267.71 411.09 267.71 411.09 267.71 411.09C267.71 424.6 267.71 432.1 267.71 433.6C267.71 433.6 267.71 433.6 267.71 433.6C197.65 433.6 158.73 433.6 150.94 433.6C150.94 433.6 150.94 433.6 150.94 433.6C150.94 420.1 150.94 412.59 150.94 411.09C150.94 411.09 150.94 411.09 150.94 411.09C221 411.09 259.92 411.09 267.71 411.09Z" id="bOZURSv3p"></path><path d="M259.32 415.58C257.14 415.58 255.38 417.35 255.38 419.53C255.38 421.71 257.14 423.47 259.32 423.47C261.5 423.47 263.27 421.71 263.27 419.53C263.27 417.35 261.5 415.58 259.32 415.58Z" id="gZir7Vi6"></path><path d="M191.26 419.53L252.05 419.53" id="ejNrUdK9W"></path><path d="M114.7 275.1L132.21 275.1" id="a1Zm8kqCJ"></path><path d="M114.7 279.64L132.21 279.64" id="b2k36264VC"></path><path d="M114.7 305.95L132.21 305.95" id="a1DWmF1wd1"></path><path d="M114.7 310.48L132.21 310.48" id="b18p9jLJLB"></path><path d="M114.7 343.43L132.21 343.43" id="aCB26fgx"></path><path d="M114.7 347.97L132.21 347.97" id="b67V3XZ4xq"></path><path d="M114.7 379.7L132.21 379.7" id="bsNao5C9R"></path><path d="M114.7 384.23L132.21 384.23" id="b1y794ls6W"></path></defs><g><g><g><use xlink:href="#c2BH8p4ddg" opacity="1" fill="#faefe9" fill-opacity="1"></use><g><use xlink:href="#c2BH8p4ddg" opacity="1" fill-opacity="0" stroke="#000000" stroke-width="1" stroke-opacity="0"></use></g></g><g><use xlink:href="#dbLz6vcx1" opacity="1" fill="#ffffff" fill-opacity="1"></use><g><use xlink:href="#dbLz6vcx1" opacity="1" fill-opacity="0" stroke="#000000" stroke-width="1" stroke-opacity="0"></use></g></g><g><use xlink:href="#alOHBKoDU" opacity="1" fill="#ffffff" fill-opacity="1"></use><g><use xlink:href="#alOHBKoDU" opacity="1" fill-opacity="0" stroke="#000000" stroke-width="1" stroke-opacity="0"></use></g></g><g><use xlink:href="#aVI2hsIGv" opacity="1" fill="#000000" fill-opacity="0"></use><g><use xlink:href="#aVI2hsIGv" opacity="1" fill-opacity="0" stroke="#dfdfdf" stroke-width="4" stroke-opacity="1"></use></g></g><g><use xlink:href="#c1phwBKjHD" opacity="1" fill="#f3f3f3" fill-opacity="1"></use><g><use xlink:href="#c1phwBKjHD" opacity="1" fill-opacity="0" stroke="#000000" stroke-width="1" stroke-opacity="0"></use></g></g><g><use xlink:href="#a1GBXZD3qt" opacity="1" fill="#dfdfdf" fill-opacity="1"></use><g><use xlink:href="#a1GBXZD3qt" opacity="1" fill-opacity="0" stroke="#000000" stroke-width="1" stroke-opacity="0"></use></g></g><g><use xlink:href="#e2wFqkmlwG" opacity="1" fill="#56cad8" fill-opacity="1"></use><g><use xlink:href="#e2wFqkmlwG" opacity="1" fill-opacity="0" stroke="#000000" stroke-width="1" stroke-opacity="0"></use></g></g><g><use xlink:href="#a3xku6EEzO" opacity="1" fill="#000000" fill-opacity="0"></use><g><use xlink:href="#a3xku6EEzO" opacity="1" fill-opacity="0" stroke="#dfdfdf" stroke-width="4" stroke-opacity="1"></use></g></g><g><use xlink:href="#bb3Q3W7am" opacity="1" fill="#000000" fill-opacity="0"></use><g><use xlink:href="#bb3Q3W7am" opacity="1" fill-opacity="0" stroke="#ed7562" stroke-width="4" stroke-opacity="1"></use></g></g><g><use xlink:href="#bot9gITqa" opacity="1" fill="#000000" fill-opacity="0"></use><g><use xlink:href="#bot9gITqa" opacity="1" fill-opacity="0" stroke="#ed7562" stroke-width="4" stroke-opacity="1"></use></g></g><g><use xlink:href="#b8F48jUkf" opacity="1" fill="#000000" fill-opacity="0"></use><g><use xlink:href="#b8F48jUkf" opacity="1" fill-opacity="0" stroke="#ed7562" stroke-width="4" stroke-opacity="1"></use></g></g><g><use xlink:href="#b1PMywG5tQ" opacity="1" fill="#ed7562" fill-opacity="1"></use><g><use xlink:href="#b1PMywG5tQ" opacity="1" fill-opacity="0" stroke="#000000" stroke-width="1" stroke-opacity="0"></use></g></g><g><use xlink:href="#c2bxIdnk8" opacity="1" fill="#de8e68" fill-opacity="1"></use><g><use xlink:href="#c2bxIdnk8" opacity="1" fill-opacity="0" stroke="#000000" stroke-width="1" stroke-opacity="0"></use></g></g><g><use xlink:href="#ceokcuO9F" opacity="1" fill="#de8e68" fill-opacity="1"></use><g><use xlink:href="#ceokcuO9F" opacity="1" fill-opacity="0" stroke="#000000" stroke-width="1" stroke-opacity="0"></use></g></g><g><use xlink:href="#f1QUtlAZ9i" opacity="1" fill="#56cad8" fill-opacity="1"></use><g><use xlink:href="#f1QUtlAZ9i" opacity="1" fill-opacity="0" stroke="#000000" stroke-width="1" stroke-opacity="0"></use></g></g><g><use xlink:href="#a1gVpdFJOF" opacity="1" fill="#d37c59" fill-opacity="1"></use><g><use xlink:href="#a1gVpdFJOF" opacity="1" fill-opacity="0" stroke="#000000" stroke-width="1" stroke-opacity="0"></use></g></g><g><use xlink:href="#aKeG0nBVp" opacity="1" fill="#fcc486" fill-opacity="1"></use><g><use xlink:href="#aKeG0nBVp" opacity="1" fill-opacity="0" stroke="#000000" stroke-width="1" stroke-opacity="0"></use></g></g><g><use xlink:href="#b5QwwjpoNm" opacity="1" fill="#fed385" fill-opacity="1"></use><g><use xlink:href="#b5QwwjpoNm" opacity="1" fill-opacity="0" stroke="#000000" stroke-width="1" stroke-opacity="0"></use></g></g><g><use xlink:href="#d3uCAH9Mbf" opacity="1" fill="#d37c59" fill-opacity="1"></use><g><use xlink:href="#d3uCAH9Mbf" opacity="1" fill-opacity="0" stroke="#000000" stroke-width="1" stroke-opacity="0"></use></g></g><g><use xlink:href="#ckPjbIJBd" opacity="1" fill="#de8e68" fill-opacity="1"></use><g><use xlink:href="#ckPjbIJBd" opacity="1" fill-opacity="0" stroke="#000000" stroke-width="1" stroke-opacity="0"></use></g></g><g><use xlink:href="#d5unmhQDoa" opacity="1" fill="#000000" fill-opacity="1"></use><g><use xlink:href="#d5unmhQDoa" opacity="1" fill-opacity="0" stroke="#000000" stroke-width="1" stroke-opacity="0"></use></g></g><g><use xlink:href="#a5pwnY3bHa" opacity="1" fill="#000000" fill-opacity="1"></use><g><use xlink:href="#a5pwnY3bHa" opacity="1" fill-opacity="0" stroke="#000000" stroke-width="1" stroke-opacity="0"></use></g></g><g><use xlink:href="#coMhPmZk6" opacity="1" fill="#de8e68" fill-opacity="1"></use><g><use xlink:href="#coMhPmZk6" opacity="1" fill-opacity="0" stroke="#000000" stroke-width="1" stroke-opacity="0"></use></g></g><g><use xlink:href="#d7dvU9S4EB" opacity="1" fill="#de8e68" fill-opacity="1"></use><g><use xlink:href="#d7dvU9S4EB" opacity="1" fill-opacity="0" stroke="#000000" stroke-width="1" stroke-opacity="0"></use></g></g><g><use xlink:href="#bN0XK7yHK" opacity="1" fill="#fed892" fill-opacity="1"></use><g><use xlink:href="#bN0XK7yHK" opacity="1" fill-opacity="0" stroke="#000000" stroke-width="1" stroke-opacity="0"></use></g></g><g><use xlink:href="#brKtgzqEX" opacity="1" fill="#fd8369" fill-opacity="1"></use><g><use xlink:href="#brKtgzqEX" opacity="1" fill-opacity="0" stroke="#000000" stroke-width="1" stroke-opacity="0"></use></g></g><g><use xlink:href="#d9U7SeQeE" opacity="1" fill="#74d5de" fill-opacity="1"></use><g><use xlink:href="#d9U7SeQeE" opacity="1" fill-opacity="0" stroke="#000000" stroke-width="1" stroke-opacity="0"></use></g></g><g><use xlink:href="#b6GskQeZHj" opacity="1" fill="#000000" fill-opacity="1"></use><g><use xlink:href="#b6GskQeZHj" opacity="1" fill-opacity="0" stroke="#000000" stroke-width="1" stroke-opacity="0"></use></g></g><g><use xlink:href="#a1zkhLjbOw" opacity="1" fill="#000000" fill-opacity="1"></use><g><use xlink:href="#a1zkhLjbOw" opacity="1" fill-opacity="0" stroke="#000000" stroke-width="1" stroke-opacity="0"></use></g></g><g><use xlink:href="#g1CMiILRCQ" opacity="1" fill="#000000" fill-opacity="0"></use><g><use xlink:href="#g1CMiILRCQ" opacity="1" fill-opacity="0" stroke="#fd8369" stroke-width="4" stroke-opacity="1"></use></g></g><g><use xlink:href="#a1Lo1v2Js9" opacity="1" fill="#000000" fill-opacity="0"></use><g><use xlink:href="#a1Lo1v2Js9" opacity="1" fill-opacity="0" stroke="#fd8369" stroke-width="4" stroke-opacity="1"></use></g></g><g><use xlink:href="#dq74a2yJG" opacity="1" fill="#000000" fill-opacity="0"></use><g><use xlink:href="#dq74a2yJG" opacity="1" fill-opacity="0" stroke="#fd8369" stroke-width="4" stroke-opacity="1"></use></g></g><g><use xlink:href="#b1ClqezJem" opacity="1" fill="#000000" fill-opacity="0"></use><g><use xlink:href="#b1ClqezJem" opacity="1" fill-opacity="0" stroke="#fd8369" stroke-width="4" stroke-opacity="1"></use></g></g><g><use xlink:href="#fnjSVp7ra" opacity="1" fill="#000000" fill-opacity="0"></use><g><use xlink:href="#fnjSVp7ra" opacity="1" fill-opacity="0" stroke="#ed7562" stroke-width="4" stroke-opacity="1"></use></g></g><g><use xlink:href="#dSjP3gMRm" opacity="1" fill="#74d5de" fill-opacity="1"></use><g><use xlink:href="#dSjP3gMRm" opacity="1" fill-opacity="0" stroke="#000000" stroke-width="1" stroke-opacity="0"></use></g></g><g><use xlink:href="#dgUPaBBXj" opacity="1" fill="#74d5de" fill-opacity="1"></use><g><use xlink:href="#dgUPaBBXj" opacity="1" fill-opacity="0" stroke="#000000" stroke-width="1" stroke-opacity="0"></use></g></g><g><use xlink:href="#i5QWG8LwrJ" opacity="1" fill="#56cad8" fill-opacity="1"></use><g><use xlink:href="#i5QWG8LwrJ" opacity="1" fill-opacity="0" stroke="#000000" stroke-width="1" stroke-opacity="0"></use></g></g><g><use xlink:href="#a32IOSR3RB" opacity="1" fill="#dfdfdf" fill-opacity="1"></use><g><use xlink:href="#a32IOSR3RB" opacity="1" fill-opacity="0" stroke="#000000" stroke-width="1" stroke-opacity="0"></use></g></g><g><use xlink:href="#a2DwuT4BUl" opacity="1" fill="#000000" fill-opacity="0"></use><g><use xlink:href="#a2DwuT4BUl" opacity="1" fill-opacity="0" stroke="#dfdfdf" stroke-width="4" stroke-opacity="1"></use></g></g><g><use xlink:href="#b1Gj1xjxH4" opacity="1" fill="#74d5de" fill-opacity="1"></use><g><use xlink:href="#b1Gj1xjxH4" opacity="1" fill-opacity="0" stroke="#000000" stroke-width="1" stroke-opacity="0"></use></g></g><g><use xlink:href="#g1dfgDwLl5" opacity="1" fill="#000000" fill-opacity="0"></use><g><use xlink:href="#g1dfgDwLl5" opacity="1" fill-opacity="0" stroke="#8bdde4" stroke-width="3" stroke-opacity="1"></use></g></g><g><use xlink:href="#c28IknVC25" opacity="1" fill="#000000" fill-opacity="0"></use><g><use xlink:href="#c28IknVC25" opacity="1" fill-opacity="0" stroke="#8bdde4" stroke-width="3" stroke-opacity="1"></use></g></g><g><use xlink:href="#a1IaZ3C8jr" opacity="1" fill="#000000" fill-opacity="0"></use><g><use xlink:href="#a1IaZ3C8jr" opacity="1" fill-opacity="0" stroke="#8bdde4" stroke-width="3" stroke-opacity="1"></use></g></g><g><use xlink:href="#d957I2yms" opacity="1" fill="#000000" fill-opacity="0"></use><g><use xlink:href="#d957I2yms" opacity="1" fill-opacity="0" stroke="#8bdde4" stroke-width="3" stroke-opacity="1"></use></g></g><g><use xlink:href="#ffgwTjX8o" opacity="1" fill="#000000" fill-opacity="0"></use><g><use xlink:href="#ffgwTjX8o" opacity="1" fill-opacity="0" stroke="#8bdde4" stroke-width="3" stroke-opacity="1"></use></g></g><g><use xlink:href="#dB6evMYZn" opacity="1" fill="#000000" fill-opacity="0"></use><g><use xlink:href="#dB6evMYZn" opacity="1" fill-opacity="0" stroke="#8bdde4" stroke-width="3" stroke-opacity="1"></use></g></g><g><use xlink:href="#d1HE28rPfG" opacity="1" fill="#000000" fill-opacity="0"></use><g><use xlink:href="#d1HE28rPfG" opacity="1" fill-opacity="0" stroke="#8bdde4" stroke-width="3" stroke-opacity="1"></use></g></g><g><use xlink:href="#b35ZYviEPg" opacity="1" fill="#dfdfdf" fill-opacity="1"></use><g><use xlink:href="#b35ZYviEPg" opacity="1" fill-opacity="0" stroke="#000000" stroke-width="1" stroke-opacity="0"></use></g></g><g><use xlink:href="#awjWdyF4g" opacity="1" fill="#f3f3f3" fill-opacity="1"></use><g><use xlink:href="#awjWdyF4g" opacity="1" fill-opacity="0" stroke="#000000" stroke-width="1" stroke-opacity="0"></use></g></g><g><use xlink:href="#akCmPoBKI" opacity="1" fill="#000000" fill-opacity="0"></use><g><use xlink:href="#akCmPoBKI" opacity="1" fill-opacity="0" stroke="#f3f3f3" stroke-width="4" stroke-opacity="1"></use></g></g><g><use xlink:href="#i1eMzHJFE5" opacity="1" fill="#dfdfdf" fill-opacity="1"></use><g><use xlink:href="#i1eMzHJFE5" opacity="1" fill-opacity="0" stroke="#000000" stroke-width="1" stroke-opacity="0"></use></g></g><g><use xlink:href="#b1jMJHagk" opacity="1" fill="#f3f3f3" fill-opacity="1"></use><g><use xlink:href="#b1jMJHagk" opacity="1" fill-opacity="0" stroke="#000000" stroke-width="1" stroke-opacity="0"></use></g></g><g><use xlink:href="#i1oyv5la48" opacity="1" fill="#000000" fill-opacity="0"></use><g><use xlink:href="#i1oyv5la48" opacity="1" fill-opacity="0" stroke="#f3f3f3" stroke-width="4" stroke-opacity="1"></use></g></g><g><use xlink:href="#awYIjy485" opacity="1" fill="#dfdfdf" fill-opacity="1"></use><g><use xlink:href="#awYIjy485" opacity="1" fill-opacity="0" stroke="#000000" stroke-width="1" stroke-opacity="0"></use></g></g><g><use xlink:href="#e3emOwFe00" opacity="1" fill="#f3f3f3" fill-opacity="1"></use><g><use xlink:href="#e3emOwFe00" opacity="1" fill-opacity="0" stroke="#000000" stroke-width="1" stroke-opacity="0"></use></g></g><g><use xlink:href="#bWE9lmXfv" opacity="1" fill="#000000" fill-opacity="0"></use><g><use xlink:href="#bWE9lmXfv" opacity="1" fill-opacity="0" stroke="#f3f3f3" stroke-width="4" stroke-opacity="1"></use></g></g><g><use xlink:href="#a3ttgoheys" opacity="1" fill="#dfdfdf" fill-opacity="1"></use><g><use xlink:href="#a3ttgoheys" opacity="1" fill-opacity="0" stroke="#000000" stroke-width="1" stroke-opacity="0"></use></g></g><g><use xlink:href="#b8rBeT7Sv" opacity="1" fill="#f3f3f3" fill-opacity="1"></use><g><use xlink:href="#b8rBeT7Sv" opacity="1" fill-opacity="0" stroke="#000000" stroke-width="1" stroke-opacity="0"></use></g></g><g><use xlink:href="#a46x7MRCf" opacity="1" fill="#000000" fill-opacity="0"></use><g><use xlink:href="#a46x7MRCf" opacity="1" fill-opacity="0" stroke="#f3f3f3" stroke-width="4" stroke-opacity="1"></use></g></g><g><use xlink:href="#bOZURSv3p" opacity="1" fill="#dfdfdf" fill-opacity="1"></use><g><use xlink:href="#bOZURSv3p" opacity="1" fill-opacity="0" stroke="#000000" stroke-width="1" stroke-opacity="0"></use></g></g><g><use xlink:href="#gZir7Vi6" opacity="1" fill="#f3f3f3" fill-opacity="1"></use><g><use xlink:href="#gZir7Vi6" opacity="1" fill-opacity="0" stroke="#000000" stroke-width="1" stroke-opacity="0"></use></g></g><g><use xlink:href="#ejNrUdK9W" opacity="1" fill="#000000" fill-opacity="0"></use><g><use xlink:href="#ejNrUdK9W" opacity="1" fill-opacity="0" stroke="#f3f3f3" stroke-width="4" stroke-opacity="1"></use></g></g><g><use xlink:href="#a1Zm8kqCJ" opacity="1" fill="#000000" fill-opacity="0"></use><g><use xlink:href="#a1Zm8kqCJ" opacity="1" fill-opacity="0" stroke="#f3f3f3" stroke-width="2" stroke-opacity="1"></use></g></g><g><use xlink:href="#b2k36264VC" opacity="1" fill="#000000" fill-opacity="0"></use><g><use xlink:href="#b2k36264VC" opacity="1" fill-opacity="0" stroke="#f3f3f3" stroke-width="2" stroke-opacity="1"></use></g></g><g><use xlink:href="#a1DWmF1wd1" opacity="1" fill="#000000" fill-opacity="0"></use><g><use xlink:href="#a1DWmF1wd1" opacity="1" fill-opacity="0" stroke="#f3f3f3" stroke-width="2" stroke-opacity="1"></use></g></g><g><use xlink:href="#b18p9jLJLB" opacity="1" fill="#000000" fill-opacity="0"></use><g><use xlink:href="#b18p9jLJLB" opacity="1" fill-opacity="0" stroke="#f3f3f3" stroke-width="2" stroke-opacity="1"></use></g></g><g><use xlink:href="#aCB26fgx" opacity="1" fill="#000000" fill-opacity="0"></use><g><use xlink:href="#aCB26fgx" opacity="1" fill-opacity="0" stroke="#f3f3f3" stroke-width="2" stroke-opacity="1"></use></g></g><g><use xlink:href="#b67V3XZ4xq" opacity="1" fill="#000000" fill-opacity="0"></use><g><use xlink:href="#b67V3XZ4xq" opacity="1" fill-opacity="0" stroke="#f3f3f3" stroke-width="2" stroke-opacity="1"></use></g></g><g><use xlink:href="#bsNao5C9R" opacity="1" fill="#000000" fill-opacity="0"></use><g><use xlink:href="#bsNao5C9R" opacity="1" fill-opacity="0" stroke="#f3f3f3" stroke-width="2" stroke-opacity="1"></use></g></g><g><use xlink:href="#b1y794ls6W" opacity="1" fill="#000000" fill-opacity="0"></use><g><use xlink:href="#b1y794ls6W" opacity="1" fill-opacity="0" stroke="#f3f3f3" stroke-width="2" stroke-opacity="1"></use></g></g></g></g></svg>