<?xml version="1.0" encoding="UTF-8" standalone="no"?>
<!DOCTYPE svg PUBLIC "-//W3C//DTD SVG 1.1//EN" "http://www.w3.org/Graphics/SVG/1.1/DTD/svg11.dtd">
<svg version="1.1" xmlns="http://www.w3.org/2000/svg" xmlns:xlink="http://www.w3.org/1999/xlink" preserveAspectRatio="xMidYMid meet" viewBox="0 0 640 640" width="640" height="640"><defs><path d="M320 0C143.27 0 0 143.27 0 320C0 496.73 143.27 640 320 640C496.73 640 640 496.73 640 320C640 143.27 496.73 0 320 0Z" id="c4hEtz0OT"></path><path d="M-142.8 138.41C-142.8 118.45 -93.27 114.22 -73.7 114.22C-34 114.22 -31.37 91.49 1.6 91.49C30.58 91.49 45.32 114.96 72.3 114.96C130.21 114.96 143.11 48.26 199.44 48.26C256.76 48.26 253.83 117.89 307.16 117.89C334.28 117.89 497.2 123.01 497.2 138.42C369.2 138.42 -14.8 138.41 -142.8 138.41Z" id="aIeZ9dEcO"></path><path d="M134.87 231.45C134.87 218.57 209.74 198.4 250.69 198.4C331.46 198.4 306.24 214.93 357.05 214.93C414.95 214.93 428.17 141.35 516.27 141.35C612.56 141.35 597.45 213.32 656.54 213.32C681.99 213.32 694.74 206.32 730.91 206.32C751.9 206.32 774.87 218.61 774.87 231.51C646.87 231.5 262.87 231.46 134.87 231.45Z" id="bnbrCM7yw"></path><path d="M161.99 402.67C161.99 417.54 128.32 429.61 86.78 429.61C45.25 429.61 11.57 417.54 11.57 402.67C11.57 387.79 45.25 375.73 86.78 375.73C128.32 375.73 161.99 387.79 161.99 402.67Z" id="b1Z7O6g8At"></path><path d="M86.78 402.67L44.53 616.91" id="baf47fouc"></path><path d="M86.78 402.67L129.03 616.91" id="i40zabReD"></path><path d="M58.4 546.57L105.51 497.64" id="a1GRuBMkgU"></path><path d="M67.87 497.64L114.97 546.57" id="a1vNNtreiS"></path><path d="M223.88 276.69C223.88 276.69 223.88 276.69 223.88 276.69C217.58 293.67 214.08 303.1 213.38 304.99C213.38 304.99 213.38 304.99 213.38 304.99C205.14 302.25 200.57 300.73 199.66 300.43C199.66 300.43 199.66 300.43 199.66 300.43C205.96 283.45 209.46 274.02 210.16 272.13C210.16 272.13 210.16 272.13 210.16 272.13C218.39 274.87 222.97 276.39 223.88 276.69Z" id="l17Ht2Nk4S"></path><path d="M232.97 457.26C233.55 458.52 236.64 466.09 238.36 466.86C241.46 468.25 257.52 460.28 257.95 459.23C258.38 458.18 258.14 456.44 257.23 456.29C256.33 456.14 249.16 457.63 248 457.41C246.83 457.2 244.15 454.62 243.83 452.75" id="g2ozvqFwn4"></path><path d="M31.81 342.67C31.81 393 48.73 403.57 65.56 403.57C108.18 403.57 163.64 371.21 166.78 369.96C165.79 375.26 159.58 509.45 159.58 510.22C161.05 511.31 172.38 512.25 176.19 511.31C177.17 508.05 207.12 348.44 207.12 344.24C207.12 340.03 204.54 333.64 194.78 332.72C190.66 332.33 133.26 330.07 133.26 330.07" id="a72UQU414"></path><path d="M246.65 451.2C246.13 454.09 232.86 460.21 230.05 458.56C218.15 451.62 145.05 334.95 142.21 333.18C139.36 331.42 135.1 332.1 132.56 332.59C125.95 322.2 140.74 309.86 176.49 306.99C189.42 324.69 247.16 448.31 246.65 451.2Z" id="a4iUPICe6G"></path><path d="M145.03 231.58C150.13 252.42 135.93 331.57 134.29 333.75C120.34 352.22 40.57 353.86 32.79 345.86C25.01 337.86 65.93 207.78 118.61 207.78C137.89 207.78 143.44 225.06 145.03 231.58Z" id="eIeqDRuXL"></path><path d="M163.31 508.3C163.05 509.65 161.12 517.57 162.09 519.11C163.82 521.91 181.85 523.84 182.84 523.2C183.82 522.55 184.64 520.98 183.99 520.4C183.34 519.82 176.5 517.23 175.67 516.43C174.83 515.63 174.13 512.07 174.99 510.35" id="c2WaJdu4IU"></path><path d="M115.73 211.42C115.21 213.01 128.81 217.02 129.34 215.44C129.69 214.37 131.45 209.03 134.61 199.41L121.02 195.39C118.19 203.94 116.43 209.29 115.73 211.42Z" id="a283VblxEE"></path><path d="M117.58 205.84C117.92 204.8 120.67 196.44 121.02 195.39C123.13 196.02 129.22 203.2 129.22 203.2C127.89 202.81 118.23 203.87 117.58 205.84Z" id="csiFwM2mc"></path><path d="M136.81 167.96C125.78 167.96 116.83 176.42 116.83 186.87C116.83 197.31 125.78 205.78 136.81 205.78C147.85 205.78 156.79 197.31 156.79 186.87C156.79 176.42 147.85 167.96 136.81 167.96Z" id="fDIvLe5gY"></path><path d="M153.94 194.19C155.78 194.74 157.04 195.92 156.74 196.83C156.44 197.74 154.7 198.03 152.85 197.49C151 196.94 149.75 195.76 150.05 194.85C150.35 193.94 152.09 193.65 153.94 194.19Z" id="k2fufVTNKk"></path><path d="M132.93 187.99C134.78 188.54 136.03 189.72 135.73 190.63C135.43 191.54 133.69 191.83 131.84 191.29C129.99 190.74 128.74 189.56 129.04 188.65C129.34 187.74 131.08 187.45 132.93 187.99Z" id="bIxLXJr26"></path><path d="M146.37 190.03C146.72 191.05 148.76 195.54 144.91 195.98" id="eOIxQQ6fW"></path><path d="M136.8 198.12C135.82 197.8 134.63 196.2 134.17 194.88" id="b2YfPXxIWv"></path><path d="M118.82 154.13C117.17 154.95 110.78 160.39 105.57 167.74C106.07 168.21 108.53 170.56 112.97 174.78C107.36 172.33 104.25 170.97 103.62 170.7C101.16 174.52 99.47 178.73 98.63 183.14C101.04 189.3 108.62 191.83 110.05 192C119.25 193.1 122.79 179.56 127.43 177.88C135.3 175.02 144.58 182.45 156.25 181.98C158.84 176.98 155.47 163.56 142.86 162.06C137.59 161.43 122.3 157.13 118.82 154.13Z" id="hcZy8oEo"></path><path d="M118.49 179.36C115.94 179.36 113.88 181.32 113.88 183.73C113.88 186.15 115.94 188.11 118.49 188.11C121.05 188.11 123.11 186.15 123.11 183.73C123.11 181.32 121.05 179.36 118.49 179.36Z" id="a4Ra3XDt15"></path><path d="M98.63 252.11C97.65 257.94 94.46 313.03 102.1 318.39C118.46 329.87 194.04 315.83 205.5 311.81C206.74 307.97 205.5 295.77 205.5 295.77C201.08 295.61 145.43 295.1 142.11 291.11C138.79 287.12 138.4 254.51 138.93 250.83" id="a1G2bC0xOt"></path><path d="M213.2 292.83C207.28 292.83 202.49 297.36 202.49 302.96C202.49 308.55 207.28 313.09 213.2 313.09C219.11 313.09 223.9 308.55 223.9 302.96C223.9 297.36 219.11 292.83 213.2 292.83Z" id="aFhvDCFdG"></path><path d="M142.1 291.14C138.74 287.12 138.39 254.54 138.92 250.86" id="c4zckB0H9j"></path><path d="M136.87 322.53C121.45 323.34 107.97 322.53 102.1 318.39C98.75 316.05 97.48 304.19 97.17 291.09" id="lfGe3gK4g"></path><path d="M647.62 365.67C647.62 380.54 613.95 392.61 572.41 392.61C530.87 392.61 497.2 380.54 497.2 365.67C497.2 350.79 530.87 338.73 572.41 338.73C613.95 338.73 647.62 350.79 647.62 365.67Z" id="dJtuGNch0"></path><path d="M572.41 365.67L530.15 579.91" id="c5APQVbdW"></path><path d="M572.41 365.67L614.66 579.91" id="a2sPmok0mS"></path><path d="M544.02 509.57L591.13 460.64" id="b6RMrp3Q"></path><path d="M553.5 460.64L600.59 509.57" id="a5PAm5kTCp"></path><path d="M579.28 569.56C579.83 570.92 583.5 578.8 582.85 580.61C581.67 583.87 563.64 589.42 562.49 588.94C561.34 588.47 560.17 586.96 560.71 586.22C561.26 585.49 567.69 581.47 568.38 580.48C569.07 579.48 569.01 575.61 567.76 573.98" id="b3XXliagnb"></path><path d="M428.75 385.41C428.75 394.4 447.55 526.22 449.67 528.9C451.3 528.9 464.37 528.9 466 528.9C466 528.9 473.2 419.08 467.47 397.62C471.72 395.88 510.62 382.79 527.88 368.75C545.14 354.71 532.79 300.7 499.4 295.12C494.84 299.09 428.75 355.68 428.75 385.41Z" id="eb1cP1fPQ"></path><path d="M565.29 574.37C567.05 574.37 581.16 574.37 582.93 574.37C582.93 574.37 576.23 310.89 572.39 298.07C554.09 292.75 513.22 292.75 499.4 295.12C494.27 295.99 552.11 518.52 565.29 574.37Z" id="d6EPQ7HYK"></path><path d="M444.12 178.1C436.23 178.41 413.85 132.62 404.3 126.11C393.79 118.94 377.05 125.41 377.05 129.23C377.05 137.55 388.99 137.74 391.51 140.43C394.04 143.12 416.62 207.17 435.69 216.61C441.85 219.66 487.44 218.65 490.63 222.63C493.81 226.61 496.73 292.65 499.39 295.1C502.05 297.55 565.08 299.59 572.33 298.08C572.73 292.95 581.22 250.38 583.35 247.04C584.52 246.94 601.48 274.42 601.47 277.89C601.47 282.45 572.45 320.71 560.28 327.26C557.13 328.95 557.59 333.76 558.17 334.93C558.74 336.1 563.09 341.88 565.8 341.88C568.51 341.88 631.77 305.18 633.19 277.52C633.57 270.04 618.31 204.93 594.05 188.35C575.23 175.53 510.84 175.53 444.12 178.1Z" id="a5nv6jE6p"></path><path d="M463.82 527.23C463.82 528.69 464.33 537.32 463.05 538.78C460.73 541.41 441.85 540.36 440.96 539.52C440.06 538.67 439.51 536.88 440.3 536.36C441.09 535.84 448.58 534.3 449.55 533.62C450.51 532.93 451.93 529.29 451.39 527.35" id="buS9L849a"></path><path d="M537.93 184.26C537.58 188.17 559.81 190.3 560.18 186.1C560.33 184.36 561.1 175.64 562.48 159.95L540.23 158.12C539 172.06 538.24 180.78 537.93 184.26Z" id="f1pvKe7nCD"></path><path d="M561.1 175.57C561.31 173.24 556.51 164.78 552.16 165.78C557.54 164.42 560.67 158.54 562.43 159.95C562.17 163.07 561.37 172.44 561.1 175.57Z" id="b3qxaOvBb"></path><path d="M543.17 111.08C559.19 111.08 572.18 123.63 572.18 139.11C572.18 154.6 559.19 167.15 543.17 167.15C527.14 167.15 514.16 154.6 514.16 139.11C514.16 123.63 527.14 111.08 543.17 111.08Z" id="b7giNqwTy"></path><path d="M508.78 140.05C508.66 141.39 510.72 142.66 513.39 142.87C516.05 143.09 518.3 142.19 518.42 140.85C518.54 139.51 516.48 138.25 513.81 138.03C511.15 137.81 508.9 138.72 508.78 140.05Z" id="aF4xKSrgF"></path><path d="M539.11 142.55C538.99 143.89 541.05 145.15 543.71 145.37C546.38 145.59 548.63 144.69 548.75 143.35C548.87 142.01 546.8 140.75 544.14 140.53C541.48 140.31 539.22 141.21 539.11 142.55Z" id="bpiYl5OsG"></path><path d="M525.82 136.39C524.79 137.56 519.71 142.4 524.42 144.92" id="aaqOLZUJd"></path><path d="M533.6 151.82C535.05 151.89 537.44 150.38 538.74 148.91" id="a58YNf8jZP"></path><path d="M549.99 106.24C534.5 104.96 525.82 105.3 517.32 102.59C505.16 98.72 505.38 114.5 505.22 116.3C504.56 123.86 507 128.78 515.49 130.69C516.31 128.07 517.54 125.61 519.16 123.37C521.63 122.67 524.28 122.84 526.64 123.86C528.76 124.78 546.37 134.64 559.94 135.77C561.54 138.36 564.19 153.72 562.45 159.96C566.42 160.51 574.84 148.61 575.81 142.09C576.39 137.56 574.71 133.03 571.29 129.88C571.55 128.51 572.16 125.87 572.23 125.11C573.08 115.41 559.73 107.04 549.99 106.24Z" id="ar9khJzNa"></path><path d="M560.67 135.72C564.2 135.72 567.06 138.48 567.06 141.89C567.06 145.3 564.2 148.07 560.67 148.07C557.14 148.07 554.28 145.3 554.28 141.89C554.28 138.48 557.14 135.72 560.67 135.72Z" id="bK4UgVkIY"></path><path d="M601.52 277.88C601.52 275.65 594.57 263.57 589.25 255.2C592.65 253.43 619.84 239.22 623.24 237.44C629.79 256.3 633.38 273.86 633.18 277.52C631.77 305.18 568.56 341.82 565.85 341.82C563.14 341.82 558.79 336.09 558.22 334.87C557.64 333.65 557.17 328.94 560.33 327.25C572.5 320.7 601.51 282.44 601.52 277.88Z" id="epwxXfJn7"></path><path d="M444.16 178.14C457.59 177.62 449.85 177.88 462.74 177.66C462.74 181.79 462.8 214.8 462.81 218.93C447.86 218.93 439.99 218.74 435.74 216.64C416.66 207.21 394.07 143.18 391.56 140.47C389.06 137.76 377.1 137.58 377.1 129.27C377.05 125.45 393.82 118.98 404.3 126.15C413.85 132.66 436.23 178.43 444.16 178.14Z" id="c2ogmleMDf"></path><path d="M497.61 566.95C495.47 567.95 494.11 566.54 493.55 562.74C473.63 428.07 462.56 353.26 460.34 338.29C459.78 334.49 460.57 332.09 462.71 331.09C462.71 331.09 462.71 331.09 462.71 331.09C464.85 330.09 466.2 331.49 466.77 335.29C486.69 469.96 497.76 544.78 499.98 559.74C500.54 563.54 499.75 565.95 497.61 566.95C497.61 566.95 497.61 566.95 497.61 566.95Z" id="nPVAm8G82"></path><path d="M457.64 331.09C459.78 332.09 460.57 334.49 460.01 338.3C440.09 472.96 429.02 547.78 426.8 562.74C426.24 566.55 424.89 567.95 422.75 566.95C422.75 566.95 422.75 566.95 422.75 566.95C420.61 565.95 419.82 563.55 420.38 559.74C440.3 425.07 451.37 350.26 453.59 335.3C454.15 331.49 455.5 330.09 457.64 331.09C457.64 331.09 457.64 331.09 457.64 331.09Z" id="a5BYIZMrfA"></path><path d="M411.83 331.1C413.97 332.1 414.76 334.5 414.19 338.31C394.27 472.97 383.2 547.79 380.99 562.75C380.42 566.56 379.07 567.96 376.93 566.96C376.93 566.96 376.93 566.96 376.93 566.96C374.79 565.96 374 563.56 374.56 559.75C394.49 425.08 405.56 350.27 407.77 335.31C408.33 331.5 409.69 330.1 411.83 331.1C411.83 331.1 411.83 331.1 411.83 331.1Z" id="dK5jgbhja"></path><path d="M451.21 566.95C449.07 567.95 447.72 566.55 447.16 562.75C427.23 428.08 416.16 353.26 413.95 338.3C413.39 334.49 414.18 332.09 416.32 331.09C416.32 331.09 416.32 331.09 416.32 331.09C418.46 330.09 419.81 331.49 420.37 335.3C440.3 469.97 451.37 544.78 453.58 559.74C454.14 563.55 453.35 565.95 451.21 566.95C451.21 566.95 451.21 566.95 451.21 566.95Z" id="f1H2SsYeSd"></path><path d="M224.97 330.62C227.11 331.6 227.91 334 227.36 337.82C207.77 472.88 196.88 547.92 194.71 562.93C194.15 566.74 192.8 568.16 190.66 567.18C190.66 567.18 190.66 567.18 190.66 567.18C188.51 566.19 187.71 563.79 188.26 559.98C207.85 424.91 218.74 349.87 220.91 334.87C221.47 331.05 222.82 329.63 224.97 330.62C224.97 330.62 224.97 330.62 224.97 330.62Z" id="j3qJ9LoqwL"></path><path d="M263.86 566.13C261.71 567.11 260.36 565.7 259.81 561.88C240.22 426.82 229.34 351.78 227.16 336.77C226.61 332.96 227.4 330.56 229.55 329.57C229.55 329.57 229.55 329.57 229.55 329.57C231.7 328.59 233.05 330 233.6 333.82C253.19 468.89 264.08 543.92 266.25 558.93C266.81 562.75 266.01 565.15 263.86 566.13C263.86 566.13 263.86 566.13 263.86 566.13Z" id="cCKFWNTg5"></path><path d="M480.47 320C482.43 320 483.41 321.74 483.41 325.22C483.41 329.43 483.41 331.77 483.41 332.24C483.41 335.72 482.43 337.46 480.47 337.46C287.77 337.46 180.71 337.46 159.3 337.46C157.34 337.46 156.36 335.72 156.36 332.24C156.36 328.03 156.36 325.69 156.36 325.22C156.36 321.74 157.34 320 159.3 320C352 320 459.06 320 480.47 320Z" id="cFWnnlkFj"></path><path d="M177.29 331.11C179.43 332.11 180.22 334.51 179.66 338.32C159.73 472.98 148.66 547.8 146.45 562.76C145.89 566.57 144.53 567.97 142.39 566.97C142.39 566.97 142.39 566.97 142.39 566.97C140.25 565.97 139.46 563.57 140.02 559.76C159.95 425.09 171.02 350.28 173.23 335.32C173.8 331.51 175.15 330.11 177.29 331.11C177.29 331.11 177.29 331.11 177.29 331.11Z" id="d7tj6we4Fg"></path><path d="M216.68 566.95C214.54 567.95 213.19 566.55 212.63 562.75C192.7 428.08 181.63 353.26 179.42 338.3C178.86 334.5 179.64 332.09 181.79 331.09C181.79 331.09 181.79 331.09 181.79 331.09C183.93 330.09 185.28 331.49 185.84 335.3C205.77 469.97 216.84 544.78 219.05 559.75C219.61 563.55 218.82 565.95 216.68 566.95C216.68 566.95 216.68 566.95 216.68 566.95Z" id="i2huDEGvsB"></path><path d="M323.33 114.75C331.45 114.75 335.52 117.32 335.52 122.47C335.52 138.46 335.52 147.35 335.52 149.13C335.52 154.27 331.45 156.85 323.33 156.85C323.33 156.85 323.33 156.85 323.33 156.85C315.2 156.85 311.13 154.27 311.13 149.13C311.13 133.13 311.13 124.25 311.13 122.47C311.13 117.32 315.2 114.75 323.33 114.75C323.33 114.75 323.33 114.75 323.33 114.75Z" id="c4KaKhgv9P"></path><path d="M323.33 170.67C309.82 170.67 298.87 177.61 298.87 186.16C298.87 194.72 309.82 201.66 323.33 201.66C336.83 201.66 347.78 194.72 347.78 186.16C347.78 177.61 336.83 170.67 323.33 170.67Z" id="m3kitJDy1T"></path><path d="M249.56 186.15C249.56 186.15 249.56 186.16 249.56 186.16C264.31 186.16 382.32 186.16 397.07 186.16C397.07 160.37 364.05 139.45 323.33 139.45C323.33 139.45 323.33 139.45 323.33 139.45C282.6 139.45 249.58 160.35 249.56 186.15Z" id="c1ls8Vfl4O"></path><path d="M323.33 123.64L323.33 -45.82" id="ab4HwFvh"></path><path d="M269.72 306.15C269.88 306.67 269.96 307.22 269.97 307.76C269.97 311.95 260.84 312.57 249.56 312.57C238.29 312.57 229.07 311.95 229.07 307.76C229.08 307.22 229.16 306.68 229.31 306.16C230.66 305.74 237.41 303.67 249.56 299.94C260.31 303.25 267.03 305.32 269.72 306.15Z" id="a2TeSj0eFT"></path><linearGradient id="gradientc1x17RqGg" gradientUnits="userSpaceOnUse" x1="249.54" y1="312.57" x2="249.54" y2="299.94"><stop style="stop-color: #d4d8e1;stop-opacity: 1" offset="0%"></stop><stop style="stop-color: #f3f4f5;stop-opacity: 1" offset="100%"></stop></linearGradient><path d="M269.72 306.15C269.88 306.67 269.96 307.22 269.97 307.76C269.97 311.95 260.84 312.57 249.56 312.57C238.29 312.57 229.07 311.95 229.07 307.76C229.08 307.22 229.16 306.68 229.31 306.16C230.66 305.74 237.41 303.67 249.56 299.94C260.31 303.25 267.03 305.32 269.72 306.15Z" id="e2e4NwzeK9"></path><linearGradient id="gradientb3hOVs1CVx" gradientUnits="userSpaceOnUse" x1="249.54" y1="312.57" x2="249.54" y2="299.94"><stop style="stop-color: #d4d8e1;stop-opacity: 1" offset="0%"></stop><stop style="stop-color: #f3f4f5;stop-opacity: 1" offset="100%"></stop></linearGradient><path d="M249.56 312.57C238.29 312.57 229.07 311.95 229.07 307.76C229.07 307.41 229.11 307.06 229.18 306.72C230.29 310.23 238.98 310.77 249.56 310.77C260.15 310.77 268.82 310.22 269.88 306.71C269.94 307.06 269.97 307.41 269.97 307.76C269.97 311.95 260.84 312.57 249.56 312.57Z" id="c2IdAmhwiS"></path><path d="M251.32 302.14C246.47 301.58 238.63 304 233.18 305.6C229.74 306.72 227.03 306.5 227.74 303.27C229.6 294.35 248.37 289.59 262.58 295.01C264.5 295.75 266.27 296.75 267.84 297.97C269.64 299.35 270.88 301.21 271.36 303.27C271.88 306.2 269.69 306.43 267.71 306.08C266.06 305.8 257 302.71 251.32 302.14Z" id="dmKzmT9dr"></path><linearGradient id="gradientboVR10X5" gradientUnits="userSpaceOnUse" x1="249.49" y1="306.2" x2="249.49" y2="292.71"><stop style="stop-color: #da5466;stop-opacity: 1" offset="0%"></stop><stop style="stop-color: #f4929c;stop-opacity: 1" offset="100%"></stop></linearGradient><path d="M266.34 305.79C249.81 300.92 249.56 300.84 232.64 305.75C230.67 306.33 227.44 306.84 227.6 303.95C228.63 304.68 230.68 304.31 232.07 303.95C249.49 298.99 249.93 299.13 266.91 303.95C268.3 304.34 270.3 304.71 271.37 303.98C271.53 306.84 268.3 306.33 266.34 305.79Z" id="apJL9oQte"></path><path d="M267.71 306.08C267.04 305.95 266.38 305.79 265.74 305.57C266.35 302.81 266.24 299.96 265.43 297.23C265.34 296.97 265.39 296.68 265.57 296.46C266.34 296.9 267.07 297.39 267.74 297.95C268.05 299.29 268.2 300.65 268.17 302.02C268.19 303.39 268.03 304.74 267.71 306.08Z" id="c3nSiuyzmO"></path><path d="M260.7 304.13C261.06 302.83 261.22 301.5 261.2 300.17C261.2 295.56 259.93 295.04 260.3 294.26C262.06 294.8 262.4 295.01 262.51 295.01C263.73 298.6 263.16 303.77 262.65 304.67C262.05 304.5 261.39 304.31 260.7 304.13Z" id="a4SHraSVTu"></path><path d="M255.57 302.86C256.05 299.69 255.56 296.45 254.16 293.5C254.07 293.34 254.04 293.16 254.08 292.98C254.83 293.07 255.57 293.18 256.3 293.32C257.69 296.49 258.12 299.92 257.56 303.28C257.56 303.37 257.56 303.28 255.57 302.86Z" id="ieEDizz0y"></path><path d="M251.28 302.14C251.22 299 250.22 295.93 248.37 293.24C248.25 293.1 248.18 292.92 248.18 292.74C248.83 292.74 249.79 292.74 250.43 292.74C252.3 295.66 253.3 298.95 253.33 302.3C253.33 302.57 253.41 302.35 251.28 302.14Z" id="b1kbIC4gTZ"></path><path d="M246.13 302.27C245.75 299.21 244.48 296.28 242.45 293.78C242.35 293.66 242.28 293.53 242.26 293.39C242.97 293.25 243.67 293.14 244.39 293.05C246.47 295.75 247.77 298.85 248.18 302.1C246.13 302.24 246.13 302.47 246.13 302.27Z" id="aKdSo6ao"></path><path d="M241.45 303.2C240.8 300.21 239.32 297.42 237.12 295.08C237.04 294.99 236.97 294.9 236.93 294.8C237.58 294.56 238.24 294.35 238.92 294.15C241.22 296.68 242.79 299.66 243.5 302.85C241.21 303.35 241.53 303.35 241.45 303.2Z" id="at2tEJL"></path><path d="M237.35 304.37C235.98 301.8 233.97 299.54 231.47 297.75C232 297.34 232.57 296.96 233.17 296.63C236.24 298.81 239.04 302.76 239.32 303.85C238.63 304.02 237.97 304.2 237.35 304.37Z" id="a2ooTZgzK"></path><path d="M233.17 305.6C231.99 303.79 230.49 302.16 228.72 300.77C229.05 300.24 229.43 299.73 229.86 299.25C230.91 299.73 234.69 303.93 235.11 305.02C234.72 305.14 233.36 305.54 233.17 305.6Z" id="bJTqhxM5m"></path><path d="M237.27 308.06C236.7 308.06 236.24 307.66 236.24 307.16C236.24 306.66 236.7 306.26 237.27 306.26C237.83 306.26 238.29 306.66 238.29 307.16C238.29 307.66 237.83 308.06 237.27 308.06Z" id="g1w1clTrRY"></path><path d="M241.37 306.26C240.8 306.26 240.34 305.85 240.34 305.35C240.34 304.86 240.8 304.45 241.37 304.45C241.93 304.45 242.39 304.86 242.39 305.35C242.39 305.85 241.93 306.26 241.37 306.26Z" id="a1dWWLv8m"></path><path d="M241.37 309.87C240.8 309.87 240.34 309.46 240.34 308.96C240.34 308.46 240.8 308.06 241.37 308.06C241.93 308.06 242.39 308.46 242.39 308.96C242.39 309.46 241.93 309.87 241.37 309.87Z" id="eAla2Ch1c"></path><path d="M281.33 312.57C281.33 312.57 281.33 312.57 281.33 312.57C281.33 315.82 281.33 317.63 281.33 317.99C281.33 317.99 281.33 317.99 281.33 317.99C243.21 317.99 222.03 317.99 217.8 317.99C217.8 317.99 217.8 317.99 217.8 317.99C217.8 314.74 217.8 312.93 217.8 312.57C217.8 312.57 217.8 312.57 217.8 312.57C255.92 312.57 277.1 312.57 281.33 312.57Z" id="bvjP1gGT6"></path><linearGradient id="gradientl86IrQbacq" gradientUnits="userSpaceOnUse" x1="249.56" y1="317.99" x2="249.56" y2="312.57"><stop style="stop-color: #d1a788;stop-opacity: 1" offset="0%"></stop><stop style="stop-color: #f2d3b8;stop-opacity: 1" offset="100%"></stop></linearGradient><path d="M281.33 316.18C281.33 316.18 281.33 316.18 281.33 316.18C281.33 317.26 281.33 317.87 281.33 317.99C281.33 317.99 281.33 317.99 281.33 317.99C243.21 317.99 222.03 317.99 217.8 317.99C217.8 317.99 217.8 317.99 217.8 317.99C217.8 316.9 217.8 316.3 217.8 316.18C217.8 316.18 217.8 316.18 217.8 316.18C255.92 316.18 277.1 316.18 281.33 316.18Z" id="blsfrVoOD"></path><path d="M230.09 317.99C230.09 317.99 230.09 317.99 230.09 317.99C230.09 321.23 230.09 323.04 230.09 323.4C230.09 323.4 230.09 323.4 230.09 323.4C225.18 323.4 222.44 323.4 221.9 323.4C221.9 323.4 221.9 323.4 221.9 323.4C221.9 320.15 221.9 318.35 221.9 317.99C221.9 317.99 221.9 317.99 221.9 317.99C226.82 317.99 229.55 317.99 230.09 317.99Z" id="f3TpAsSOnB"></path><linearGradient id="gradientcc8GjoF1v" gradientUnits="userSpaceOnUse" x1="226" y1="323.4" x2="226" y2="317.99"><stop style="stop-color: #d1a788;stop-opacity: 1" offset="0%"></stop><stop style="stop-color: #f2d3b8;stop-opacity: 1" offset="100%"></stop></linearGradient><path d="M277.23 317.99C277.23 317.99 277.23 317.99 277.23 317.99C277.23 321.23 277.23 323.04 277.23 323.4C277.23 323.4 277.23 323.4 277.23 323.4C272.31 323.4 269.58 323.4 269.03 323.4C269.03 323.4 269.03 323.4 269.03 323.4C269.03 320.15 269.03 318.35 269.03 317.99C269.03 317.99 269.03 317.99 269.03 317.99C273.95 317.99 276.69 317.99 277.23 317.99Z" id="a13Xbm15j5"></path><linearGradient id="gradienta5UaRFwv9" gradientUnits="userSpaceOnUse" x1="273.13" y1="323.4" x2="273.13" y2="317.99"><stop style="stop-color: #d1a788;stop-opacity: 1" offset="0%"></stop><stop style="stop-color: #f2d3b8;stop-opacity: 1" offset="100%"></stop></linearGradient><path d="M230.09 321.6C230.09 321.6 230.09 321.6 230.09 321.6C230.09 322.68 230.09 323.28 230.09 323.4C230.09 323.4 230.09 323.4 230.09 323.4C225.18 323.4 222.44 323.4 221.9 323.4C221.9 323.4 221.9 323.4 221.9 323.4C221.9 322.32 221.9 321.72 221.9 321.6C221.9 321.6 221.9 321.6 221.9 321.6C226.82 321.6 229.55 321.6 230.09 321.6Z" id="cd41mxxsG"></path><path d="M277.23 321.6C277.23 321.6 277.23 321.6 277.23 321.6C277.23 322.68 277.23 323.28 277.23 323.4C277.23 323.4 277.23 323.4 277.23 323.4C272.31 323.4 269.58 323.4 269.03 323.4C269.03 323.4 269.03 323.4 269.03 323.4C269.03 322.32 269.03 321.72 269.03 321.6C269.03 321.6 269.03 321.6 269.03 321.6C273.95 321.6 276.69 321.6 277.23 321.6Z" id="d3NymI3eqV"></path><path d="M429.99 289.97C429.52 287.06 427.92 284.34 425.4 282.2C434.8 278.33 447.59 282.62 447.59 289.97C444.07 289.97 431.75 289.97 429.99 289.97Z" id="b2nzlml6FK"></path><linearGradient id="gradientfLpTvf7VD" gradientUnits="userSpaceOnUse" x1="436.5" y1="289.97" x2="436.5" y2="280.75"><stop style="stop-color: #e9a254;stop-opacity: 1" offset="0%"></stop><stop style="stop-color: #f4bb79;stop-opacity: 1" offset="100%"></stop></linearGradient><path d="M440.37 289.97C440.37 288.82 435.55 285.95 428.37 286.58C427.58 286.65 426.86 286.19 426.77 285.56C426.68 284.92 427.26 284.35 428.06 284.28C441.52 283.11 445.91 291.12 441.81 291.12C441.02 291.12 440.37 290.61 440.37 289.97Z" id="dg8fh1EKL"></path><linearGradient id="gradienth1eLWKofHN" gradientUnits="userSpaceOnUse" x1="435.03" y1="291.12" x2="435.03" y2="284.17"><stop style="stop-color: #fbcc88;stop-opacity: 1" offset="0%"></stop><stop style="stop-color: #ffe5c3;stop-opacity: 1" offset="100%"></stop></linearGradient><path d="M447.59 289.97C447.59 285.56 442.74 281.9 436.26 280.97C448.83 273.12 470.68 278.64 470.68 289.97C466.06 289.97 449.9 289.97 447.59 289.97Z" id="a98265CbB"></path><linearGradient id="gradientg3eQ2GmJ3H" gradientUnits="userSpaceOnUse" x1="436.26" y1="283.63" x2="470.68" y2="283.63"><stop style="stop-color: #e9a254;stop-opacity: 1" offset="0%"></stop><stop style="stop-color: #f4bb79;stop-opacity: 1" offset="100%"></stop></linearGradient><path d="M466.35 289.97C466.35 286.76 460.58 281.9 451.77 281.9C443.98 281.9 442.36 285.26 440.95 283.38C440.54 282.83 440.77 282.12 441.45 281.8C444.58 280.33 448.15 279.57 451.77 279.6C466.94 279.6 472.13 291.12 467.79 291.12C467 291.12 466.35 290.61 466.35 289.97Z" id="a1aRv6GmiR"></path><linearGradient id="gradientbH64BdGPH" gradientUnits="userSpaceOnUse" x1="455.01" y1="291.12" x2="455.01" y2="279.6"><stop style="stop-color: #fbcc88;stop-opacity: 1" offset="0%"></stop><stop style="stop-color: #ffe5c3;stop-opacity: 1" offset="100%"></stop></linearGradient><path d="M463.46 289.97C463.46 287.75 454.14 285.05 447.01 287.45C446.23 287.6 445.45 287.22 445.27 286.6C445.13 286.12 445.37 285.63 445.88 285.36C448.25 284.58 450.8 284.19 453.36 284.21C465.73 284.21 468.47 291.12 464.91 291.12C464.11 291.12 463.46 290.61 463.46 289.97Z" id="b5E7n04WmV"></path><linearGradient id="gradientemEZTAHxq" gradientUnits="userSpaceOnUse" x1="455.67" y1="291.12" x2="455.67" y2="284.21"><stop style="stop-color: #fbcc88;stop-opacity: 1" offset="0%"></stop><stop style="stop-color: #ffe5c3;stop-opacity: 1" offset="100%"></stop></linearGradient><path d="M417.27 261.15L417.27 257.7L486.56 257.7L486.56 262.31L486.56 262.31L417.27 261.15Z" id="bZCTA3q7a"></path><linearGradient id="gradienta5AszcKcC" gradientUnits="userSpaceOnUse" x1="451.92" y1="262.31" x2="451.92" y2="257.7"><stop style="stop-color: #d1a788;stop-opacity: 1" offset="0%"></stop><stop style="stop-color: #f2d3b8;stop-opacity: 1" offset="100%"></stop></linearGradient><path d="M417.27 254.24L417.27 257.7L486.56 257.7L486.56 253.09L486.56 253.09L417.27 254.24Z" id="b1zCYwEfMQ"></path><linearGradient id="gradienta6A7r1wcVr" gradientUnits="userSpaceOnUse" x1="451.92" y1="257.7" x2="451.92" y2="253.09"><stop style="stop-color: #d1a788;stop-opacity: 1" offset="0%"></stop><stop style="stop-color: #f2d3b8;stop-opacity: 1" offset="100%"></stop></linearGradient><path d="M414.39 272.68C414.39 272.05 415.03 271.53 415.83 271.53C419.02 271.53 421.61 269.46 421.61 266.92C421.61 265.54 421.61 254.47 421.61 253.09C421.61 252.45 422.25 251.93 423.05 251.93C423.85 251.93 424.49 252.45 424.49 253.09C424.49 254.47 424.49 265.54 424.49 266.92C424.49 270.74 420.61 273.83 415.83 273.83C415.03 273.83 414.39 273.32 414.39 272.68Z" id="a1b7t8OolU"></path><linearGradient id="gradientdzRgJCipM" gradientUnits="userSpaceOnUse" x1="419.44" y1="273.83" x2="419.44" y2="251.94"><stop style="stop-color: #fbcc88;stop-opacity: 1" offset="0%"></stop><stop style="stop-color: #ffe5c3;stop-opacity: 1" offset="100%"></stop></linearGradient><path d="M427.38 253.09C427.38 252.45 428.03 251.93 428.82 251.93C429.62 251.93 430.27 252.45 430.27 253.09C430.27 255.85 430.27 277.98 430.27 280.75C430.27 281.39 429.62 281.9 428.82 281.9C428.03 281.9 427.38 281.39 427.38 280.75C427.38 275.22 427.38 255.85 427.38 253.09Z" id="b4kq5cpkB4"></path><linearGradient id="gradienta28Oo3TjFZ" gradientUnits="userSpaceOnUse" x1="428.82" y1="281.89" x2="428.82" y2="251.94"><stop style="stop-color: #fbcc88;stop-opacity: 1" offset="0%"></stop><stop style="stop-color: #ffe5c3;stop-opacity: 1" offset="100%"></stop></linearGradient><path d="M433.15 253.09C433.15 252.45 433.8 251.93 434.6 251.93C435.39 251.93 436.04 252.45 436.04 253.09C436.04 255.85 436.04 277.98 436.04 280.75C436.04 281.39 435.39 281.9 434.6 281.9C433.8 281.9 433.15 281.39 433.15 280.75C433.15 275.22 433.15 255.85 433.15 253.09Z" id="gq04EsAbF"></path><linearGradient id="gradientewhoRy48F" gradientUnits="userSpaceOnUse" x1="434.6" y1="281.89" x2="434.6" y2="251.94"><stop style="stop-color: #fbcc88;stop-opacity: 1" offset="0%"></stop><stop style="stop-color: #ffe5c3;stop-opacity: 1" offset="100%"></stop></linearGradient><path d="M438.93 253.09C438.93 252.45 439.57 251.93 440.37 251.93C441.17 251.93 441.81 252.45 441.81 253.09C441.81 255.58 441.81 275.5 441.81 278C441.81 278.63 441.17 279.15 440.37 279.15C439.57 279.15 438.93 278.63 438.93 278C438.93 273.01 438.93 255.58 438.93 253.09Z" id="azfiWMPms"></path><linearGradient id="gradienta1mcQgvaj" gradientUnits="userSpaceOnUse" x1="440.37" y1="279.14" x2="440.37" y2="251.94"><stop style="stop-color: #fbcc88;stop-opacity: 1" offset="0%"></stop><stop style="stop-color: #ffe5c3;stop-opacity: 1" offset="100%"></stop></linearGradient><path d="M446.14 289.97C446.14 283.54 434.6 279.72 426.07 283.23C425.36 283.52 424.48 283.3 424.12 282.73C423.75 282.17 424.03 281.47 424.74 281.18C427.35 280.12 430.23 279.58 433.15 279.6C447.59 279.6 451.66 291.12 447.59 291.12C446.79 291.12 446.14 290.61 446.14 289.97Z" id="ieuA1eMby"></path><linearGradient id="gradientc8SrfoHUo" gradientUnits="userSpaceOnUse" x1="436.52" y1="291.12" x2="436.52" y2="279.6"><stop style="stop-color: #fbcc88;stop-opacity: 1" offset="0%"></stop><stop style="stop-color: #ffe5c3;stop-opacity: 1" offset="100%"></stop></linearGradient><path d="M437.15 281.9C436.52 282.3 435.61 282.21 435.12 281.71C434.62 281.2 434.73 280.48 435.36 280.08C448.89 271.62 472.13 277.68 472.13 289.97C472.13 290.61 471.48 291.12 470.68 291.12C469.88 291.12 469.24 290.61 469.24 289.97C469.24 279.71 448.86 274.57 437.15 281.9Z" id="g1dM95mRe1"></path><linearGradient id="gradientaqWDlzSNs" gradientUnits="userSpaceOnUse" x1="453.46" y1="291.11" x2="453.46" y2="276.14"><stop style="stop-color: #fbcc88;stop-opacity: 1" offset="0%"></stop><stop style="stop-color: #ffe5c3;stop-opacity: 1" offset="100%"></stop></linearGradient><path d="M437.15 281.9C436.52 282.3 435.61 282.21 435.12 281.71C434.62 281.2 434.73 280.48 435.36 280.08C448.89 271.62 472.13 277.68 472.13 289.97C472.13 290.61 471.48 291.12 470.68 291.12C469.88 291.12 469.24 290.61 469.24 289.97C469.24 279.71 448.86 274.57 437.15 281.9Z" id="b2f5tqxcgz"></path><linearGradient id="gradientc3G3i3CPXh" gradientUnits="userSpaceOnUse" x1="453.46" y1="291.11" x2="453.46" y2="276.14"><stop style="stop-color: #fbcc88;stop-opacity: 1" offset="0%"></stop><stop style="stop-color: #ffe5c3;stop-opacity: 1" offset="100%"></stop></linearGradient><path d="M451.92 316.01L451.92 323.4L420.16 323.4L420.16 316.01" id="a4lz0FTsBq"></path><path d="M475.01 289.97C475.01 296.06 474.1 298.04 472.27 301.67C466.94 311.05 454.37 317.64 439.72 317.64C438.98 317.64 433.09 317.64 432.36 317.64C412.45 317.64 397.07 305.67 397.07 291.62C397.07 291.51 397.07 290.96 397.07 289.97C438.64 289.97 464.62 289.97 475.01 289.97Z" id="d1xaK3TMqM"></path><linearGradient id="gradientf42CtiYpr1" gradientUnits="userSpaceOnUse" x1="436.04" y1="317.64" x2="436.04" y2="289.97"><stop style="stop-color: #da5466;stop-opacity: 1" offset="0%"></stop><stop style="stop-color: #f4929c;stop-opacity: 1" offset="100%"></stop></linearGradient><path d="M474.28 296.89C473.85 298.48 473.2 300.02 472.36 301.5C465.09 301.5 406.99 301.5 399.72 301.5C398.88 300.02 398.23 298.48 397.8 296.89C413.1 296.89 458.98 296.89 474.28 296.89Z" id="k22O65zBKR"></path><path d="M402.96 289.97C401.6 284.66 402.84 278.96 407.5 276.92C415.6 273.36 429.26 282.4 429.99 289.97C424.58 289.97 405.66 289.97 402.96 289.97Z" id="a1NJx59mlc"></path><linearGradient id="gradienta1otC7fOx9" gradientUnits="userSpaceOnUse" x1="416.22" y1="289.97" x2="416.22" y2="276.13"><stop style="stop-color: #d4d8e1;stop-opacity: 1" offset="0%"></stop><stop style="stop-color: #f3f4f5;stop-opacity: 1" offset="100%"></stop></linearGradient><path d="M402.96 289.97C402.77 289.21 402.63 288.44 402.54 287.67C405.22 287.67 426.73 287.67 429.41 287.67C429.72 288.41 429.91 289.19 429.99 289.97C424.58 289.97 405.66 289.97 402.96 289.97Z" id="bXnHqZ9fs"></path><path d="M423.05 289.97C423.05 286.79 419.82 284.21 415.83 284.21C411.85 284.21 408.61 286.79 408.61 289.97C411.5 289.97 420.16 289.97 423.05 289.97Z" id="d2bjpR7BhL"></path><linearGradient id="gradientb2a6qnZHRc" gradientUnits="userSpaceOnUse" x1="415.83" y1="289.97" x2="415.83" y2="284.13"><stop style="stop-color: #e9a254;stop-opacity: 1" offset="0%"></stop><stop style="stop-color: #f4bb79;stop-opacity: 1" offset="100%"></stop></linearGradient><path d="M408.61 289.97C408.6 289.18 408.78 288.4 409.16 287.67C410.49 287.67 421.15 287.67 422.49 287.67C422.87 288.4 423.06 289.18 423.05 289.97C420.16 289.97 410.06 289.97 408.61 289.97Z" id="dfBmKrMTw"></path><path d="M320 255.62C320 255.62 320 255.62 320 255.62C320 289.7 320 308.64 320 312.43C320 312.43 320 312.43 320 312.43C297.68 312.43 285.28 312.43 282.8 312.43C282.8 312.43 282.8 312.43 282.8 312.43C282.8 278.34 282.8 259.41 282.8 255.62C282.8 255.62 282.8 255.62 282.8 255.62C305.12 255.62 317.52 255.62 320 255.62Z" id="a13SHjLUNI"></path><linearGradient id="gradienti5HE75Ki" gradientUnits="userSpaceOnUse" x1="301.4" y1="312.43" x2="301.4" y2="255.62"><stop style="stop-color: #da5466;stop-opacity: 1" offset="0%"></stop><stop style="stop-color: #f4929c;stop-opacity: 1" offset="100%"></stop></linearGradient><path d="M320 308.64C320 308.64 320 308.64 320 308.64C320 310.91 320 312.17 320 312.43C320 312.43 320 312.43 320 312.43C297.68 312.43 285.28 312.43 282.8 312.43C282.8 312.43 282.8 312.43 282.8 312.43C282.8 310.15 282.8 308.89 282.8 308.64C282.8 308.64 282.8 308.64 282.8 308.64C305.12 308.64 317.52 308.64 320 308.64Z" id="jgK3ptw56"></path><path d="M320 255.62L282.8 255.62L286.93 246.78L315.87 246.78L320 255.62Z" id="ata54konH"></path><linearGradient id="gradientg3hDQwv1bz" gradientUnits="userSpaceOnUse" x1="301.4" y1="255.62" x2="301.4" y2="246.78"><stop style="stop-color: #a0a6ba;stop-opacity: 1" offset="0%"></stop><stop style="stop-color: #c6ccda;stop-opacity: 1" offset="100%"></stop></linearGradient><path d="M316.96 249.12C316.2 249.4 318.38 249.31 286.93 249.31C286.56 249.31 286.19 249.25 285.84 249.12C285.91 248.96 286.28 248.18 286.93 246.78L315.87 246.78C316.45 248.03 316.82 248.81 316.96 249.12Z" id="b26JkBXC7g"></path><path d="M286.93 246.78C285.79 246.78 284.87 245.65 284.87 244.26C284.87 242.86 285.79 241.73 286.93 241.73C289.83 241.73 312.97 241.73 315.87 241.73C317.01 241.73 317.93 242.86 317.93 244.26C317.93 245.65 317.01 246.78 315.87 246.78C310.08 246.78 289.83 246.78 286.93 246.78Z" id="h3vS7IaGpC"></path><path d="M320 312.43L315.87 320L286.93 320L282.8 312.43L320 312.43Z" id="cFzUEixQP"></path><linearGradient id="gradientb5e5le2Q5" gradientUnits="userSpaceOnUse" x1="301.4" y1="320" x2="301.4" y2="312.43"><stop style="stop-color: #a0a6ba;stop-opacity: 1" offset="0%"></stop><stop style="stop-color: #c6ccda;stop-opacity: 1" offset="100%"></stop></linearGradient><path d="M315.87 320L286.93 320L285.56 317.48L317.24 317.48L317.24 317.48L315.87 320Z" id="elJdNBdZ3"></path><path d="M315.87 255.62C310.16 260.44 307 268.63 307.6 277.08C308.63 290.97 314.83 296.02 311.73 312.43C310.83 312.43 303.56 312.43 302.65 312.43C307.6 303.59 307.6 293.49 303.47 278.34C300.37 266.98 305.77 255.62 305.77 255.62C307.79 255.62 313.85 255.62 315.87 255.62Z" id="a1CflPKKu2"></path><linearGradient id="gradientb4X315rO8W" gradientUnits="userSpaceOnUse" x1="309.19" y1="312.43" x2="309.19" y2="255.62"><stop style="stop-color: #d4d8e1;stop-opacity: 1" offset="0%"></stop><stop style="stop-color: #f3f4f5;stop-opacity: 1" offset="100%"></stop></linearGradient><path d="M408.5 265.29L365.3 265.29C365.3 300.03 365.3 319.34 365.3 323.2C365.3 326.1 367.58 328.46 370.38 328.46C373.69 328.46 400.12 328.46 403.42 328.46C406.23 328.46 408.5 326.1 408.5 323.2C408.5 322.01 408.5 312.54 408.5 311.35C417.02 317.93 428.83 311.46 428.83 300.44C428.83 299.2 428.83 289.29 428.83 288.06C428.83 277.03 417.02 270.55 408.5 277.13C408.5 275.55 408.5 271.61 408.5 265.29ZM423.75 300.82C423.75 305.18 420.33 308.72 416.12 308.71C414.1 308.71 412.17 307.88 410.74 306.4C409.3 304.93 408.5 302.92 408.5 300.82C408.5 299.51 408.5 288.98 408.5 287.66C408.5 283.3 411.92 279.76 416.13 279.76C420.34 279.76 423.75 283.3 423.75 287.66C423.75 290.29 423.75 298.19 423.75 300.82Z" id="evQV4D8Ui"></path><linearGradient id="gradientc62BMfXX16" gradientUnits="userSpaceOnUse" x1="397.07" y1="328.46" x2="397.07" y2="265.29"><stop style="stop-color: #9dd5df;stop-opacity: 1" offset="0%"></stop><stop style="stop-color: #c3e1f5;stop-opacity: 1" offset="100%"></stop></linearGradient><path d="M396.48 265.29L404.69 265.29C404.69 297.66 404.69 315.65 404.69 319.25C404.69 320.7 403.55 321.88 402.15 321.88C399.1 321.88 374.7 321.88 371.65 321.88C370.25 321.88 369.11 320.7 369.11 319.25C369.11 315.65 369.11 297.66 369.11 265.29L374.59 265.29" id="brJxy0OMI"></path><linearGradient id="gradientacKeKRDoE" gradientUnits="userSpaceOnUse" x1="386.9" y1="321.88" x2="386.9" y2="265.29"><stop style="stop-color: #e9a254;stop-opacity: 1" offset="0%"></stop><stop style="stop-color: #f4bb79;stop-opacity: 1" offset="100%"></stop></linearGradient><path d="M404.69 319.25C404.69 320.7 403.55 321.88 402.15 321.88C399.1 321.88 374.7 321.88 371.65 321.88C370.25 321.88 369.11 320.7 369.11 319.25C369.11 318.85 369.11 315.69 369.11 315.3C369.11 316.75 370.25 317.93 371.65 317.93C374.7 317.93 399.1 317.93 402.15 317.93C403.55 317.93 404.69 316.75 404.69 315.3C404.69 316.09 404.69 318.85 404.69 319.25Z" id="a4TkIw978k"></path><path d="M370.38 324.51C367.58 324.51 365.3 322.15 365.3 319.25C365.3 319.64 365.3 322.8 365.3 323.2C365.3 326.1 367.58 328.46 370.38 328.46C373.69 328.46 400.12 328.46 403.42 328.46C406.23 328.46 408.5 326.1 408.5 323.2C408.5 322.8 408.5 319.64 408.5 319.25C408.5 322.15 406.23 324.51 403.42 324.51C396.81 324.51 373.69 324.51 370.38 324.51Z" id="b76wjtnDhG"></path><path d="M395.8 265.29C394.39 265.29 393.25 266.47 393.25 267.92C393.25 268.71 393.25 275.03 393.25 275.82C393.25 277.27 392.12 278.45 390.71 278.45C389.31 278.45 388.17 277.27 388.17 275.82C388.17 275.69 388.17 274.63 388.17 274.5C388.17 273.05 387.03 271.87 385.63 271.87C384.23 271.87 383.09 273.05 383.09 274.5C383.09 275.16 383.09 280.42 383.09 281.08C383.09 282.53 381.95 283.71 380.55 283.71C379.14 283.71 378.01 282.53 378.01 281.08C378.01 279.76 378.01 269.24 378.01 267.92C378.01 266.47 376.87 265.29 375.47 265.29C374.83 265.29 369.75 265.29 369.11 265.29C367.01 262.38 367.58 258.26 370.38 256.08C371.48 255.22 372.82 254.76 374.19 254.76C374.21 252.58 375.92 250.82 378.03 250.83C378.72 250.84 379.41 251.04 380 251.42C381.79 247.47 386.33 245.77 390.14 247.62C392.87 248.95 394.59 251.82 394.53 254.94C397.24 254.22 400.02 255.91 400.72 258.72C400.82 259.15 400.88 259.59 400.88 260.02C403.69 260.02 405.96 262.38 405.96 265.29C403.93 265.29 397.83 265.29 395.8 265.29Z" id="gkxiO9oIt"></path><linearGradient id="gradientgc1RJRMLD" gradientUnits="userSpaceOnUse" x1="386.9" y1="283.71" x2="386.9" y2="246.88"><stop style="stop-color: #d4d8e1;stop-opacity: 1" offset="0%"></stop><stop style="stop-color: #f3f4f5;stop-opacity: 1" offset="100%"></stop></linearGradient><path d="M381.82 266.6C381.12 266.6 380.55 266.01 380.55 265.29C380.55 264.56 381.12 263.97 381.82 263.97C382.58 263.97 388.68 263.97 389.44 263.97C390.14 263.97 390.71 264.56 390.71 265.29C390.71 266.01 390.14 266.6 389.44 266.6C387.92 266.6 382.58 266.6 381.82 266.6Z" id="cb7VvjnvU"></path></defs><g><g><g><use xlink:href="#c4hEtz0OT" opacity="1" fill="#faefe9" fill-opacity="1"></use><g><use xlink:href="#c4hEtz0OT" opacity="1" fill-opacity="0" stroke="#000000" stroke-width="1" stroke-opacity="0"></use></g></g><g><use xlink:href="#aIeZ9dEcO" opacity="1" fill="#ffffff" fill-opacity="1"></use><g><use xlink:href="#aIeZ9dEcO" opacity="1" fill-opacity="0" stroke="#000000" stroke-width="1" stroke-opacity="0"></use></g></g><g><use xlink:href="#bnbrCM7yw" opacity="1" fill="#ffffff" fill-opacity="1"></use><g><use xlink:href="#bnbrCM7yw" opacity="1" fill-opacity="0" stroke="#000000" stroke-width="1" stroke-opacity="0"></use></g></g><g><g><use xlink:href="#b1Z7O6g8At" opacity="1" fill="#000000" fill-opacity="1"></use><g><use xlink:href="#b1Z7O6g8At" opacity="1" fill-opacity="0" stroke="#000000" stroke-width="1" stroke-opacity="0"></use></g></g><g><use xlink:href="#baf47fouc" opacity="1" fill="#000000" fill-opacity="0"></use><g><use xlink:href="#baf47fouc" opacity="1" fill-opacity="0" stroke="#000000" stroke-width="4" stroke-opacity="1"></use></g></g><g><use xlink:href="#i40zabReD" opacity="1" fill="#000000" fill-opacity="0"></use><g><use xlink:href="#i40zabReD" opacity="1" fill-opacity="0" stroke="#000000" stroke-width="4" stroke-opacity="1"></use></g></g><g><use xlink:href="#a1GRuBMkgU" opacity="1" fill="#000000" fill-opacity="0"></use><g><use xlink:href="#a1GRuBMkgU" opacity="1" fill-opacity="0" stroke="#000000" stroke-width="2" stroke-opacity="1"></use></g></g><g><use xlink:href="#a1vNNtreiS" opacity="1" fill="#000000" fill-opacity="0"></use><g><use xlink:href="#a1vNNtreiS" opacity="1" fill-opacity="0" stroke="#000000" stroke-width="2" stroke-opacity="1"></use></g></g></g><g><g><use xlink:href="#l17Ht2Nk4S" opacity="1" fill="#1f161e" fill-opacity="1"></use><g><use xlink:href="#l17Ht2Nk4S" opacity="1" fill-opacity="0" stroke="#000000" stroke-width="1" stroke-opacity="0"></use></g></g><g><use xlink:href="#g2ozvqFwn4" opacity="1" fill="#1f161e" fill-opacity="1"></use><g><use xlink:href="#g2ozvqFwn4" opacity="1" fill-opacity="0" stroke="#000000" stroke-width="1" stroke-opacity="0"></use></g></g><g><use xlink:href="#a72UQU414" opacity="1" fill="#1f161e" fill-opacity="1"></use><g><use xlink:href="#a72UQU414" opacity="1" fill-opacity="0" stroke="#000000" stroke-width="1" stroke-opacity="0"></use></g></g><g><use xlink:href="#a4iUPICe6G" opacity="1" fill="#55b79d" fill-opacity="1"></use><g><use xlink:href="#a4iUPICe6G" opacity="1" fill-opacity="0" stroke="#000000" stroke-width="1" stroke-opacity="0"></use></g></g><g><use xlink:href="#eIeqDRuXL" opacity="1" fill="#73e5e2" fill-opacity="1"></use><g><use xlink:href="#eIeqDRuXL" opacity="1" fill-opacity="0" stroke="#000000" stroke-width="1" stroke-opacity="0"></use></g></g><g><use xlink:href="#c2WaJdu4IU" opacity="1" fill="#1f161e" fill-opacity="1"></use><g><use xlink:href="#c2WaJdu4IU" opacity="1" fill-opacity="0" stroke="#000000" stroke-width="1" stroke-opacity="0"></use></g></g><g><use xlink:href="#a283VblxEE" opacity="1" fill="#f8cdba" fill-opacity="1"></use><g><use xlink:href="#a283VblxEE" opacity="1" fill-opacity="0" stroke="#000000" stroke-width="1" stroke-opacity="0"></use></g></g><g><use xlink:href="#csiFwM2mc" opacity="1" fill="#1f161e" fill-opacity="1"></use><g><use xlink:href="#csiFwM2mc" opacity="1" fill-opacity="0" stroke="#000000" stroke-width="1" stroke-opacity="0"></use></g></g><g><use xlink:href="#fDIvLe5gY" opacity="1" fill="#f8cdba" fill-opacity="1"></use><g><use xlink:href="#fDIvLe5gY" opacity="1" fill-opacity="0" stroke="#000000" stroke-width="1" stroke-opacity="0"></use></g></g><g><use xlink:href="#k2fufVTNKk" opacity="1" fill="#fa9e9f" fill-opacity="1"></use><g><use xlink:href="#k2fufVTNKk" opacity="1" fill-opacity="0" stroke="#000000" stroke-width="1" stroke-opacity="0"></use></g></g><g><use xlink:href="#bIxLXJr26" opacity="1" fill="#fa9e9f" fill-opacity="1"></use><g><use xlink:href="#bIxLXJr26" opacity="1" fill-opacity="0" stroke="#000000" stroke-width="1" stroke-opacity="0"></use></g></g><g><use xlink:href="#eOIxQQ6fW" opacity="1" fill="#000000" fill-opacity="0"></use><g><use xlink:href="#eOIxQQ6fW" opacity="1" fill-opacity="0" stroke="#1f161e" stroke-width="1.2" stroke-opacity="1"></use></g></g><g><use xlink:href="#b2YfPXxIWv" opacity="1" fill="#000000" fill-opacity="0"></use><g><use xlink:href="#b2YfPXxIWv" opacity="1" fill-opacity="0" stroke="#1f161e" stroke-width="1.2" stroke-opacity="1"></use></g></g><g><use xlink:href="#hcZy8oEo" opacity="1" fill="#1f161e" fill-opacity="1"></use><g><use xlink:href="#hcZy8oEo" opacity="1" fill-opacity="0" stroke="#000000" stroke-width="1" stroke-opacity="0"></use></g></g><g><use xlink:href="#a4Ra3XDt15" opacity="1" fill="#f8cdba" fill-opacity="1"></use><g><use xlink:href="#a4Ra3XDt15" opacity="1" fill-opacity="0" stroke="#000000" stroke-width="1" stroke-opacity="0"></use></g></g><g><use xlink:href="#a1G2bC0xOt" opacity="1" fill="#73e5e2" fill-opacity="1"></use><g><use xlink:href="#a1G2bC0xOt" opacity="1" fill-opacity="0" stroke="#000000" stroke-width="1" stroke-opacity="0"></use></g></g><g><use xlink:href="#aFhvDCFdG" opacity="1" fill="#f8cdba" fill-opacity="1"></use><g><use xlink:href="#aFhvDCFdG" opacity="1" fill-opacity="0" stroke="#000000" stroke-width="1" stroke-opacity="0"></use></g></g><g><use xlink:href="#c4zckB0H9j" opacity="1" fill="#000000" fill-opacity="0"></use><g><use xlink:href="#c4zckB0H9j" opacity="1" fill-opacity="0" stroke="#1f161e" stroke-width="1" stroke-opacity="1"></use></g></g><g><use xlink:href="#lfGe3gK4g" opacity="1" fill="#000000" fill-opacity="0"></use><g><use xlink:href="#lfGe3gK4g" opacity="1" fill-opacity="0" stroke="#1f161e" stroke-width="1" stroke-opacity="1"></use></g></g></g><g><g><use xlink:href="#dJtuGNch0" opacity="1" fill="#000000" fill-opacity="1"></use><g><use xlink:href="#dJtuGNch0" opacity="1" fill-opacity="0" stroke="#000000" stroke-width="1" stroke-opacity="0"></use></g></g><g><use xlink:href="#c5APQVbdW" opacity="1" fill="#000000" fill-opacity="0"></use><g><use xlink:href="#c5APQVbdW" opacity="1" fill-opacity="0" stroke="#000000" stroke-width="4" stroke-opacity="1"></use></g></g><g><use xlink:href="#a2sPmok0mS" opacity="1" fill="#000000" fill-opacity="0"></use><g><use xlink:href="#a2sPmok0mS" opacity="1" fill-opacity="0" stroke="#000000" stroke-width="4" stroke-opacity="1"></use></g></g><g><use xlink:href="#b6RMrp3Q" opacity="1" fill="#000000" fill-opacity="0"></use><g><use xlink:href="#b6RMrp3Q" opacity="1" fill-opacity="0" stroke="#000000" stroke-width="2" stroke-opacity="1"></use></g></g><g><use xlink:href="#a5PAm5kTCp" opacity="1" fill="#000000" fill-opacity="0"></use><g><use xlink:href="#a5PAm5kTCp" opacity="1" fill-opacity="0" stroke="#000000" stroke-width="2" stroke-opacity="1"></use></g></g></g><g><g><use xlink:href="#b3XXliagnb" opacity="1" fill="#1f161e" fill-opacity="1"></use><g><use xlink:href="#b3XXliagnb" opacity="1" fill-opacity="0" stroke="#000000" stroke-width="1" stroke-opacity="0"></use></g></g><g><use xlink:href="#eb1cP1fPQ" opacity="1" fill="#1f161e" fill-opacity="1"></use><g><use xlink:href="#eb1cP1fPQ" opacity="1" fill-opacity="0" stroke="#000000" stroke-width="1" stroke-opacity="0"></use></g></g><g><use xlink:href="#d6EPQ7HYK" opacity="1" fill="#ab8fe2" fill-opacity="1"></use><g><use xlink:href="#d6EPQ7HYK" opacity="1" fill-opacity="0" stroke="#000000" stroke-width="1" stroke-opacity="0"></use></g></g><g><use xlink:href="#a5nv6jE6p" opacity="1" fill="#fadb93" fill-opacity="1"></use><g><use xlink:href="#a5nv6jE6p" opacity="1" fill-opacity="0" stroke="#000000" stroke-width="1" stroke-opacity="0"></use></g></g><g><use xlink:href="#buS9L849a" opacity="1" fill="#1f161e" fill-opacity="1"></use><g><use xlink:href="#buS9L849a" opacity="1" fill-opacity="0" stroke="#000000" stroke-width="1" stroke-opacity="0"></use></g></g><g><use xlink:href="#f1pvKe7nCD" opacity="1" fill="#f8cdba" fill-opacity="1"></use><g><use xlink:href="#f1pvKe7nCD" opacity="1" fill-opacity="0" stroke="#000000" stroke-width="1" stroke-opacity="0"></use></g></g><g><use xlink:href="#b3qxaOvBb" opacity="1" fill="#000000" fill-opacity="1"></use><g><use xlink:href="#b3qxaOvBb" opacity="1" fill-opacity="0" stroke="#000000" stroke-width="1" stroke-opacity="0"></use></g></g><g><use xlink:href="#b7giNqwTy" opacity="1" fill="#f8cdba" fill-opacity="1"></use><g><use xlink:href="#b7giNqwTy" opacity="1" fill-opacity="0" stroke="#000000" stroke-width="1" stroke-opacity="0"></use></g></g><g><use xlink:href="#aF4xKSrgF" opacity="1" fill="#fa9e9f" fill-opacity="1"></use><g><use xlink:href="#aF4xKSrgF" opacity="1" fill-opacity="0" stroke="#000000" stroke-width="1" stroke-opacity="0"></use></g></g><g><use xlink:href="#bpiYl5OsG" opacity="1" fill="#fa9e9f" fill-opacity="1"></use><g><use xlink:href="#bpiYl5OsG" opacity="1" fill-opacity="0" stroke="#000000" stroke-width="1" stroke-opacity="0"></use></g></g><g><use xlink:href="#aaqOLZUJd" opacity="1" fill="#000000" fill-opacity="0"></use><g><use xlink:href="#aaqOLZUJd" opacity="1" fill-opacity="0" stroke="#1f161e" stroke-width="1.08" stroke-opacity="1"></use></g></g><g><use xlink:href="#a58YNf8jZP" opacity="1" fill="#000000" fill-opacity="0"></use><g><use xlink:href="#a58YNf8jZP" opacity="1" fill-opacity="0" stroke="#1f161e" stroke-width="1.08" stroke-opacity="1"></use></g></g><g><use xlink:href="#ar9khJzNa" opacity="1" fill="#000000" fill-opacity="1"></use><g><use xlink:href="#ar9khJzNa" opacity="1" fill-opacity="0" stroke="#000000" stroke-width="1" stroke-opacity="0"></use></g></g><g><use xlink:href="#bK4UgVkIY" opacity="1" fill="#f8cdba" fill-opacity="1"></use><g><use xlink:href="#bK4UgVkIY" opacity="1" fill-opacity="0" stroke="#000000" stroke-width="1" stroke-opacity="0"></use></g></g><g><use xlink:href="#epwxXfJn7" opacity="1" fill="#f8cdba" fill-opacity="1"></use><g><use xlink:href="#epwxXfJn7" opacity="1" fill-opacity="0" stroke="#000000" stroke-width="1" stroke-opacity="0"></use></g></g><g><use xlink:href="#c2ogmleMDf" opacity="1" fill="#f8cdba" fill-opacity="1"></use><g><use xlink:href="#c2ogmleMDf" opacity="1" fill-opacity="0" stroke="#000000" stroke-width="1" stroke-opacity="0"></use></g></g></g><g><g><use xlink:href="#nPVAm8G82" opacity="1" fill="#969696" fill-opacity="1"></use><g><use xlink:href="#nPVAm8G82" opacity="1" fill-opacity="0" stroke="#000000" stroke-width="1" stroke-opacity="0"></use></g></g><g><use xlink:href="#a5BYIZMrfA" opacity="1" fill="#969696" fill-opacity="1"></use><g><use xlink:href="#a5BYIZMrfA" opacity="1" fill-opacity="0" stroke="#000000" stroke-width="1" stroke-opacity="0"></use></g></g><g><use xlink:href="#dK5jgbhja" opacity="1" fill="#d8d8d8" fill-opacity="1"></use><g><use xlink:href="#dK5jgbhja" opacity="1" fill-opacity="0" stroke="#000000" stroke-width="1" stroke-opacity="0"></use></g></g><g><use xlink:href="#f1H2SsYeSd" opacity="1" fill="#d8d8d8" fill-opacity="1"></use><g><use xlink:href="#f1H2SsYeSd" opacity="1" fill-opacity="0" stroke="#000000" stroke-width="1" stroke-opacity="0"></use></g></g><g><use xlink:href="#j3qJ9LoqwL" opacity="1" fill="#969696" fill-opacity="1"></use><g><use xlink:href="#j3qJ9LoqwL" opacity="1" fill-opacity="0" stroke="#000000" stroke-width="1" stroke-opacity="0"></use></g></g><g><use xlink:href="#cCKFWNTg5" opacity="1" fill="#969696" fill-opacity="1"></use><g><use xlink:href="#cCKFWNTg5" opacity="1" fill-opacity="0" stroke="#000000" stroke-width="1" stroke-opacity="0"></use></g></g><g><use xlink:href="#cFWnnlkFj" opacity="1" fill="#d8d8d8" fill-opacity="1"></use><g><use xlink:href="#cFWnnlkFj" opacity="1" fill-opacity="0" stroke="#000000" stroke-width="1" stroke-opacity="0"></use></g></g><g><use xlink:href="#d7tj6we4Fg" opacity="1" fill="#d8d8d8" fill-opacity="1"></use><g><use xlink:href="#d7tj6we4Fg" opacity="1" fill-opacity="0" stroke="#000000" stroke-width="1" stroke-opacity="0"></use></g></g><g><use xlink:href="#i2huDEGvsB" opacity="1" fill="#d8d8d8" fill-opacity="1"></use><g><use xlink:href="#i2huDEGvsB" opacity="1" fill-opacity="0" stroke="#000000" stroke-width="1" stroke-opacity="0"></use></g></g></g><g><g><use xlink:href="#c4KaKhgv9P" opacity="1" fill="#000000" fill-opacity="1"></use><g><use xlink:href="#c4KaKhgv9P" opacity="1" fill-opacity="0" stroke="#000000" stroke-width="1" stroke-opacity="0"></use></g></g><g><use xlink:href="#m3kitJDy1T" opacity="1" fill="#fbdc8e" fill-opacity="1"></use><g><use xlink:href="#m3kitJDy1T" opacity="1" fill-opacity="0" stroke="#000000" stroke-width="1" stroke-opacity="0"></use></g></g><g><use xlink:href="#c1ls8Vfl4O" opacity="1" fill="#ab8de5" fill-opacity="1"></use><g><use xlink:href="#c1ls8Vfl4O" opacity="1" fill-opacity="0" stroke="#000000" stroke-width="1" stroke-opacity="0"></use></g></g><g><use xlink:href="#ab4HwFvh" opacity="1" fill="#000000" fill-opacity="0"></use><g><use xlink:href="#ab4HwFvh" opacity="1" fill-opacity="0" stroke="#000000" stroke-width="2" stroke-opacity="1"></use></g></g></g><g><g><use xlink:href="#a2TeSj0eFT" opacity="1" fill="url(#gradientc1x17RqGg)"></use><g><use xlink:href="#a2TeSj0eFT" opacity="1" fill-opacity="0" stroke="#000000" stroke-width="1" stroke-opacity="0"></use></g></g><g><use xlink:href="#e2e4NwzeK9" opacity="1" fill="url(#gradientb3hOVs1CVx)"></use><g><use xlink:href="#e2e4NwzeK9" opacity="1" fill-opacity="0" stroke="#000000" stroke-width="1" stroke-opacity="0"></use></g></g><g><use xlink:href="#c2IdAmhwiS" opacity="1" fill="#c7cdd8" fill-opacity="1"></use><g><use xlink:href="#c2IdAmhwiS" opacity="1" fill-opacity="0" stroke="#000000" stroke-width="1" stroke-opacity="0"></use></g></g><g><use xlink:href="#dmKzmT9dr" opacity="1" fill="url(#gradientboVR10X5)"></use><g><use xlink:href="#dmKzmT9dr" opacity="1" fill-opacity="0" stroke="#000000" stroke-width="1" stroke-opacity="0"></use></g></g><g><use xlink:href="#apJL9oQte" opacity="1" fill="#cf4055" fill-opacity="1"></use><g><use xlink:href="#apJL9oQte" opacity="1" fill-opacity="0" stroke="#000000" stroke-width="1" stroke-opacity="0"></use></g></g><g><use xlink:href="#c3nSiuyzmO" opacity="1" fill="#e8677d" fill-opacity="1"></use><g><use xlink:href="#c3nSiuyzmO" opacity="1" fill-opacity="0" stroke="#000000" stroke-width="1" stroke-opacity="0"></use></g></g><g><use xlink:href="#a4SHraSVTu" opacity="1" fill="#e8677d" fill-opacity="1"></use><g><use xlink:href="#a4SHraSVTu" opacity="1" fill-opacity="0" stroke="#000000" stroke-width="1" stroke-opacity="0"></use></g></g><g><use xlink:href="#ieEDizz0y" opacity="1" fill="#e8677d" fill-opacity="1"></use><g><use xlink:href="#ieEDizz0y" opacity="1" fill-opacity="0" stroke="#000000" stroke-width="1" stroke-opacity="0"></use></g></g><g><use xlink:href="#b1kbIC4gTZ" opacity="1" fill="#e8677d" fill-opacity="1"></use><g><use xlink:href="#b1kbIC4gTZ" opacity="1" fill-opacity="0" stroke="#000000" stroke-width="1" stroke-opacity="0"></use></g></g><g><use xlink:href="#aKdSo6ao" opacity="1" fill="#e8677d" fill-opacity="1"></use><g><use xlink:href="#aKdSo6ao" opacity="1" fill-opacity="0" stroke="#000000" stroke-width="1" stroke-opacity="0"></use></g></g><g><use xlink:href="#at2tEJL" opacity="1" fill="#e8677d" fill-opacity="1"></use><g><use xlink:href="#at2tEJL" opacity="1" fill-opacity="0" stroke="#000000" stroke-width="1" stroke-opacity="0"></use></g></g><g><use xlink:href="#a2ooTZgzK" opacity="1" fill="#e8677d" fill-opacity="1"></use><g><use xlink:href="#a2ooTZgzK" opacity="1" fill-opacity="0" stroke="#000000" stroke-width="1" stroke-opacity="0"></use></g></g><g><use xlink:href="#bJTqhxM5m" opacity="1" fill="#e8677d" fill-opacity="1"></use><g><use xlink:href="#bJTqhxM5m" opacity="1" fill-opacity="0" stroke="#000000" stroke-width="1" stroke-opacity="0"></use></g></g><g><use xlink:href="#g1w1clTrRY" opacity="1" fill="#c7cdd8" fill-opacity="1"></use><g><use xlink:href="#g1w1clTrRY" opacity="1" fill-opacity="0" stroke="#000000" stroke-width="1" stroke-opacity="0"></use></g></g><g><use xlink:href="#a1dWWLv8m" opacity="1" fill="#c7cdd8" fill-opacity="1"></use><g><use xlink:href="#a1dWWLv8m" opacity="1" fill-opacity="0" stroke="#000000" stroke-width="1" stroke-opacity="0"></use></g></g><g><use xlink:href="#eAla2Ch1c" opacity="1" fill="#c7cdd8" fill-opacity="1"></use><g><use xlink:href="#eAla2Ch1c" opacity="1" fill-opacity="0" stroke="#000000" stroke-width="1" stroke-opacity="0"></use></g></g><g><use xlink:href="#bvjP1gGT6" opacity="1" fill="url(#gradientl86IrQbacq)"></use><g><use xlink:href="#bvjP1gGT6" opacity="1" fill-opacity="0" stroke="#000000" stroke-width="1" stroke-opacity="0"></use></g></g><g><use xlink:href="#blsfrVoOD" opacity="1" fill="#cba07a" fill-opacity="1"></use><g><use xlink:href="#blsfrVoOD" opacity="1" fill-opacity="0" stroke="#000000" stroke-width="1" stroke-opacity="0"></use></g></g><g><use xlink:href="#f3TpAsSOnB" opacity="1" fill="url(#gradientcc8GjoF1v)"></use><g><use xlink:href="#f3TpAsSOnB" opacity="1" fill-opacity="0" stroke="#000000" stroke-width="1" stroke-opacity="0"></use></g></g><g><use xlink:href="#a13Xbm15j5" opacity="1" fill="url(#gradienta5UaRFwv9)"></use><g><use xlink:href="#a13Xbm15j5" opacity="1" fill-opacity="0" stroke="#000000" stroke-width="1" stroke-opacity="0"></use></g></g><g><use xlink:href="#cd41mxxsG" opacity="1" fill="#cba07a" fill-opacity="1"></use><g><use xlink:href="#cd41mxxsG" opacity="1" fill-opacity="0" stroke="#000000" stroke-width="1" stroke-opacity="0"></use></g></g><g><use xlink:href="#d3NymI3eqV" opacity="1" fill="#cba07a" fill-opacity="1"></use><g><use xlink:href="#d3NymI3eqV" opacity="1" fill-opacity="0" stroke="#000000" stroke-width="1" stroke-opacity="0"></use></g></g></g><g><g><use xlink:href="#b2nzlml6FK" opacity="1" fill="url(#gradientfLpTvf7VD)"></use><g><use xlink:href="#b2nzlml6FK" opacity="1" fill-opacity="0" stroke="#000000" stroke-width="1" stroke-opacity="0"></use></g></g><g><use xlink:href="#dg8fh1EKL" opacity="1" fill="url(#gradienth1eLWKofHN)"></use><g><use xlink:href="#dg8fh1EKL" opacity="1" fill-opacity="0" stroke="#000000" stroke-width="1" stroke-opacity="0"></use></g></g><g><use xlink:href="#a98265CbB" opacity="1" fill="url(#gradientg3eQ2GmJ3H)"></use><g><use xlink:href="#a98265CbB" opacity="1" fill-opacity="0" stroke="#000000" stroke-width="1" stroke-opacity="0"></use></g></g><g><use xlink:href="#a1aRv6GmiR" opacity="1" fill="url(#gradientbH64BdGPH)"></use><g><use xlink:href="#a1aRv6GmiR" opacity="1" fill-opacity="0" stroke="#000000" stroke-width="1" stroke-opacity="0"></use></g></g><g><use xlink:href="#b5E7n04WmV" opacity="1" fill="url(#gradientemEZTAHxq)"></use><g><use xlink:href="#b5E7n04WmV" opacity="1" fill-opacity="0" stroke="#000000" stroke-width="1" stroke-opacity="0"></use></g></g><g><use xlink:href="#bZCTA3q7a" opacity="1" fill="url(#gradienta5AszcKcC)"></use><g><use xlink:href="#bZCTA3q7a" opacity="1" fill-opacity="0" stroke="#000000" stroke-width="1" stroke-opacity="0"></use></g></g><g><use xlink:href="#b1zCYwEfMQ" opacity="1" fill="url(#gradienta6A7r1wcVr)"></use><g><use xlink:href="#b1zCYwEfMQ" opacity="1" fill-opacity="0" stroke="#000000" stroke-width="1" stroke-opacity="0"></use></g></g><g><use xlink:href="#a1b7t8OolU" opacity="1" fill="url(#gradientdzRgJCipM)"></use><g><use xlink:href="#a1b7t8OolU" opacity="1" fill-opacity="0" stroke="#000000" stroke-width="1" stroke-opacity="0"></use></g></g><g><use xlink:href="#b4kq5cpkB4" opacity="1" fill="url(#gradienta28Oo3TjFZ)"></use><g><use xlink:href="#b4kq5cpkB4" opacity="1" fill-opacity="0" stroke="#000000" stroke-width="1" stroke-opacity="0"></use></g></g><g><use xlink:href="#gq04EsAbF" opacity="1" fill="url(#gradientewhoRy48F)"></use><g><use xlink:href="#gq04EsAbF" opacity="1" fill-opacity="0" stroke="#000000" stroke-width="1" stroke-opacity="0"></use></g></g><g><use xlink:href="#azfiWMPms" opacity="1" fill="url(#gradienta1mcQgvaj)"></use><g><use xlink:href="#azfiWMPms" opacity="1" fill-opacity="0" stroke="#000000" stroke-width="1" stroke-opacity="0"></use></g></g><g><use xlink:href="#ieuA1eMby" opacity="1" fill="url(#gradientc8SrfoHUo)"></use><g><use xlink:href="#ieuA1eMby" opacity="1" fill-opacity="0" stroke="#000000" stroke-width="1" stroke-opacity="0"></use></g></g><g><use xlink:href="#g1dM95mRe1" opacity="1" fill="url(#gradientaqWDlzSNs)"></use><g><use xlink:href="#g1dM95mRe1" opacity="1" fill-opacity="0" stroke="#000000" stroke-width="1" stroke-opacity="0"></use></g></g><g><use xlink:href="#b2f5tqxcgz" opacity="1" fill="url(#gradientc3G3i3CPXh)"></use><g><use xlink:href="#b2f5tqxcgz" opacity="1" fill-opacity="0" stroke="#000000" stroke-width="1" stroke-opacity="0"></use></g></g><g><use xlink:href="#a4lz0FTsBq" opacity="1" fill="#cf4055" fill-opacity="1"></use><g><use xlink:href="#a4lz0FTsBq" opacity="1" fill-opacity="0" stroke="#000000" stroke-width="1" stroke-opacity="0"></use></g></g><g><use xlink:href="#d1xaK3TMqM" opacity="1" fill="url(#gradientf42CtiYpr1)"></use><g><use xlink:href="#d1xaK3TMqM" opacity="1" fill-opacity="0" stroke="#000000" stroke-width="1" stroke-opacity="0"></use></g></g><g><use xlink:href="#k22O65zBKR" opacity="1" fill="#e8677d" fill-opacity="1"></use><g><use xlink:href="#k22O65zBKR" opacity="1" fill-opacity="0" stroke="#000000" stroke-width="1" stroke-opacity="0"></use></g></g><g><use xlink:href="#a1NJx59mlc" opacity="1" fill="url(#gradienta1otC7fOx9)"></use><g><use xlink:href="#a1NJx59mlc" opacity="1" fill-opacity="0" stroke="#000000" stroke-width="1" stroke-opacity="0"></use></g></g><g><use xlink:href="#bXnHqZ9fs" opacity="1" fill="#c7cdd8" fill-opacity="1"></use><g><use xlink:href="#bXnHqZ9fs" opacity="1" fill-opacity="0" stroke="#000000" stroke-width="1" stroke-opacity="0"></use></g></g><g><use xlink:href="#d2bjpR7BhL" opacity="1" fill="url(#gradientb2a6qnZHRc)"></use><g><use xlink:href="#d2bjpR7BhL" opacity="1" fill-opacity="0" stroke="#000000" stroke-width="1" stroke-opacity="0"></use></g></g><g><use xlink:href="#dfBmKrMTw" opacity="1" fill="#dd8b37" fill-opacity="1"></use><g><use xlink:href="#dfBmKrMTw" opacity="1" fill-opacity="0" stroke="#000000" stroke-width="1" stroke-opacity="0"></use></g></g></g><g><g><use xlink:href="#a13SHjLUNI" opacity="1" fill="url(#gradienti5HE75Ki)"></use><g><use xlink:href="#a13SHjLUNI" opacity="1" fill-opacity="0" stroke="#000000" stroke-width="1" stroke-opacity="0"></use></g></g><g><use xlink:href="#jgK3ptw56" opacity="1" fill="#cf4055" fill-opacity="1"></use><g><use xlink:href="#jgK3ptw56" opacity="1" fill-opacity="0" stroke="#000000" stroke-width="1" stroke-opacity="0"></use></g></g><g><use xlink:href="#ata54konH" opacity="1" fill="url(#gradientg3hDQwv1bz)"></use><g><use xlink:href="#ata54konH" opacity="1" fill-opacity="0" stroke="#000000" stroke-width="1" stroke-opacity="0"></use></g></g><g><use xlink:href="#b26JkBXC7g" opacity="1" fill="#adb3c4" fill-opacity="1"></use><g><use xlink:href="#b26JkBXC7g" opacity="1" fill-opacity="0" stroke="#000000" stroke-width="1" stroke-opacity="0"></use></g></g><g><use xlink:href="#h3vS7IaGpC" opacity="1" fill="#dfe3ea" fill-opacity="1"></use><g><use xlink:href="#h3vS7IaGpC" opacity="1" fill-opacity="0" stroke="#000000" stroke-width="1" stroke-opacity="0"></use></g></g><g><use xlink:href="#cFzUEixQP" opacity="1" fill="url(#gradientb5e5le2Q5)"></use><g><use xlink:href="#cFzUEixQP" opacity="1" fill-opacity="0" stroke="#000000" stroke-width="1" stroke-opacity="0"></use></g></g><g><use xlink:href="#elJdNBdZ3" opacity="1" fill="#8288a1" fill-opacity="1"></use><g><use xlink:href="#elJdNBdZ3" opacity="1" fill-opacity="0" stroke="#000000" stroke-width="1" stroke-opacity="0"></use></g></g><g><use xlink:href="#a1CflPKKu2" opacity="1" fill="url(#gradientb4X315rO8W)"></use><g><use xlink:href="#a1CflPKKu2" opacity="1" fill-opacity="0" stroke="#000000" stroke-width="1" stroke-opacity="0"></use></g></g></g><g><g><use xlink:href="#evQV4D8Ui" opacity="1" fill="url(#gradientc62BMfXX16)"></use><g><use xlink:href="#evQV4D8Ui" opacity="1" fill-opacity="0" stroke="#000000" stroke-width="1" stroke-opacity="0"></use></g></g><g><use xlink:href="#brJxy0OMI" opacity="1" fill="url(#gradientacKeKRDoE)"></use><g><use xlink:href="#brJxy0OMI" opacity="1" fill-opacity="0" stroke="#000000" stroke-width="1" stroke-opacity="0"></use></g></g><g><use xlink:href="#a4TkIw978k" opacity="1" fill="#dd8b37" fill-opacity="1"></use><g><use xlink:href="#a4TkIw978k" opacity="1" fill-opacity="0" stroke="#000000" stroke-width="1" stroke-opacity="0"></use></g></g><g><use xlink:href="#b76wjtnDhG" opacity="1" fill="#77cacb" fill-opacity="1"></use><g><use xlink:href="#b76wjtnDhG" opacity="1" fill-opacity="0" stroke="#000000" stroke-width="1" stroke-opacity="0"></use></g></g><g><use xlink:href="#gkxiO9oIt" opacity="1" fill="url(#gradientgc1RJRMLD)"></use><g><use xlink:href="#gkxiO9oIt" opacity="1" fill-opacity="0" stroke="#000000" stroke-width="1" stroke-opacity="0"></use></g></g><g><use xlink:href="#cb7VvjnvU" opacity="1" fill="#c7cdd8" fill-opacity="1"></use><g><use xlink:href="#cb7VvjnvU" opacity="1" fill-opacity="0" stroke="#000000" stroke-width="1" stroke-opacity="0"></use></g></g></g></g></g></svg>