<?xml version="1.0" encoding="UTF-8" standalone="no"?>
<!DOCTYPE svg PUBLIC "-//W3C//DTD SVG 1.1//EN" "http://www.w3.org/Graphics/SVG/1.1/DTD/svg11.dtd">
<svg version="1.1" xmlns="http://www.w3.org/2000/svg" xmlns:xlink="http://www.w3.org/1999/xlink" preserveAspectRatio="xMidYMid meet" viewBox="0 0 640 640" width="640" height="640"><defs><path d="M320 13.6C143.27 13.6 0 156.87 0 333.6C0 510.33 143.27 653.6 320 653.6C496.73 653.6 640 510.33 640 333.6C640 156.87 496.73 13.6 320 13.6Z" id="c2BH8p4ddg"></path><path d="M-138.27 141.81C-138.27 121.85 -88.74 117.62 -69.16 117.62C-29.46 117.62 -26.83 94.89 6.13 94.89C35.11 94.89 49.86 118.36 76.84 118.36C134.74 118.36 147.64 51.66 203.97 51.66C261.29 51.66 258.36 121.29 311.7 121.29C338.81 121.29 501.73 126.41 501.73 141.82C373.73 141.82 -10.27 141.81 -138.27 141.81Z" id="dbLz6vcx1"></path><path d="M141.67 226.93C141.67 216.6 216.54 200.45 257.49 200.45C338.26 200.45 313.04 213.69 363.85 213.69C421.75 213.69 434.97 154.72 523.07 154.72C619.36 154.72 604.25 212.4 663.34 212.4C688.79 212.4 701.54 206.79 737.71 206.79C758.7 206.79 781.67 216.64 781.67 226.97C653.67 226.96 269.67 226.94 141.67 226.93Z" id="alOHBKoDU"></path><path d="M410.72 393.21C411.12 397.5 397.51 518.09 397.51 518.09C395.33 518.09 377.91 518.09 375.74 518.09C375.74 518.09 366.54 402.81 365.31 400.44C365.31 400.44 318.02 349.63 318.02 349.63C318.02 349.63 335.47 282.68 358.98 283.39C362.22 286.83 410.31 388.92 410.72 393.21Z" id="e41iG2RHYP"></path><path d="M354.48 388.32C377.5 367.01 390.3 355.17 392.85 352.8C378.67 322.31 360.91 285.44 358.98 283.43C335.47 282.69 318.05 349.66 318.05 349.66C318.05 349.66 340.51 373.26 354.48 388.32C354.48 388.32 354.48 388.32 354.48 388.32Z" id="bfryHP9wV"></path><path d="M367.76 423C370.88 457.18 375.74 518.09 375.74 518.09C377.91 518.09 395.3 518.09 397.48 518.09C397.48 518.09 404.28 458.04 408.13 421.18C400.06 421.55 375.83 422.64 367.76 423Z" id="gSeB0gVXp"></path><path d="M250.37 421.03C244.51 421.11 215.2 421.54 162.43 422.32C160.24 434.79 159.02 441.72 158.78 443.11C158.78 443.11 262.52 462.99 266.17 461.03C276.85 455.29 346.13 310.06 347.23 297.3C348.32 284.54 273.27 316.08 273.27 316.08C271.98 322.39 254.95 400.04 250.37 421.03Z" id="eGFclTS96"></path><path d="M347.23 297.3C348.31 284.54 273.27 316.08 273.27 316.08C272.4 320.34 262.25 366.79 255.75 396.44C261.09 395.03 288.47 394.92 298.27 406.04C320.82 361.5 346.57 305.04 347.23 297.3Z" id="frATehg2s"></path><path d="M224.07 238.02C224.07 238.02 205.08 260.46 203.59 262.38C203.59 262.38 164.46 296.65 162.13 298.6C162.13 298.6 165.13 309.02 168.79 307.26C168.79 307.26 218.41 280.4 221.73 277.74C221.73 277.74 244.68 258.31 244.68 258.31C240.55 254.25 228.19 242.08 224.07 238.02Z" id="a2R5yEG8S8"></path><path d="M166.02 302.18C168.52 305.86 166.64 311.82 161.83 315.5C157.02 319.18 151.1 319.18 148.6 315.5C146.1 311.82 147.97 305.85 152.78 302.17C157.59 298.49 163.52 298.5 166.02 302.18Z" id="b1JEzZfBtk"></path><path d="M345.7 208.19C351.27 210.51 372.61 226.09 375.96 227.19C379.3 228.29 423.86 238.02 423.86 238.02C424.37 240.17 425.25 246.59 423.86 249.46C420.38 249.87 375.44 248.92 373.25 248.23C371.06 247.54 337.71 235.39 337.71 235.39C339.31 229.95 344.11 213.63 345.7 208.19Z" id="b9xg1SVtm"></path><path d="M444.46 240.82C445.16 244.97 440.69 249.3 434.46 250.49C428.23 251.69 422.61 249.29 421.9 245.14C421.2 241 425.68 236.67 431.9 235.48C438.13 234.28 443.75 236.68 444.46 240.82Z" id="b85stxKO"></path><path d="M347.6 202.62C350.1 208.11 344.82 238.91 337.71 239.85C330.61 240.78 299.58 215.38 304.16 200.41C308.78 185.3 345.11 197.14 347.6 202.62Z" id="b1cJGO5UeU"></path><path d="M360.64 285.19C353.97 302.36 295.67 331.16 273.53 319.28C265.4 314.92 237.5 209.88 279.59 195.26C330.41 177.55 357.02 268.94 360.64 285.19Z" id="adDlJLrux"></path><path d="M246.35 263.79C239.9 263.79 218.32 241.21 219.93 234.04C221.54 226.88 253.54 197.91 269.24 214.73C284.29 230.88 252.81 263.79 246.35 263.79Z" id="b5mOz4D4a4"></path><path d="M239.98 421.18L162.43 422.32C160.24 434.79 159.02 441.72 158.78 443.11C158.78 443.11 205.51 452.07 237.35 457.36C237.7 452.54 238.58 440.48 239.98 421.18Z" id="a4rCazpvOU"></path><path d="M155.55 443.52L129.99 458.59L111.86 455.77L109.02 447.5L135.58 427.28L158.78 423.79L158.78 423.79L155.55 443.52Z" id="e6Xfc7vIv"></path><path d="M371.7 546.96L416.18 569.17L424.4 559.19L396.59 525.04L396.46 520.68L376.07 521.66L376.07 521.66L371.7 546.96Z" id="dI15urXWt"></path><path d="M430.95 501.47C411.54 501.47 395.8 518.17 395.8 538.78C395.8 559.38 411.54 576.09 430.95 576.09C450.37 576.09 466.11 559.38 466.11 538.78C466.11 518.17 450.37 501.47 430.95 501.47Z" id="c32hIBAPpa"></path><path d="M275.27 201.02C279.62 206.33 295.29 207.66 299.39 202.81C297.81 197.78 297.91 185.49 298.61 180.87C299.05 177.94 273.27 158.26 273.27 158.26C274.49 163.43 276.46 192.5 275.27 201.02Z" id="db3nG3uWe"></path><path d="M298.96 119.59C312.29 121.25 321.51 136.99 319.54 154.75C317.58 172.5 305.17 185.54 291.84 183.88C278.51 182.22 269.29 166.48 271.25 148.73C273.22 130.97 285.62 117.93 298.96 119.59Z" id="a1VoiHNACu"></path><path d="M288.97 139.81C290.63 139.07 307.58 138.53 319.37 144C317.48 131.04 309.51 120.92 298.96 119.58C285.97 117.97 273.87 130.3 271.43 147.35C277.3 147.75 284.81 147.58 286.47 146.38C288.97 144.57 287.13 140.65 288.97 139.81Z" id="e3ktLjMuKm"></path><path d="M285.41 152.95C285.41 157.97 281.87 162.03 277.51 162.03C273.15 162.03 269.61 157.97 269.61 152.95C269.61 147.93 273.15 143.86 277.51 143.86C281.87 143.86 285.41 147.93 285.41 152.95Z" id="a9guAxOIla"></path></defs><g><g><g><use xlink:href="#c2BH8p4ddg" opacity="1" fill="#faefe9" fill-opacity="1"></use><g><use xlink:href="#c2BH8p4ddg" opacity="1" fill-opacity="0" stroke="#000000" stroke-width="1" stroke-opacity="0"></use></g></g><g><use xlink:href="#dbLz6vcx1" opacity="1" fill="#ffffff" fill-opacity="1"></use><g><use xlink:href="#dbLz6vcx1" opacity="1" fill-opacity="0" stroke="#000000" stroke-width="1" stroke-opacity="0"></use></g></g><g><use xlink:href="#alOHBKoDU" opacity="1" fill="#ffffff" fill-opacity="1"></use><g><use xlink:href="#alOHBKoDU" opacity="1" fill-opacity="0" stroke="#000000" stroke-width="1" stroke-opacity="0"></use></g></g><g><use xlink:href="#e41iG2RHYP" opacity="1" fill="#e49d75" fill-opacity="1"></use><g><use xlink:href="#e41iG2RHYP" opacity="1" fill-opacity="0" stroke="#000000" stroke-width="1" stroke-opacity="0"></use></g></g><g><use xlink:href="#bfryHP9wV" opacity="1" fill="#5fc5d1" fill-opacity="1"></use><g><use xlink:href="#bfryHP9wV" opacity="1" fill-opacity="0" stroke="#000000" stroke-width="1" stroke-opacity="0"></use></g></g><g><use xlink:href="#gSeB0gVXp" opacity="1" fill="#fd8369" fill-opacity="1"></use><g><use xlink:href="#gSeB0gVXp" opacity="1" fill-opacity="0" stroke="#000000" stroke-width="1" stroke-opacity="0"></use></g></g><g><use xlink:href="#eGFclTS96" opacity="1" fill="#e49d75" fill-opacity="1"></use><g><use xlink:href="#eGFclTS96" opacity="1" fill-opacity="0" stroke="#000000" stroke-width="1" stroke-opacity="0"></use></g></g><g><use xlink:href="#frATehg2s" opacity="1" fill="#6bd5e1" fill-opacity="1"></use><g><use xlink:href="#frATehg2s" opacity="1" fill-opacity="0" stroke="#000000" stroke-width="1" stroke-opacity="0"></use></g></g><g><use xlink:href="#a2R5yEG8S8" opacity="1" fill="#e49d75" fill-opacity="1"></use><g><use xlink:href="#a2R5yEG8S8" opacity="1" fill-opacity="0" stroke="#000000" stroke-width="1" stroke-opacity="0"></use></g></g><g><use xlink:href="#b1JEzZfBtk" opacity="1" fill="#e49d75" fill-opacity="1"></use><g><use xlink:href="#b1JEzZfBtk" opacity="1" fill-opacity="0" stroke="#000000" stroke-width="1" stroke-opacity="0"></use></g></g><g><use xlink:href="#b9xg1SVtm" opacity="1" fill="#e49d75" fill-opacity="1"></use><g><use xlink:href="#b9xg1SVtm" opacity="1" fill-opacity="0" stroke="#000000" stroke-width="1" stroke-opacity="0"></use></g></g><g><use xlink:href="#b85stxKO" opacity="1" fill="#e49d75" fill-opacity="1"></use><g><use xlink:href="#b85stxKO" opacity="1" fill-opacity="0" stroke="#000000" stroke-width="1" stroke-opacity="0"></use></g></g><g><use xlink:href="#b1cJGO5UeU" opacity="1" fill="#ffc78e" fill-opacity="1"></use><g><use xlink:href="#b1cJGO5UeU" opacity="1" fill-opacity="0" stroke="#000000" stroke-width="1" stroke-opacity="0"></use></g></g><g><use xlink:href="#adDlJLrux" opacity="1" fill="#ffd98e" fill-opacity="1"></use><g><use xlink:href="#adDlJLrux" opacity="1" fill-opacity="0" stroke="#000000" stroke-width="1" stroke-opacity="0"></use></g></g><g><use xlink:href="#b5mOz4D4a4" opacity="1" fill="#ffe4ad" fill-opacity="1"></use><g><use xlink:href="#b5mOz4D4a4" opacity="1" fill-opacity="0" stroke="#000000" stroke-width="1" stroke-opacity="0"></use></g></g><g><use xlink:href="#a4rCazpvOU" opacity="1" fill="#fd8369" fill-opacity="1"></use><g><use xlink:href="#a4rCazpvOU" opacity="1" fill-opacity="0" stroke="#000000" stroke-width="1" stroke-opacity="0"></use></g></g><g><use xlink:href="#e6Xfc7vIv" opacity="1" fill="#000000" fill-opacity="1"></use><g><use xlink:href="#e6Xfc7vIv" opacity="1" fill-opacity="0" stroke="#000000" stroke-width="1" stroke-opacity="0"></use></g></g><g><use xlink:href="#dI15urXWt" opacity="1" fill="#000000" fill-opacity="1"></use><g><use xlink:href="#dI15urXWt" opacity="1" fill-opacity="0" stroke="#000000" stroke-width="1" stroke-opacity="0"></use></g></g><g><use xlink:href="#c32hIBAPpa" opacity="1" fill="#848484" fill-opacity="1"></use><g><use xlink:href="#c32hIBAPpa" opacity="1" fill-opacity="0" stroke="#000000" stroke-width="1" stroke-opacity="0"></use></g></g><g><use xlink:href="#db3nG3uWe" opacity="1" fill="#d38d6a" fill-opacity="1"></use><g><use xlink:href="#db3nG3uWe" opacity="1" fill-opacity="0" stroke="#000000" stroke-width="1" stroke-opacity="0"></use></g></g><g><use xlink:href="#a1VoiHNACu" opacity="1" fill="#e49d75" fill-opacity="1"></use><g><use xlink:href="#a1VoiHNACu" opacity="1" fill-opacity="0" stroke="#000000" stroke-width="1" stroke-opacity="0"></use></g></g><g><use xlink:href="#e3ktLjMuKm" opacity="1" fill="#fd8369" fill-opacity="1"></use><g><use xlink:href="#e3ktLjMuKm" opacity="1" fill-opacity="0" stroke="#000000" stroke-width="1" stroke-opacity="0"></use></g></g><g><use xlink:href="#a9guAxOIla" opacity="1" fill="#e49d75" fill-opacity="1"></use><g><use xlink:href="#a9guAxOIla" opacity="1" fill-opacity="0" stroke="#000000" stroke-width="1" stroke-opacity="0"></use></g></g></g></g></svg>