<?xml version="1.0" encoding="UTF-8" standalone="no"?>
<!DOCTYPE svg PUBLIC "-//W3C//DTD SVG 1.1//EN" "http://www.w3.org/Graphics/SVG/1.1/DTD/svg11.dtd">
<svg version="1.1" xmlns="http://www.w3.org/2000/svg" xmlns:xlink="http://www.w3.org/1999/xlink" preserveAspectRatio="xMidYMid meet" viewBox="0 0 640 640" width="640" height="640"><defs><path d="M320 13.6C143.27 13.6 0 156.87 0 333.6C0 510.33 143.27 653.6 320 653.6C496.73 653.6 640 510.33 640 333.6C640 156.87 496.73 13.6 320 13.6Z" id="a26L4Deh6"></path><path d="M-138.27 141.81C-138.27 121.85 -88.74 117.62 -69.16 117.62C-29.46 117.62 -26.83 94.89 6.13 94.89C35.11 94.89 49.86 118.36 76.84 118.36C134.74 118.36 147.64 51.66 203.97 51.66C261.29 51.66 258.36 121.29 311.7 121.29C338.81 121.29 501.73 126.41 501.73 141.82C373.73 141.82 -10.27 141.81 -138.27 141.81Z" id="a4I7EricoJ"></path><path d="M141.67 226.93C141.67 216.6 216.54 200.45 257.49 200.45C338.26 200.45 313.04 213.69 363.85 213.69C421.75 213.69 434.97 154.72 523.07 154.72C619.36 154.72 604.25 212.4 663.34 212.4C688.79 212.4 701.54 206.79 737.71 206.79C758.7 206.79 781.67 216.64 781.67 226.97C653.67 226.96 269.67 226.94 141.67 226.93Z" id="e1Hyzkuhcc"></path><path d="M385.4 413.11C388.7 432.24 384.94 448.08 385.88 471.21C386.51 486.78 394.6 497.18 399.78 511.07C404.96 524.95 266.68 528.45 267.51 515.47C268.33 502.48 278.23 489.18 278.58 473C278.94 456.51 276.17 446.61 276.55 419.79C276.83 398.61 299.71 375.99 332.21 375.99C364.71 375.99 382.16 394.41 385.4 413.11Z" id="a4oucsHh2"></path><path d="M198.8 608.15C197.55 595.12 204.4 548.63 225.59 513.91C304.73 476.74 404.01 494.44 443.27 513.91C456.56 525.37 466.17 601.46 463.27 606.92" id="bjniz98DK"></path><path d="M244.47 606.92C245.72 598.47 247.69 584.84 250.91 572.21" id="c2gy21iXCI"></path><path d="M419.98 606.92C418.74 598.47 416.76 584.84 413.54 572.21" id="f1QPgCR12d"></path><path d="M290.78 428.88C295.65 428.88 299.59 432.22 299.59 436.34C299.6 440.46 295.66 443.81 290.81 443.82C285.95 443.83 282 440.49 281.99 436.36C281.99 436.36 281.99 436.36 281.99 436.35C281.98 432.23 285.92 428.88 290.78 428.88Z" id="aGZ5xlmwe"></path><path d="M371.51 428.88C376.37 428.88 380.32 432.22 380.32 436.34C380.33 440.47 376.39 443.81 371.52 443.82C371.52 443.82 371.52 443.82 371.52 443.82C366.66 443.82 362.72 440.48 362.72 436.35C362.71 432.23 366.65 428.88 371.51 428.88Z" id="ar9kxlB7A"></path><path d="M354.81 312.39C353.42 316.3 353.52 323.18 360.48 323.04C366.58 327.68 372.26 321.67 374.01 318.62C375.76 315.56 380.04 308.94 367.27 307.8C358.39 301.92 356.2 308.49 354.81 312.39Z" id="eFN3xKuaF"></path><path d="M373.14 303.61C370.08 304.53 368.36 305.77 367.38 307.94" id="e1qyKG2wYY"></path><path d="M319.66 333.91C325.36 333.91 329.98 337.83 329.98 342.66C329.98 347.48 325.38 351.4 319.69 351.41C313.99 351.42 309.37 347.51 309.35 342.68C309.35 342.68 309.35 342.67 309.35 342.67C309.35 337.84 313.96 333.92 319.66 333.91Z" id="c1Rs6ZFH7"></path><path d="M237.93 346.53L266.5 340.38L278.07 379.06L249.51 385.18L237.93 346.53Z" id="crz9n5i4R"></path><path d="M243.95 350.79L263.6 346.56L265.12 351.63L245.47 355.85L243.95 350.79Z" id="a1QaVuvjpA"></path><path d="M247.12 361.36L266.77 357.13" id="h2AfybT5mX"></path><path d="M248.76 366.86L268.42 362.63" id="aofddeWOn"></path><path d="M250.49 372.6L270.16 368.37" id="bbOJlEgka"></path><path d="M252.14 378.15L259.85 376.49" id="a7D91HNd4s"></path><path d="M268.72 374.58L271.81 373.92" id="b5ZJkMKhUR"></path><path d="M219 258.7L292.91 228.84L316.01 269.99L242.1 299.85L219 258.7Z" id="a3buTMKE2c"></path><path d="M244.56 290.75L251.91 272.49L265.61 274.69L270.99 252.17L284.23 254.04L288.08 238.15" id="a1vui8BCS8"></path><path d="M251.13 269.36C253.03 268.6 255.3 269.29 256.2 270.9C257.1 272.51 256.3 274.43 254.4 275.2C252.5 275.97 250.23 275.29 249.32 273.68C249.32 273.67 249.32 273.67 249.32 273.67C248.42 272.05 249.23 270.13 251.13 269.36Z" id="bg5svcjgi"></path><path d="M269.54 249.76C271.44 248.99 273.71 249.68 274.62 251.29C275.53 252.91 274.72 254.84 272.82 255.61C270.92 256.38 268.64 255.69 267.74 254.08C267.73 254.08 267.73 254.08 267.73 254.07C266.83 252.46 267.63 250.53 269.54 249.76Z" id="a60BogZ2eO"></path><path d="M420.81 277.7C428.02 277.7 433.87 282.66 433.87 288.77C433.87 294.89 428.02 299.85 420.81 299.85C420.8 299.85 420.79 299.85 420.78 299.85C413.58 299.84 407.75 294.89 407.75 288.77C407.75 282.66 413.6 277.7 420.81 277.7Z" id="b1woBen85O"></path><path d="M442.85 286.84C445.1 293.63 440.43 300.67 432.43 302.58C431.12 302.89 429.77 303.05 428.41 303.05C427.42 303.05 426.44 302.97 425.48 302.81" id="bQ4sEW7Mp"></path><path d="M412.89 297.19L407.88 304.8L428.55 307.62L426.29 298.75" id="a1MY0haqCt"></path><path d="M420.81 286.16C422.51 286.16 423.89 287.33 423.89 288.77C423.89 290.22 422.51 291.39 420.81 291.39C419.11 291.39 417.73 290.22 417.73 288.77C417.73 288.77 417.73 288.77 417.73 288.77C417.73 287.33 419.11 286.16 420.81 286.16Z" id="bHHRqWHPK"></path><path d="M442.02 283.55C443.72 283.55 445.1 284.72 445.1 286.16C445.1 287.6 443.72 288.77 442.02 288.77C440.32 288.77 438.94 287.6 438.94 286.16C438.94 284.72 440.32 283.55 442.02 283.55Z" id="b5L7ehq0Lq"></path><path d="M191.47 205.51L210.78 209.93L191.76 269.65L172.45 265.24L191.47 205.51Z" id="aFCnnrYWZ"></path><path d="M178.59 245.96L189.22 248.4" id="a1jfYsQi6l"></path><path d="M175.21 256.56L185.85 259" id="b1bTR7k9r2"></path><path d="M181.96 235.38L192.6 237.82" id="bkF9K1f7Y"></path><path d="M185.33 224.78L195.97 227.21" id="ak0RvUf9G"></path><path d="M188.7 214.19L199.34 216.62" id="c8dgqhizz"></path><path d="M390.35 193.12L463.27 208.05L451.23 250.23L378.35 235.29L390.35 193.12Z" id="a3k4uTYJO"></path><path d="M443.44 233.93C447.66 234.79 450.26 238.39 449.24 241.97C448.22 245.55 443.98 247.75 439.76 246.89C439.76 246.89 439.76 246.89 439.76 246.89C435.54 246.02 432.94 242.42 433.96 238.84C434.98 235.26 439.23 233.06 443.44 233.93Z" id="a1UXMRXaaA"></path><path d="M436.28 244.33L431.04 255.92L438.36 254.52L443.06 258.22L444 245.59" id="asBrZu8s5"></path><path d="M394.66 204.06L452.22 215.85" id="c2UcXsyGL3"></path><path d="M391.33 215.63L426.09 222.75" id="a3Po6LzpLK"></path><path d="M274.64 198.88L266.82 191.68L278.07 189.52L289.33 187.36L285.91 196.72L282.49 206.06L274.64 198.88Z" id="eVkIG40YD"></path><path d="M430.07 349.66L419.35 353.29L420.99 343.6L422.64 333.9L431.7 339.95L440.78 346L430.07 349.66Z" id="cELvYFsu5"></path><path d="M347.7 228.08C350.79 228.08 353.29 230.21 353.29 232.83C353.29 235.45 350.79 237.58 347.7 237.58C344.61 237.58 342.1 235.45 342.1 232.83C342.1 232.83 342.1 232.83 342.1 232.83C342.1 230.21 344.61 228.08 347.7 228.08Z" id="d4DNmxRdN"></path><path d="M191.34 307.61C194.43 307.61 196.94 309.74 196.94 312.36C196.94 314.98 194.43 317.1 191.34 317.1C188.25 317.1 185.74 314.98 185.74 312.36C185.74 312.36 185.74 312.36 185.74 312.36C185.74 309.74 188.25 307.61 191.34 307.61Z" id="bhKdsf2S0"></path><path d="M312.36 464.44C334.81 464.44 347.28 464.44 349.78 464.44C349.78 464.44 349.95 497.24 349.78 510.14C349.78 515.47 312.37 514.86 312.37 510.14C312.37 504.05 312.36 488.82 312.36 464.44Z" id="c3u0qObyh"></path><path d="M332.23 388.98C353.79 388.98 371.24 408.73 371.24 433.09C371.24 457.45 353.79 477.2 332.23 477.2C310.66 477.2 293.21 457.45 293.21 433.09C293.21 408.73 310.66 388.98 332.23 388.98Z" id="a152e6NAdX"></path><path d="M285.02 428.89C282.29 417.22 299.99 367.54 353.29 385.82C343.38 405.35 302.32 424.43 285.02 428.89Z" id="d2e3UUTVUu"></path><path d="M377.47 428.89C389.4 414.48 361.89 384.53 331.35 385.22C323.84 387.64 348.24 420.74 377.47 428.89Z" id="d23xKZXlkt"></path><path d="M397.44 154.72C403.13 154.72 407.75 158.63 407.76 163.47C407.76 168.3 403.14 172.22 397.45 172.22C397.44 172.22 397.44 172.22 397.44 172.22C391.74 172.22 387.13 168.3 387.13 163.48C387.12 158.64 391.74 154.72 397.44 154.72Z" id="a7sDnFwHii"></path><path d="M218.97 385.23C224.29 385.23 228.6 388.88 228.6 393.4C228.6 397.91 224.29 401.56 218.97 401.56C213.65 401.56 209.34 397.91 209.34 393.4C209.34 388.88 213.65 385.23 218.97 385.23Z" id="bnLYE9mBR"></path><path d="M428.26 385.2C431.36 385.19 433.87 387.32 433.87 389.94C433.87 392.57 431.37 394.7 428.27 394.7C428.27 394.7 428.27 394.7 428.27 394.7C425.18 394.7 422.67 392.58 422.67 389.96C422.67 389.96 422.67 389.96 422.67 389.95C422.66 387.33 425.17 385.2 428.26 385.2Z" id="g4y5cm4KX8"></path><path d="M385.4 413.49C388.7 432.62 384.94 448.46 385.88 471.59C386.51 487.16 394.6 497.56 399.78 511.45C404.96 525.34 266.68 528.84 267.51 515.85C268.33 502.85 278.23 489.56 278.58 473.38C278.94 456.89 276.17 446.99 276.55 420.17C276.83 398.98 299.71 376.37 332.21 376.37C364.71 376.37 382.16 394.79 385.4 413.49Z" id="bY2URIQMF"></path><path d="M198.8 608.52C197.55 595.48 204.4 548.99 225.59 514.28C304.73 477.1 404.01 494.81 443.27 514.28C456.56 525.73 466.17 601.82 463.27 607.29" id="a5JTTrHoPJ"></path><path d="M244.47 607.3C245.72 598.84 247.69 585.22 250.91 572.59" id="a2GD6tfUSA"></path><path d="M419.98 607.3C418.74 598.84 416.76 585.22 413.54 572.59" id="a18GxjQlwr"></path><path d="M290.78 429.26C295.65 429.26 299.59 432.6 299.59 436.72C299.6 440.84 295.66 444.19 290.81 444.19C285.95 444.2 282 440.87 281.99 436.74C281.99 436.74 281.99 436.74 281.99 436.73C281.98 432.61 285.92 429.26 290.78 429.26Z" id="e7cf5Nguav"></path><path d="M371.51 429.26C376.37 429.26 380.32 432.6 380.32 436.72C380.33 440.85 376.39 444.19 371.52 444.19C371.52 444.19 371.52 444.19 371.52 444.19C366.66 444.19 362.72 440.85 362.72 436.73C362.71 432.61 366.65 429.26 371.51 429.26Z" id="cdkOdAYK"></path><path d="M354.81 312.78C353.42 316.68 353.52 323.57 360.48 323.42C366.58 328.06 372.26 322.06 374.01 319C375.76 315.95 380.04 309.33 367.27 308.18C358.39 302.3 356.2 308.87 354.81 312.78Z" id="a45fyEcUGb"></path><path d="M373.14 303.99C370.08 304.9 368.36 306.15 367.38 308.31" id="a1aN1Dh3P1"></path><path d="M319.66 334.29C325.36 334.29 329.98 338.2 329.98 343.03C329.98 347.86 325.38 351.78 319.69 351.79C314 351.8 309.37 347.9 309.35 343.07C309.35 343.06 309.35 343.05 309.35 343.04C309.35 338.21 313.96 334.29 319.66 334.29Z" id="b2qhjlRAlS"></path><path d="M237.93 346.9L266.5 340.75L278.07 379.43L249.51 385.59L237.93 346.9Z" id="czvcoxwVu"></path><path d="M243.95 351.17L263.6 346.93L265.12 352L245.47 356.23L243.95 351.17Z" id="jqHzWfPtJ"></path><path d="M247.12 361.74L266.77 357.51" id="c1Lzhe5kT8"></path><path d="M248.76 367.25L268.42 362.99" id="a32aZ31SFN"></path><path d="M250.49 372.98L270.16 368.75" id="b23blI58kT"></path><path d="M252.14 378.53L259.85 376.87" id="b16eIxUg0L"></path><path d="M268.72 374.96L271.81 374.29" id="bcTcuuLpB"></path><path d="M219 259.08L292.91 229.22L316.01 270.37L242.1 300.21L219 259.08Z" id="d2u6NH7ycW"></path><path d="M244.56 291.13L251.91 272.87L265.61 275.04L270.99 252.52L284.23 254.39L288.08 238.51" id="aW0nX8dE"></path><path d="M251.12 269.76C253.03 268.99 255.3 269.67 256.21 271.29C257.11 272.9 256.3 274.83 254.4 275.6C252.5 276.37 250.23 275.68 249.32 274.07C248.41 272.45 249.22 270.52 251.12 269.76Z" id="b1kOMR1cK"></path><path d="M269.54 250.14C271.44 249.37 273.71 250.06 274.62 251.67C275.53 253.28 274.72 255.22 272.82 255.98C270.92 256.75 268.64 256.07 267.74 254.46C267.73 254.46 267.73 254.46 267.73 254.45C266.83 252.84 267.63 250.91 269.54 250.14Z" id="i7w9m8j3HP"></path><path d="M420.78 278.06C427.99 278.04 433.85 282.99 433.87 289.11C433.88 295.23 428.04 300.2 420.83 300.21C420.82 300.21 420.8 300.21 420.78 300.21C413.59 300.2 407.76 295.25 407.75 289.15C407.74 283.03 413.57 278.07 420.78 278.06Z" id="g1dCQGQH8U"></path><path d="M442.85 287.22C443.23 288.35 443.42 289.52 443.41 290.69C443.42 297.73 436.7 303.43 428.41 303.43C427.42 303.43 426.44 303.35 425.47 303.19" id="a1pccWUPDa"></path><path d="M412.89 297.56L407.88 305.16L428.55 307.99L426.29 299.11" id="b1bNsPR98a"></path><path d="M420.81 286.54C422.51 286.54 423.89 287.71 423.89 289.15C423.89 290.6 422.51 291.77 420.81 291.77C419.11 291.77 417.73 290.6 417.73 289.15C417.73 289.15 417.73 289.15 417.73 289.15C417.73 287.71 419.11 286.54 420.81 286.54Z" id="btHFOR5P"></path><path d="M442.02 283.93C443.72 283.93 445.1 285.1 445.1 286.54C445.1 287.98 443.72 289.15 442.02 289.15C440.32 289.15 438.94 287.98 438.94 286.54C438.94 286.54 438.94 286.54 438.94 286.54C438.94 285.1 440.32 283.93 442.02 283.93Z" id="a1l7eOZj5c"></path><path d="M191.47 205.88L210.78 210.31L191.76 270.04L172.43 265.61L191.47 205.88Z" id="c1LwvfaIM4"></path><path d="M178.59 246.35L189.22 248.78" id="d5ye0TAVeC"></path><path d="M175.21 256.94L185.85 259.37" id="b5dDlT723a"></path><path d="M181.96 235.75L192.6 238.19" id="a2RVdodrEf"></path><path d="M185.33 225.17L195.97 227.61" id="e78UjatDgY"></path><path d="M188.7 214.57L199.34 217.01" id="b1kLPp86Ou"></path><path d="M392.06 186.46L475.37 203.21L461.62 250.6L378.35 233.82L392.06 186.46Z" id="d51Z7Z1Rt"></path><path d="M443.44 234.3C447.66 235.17 450.26 238.77 449.24 242.35C448.22 245.93 443.98 248.13 439.76 247.27C439.76 247.27 439.76 247.27 439.76 247.27C435.54 246.4 432.94 242.8 433.96 239.22C434.98 235.64 439.23 233.44 443.44 234.3Z" id="a6mFyWxLk1"></path><path d="M436.28 244.71L431.04 256.31L438.36 254.9L443.06 258.6L444 245.97" id="cHzVzyOOl"></path><path d="M394.66 204.44L452.22 216.24" id="b4BQ9yEIpA"></path><path d="M391.33 216.02L426.09 223.13" id="hDH9X2KA3"></path><path d="M274.64 199.25L266.82 192.07L278.07 189.91L289.33 187.75L285.9 197.1L282.48 206.45L274.64 199.25Z" id="a8cddRTzp"></path><path d="M430.07 350.04L419.35 353.68L420.99 343.98L422.64 334.28L431.7 340.33L440.78 346.38L430.07 350.04Z" id="a3poRl3j4e"></path><path d="M347.7 228.47C350.79 228.47 353.29 230.6 353.29 233.22C353.29 235.84 350.79 237.96 347.7 237.96C344.61 237.96 342.1 235.84 342.1 233.22C342.1 233.22 342.1 233.22 342.1 233.22C342.1 230.6 344.61 228.47 347.7 228.47Z" id="i2tho2N2Xw"></path><path d="M191.34 307.99C194.43 307.99 196.94 310.11 196.94 312.73C196.94 315.36 194.43 317.48 191.34 317.48C188.25 317.48 185.74 315.36 185.74 312.73C185.74 312.73 185.74 312.73 185.74 312.73C185.74 310.11 188.25 307.99 191.34 307.99Z" id="a5C0dTcLQ"></path><path d="M312.36 464.82C334.81 464.82 347.28 464.82 349.78 464.82C349.78 464.82 349.95 497.62 349.78 510.53C349.78 515.85 312.37 515.24 312.37 510.53C312.37 504.43 312.36 489.2 312.36 464.82Z" id="b7FyChpK22"></path><path d="M332.23 389.36C353.79 389.36 371.24 409.11 371.24 433.47C371.24 457.83 353.79 477.58 332.23 477.58C310.66 477.58 293.21 457.83 293.21 433.47C293.21 409.11 310.66 389.36 332.23 389.36Z" id="a18c8fLnj9"></path><path d="M285.02 429.27C282.29 417.61 299.99 367.92 353.29 386.2C343.38 405.73 302.32 424.81 285.02 429.27Z" id="a2o3W4StHe"></path><path d="M377.46 429.27C389.4 414.85 361.89 384.91 331.35 385.6C323.84 388 348.24 421.12 377.46 429.27Z" id="a1hI7EuKX5"></path><path d="M397.43 155.1C403.13 155.09 407.75 159.01 407.76 163.84C407.76 168.67 403.15 172.59 397.45 172.6C397.45 172.6 397.44 172.6 397.44 172.6C391.75 172.6 387.13 168.69 387.13 163.86C387.12 159.03 391.73 155.11 397.43 155.1Z" id="a36DEzRcJo"></path><path d="M218.97 385.61C224.29 385.61 228.6 389.26 228.6 393.77C228.6 398.28 224.29 401.94 218.97 401.94C213.65 401.94 209.34 398.28 209.34 393.77C209.34 389.26 213.65 385.61 218.97 385.61Z" id="e1IYJWs0Z8"></path><path d="M428.26 385.58C431.36 385.57 433.87 387.7 433.87 390.32C433.87 392.95 431.37 395.08 428.27 395.08C428.27 395.08 428.27 395.08 428.27 395.08C425.18 395.08 422.67 392.96 422.67 390.34C422.67 390.34 422.67 390.33 422.67 390.33C422.66 387.71 425.17 385.58 428.26 385.58Z" id="g2yYj33hsQ"></path></defs><g><g><g><use xlink:href="#a26L4Deh6" opacity="1" fill="#faefe9" fill-opacity="1"></use><g><use xlink:href="#a26L4Deh6" opacity="1" fill-opacity="0" stroke="#000000" stroke-width="1" stroke-opacity="0"></use></g></g><g><use xlink:href="#a4I7EricoJ" opacity="1" fill="#ffffff" fill-opacity="1"></use><g><use xlink:href="#a4I7EricoJ" opacity="1" fill-opacity="0" stroke="#000000" stroke-width="1" stroke-opacity="0"></use></g></g><g><use xlink:href="#e1Hyzkuhcc" opacity="1" fill="#ffffff" fill-opacity="1"></use><g><use xlink:href="#e1Hyzkuhcc" opacity="1" fill-opacity="0" stroke="#000000" stroke-width="1" stroke-opacity="0"></use></g></g><g><use xlink:href="#a4oucsHh2" opacity="1" fill="#000000" fill-opacity="1"></use><g><use xlink:href="#a4oucsHh2" opacity="1" fill-opacity="0" stroke="#000000" stroke-width="1" stroke-opacity="0"></use></g></g><g><use xlink:href="#bjniz98DK" opacity="1" fill="#ffd98e" fill-opacity="1"></use><g><use xlink:href="#bjniz98DK" opacity="1" fill-opacity="0" stroke="#000000" stroke-width="1" stroke-opacity="0"></use></g></g><g><use xlink:href="#c2gy21iXCI" opacity="1" fill="#000000" fill-opacity="0"></use><g><use xlink:href="#c2gy21iXCI" opacity="1" fill-opacity="0" stroke="#ff8364" stroke-width="5.73" stroke-opacity="1"></use></g></g><g><use xlink:href="#f1QPgCR12d" opacity="1" fill="#000000" fill-opacity="0"></use><g><use xlink:href="#f1QPgCR12d" opacity="1" fill-opacity="0" stroke="#ff8364" stroke-width="5.73" stroke-opacity="1"></use></g></g><g><use xlink:href="#aGZ5xlmwe" opacity="1" fill="#d18c65" fill-opacity="1"></use><g><use xlink:href="#aGZ5xlmwe" opacity="1" fill-opacity="0" stroke="#000000" stroke-width="1" stroke-opacity="0"></use></g></g><g><use xlink:href="#ar9kxlB7A" opacity="1" fill="#d18c65" fill-opacity="1"></use><g><use xlink:href="#ar9kxlB7A" opacity="1" fill-opacity="0" stroke="#000000" stroke-width="1" stroke-opacity="0"></use></g></g><g><use xlink:href="#eFN3xKuaF" opacity="1" fill="#ff8364" fill-opacity="1"></use><g><use xlink:href="#eFN3xKuaF" opacity="1" fill-opacity="0" stroke="#000000" stroke-width="1" stroke-opacity="0"></use></g></g><g><use xlink:href="#e1qyKG2wYY" opacity="1" fill="#000000" fill-opacity="0"></use><g><use xlink:href="#e1qyKG2wYY" opacity="1" fill-opacity="0" stroke="#ffd98e" stroke-width="2.83" stroke-opacity="1"></use></g></g><g><use xlink:href="#c1Rs6ZFH7" opacity="1" fill="#6bd5e1" fill-opacity="1"></use><g><use xlink:href="#c1Rs6ZFH7" opacity="1" fill-opacity="0" stroke="#000000" stroke-width="1" stroke-opacity="0"></use></g></g><g><use xlink:href="#crz9n5i4R" opacity="1" fill="#dfdfdf" fill-opacity="1"></use><g><use xlink:href="#crz9n5i4R" opacity="1" fill-opacity="0" stroke="#000000" stroke-width="1" stroke-opacity="0"></use></g></g><g><use xlink:href="#a1QaVuvjpA" opacity="1" fill="#ff8364" fill-opacity="1"></use><g><use xlink:href="#a1QaVuvjpA" opacity="1" fill-opacity="0" stroke="#000000" stroke-width="1" stroke-opacity="0"></use></g></g><g><use xlink:href="#h2AfybT5mX" opacity="1" fill="#000000" fill-opacity="0"></use><g><use xlink:href="#h2AfybT5mX" opacity="1" fill-opacity="0" stroke="#6bd5e1" stroke-width="3.11" stroke-opacity="1"></use></g></g><g><use xlink:href="#aofddeWOn" opacity="1" fill="#000000" fill-opacity="0"></use><g><use xlink:href="#aofddeWOn" opacity="1" fill-opacity="0" stroke="#6bd5e1" stroke-width="3.11" stroke-opacity="1"></use></g></g><g><use xlink:href="#bbOJlEgka" opacity="1" fill="#000000" fill-opacity="0"></use><g><use xlink:href="#bbOJlEgka" opacity="1" fill-opacity="0" stroke="#6bd5e1" stroke-width="3.11" stroke-opacity="1"></use></g></g><g><use xlink:href="#a7D91HNd4s" opacity="1" fill="#000000" fill-opacity="0"></use><g><use xlink:href="#a7D91HNd4s" opacity="1" fill-opacity="0" stroke="#6bd5e1" stroke-width="3.11" stroke-opacity="1"></use></g></g><g><use xlink:href="#b5ZJkMKhUR" opacity="1" fill="#000000" fill-opacity="0"></use><g><use xlink:href="#b5ZJkMKhUR" opacity="1" fill-opacity="0" stroke="#6bd5e1" stroke-width="3.11" stroke-opacity="1"></use></g></g><g><use xlink:href="#a3buTMKE2c" opacity="1" fill="#dfdfdf" fill-opacity="1"></use><g><use xlink:href="#a3buTMKE2c" opacity="1" fill-opacity="0" stroke="#000000" stroke-width="1" stroke-opacity="0"></use></g></g><g><use xlink:href="#a1vui8BCS8" opacity="1" fill="#000000" fill-opacity="0"></use><g><use xlink:href="#a1vui8BCS8" opacity="1" fill-opacity="0" stroke="#ff8364" stroke-width="3.11" stroke-opacity="1"></use></g></g><g><use xlink:href="#bg5svcjgi" opacity="1" fill="#ffd98e" fill-opacity="1"></use><g><use xlink:href="#bg5svcjgi" opacity="1" fill-opacity="0" stroke="#000000" stroke-width="1" stroke-opacity="0"></use></g></g><g><use xlink:href="#a60BogZ2eO" opacity="1" fill="#ffd98e" fill-opacity="1"></use><g><use xlink:href="#a60BogZ2eO" opacity="1" fill-opacity="0" stroke="#000000" stroke-width="1" stroke-opacity="0"></use></g></g><g><use xlink:href="#b1woBen85O" opacity="1" fill="#ffd98e" fill-opacity="1"></use><g><use xlink:href="#b1woBen85O" opacity="1" fill-opacity="0" stroke="#000000" stroke-width="1" stroke-opacity="0"></use></g></g><g><use xlink:href="#bQ4sEW7Mp" opacity="1" fill="#000000" fill-opacity="0"></use><g><use xlink:href="#bQ4sEW7Mp" opacity="1" fill-opacity="0" stroke="#ff8364" stroke-width="3.11" stroke-opacity="1"></use></g></g><g><use xlink:href="#a1MY0haqCt" opacity="1" fill="#ffd98e" fill-opacity="1"></use><g><use xlink:href="#a1MY0haqCt" opacity="1" fill-opacity="0" stroke="#000000" stroke-width="1" stroke-opacity="0"></use></g></g><g><use xlink:href="#bHHRqWHPK" opacity="1" fill="#1b3c87" fill-opacity="1"></use><g><use xlink:href="#bHHRqWHPK" opacity="1" fill-opacity="0" stroke="#000000" stroke-width="1" stroke-opacity="0"></use></g></g><g><use xlink:href="#b5L7ehq0Lq" opacity="1" fill="#ffd98e" fill-opacity="1"></use><g><use xlink:href="#b5L7ehq0Lq" opacity="1" fill-opacity="0" stroke="#000000" stroke-width="1" stroke-opacity="0"></use></g></g><g><use xlink:href="#aFCnnrYWZ" opacity="1" fill="#ff8364" fill-opacity="1"></use><g><use xlink:href="#aFCnnrYWZ" opacity="1" fill-opacity="0" stroke="#000000" stroke-width="1" stroke-opacity="0"></use></g></g><g><use xlink:href="#a1jfYsQi6l" opacity="1" fill="#000000" fill-opacity="0"></use><g><use xlink:href="#a1jfYsQi6l" opacity="1" fill-opacity="0" stroke="#ffd98e" stroke-width="4.23" stroke-opacity="1"></use></g></g><g><use xlink:href="#b1bTR7k9r2" opacity="1" fill="#000000" fill-opacity="0"></use><g><use xlink:href="#b1bTR7k9r2" opacity="1" fill-opacity="0" stroke="#ffd98e" stroke-width="4.23" stroke-opacity="1"></use></g></g><g><use xlink:href="#bkF9K1f7Y" opacity="1" fill="#000000" fill-opacity="0"></use><g><use xlink:href="#bkF9K1f7Y" opacity="1" fill-opacity="0" stroke="#ffd98e" stroke-width="4.23" stroke-opacity="1"></use></g></g><g><use xlink:href="#ak0RvUf9G" opacity="1" fill="#000000" fill-opacity="0"></use><g><use xlink:href="#ak0RvUf9G" opacity="1" fill-opacity="0" stroke="#ffd98e" stroke-width="4.23" stroke-opacity="1"></use></g></g><g><use xlink:href="#c8dgqhizz" opacity="1" fill="#000000" fill-opacity="0"></use><g><use xlink:href="#c8dgqhizz" opacity="1" fill-opacity="0" stroke="#ffd98e" stroke-width="4.23" stroke-opacity="1"></use></g></g><g><use xlink:href="#a3k4uTYJO" opacity="1" fill="#dfdfdf" fill-opacity="1"></use><g><use xlink:href="#a3k4uTYJO" opacity="1" fill-opacity="0" stroke="#000000" stroke-width="1" stroke-opacity="0"></use></g></g><g><use xlink:href="#a1UXMRXaaA" opacity="1" fill="#ff8364" fill-opacity="1"></use><g><use xlink:href="#a1UXMRXaaA" opacity="1" fill-opacity="0" stroke="#000000" stroke-width="1" stroke-opacity="0"></use></g></g><g><use xlink:href="#asBrZu8s5" opacity="1" fill="#ff8364" fill-opacity="1"></use><g><use xlink:href="#asBrZu8s5" opacity="1" fill-opacity="0" stroke="#000000" stroke-width="1" stroke-opacity="0"></use></g></g><g><use xlink:href="#c2UcXsyGL3" opacity="1" fill="#000000" fill-opacity="0"></use><g><use xlink:href="#c2UcXsyGL3" opacity="1" fill-opacity="0" stroke="#6bd5e1" stroke-width="3.11" stroke-opacity="1"></use></g></g><g><use xlink:href="#a3Po6LzpLK" opacity="1" fill="#000000" fill-opacity="0"></use><g><use xlink:href="#a3Po6LzpLK" opacity="1" fill-opacity="0" stroke="#6bd5e1" stroke-width="3.11" stroke-opacity="1"></use></g></g><g><use xlink:href="#eVkIG40YD" opacity="1" fill="#6bd5e1" fill-opacity="1"></use><g><use xlink:href="#eVkIG40YD" opacity="1" fill-opacity="0" stroke="#000000" stroke-width="1" stroke-opacity="0"></use></g></g><g><use xlink:href="#cELvYFsu5" opacity="1" fill="#ffd98e" fill-opacity="1"></use><g><use xlink:href="#cELvYFsu5" opacity="1" fill-opacity="0" stroke="#000000" stroke-width="1" stroke-opacity="0"></use></g></g><g><use xlink:href="#d4DNmxRdN" opacity="1" fill="#000000" fill-opacity="0"></use><g><use xlink:href="#d4DNmxRdN" opacity="1" fill-opacity="0" stroke="#ff8364" stroke-width="3.11" stroke-opacity="1"></use></g></g><g><use xlink:href="#bhKdsf2S0" opacity="1" fill="#ffd98e" fill-opacity="1"></use><g><use xlink:href="#bhKdsf2S0" opacity="1" fill-opacity="0" stroke="#000000" stroke-width="1" stroke-opacity="0"></use></g></g><g><use xlink:href="#c3u0qObyh" opacity="1" fill="#d18c65" fill-opacity="1"></use><g><use xlink:href="#c3u0qObyh" opacity="1" fill-opacity="0" stroke="#000000" stroke-width="1" stroke-opacity="0"></use></g></g><g><use xlink:href="#a152e6NAdX" opacity="1" fill="#e49d75" fill-opacity="1"></use><g><use xlink:href="#a152e6NAdX" opacity="1" fill-opacity="0" stroke="#000000" stroke-width="1" stroke-opacity="0"></use></g></g><g><use xlink:href="#d2e3UUTVUu" opacity="1" fill="#000000" fill-opacity="1"></use><g><use xlink:href="#d2e3UUTVUu" opacity="1" fill-opacity="0" stroke="#000000" stroke-width="1" stroke-opacity="0"></use></g></g><g><use xlink:href="#d23xKZXlkt" opacity="1" fill="#000000" fill-opacity="1"></use><g><use xlink:href="#d23xKZXlkt" opacity="1" fill-opacity="0" stroke="#000000" stroke-width="1" stroke-opacity="0"></use></g></g><g><use xlink:href="#a7sDnFwHii" opacity="1" fill="#ffd98e" fill-opacity="1"></use><g><use xlink:href="#a7sDnFwHii" opacity="1" fill-opacity="0" stroke="#000000" stroke-width="1" stroke-opacity="0"></use></g></g><g><use xlink:href="#bnLYE9mBR" opacity="1" fill="#000000" fill-opacity="0"></use><g><use xlink:href="#bnLYE9mBR" opacity="1" fill-opacity="0" stroke="#6bd5e1" stroke-width="3.11" stroke-opacity="1"></use></g></g><g><use xlink:href="#g4y5cm4KX8" opacity="1" fill="#000000" fill-opacity="0"></use><g><use xlink:href="#g4y5cm4KX8" opacity="1" fill-opacity="0" stroke="#ff8364" stroke-width="3.11" stroke-opacity="1"></use></g></g><g><use xlink:href="#bY2URIQMF" opacity="1" fill="#000000" fill-opacity="1"></use><g><use xlink:href="#bY2URIQMF" opacity="1" fill-opacity="0" stroke="#000000" stroke-width="1" stroke-opacity="0"></use></g></g><g><use xlink:href="#a5JTTrHoPJ" opacity="1" fill="#ffd98e" fill-opacity="1"></use><g><use xlink:href="#a5JTTrHoPJ" opacity="1" fill-opacity="0" stroke="#000000" stroke-width="1" stroke-opacity="0"></use></g></g><g><use xlink:href="#a2GD6tfUSA" opacity="1" fill="#000000" fill-opacity="0"></use><g><use xlink:href="#a2GD6tfUSA" opacity="1" fill-opacity="0" stroke="#ff8364" stroke-width="5.73" stroke-opacity="1"></use></g></g><g><use xlink:href="#a18GxjQlwr" opacity="1" fill="#000000" fill-opacity="0"></use><g><use xlink:href="#a18GxjQlwr" opacity="1" fill-opacity="0" stroke="#ff8364" stroke-width="5.73" stroke-opacity="1"></use></g></g><g><use xlink:href="#e7cf5Nguav" opacity="1" fill="#d18c65" fill-opacity="1"></use><g><use xlink:href="#e7cf5Nguav" opacity="1" fill-opacity="0" stroke="#000000" stroke-width="1" stroke-opacity="0"></use></g></g><g><use xlink:href="#cdkOdAYK" opacity="1" fill="#d18c65" fill-opacity="1"></use><g><use xlink:href="#cdkOdAYK" opacity="1" fill-opacity="0" stroke="#000000" stroke-width="1" stroke-opacity="0"></use></g></g><g><use xlink:href="#a45fyEcUGb" opacity="1" fill="#ff8364" fill-opacity="1"></use><g><use xlink:href="#a45fyEcUGb" opacity="1" fill-opacity="0" stroke="#000000" stroke-width="1" stroke-opacity="0"></use></g></g><g><use xlink:href="#a1aN1Dh3P1" opacity="1" fill="#000000" fill-opacity="0"></use><g><use xlink:href="#a1aN1Dh3P1" opacity="1" fill-opacity="0" stroke="#ffd98e" stroke-width="2.83" stroke-opacity="1"></use></g></g><g><use xlink:href="#b2qhjlRAlS" opacity="1" fill="#6bd5e1" fill-opacity="1"></use><g><use xlink:href="#b2qhjlRAlS" opacity="1" fill-opacity="0" stroke="#000000" stroke-width="1" stroke-opacity="0"></use></g></g><g><use xlink:href="#czvcoxwVu" opacity="1" fill="#dfdfdf" fill-opacity="1"></use><g><use xlink:href="#czvcoxwVu" opacity="1" fill-opacity="0" stroke="#000000" stroke-width="1" stroke-opacity="0"></use></g></g><g><use xlink:href="#jqHzWfPtJ" opacity="1" fill="#ff8364" fill-opacity="1"></use><g><use xlink:href="#jqHzWfPtJ" opacity="1" fill-opacity="0" stroke="#000000" stroke-width="1" stroke-opacity="0"></use></g></g><g><use xlink:href="#c1Lzhe5kT8" opacity="1" fill="#000000" fill-opacity="0"></use><g><use xlink:href="#c1Lzhe5kT8" opacity="1" fill-opacity="0" stroke="#6bd5e1" stroke-width="3.11" stroke-opacity="1"></use></g></g><g><use xlink:href="#a32aZ31SFN" opacity="1" fill="#000000" fill-opacity="0"></use><g><use xlink:href="#a32aZ31SFN" opacity="1" fill-opacity="0" stroke="#6bd5e1" stroke-width="3.11" stroke-opacity="1"></use></g></g><g><use xlink:href="#b23blI58kT" opacity="1" fill="#000000" fill-opacity="0"></use><g><use xlink:href="#b23blI58kT" opacity="1" fill-opacity="0" stroke="#6bd5e1" stroke-width="3.11" stroke-opacity="1"></use></g></g><g><use xlink:href="#b16eIxUg0L" opacity="1" fill="#000000" fill-opacity="0"></use><g><use xlink:href="#b16eIxUg0L" opacity="1" fill-opacity="0" stroke="#6bd5e1" stroke-width="3.11" stroke-opacity="1"></use></g></g><g><use xlink:href="#bcTcuuLpB" opacity="1" fill="#000000" fill-opacity="0"></use><g><use xlink:href="#bcTcuuLpB" opacity="1" fill-opacity="0" stroke="#6bd5e1" stroke-width="3.11" stroke-opacity="1"></use></g></g><g><use xlink:href="#d2u6NH7ycW" opacity="1" fill="#dfdfdf" fill-opacity="1"></use><g><use xlink:href="#d2u6NH7ycW" opacity="1" fill-opacity="0" stroke="#000000" stroke-width="1" stroke-opacity="0"></use></g></g><g><use xlink:href="#aW0nX8dE" opacity="1" fill="#000000" fill-opacity="0"></use><g><use xlink:href="#aW0nX8dE" opacity="1" fill-opacity="0" stroke="#ff8364" stroke-width="3.11" stroke-opacity="1"></use></g></g><g><use xlink:href="#b1kOMR1cK" opacity="1" fill="#ffd98e" fill-opacity="1"></use><g><use xlink:href="#b1kOMR1cK" opacity="1" fill-opacity="0" stroke="#000000" stroke-width="1" stroke-opacity="0"></use></g></g><g><use xlink:href="#i7w9m8j3HP" opacity="1" fill="#ffd98e" fill-opacity="1"></use><g><use xlink:href="#i7w9m8j3HP" opacity="1" fill-opacity="0" stroke="#000000" stroke-width="1" stroke-opacity="0"></use></g></g><g><use xlink:href="#g1dCQGQH8U" opacity="1" fill="#ffd98e" fill-opacity="1"></use><g><use xlink:href="#g1dCQGQH8U" opacity="1" fill-opacity="0" stroke="#000000" stroke-width="1" stroke-opacity="0"></use></g></g><g><use xlink:href="#a1pccWUPDa" opacity="1" fill="#000000" fill-opacity="0"></use><g><use xlink:href="#a1pccWUPDa" opacity="1" fill-opacity="0" stroke="#ff8364" stroke-width="3.11" stroke-opacity="1"></use></g></g><g><use xlink:href="#b1bNsPR98a" opacity="1" fill="#ffd98e" fill-opacity="1"></use><g><use xlink:href="#b1bNsPR98a" opacity="1" fill-opacity="0" stroke="#000000" stroke-width="1" stroke-opacity="0"></use></g></g><g><use xlink:href="#btHFOR5P" opacity="1" fill="#1b3c87" fill-opacity="1"></use><g><use xlink:href="#btHFOR5P" opacity="1" fill-opacity="0" stroke="#000000" stroke-width="1" stroke-opacity="0"></use></g></g><g><use xlink:href="#a1l7eOZj5c" opacity="1" fill="#ffd98e" fill-opacity="1"></use><g><use xlink:href="#a1l7eOZj5c" opacity="1" fill-opacity="0" stroke="#000000" stroke-width="1" stroke-opacity="0"></use></g></g><g><use xlink:href="#c1LwvfaIM4" opacity="1" fill="#ff8364" fill-opacity="1"></use><g><use xlink:href="#c1LwvfaIM4" opacity="1" fill-opacity="0" stroke="#000000" stroke-width="1" stroke-opacity="0"></use></g></g><g><use xlink:href="#d5ye0TAVeC" opacity="1" fill="#000000" fill-opacity="0"></use><g><use xlink:href="#d5ye0TAVeC" opacity="1" fill-opacity="0" stroke="#ffd98e" stroke-width="4.23" stroke-opacity="1"></use></g></g><g><use xlink:href="#b5dDlT723a" opacity="1" fill="#000000" fill-opacity="0"></use><g><use xlink:href="#b5dDlT723a" opacity="1" fill-opacity="0" stroke="#ffd98e" stroke-width="4.23" stroke-opacity="1"></use></g></g><g><use xlink:href="#a2RVdodrEf" opacity="1" fill="#000000" fill-opacity="0"></use><g><use xlink:href="#a2RVdodrEf" opacity="1" fill-opacity="0" stroke="#ffd98e" stroke-width="4.23" stroke-opacity="1"></use></g></g><g><use xlink:href="#e78UjatDgY" opacity="1" fill="#000000" fill-opacity="0"></use><g><use xlink:href="#e78UjatDgY" opacity="1" fill-opacity="0" stroke="#ffd98e" stroke-width="4.23" stroke-opacity="1"></use></g></g><g><use xlink:href="#b1kLPp86Ou" opacity="1" fill="#000000" fill-opacity="0"></use><g><use xlink:href="#b1kLPp86Ou" opacity="1" fill-opacity="0" stroke="#ffd98e" stroke-width="4.23" stroke-opacity="1"></use></g></g><g><use xlink:href="#d51Z7Z1Rt" opacity="1" fill="#dfdfdf" fill-opacity="1"></use><g><use xlink:href="#d51Z7Z1Rt" opacity="1" fill-opacity="0" stroke="#000000" stroke-width="1" stroke-opacity="0"></use></g></g><g><use xlink:href="#a6mFyWxLk1" opacity="1" fill="#ff8364" fill-opacity="1"></use><g><use xlink:href="#a6mFyWxLk1" opacity="1" fill-opacity="0" stroke="#000000" stroke-width="1" stroke-opacity="0"></use></g></g><g><use xlink:href="#cHzVzyOOl" opacity="1" fill="#ff8364" fill-opacity="1"></use><g><use xlink:href="#cHzVzyOOl" opacity="1" fill-opacity="0" stroke="#000000" stroke-width="1" stroke-opacity="0"></use></g></g><g><use xlink:href="#b4BQ9yEIpA" opacity="1" fill="#000000" fill-opacity="0"></use><g><use xlink:href="#b4BQ9yEIpA" opacity="1" fill-opacity="0" stroke="#6bd5e1" stroke-width="3.11" stroke-opacity="1"></use></g></g><g><use xlink:href="#hDH9X2KA3" opacity="1" fill="#000000" fill-opacity="0"></use><g><use xlink:href="#hDH9X2KA3" opacity="1" fill-opacity="0" stroke="#6bd5e1" stroke-width="3.11" stroke-opacity="1"></use></g></g><g><use xlink:href="#a8cddRTzp" opacity="1" fill="#6bd5e1" fill-opacity="1"></use><g><use xlink:href="#a8cddRTzp" opacity="1" fill-opacity="0" stroke="#000000" stroke-width="1" stroke-opacity="0"></use></g></g><g><use xlink:href="#a3poRl3j4e" opacity="1" fill="#ffd98e" fill-opacity="1"></use><g><use xlink:href="#a3poRl3j4e" opacity="1" fill-opacity="0" stroke="#000000" stroke-width="1" stroke-opacity="0"></use></g></g><g><use xlink:href="#i2tho2N2Xw" opacity="1" fill="#000000" fill-opacity="0"></use><g><use xlink:href="#i2tho2N2Xw" opacity="1" fill-opacity="0" stroke="#ff8364" stroke-width="3.11" stroke-opacity="1"></use></g></g><g><use xlink:href="#a5C0dTcLQ" opacity="1" fill="#ffd98e" fill-opacity="1"></use><g><use xlink:href="#a5C0dTcLQ" opacity="1" fill-opacity="0" stroke="#000000" stroke-width="1" stroke-opacity="0"></use></g></g><g><use xlink:href="#b7FyChpK22" opacity="1" fill="#d18c65" fill-opacity="1"></use><g><use xlink:href="#b7FyChpK22" opacity="1" fill-opacity="0" stroke="#000000" stroke-width="1" stroke-opacity="0"></use></g></g><g><use xlink:href="#a18c8fLnj9" opacity="1" fill="#e49d75" fill-opacity="1"></use><g><use xlink:href="#a18c8fLnj9" opacity="1" fill-opacity="0" stroke="#000000" stroke-width="1" stroke-opacity="0"></use></g></g><g><use xlink:href="#a2o3W4StHe" opacity="1" fill="#000000" fill-opacity="1"></use><g><use xlink:href="#a2o3W4StHe" opacity="1" fill-opacity="0" stroke="#000000" stroke-width="1" stroke-opacity="0"></use></g></g><g><use xlink:href="#a1hI7EuKX5" opacity="1" fill="#000000" fill-opacity="1"></use><g><use xlink:href="#a1hI7EuKX5" opacity="1" fill-opacity="0" stroke="#000000" stroke-width="1" stroke-opacity="0"></use></g></g><g><use xlink:href="#a36DEzRcJo" opacity="1" fill="#ffd98e" fill-opacity="1"></use><g><use xlink:href="#a36DEzRcJo" opacity="1" fill-opacity="0" stroke="#000000" stroke-width="1" stroke-opacity="0"></use></g></g><g><use xlink:href="#e1IYJWs0Z8" opacity="1" fill="#000000" fill-opacity="0"></use><g><use xlink:href="#e1IYJWs0Z8" opacity="1" fill-opacity="0" stroke="#6bd5e1" stroke-width="3.11" stroke-opacity="1"></use></g></g><g><use xlink:href="#g2yYj33hsQ" opacity="1" fill="#000000" fill-opacity="0"></use><g><use xlink:href="#g2yYj33hsQ" opacity="1" fill-opacity="0" stroke="#ff8364" stroke-width="3.11" stroke-opacity="1"></use></g></g></g></g></svg>